<?xml version="1.0" standalone="no"?>
<!DOCTYPE svg PUBLIC "-//W3C//DTD SVG 20010904//EN"
 "http://www.w3.org/TR/2001/REC-SVG-20010904/DTD/svg10.dtd">
<svg version="1.0" xmlns="http://www.w3.org/2000/svg"
 width="1300.000000pt" height="838.000000pt" viewBox="0 0 1300.000000 838.000000"
 preserveAspectRatio="xMidYMid meet">
<metadata>
Created by potrace 1.16, written by Peter Selinger 2001-2019
</metadata>
<g transform="translate(0.000000,838.000000) scale(0.100000,-0.100000)"
fill="#000000" stroke="none">
<path d="M9675 7274 c-11 -3 -31 -7 -44 -10 -33 -7 -17 -19 27 -20 21 0 45 -4
55 -9 16 -6 18 -4 15 16 -3 24 -17 30 -53 23z"/>
<path d="M9508 7233 c-26 -6 -22 -23 5 -23 33 0 67 11 67 21 0 9 -41 10 -72 2z"/>
<path d="M9380 7190 c0 -12 37 -12 65 0 15 7 10 9 -22 9 -24 1 -43 -3 -43 -9z"/>
<path d="M9255 7160 c-4 -6 8 -10 29 -10 19 0 38 5 41 10 4 6 -8 10 -29 10
-19 0 -38 -4 -41 -10z"/>
<path d="M9731 7059 c-1 -131 7 -209 21 -209 6 0 7 50 3 137 -10 182 -23 221
-24 72z"/>
<path d="M9135 7130 c-4 -6 10 -10 34 -10 22 0 43 5 46 10 4 6 -10 10 -34 10
-22 0 -43 -4 -46 -10z"/>
<path d="M9000 7094 c-14 -7 -33 -14 -43 -14 -11 0 -17 -6 -15 -12 7 -21 36
-20 55 1 11 14 30 21 53 21 19 0 42 5 50 10 24 16 -71 10 -100 -6z"/>
<path d="M5530 7013 c0 -3 7 -14 16 -24 29 -32 29 -89 0 -149 -14 -29 -24 -56
-21 -59 3 -2 23 12 44 33 65 63 71 127 19 184 -20 20 -58 31 -58 15z"/>
<path d="M5390 6935 c0 -28 4 -35 19 -35 28 0 36 18 20 46 -19 36 -39 30 -39
-11z"/>
<path d="M5107 6944 c-22 -23 28 -124 62 -124 9 0 39 -16 68 -35 37 -25 53
-43 58 -65 9 -40 25 -28 25 19 0 30 -8 48 -41 85 -22 25 -47 46 -55 46 -20 0
-65 29 -89 58 -11 13 -24 20 -28 16z"/>
<path d="M5756 6868 c-2 -7 -9 -38 -15 -68 -7 -30 -17 -76 -23 -102 -7 -26 -8
-51 -4 -55 11 -11 46 35 46 61 0 12 9 50 21 84 17 50 19 65 9 77 -15 18 -29
19 -34 3z"/>
<path d="M5920 6858 c0 -13 -10 -62 -22 -110 -18 -68 -20 -90 -10 -100 15 -15
22 -8 32 34 5 18 17 63 28 100 18 63 18 68 2 83 -23 21 -30 19 -30 -7z"/>
<path d="M6077 6818 c-3 -35 -13 -78 -22 -96 -18 -34 -17 -63 1 -69 13 -4 51
93 60 154 6 40 -5 73 -26 73 -4 0 -10 -28 -13 -62z"/>
<path d="M5088 6764 c-15 -14 -8 -71 10 -87 10 -10 23 -17 28 -17 5 0 1 6 -8
13 -10 8 -18 31 -20 56 -2 24 -6 39 -10 35z"/>
<path d="M9768 6734 c-4 -6 -7 -68 -6 -138 2 -95 6 -126 15 -126 10 0 13 21
12 78 -2 104 -12 200 -21 186z"/>
<path d="M5409 6673 c-6 -7 -9 -20 -5 -28 9 -24 184 -17 200 7 5 9 8 20 5 23
-3 3 -47 7 -98 8 -66 2 -95 0 -102 -10z"/>
<path d="M8528 6324 c-5 -4 -8 -18 -8 -30 0 -22 4 -23 98 -26 106 -4 132 3
132 32 0 18 -7 20 -64 20 -35 0 -83 3 -107 6 -24 3 -47 2 -51 -2z"/>
<path d="M9010 6245 c0 -14 5 -25 10 -25 6 0 10 11 10 25 0 14 -4 25 -10 25
-5 0 -10 -11 -10 -25z"/>
<path d="M8824 6234 c-9 -34 42 -106 83 -117 47 -14 104 -68 112 -107 l8 -35
10 35 c5 19 7 46 3 60 -10 35 -64 87 -108 106 -43 17 -82 52 -82 71 0 23 -19
14 -26 -13z"/>
<path d="M8617 6113 c-13 -21 -38 -133 -35 -154 4 -33 43 -39 52 -7 17 64 3
194 -17 161z"/>
<path d="M8818 6059 c-10 -17 -18 -36 -18 -42 1 -17 39 -61 47 -53 3 3 -2 14
-11 25 -16 17 -16 22 -2 56 18 43 19 45 9 45 -5 0 -16 -14 -25 -31z"/>
<path d="M10304 5560 c1 -46 -4 -65 -22 -89 -20 -27 -21 -32 -7 -37 39 -15 58
-105 33 -159 -13 -30 -7 -39 21 -30 27 8 51 54 51 96 0 23 -9 40 -35 65 -19
18 -35 36 -35 39 0 4 11 20 25 37 39 46 31 115 -16 131 -14 4 -16 -4 -15 -53z"/>
<path d="M10630 5590 c-14 -26 0 -46 24 -37 20 8 21 31 2 46 -12 10 -17 8 -26
-9z"/>
<path d="M10158 5575 c-8 -18 -8 -28 1 -39 26 -31 52 5 35 48 -9 23 -23 20
-36 -9z"/>
<path d="M10491 5581 c-43 -43 -53 -78 -49 -180 2 -77 7 -101 23 -123 25 -34
50 -38 38 -5 -4 12 -8 76 -7 142 0 90 4 129 16 153 18 36 8 42 -21 13z"/>
<path d="M10976 5468 c-3 -7 -7 -29 -9 -48 -3 -19 -11 -65 -18 -102 -7 -37
-10 -70 -6 -74 12 -12 37 18 37 45 1 14 9 51 20 81 11 30 19 63 20 72 0 22
-38 45 -44 26z"/>
<path d="M11140 5445 c0 -19 -9 -62 -21 -95 -21 -62 -22 -101 -3 -107 7 -2 15
13 19 34 4 21 11 43 16 49 15 19 28 106 18 131 -13 34 -29 28 -29 -12z"/>
<path d="M10800 5413 c-7 -32 -19 -80 -27 -106 -12 -38 -12 -52 -3 -60 17 -17
37 14 50 80 7 30 18 69 25 86 15 38 10 57 -15 57 -15 0 -21 -13 -30 -57z"/>
<path d="M10628 5379 c3 -55 1 -88 -8 -105 -20 -37 -5 -40 30 -6 24 25 30 39
30 76 0 55 -13 92 -38 105 -18 9 -18 6 -14 -70z"/>
<path d="M10136 5325 c-8 -21 11 -65 28 -65 16 0 26 21 26 56 0 19 -5 24 -24
24 -13 0 -26 -7 -30 -15z"/>
<path d="M2091 3446 c-15 -18 -11 -51 7 -50 6 1 32 2 56 3 32 1 53 8 73 26
l28 24 -46 1 c-26 0 -60 3 -76 6 -20 4 -33 1 -42 -10z"/>
<path d="M2459 3445 c-4 -26 -1 -377 4 -381 3 -4 16 -4 29 -1 l23 6 -6 188
c-3 103 -6 189 -7 191 -4 4 -42 2 -43 -3z"/>
<path d="M3050 3278 c0 -24 -5 -61 -11 -83 -19 -70 -23 -118 -9 -113 20 6 74
168 66 196 -3 9 -15 23 -26 30 -19 11 -20 10 -20 -30z"/>
<path d="M2091 3294 c0 -11 3 -14 6 -6 3 7 2 16 -1 19 -3 4 -6 -2 -5 -13z"/>
<path d="M2706 3199 c-27 -113 -25 -147 8 -114 9 9 16 28 16 43 0 15 10 54 22
88 22 61 20 94 -5 94 -8 0 -23 -39 -41 -111z"/>
<path d="M2890 3275 c0 -19 -7 -55 -15 -79 -20 -57 -24 -118 -8 -123 9 -3 36
69 56 152 3 11 8 27 11 36 7 16 -16 49 -35 49 -5 0 -9 -16 -9 -35z"/>
<path d="M2235 3233 c7 -64 -6 -141 -27 -154 -19 -13 0 -11 25 2 59 30 78 122
36 180 -32 45 -42 37 -34 -28z"/>
<path d="M2054 3165 c-10 -25 10 -39 36 -25 26 14 22 34 -8 38 -13 2 -25 -3
-28 -13z"/>
<path d="M7277 1844 c-4 -4 -7 -17 -7 -29 0 -21 3 -22 76 -17 51 3 83 1 99 -8
29 -15 55 0 55 31 0 17 -8 19 -79 19 -43 0 -91 3 -107 6 -16 3 -32 2 -37 -2z"/>
<path d="M7135 1811 c-8 -25 1 -41 21 -41 11 0 14 8 12 27 -4 33 -24 41 -33
14z"/>
<path d="M7004 1802 c-40 -32 -54 -75 -54 -170 0 -76 3 -94 23 -122 34 -51 44
-48 37 11 -10 80 0 250 16 277 17 26 7 28 -22 4z"/>
<path d="M7614 1682 c3 -9 -1 -49 -10 -87 -26 -116 -28 -135 -11 -135 16 0 32
34 42 90 4 19 14 54 22 77 13 35 13 46 3 58 -18 22 -53 20 -46 -3z"/>
<path d="M7786 1675 c3 -13 -1 -46 -10 -72 -22 -68 -25 -138 -6 -138 9 0 17
14 21 35 4 19 15 65 25 101 15 56 16 70 5 83 -21 25 -42 20 -35 -9z"/>
<path d="M7950 1655 c0 -24 -9 -68 -21 -97 -21 -53 -19 -103 4 -95 6 2 15 19
19 38 3 19 13 52 22 74 24 63 19 125 -10 125 -10 0 -14 -13 -14 -45z"/>
<path d="M7139 1674 c-1 -5 -1 -43 1 -85 1 -43 -3 -86 -9 -98 -17 -32 12 -28
38 5 30 38 36 85 16 128 -17 36 -44 65 -46 50z"/>
<path d="M7365 1628 c-43 -118 -46 -161 -15 -178 17 -9 22 -7 30 15 13 35 13
175 0 175 -6 0 -13 -6 -15 -12z"/>
</g>
</svg>
