<?xml version="1.0" standalone="no"?>
<!DOCTYPE svg PUBLIC "-//W3C//DTD SVG 20010904//EN"
 "http://www.w3.org/TR/2001/REC-SVG-20010904/DTD/svg10.dtd">
<svg version="1.0" xmlns="http://www.w3.org/2000/svg"
 width="1000.000000pt" height="1200.000000pt" viewBox="0 0 1000.000000 1200.000000"
 preserveAspectRatio="xMidYMid meet">
<metadata>
Created by potrace 1.16, written by Peter Selinger 2001-2019
</metadata>
<g transform="translate(0.000000,1200.000000) scale(0.100000,-0.100000)"
fill="#000000" stroke="none">
<path d="M7297 10828 c-2 -117 -4 -242 -4 -278 0 -36 1 -2009 3 -4385 l4
-4320 23 2 c52 5 83 5 97 2 13 -4 15 512 15 4591 0 4078 -2 4595 -15 4595 -13
0 -16 -515 -20 -4555 -3 -3029 -8 -4554 -15 -4553 -7 2 -11 1528 -13 4546 l-2
4544 -25 11 c-14 7 -30 12 -35 12 -5 0 -11 -96 -13 -212z"/>
<path d="M7054 10316 c-8 -21 13 -46 38 -46 30 0 21 54 -10 58 -13 2 -25 -3
-28 -12z"/>
<path d="M5830 10144 c-64 -36 -80 -53 -102 -104 -38 -86 -18 -151 83 -268
l63 -74 13 26 c10 20 11 36 4 61 -6 21 -6 37 0 41 13 7 29 -4 29 -22 0 -8 5
-14 10 -14 15 0 12 53 -6 89 -9 17 -16 53 -17 78 0 40 4 50 29 70 35 27 47 28
80 6 22 -14 27 -14 35 -2 17 25 22 62 12 78 -40 64 -152 81 -233 35z"/>
<path d="M6037 9980 c-10 -16 -22 -30 -28 -30 -5 0 -9 -4 -9 -10 0 -5 13 -10
29 -10 35 0 48 -15 30 -36 -15 -18 -13 -20 33 -28 40 -7 56 5 33 24 -8 7 -26
36 -39 66 -14 30 -26 54 -28 54 -2 0 -12 -13 -21 -30z"/>
<path d="M6800 9820 c0 -23 45 -39 62 -22 16 16 -8 42 -38 42 -17 0 -24 -6
-24 -20z"/>
<path d="M6150 9720 c0 -5 5 -10 10 -10 6 0 10 5 10 10 0 6 -4 10 -10 10 -5 0
-10 -4 -10 -10z"/>
<path d="M5880 9667 c0 -7 -11 -24 -25 -37 -23 -21 -34 -50 -19 -50 3 0 17 14
31 30 13 17 31 30 40 30 20 0 12 34 -10 38 -9 2 -17 -3 -17 -11z"/>
<path d="M5964 9637 c-2 -7 7 -36 21 -65 22 -46 29 -52 55 -52 38 0 38 10 0
32 -31 18 -39 45 -18 66 10 10 10 15 -2 22 -21 14 -50 12 -56 -3z"/>
<path d="M6450 9350 c0 -11 5 -20 10 -20 6 0 10 9 10 20 0 11 -4 20 -10 20 -5
0 -10 -9 -10 -20z"/>
<path d="M6557 9363 c-13 -12 -7 -28 15 -42 19 -12 23 -11 35 4 9 14 10 22 2
32 -12 14 -41 18 -52 6z"/>
<path d="M5909 9309 c13 -11 26 -17 29 -14 8 8 -20 35 -37 35 -12 -1 -11 -5 8
-21z"/>
<path d="M6412 9297 c-27 -29 -28 -47 -2 -47 13 0 24 10 30 26 19 50 7 59 -28
21z"/>
<path d="M5960 9260 c0 -5 5 -10 11 -10 5 0 7 5 4 10 -3 6 -8 10 -11 10 -2 0
-4 -4 -4 -10z"/>
<path d="M6580 9230 c0 -19 3 -21 12 -12 9 9 9 15 0 24 -9 9 -12 7 -12 -12z"/>
<path d="M6429 9213 c-19 -39 -68 -105 -93 -125 -11 -9 -19 -18 -16 -20 3 -2
17 -12 33 -21 27 -17 27 -17 27 9 0 34 28 78 80 128 47 46 50 56 12 56 -21 0
-32 -7 -43 -27z"/>
<path d="M5988 9118 c-3 -62 -1 -117 4 -122 4 -6 8 19 8 55 0 78 8 109 26 109
26 0 27 29 3 50 -13 10 -27 19 -30 20 -4 0 -9 -51 -11 -112z"/>
<path d="M5550 9094 c0 -8 5 -12 10 -9 6 3 10 10 10 16 0 5 -4 9 -10 9 -5 0
-10 -7 -10 -16z"/>
<path d="M5956 8909 c-8 -42 -8 -49 3 -49 12 0 23 62 13 73 -5 5 -12 -5 -16
-24z"/>
<path d="M5460 8921 c0 -5 5 -13 11 -17 8 -4 10 -27 6 -66 -3 -32 -1 -119 4
-191 12 -184 -1 -349 -36 -457 -56 -170 -89 -246 -136 -312 -73 -102 -80 -118
-63 -148 7 -14 13 -33 14 -42 0 -13 8 -18 28 -18 28 0 87 -25 128 -55 21 -15
22 -14 29 22 4 20 15 49 24 63 10 14 31 52 48 85 64 127 124 237 145 265 26
36 56 38 130 10 l52 -19 15 21 c8 12 32 56 54 97 130 248 126 243 168 234 34
-7 39 13 13 53 -16 24 -15 28 56 165 54 107 69 144 61 152 -8 8 -54 12 -127
12 -104 0 -117 2 -131 20 -15 20 -15 20 -26 1 -31 -50 -46 -58 -100 -51 -45 5
-129 37 -177 66 -8 5 -24 13 -36 18 -11 5 -50 30 -87 56 -37 26 -67 42 -67 36z
m474 -396 c3 -9 -14 -47 -40 -88 -25 -39 -59 -94 -76 -122 -50 -79 -106 -147
-113 -136 -3 6 1 24 10 40 8 17 15 37 15 46 0 8 4 23 10 33 5 9 28 64 50 122
23 57 46 108 53 112 22 14 84 9 91 -7z"/>
<path d="M6304 8905 c-8 -20 13 -45 37 -45 26 0 30 13 13 38 -18 25 -42 29
-50 7z"/>
<path d="M5792 7958 c-15 -15 -15 -28 0 -28 6 0 19 -7 29 -16 21 -19 39 -11
39 17 0 12 -10 23 -26 29 -31 12 -28 12 -42 -2z"/>
<path d="M5241 7644 c0 -11 3 -14 6 -6 3 7 2 16 -1 19 -3 4 -6 -2 -5 -13z"/>
<path d="M5550 7480 c0 -19 7 -33 20 -40 43 -23 57 27 15 54 -33 22 -35 21
-35 -14z"/>
<path d="M5300 6992 c0 -10 5 -23 12 -30 7 -7 20 -12 30 -12 24 0 23 36 -1 50
-29 15 -41 12 -41 -8z"/>
<path d="M5057 6533 c-14 -13 -6 -42 13 -48 39 -12 57 25 21 45 -23 12 -26 12
-34 3z"/>
<path d="M4800 6031 c0 -19 26 -41 50 -41 6 0 10 12 8 28 -2 21 -9 28 -30 30
-23 3 -28 -1 -28 -17z"/>
<path d="M4550 5546 c0 -15 29 -36 50 -36 6 0 10 10 8 23 -4 27 -58 39 -58 13z"/>
<path d="M4294 5079 c-9 -14 22 -39 49 -39 13 0 18 6 15 23 -3 25 -51 37 -64
16z"/>
<path d="M4050 4590 c0 -18 26 -40 49 -40 15 0 14 33 -1 48 -19 19 -48 15 -48
-8z"/>
<path d="M3796 4123 c-5 -11 -1 -22 10 -30 26 -19 54 -16 54 5 0 38 -52 58
-64 25z"/>
<path d="M3547 3644 c-13 -13 -7 -23 23 -39 39 -20 42 -19 38 13 -2 20 -9 28
-28 30 -14 2 -29 0 -33 -4z"/>
<path d="M3299 3173 c-11 -13 -10 -18 10 -34 29 -24 46 -20 46 11 0 30 -38 46
-56 23z"/>
<path d="M3050 2685 c-17 -20 -5 -33 38 -41 25 -5 32 -3 32 9 0 15 -35 47 -51
47 -4 0 -12 -7 -19 -15z"/>
<path d="M2790 2211 c-11 -22 -8 -25 33 -35 35 -8 50 20 22 40 -26 19 -42 17
-55 -5z"/>
<path d="M2780 1999 c0 -5 5 -7 10 -4 6 3 10 8 10 11 0 2 -4 4 -10 4 -5 0 -10
-5 -10 -11z"/>
<path d="M5860 1770 c18 -12 88 -12 115 0 14 6 -4 9 -55 9 -52 1 -70 -2 -60
-9z"/>
<path d="M2544 1729 c-8 -14 30 -49 53 -49 10 0 13 9 11 28 -2 21 -9 28 -30
30 -14 2 -30 -2 -34 -9z"/>
<path d="M4968 1703 c23 -2 59 -2 80 0 20 2 1 4 -43 4 -44 0 -61 -2 -37 -4z"/>
<path d="M3835 1620 c-4 -6 20 -10 64 -10 41 0 71 4 71 10 0 6 -28 10 -64 10
-36 0 -68 -4 -71 -10z"/>
<path d="M2933 1564 c-34 -15 -6 -25 60 -22 39 2 72 8 72 13 0 10 -111 18
-132 9z"/>
<path d="M1870 1490 l-135 -5 -3 -57 -3 -58 2891 0 2890 0 0 55 c0 36 -4 57
-12 60 -19 6 -5470 11 -5628 5z"/>
<path d="M7698 498 c-41 -14 -36 -38 7 -38 28 0 35 4 35 19 0 26 -9 30 -42 19z"/>
<path d="M1367 484 c-15 -16 -5 -24 29 -24 24 0 34 4 32 13 -5 13 -50 22 -61
11z"/>
<path d="M5027 484 c-15 -15 -6 -24 24 -24 20 0 29 4 27 13 -5 14 -40 21 -51
11z"/>
<path d="M5427 484 c-15 -16 -5 -24 29 -24 24 0 34 4 32 13 -5 13 -50 22 -61
11z"/>
<path d="M6387 484 c-15 -16 -5 -24 29 -24 24 0 34 4 32 13 -5 13 -50 22 -61
11z"/>
<path d="M8767 483 c-15 -14 -6 -23 23 -23 20 0 30 5 30 15 0 15 -40 21 -53 8z"/>
<path d="M8927 483 c-15 -15 -5 -23 28 -23 26 0 33 3 29 15 -6 15 -45 21 -57
8z"/>
</g>
</svg>
