<?xml version="1.0" standalone="no"?>
<!DOCTYPE svg PUBLIC "-//W3C//DTD SVG 20010904//EN"
 "http://www.w3.org/TR/2001/REC-SVG-20010904/DTD/svg10.dtd">
<svg version="1.0" xmlns="http://www.w3.org/2000/svg"
 width="2938.000000pt" height="829.000000pt" viewBox="0 0 2938.000000 829.000000"
 preserveAspectRatio="xMidYMid meet">
<metadata>
Created by potrace 1.16, written by Peter Selinger 2001-2019
</metadata>
<g transform="translate(0.000000,829.000000) scale(0.100000,-0.100000)"
fill="#000000" stroke="none">
<path d="M24530 7620 c-8 -5 -49 -16 -90 -25 -85 -18 -186 -41 -375 -84 -71
-16 -147 -33 -167 -36 -21 -3 -40 -10 -44 -16 -8 -13 113 -1 141 14 11 6 43
14 70 18 28 4 91 17 140 29 50 12 115 26 146 30 30 4 65 12 77 19 29 15 79 14
85 -3 6 -14 -40 -110 -89 -188 -14 -21 -29 -49 -35 -61 -5 -12 -15 -31 -22
-42 -7 -11 -30 -52 -52 -90 -22 -39 -45 -79 -52 -90 -6 -11 -19 -33 -27 -50
-9 -16 -36 -66 -61 -110 -25 -44 -53 -93 -61 -110 -8 -16 -25 -48 -37 -70 -13
-22 -41 -71 -62 -110 -21 -38 -49 -88 -62 -110 -12 -22 -27 -49 -33 -60 -5
-11 -26 -47 -45 -80 -19 -33 -39 -70 -44 -82 -6 -11 -15 -24 -20 -28 -6 -3
-11 -13 -11 -22 0 -8 -9 -28 -20 -43 -11 -15 -37 -61 -59 -101 -63 -122 -90
-171 -100 -183 -5 -6 -22 -36 -38 -66 -27 -51 -105 -189 -159 -285 -13 -22
-35 -62 -49 -90 -14 -27 -35 -63 -45 -80 -10 -16 -31 -52 -45 -80 -14 -27 -34
-63 -45 -80 -10 -16 -33 -57 -50 -90 -17 -33 -40 -76 -52 -95 -11 -19 -32 -56
-45 -83 -14 -26 -29 -50 -34 -53 -5 -3 -9 -12 -9 -21 0 -9 -6 -24 -14 -32 -7
-9 -31 -47 -51 -86 -21 -38 -52 -95 -68 -125 -16 -30 -41 -72 -54 -93 -13 -21
-28 -48 -34 -60 -5 -12 -20 -40 -32 -62 -24 -41 -74 -130 -111 -200 -12 -22
-34 -59 -49 -82 -15 -24 -27 -47 -27 -52 0 -6 -13 -30 -30 -54 -16 -25 -30
-48 -30 -52 0 -4 -15 -33 -34 -64 -32 -53 -79 -136 -118 -210 -9 -19 -26 -44
-37 -55 -10 -12 -35 -52 -56 -91 -20 -38 -54 -99 -75 -135 -21 -36 -49 -85
-62 -110 -14 -25 -49 -88 -78 -140 -29 -52 -67 -120 -83 -150 -16 -30 -33 -59
-37 -65 -4 -5 -24 -41 -45 -80 -21 -38 -60 -110 -88 -160 -27 -49 -63 -115
-79 -145 -16 -30 -41 -65 -54 -78 l-25 -22 -7643 0 -7643 0 -27 21 c-26 21
-28 21 -41 3 -13 -18 -65 -19 -1630 -22 l-1617 -2 -27 29 c-26 28 -28 28 -39
10 -12 -18 -31 -19 -493 -19 -471 0 -481 0 -458 19 13 10 51 23 84 29 66 13
154 32 255 55 36 8 119 27 185 41 187 41 255 57 317 72 45 12 62 12 79 3 19
-10 25 -7 46 20 18 23 33 31 55 31 17 0 51 6 77 14 74 23 132 37 192 45 30 5
71 13 90 19 19 6 59 16 89 23 30 6 84 18 120 26 36 8 94 20 130 28 175 37 207
44 233 54 16 6 44 11 62 11 19 0 44 4 57 9 33 13 154 42 215 51 28 4 66 13 85
18 18 6 78 20 133 32 55 12 116 25 135 30 53 13 129 30 185 41 28 6 69 17 93
25 23 8 60 14 82 14 21 0 41 4 44 9 4 5 28 12 54 16 26 3 54 10 62 16 24 14
-54 11 -108 -5 -85 -25 -146 -39 -204 -46 -31 -4 -60 -10 -65 -13 -9 -6 -102
-28 -223 -53 -36 -7 -96 -20 -135 -29 -38 -9 -99 -22 -135 -30 -36 -8 -83 -19
-105 -24 -22 -6 -76 -18 -120 -27 -44 -8 -100 -22 -124 -30 -25 -8 -58 -14
-75 -14 -17 0 -51 -6 -76 -14 -74 -24 -182 -48 -339 -77 -29 -5 -61 -13 -70
-18 -9 -5 -38 -12 -66 -16 -27 -4 -59 -12 -70 -18 -11 -6 -45 -14 -75 -18 -64
-9 -368 -65 -390 -72 -8 -3 -60 -15 -115 -27 -55 -12 -127 -28 -160 -36 -59
-13 -240 -54 -360 -79 -33 -8 -91 -21 -130 -30 -90 -21 -190 -42 -285 -62 -76
-15 -108 -32 -96 -52 5 -7 696 -8 2291 -4 2163 6 2286 5 2304 -11 18 -16 21
-16 44 -2 22 15 943 16 10703 16 5873 -1 10685 -1 10692 0 22 0 13 28 -23 67
-19 21 -35 43 -35 48 0 6 -16 34 -35 64 -19 29 -35 55 -35 57 0 6 -75 124
-121 192 -16 23 -29 46 -29 51 0 4 -13 26 -28 47 -16 21 -47 71 -71 109 -23
39 -47 79 -54 90 -7 11 -30 49 -53 85 -76 123 -149 241 -164 268 -8 15 -26 43
-40 62 -26 36 -42 61 -60 95 -6 11 -18 32 -28 46 -9 15 -33 53 -52 84 -19 31
-42 68 -50 80 -36 56 -138 222 -164 269 -16 28 -32 53 -36 56 -7 5 -81 126
-118 193 -12 22 -28 48 -36 56 -7 9 -16 23 -20 31 -3 8 -14 27 -24 42 -14 22
-47 74 -125 203 -32 53 -103 165 -128 203 -16 24 -29 46 -29 51 0 4 -16 30
-35 57 -19 27 -35 54 -35 61 0 6 -3 13 -7 15 -9 4 -53 65 -53 73 0 3 -12 24
-27 48 -15 23 -32 50 -38 59 -16 27 -131 214 -199 325 -35 55 -79 126 -99 156
-21 31 -37 58 -37 61 0 4 -16 29 -35 56 -19 27 -35 53 -35 56 0 3 -13 25 -28
48 -15 22 -31 48 -35 56 -4 8 -15 27 -25 42 -18 28 -105 169 -136 221 -10 17
-27 42 -37 56 -10 13 -19 28 -19 32 0 5 -20 38 -45 75 -25 36 -45 68 -45 72 0
3 -20 36 -45 73 -25 37 -45 71 -45 77 0 5 -6 15 -14 21 -8 7 -24 31 -36 54
-12 23 -35 61 -51 85 -16 24 -29 45 -29 47 0 2 -21 37 -46 77 -41 63 -67 106
-121 193 -78 126 -101 162 -115 184 -10 14 -21 33 -25 41 -4 8 -19 33 -34 55
-15 22 -34 57 -42 78 -16 37 -35 45 -67 27z m81 -98 c5 -13 20 -39 32 -56 26
-36 41 -60 62 -101 9 -16 38 -64 65 -105 27 -41 88 -140 137 -220 48 -80 107
-174 130 -210 24 -36 43 -70 43 -77 0 -6 3 -13 8 -15 8 -4 52 -65 52 -73 0 -3
20 -36 43 -73 24 -37 56 -87 71 -112 35 -58 46 -76 76 -125 14 -22 30 -49 37
-60 7 -11 38 -62 70 -113 32 -52 67 -109 78 -127 30 -49 138 -223 155 -250 8
-13 38 -60 65 -105 28 -45 57 -92 65 -105 45 -71 137 -221 149 -244 15 -27
109 -175 142 -223 11 -15 19 -31 19 -36 0 -5 12 -27 28 -49 30 -44 27 -38 114
-181 35 -57 70 -114 78 -127 8 -13 35 -56 60 -96 25 -39 53 -83 62 -98 10 -14
23 -37 30 -51 7 -14 24 -41 38 -60 15 -19 30 -42 33 -50 4 -8 15 -27 25 -42 9
-15 37 -60 61 -100 24 -40 47 -75 51 -78 3 -3 16 -25 29 -50 13 -25 29 -49 37
-53 8 -4 14 -14 14 -20 0 -7 20 -44 45 -81 25 -38 45 -72 45 -75 0 -4 12 -24
27 -46 15 -22 35 -52 43 -66 8 -14 41 -68 73 -120 32 -52 63 -103 70 -114 7
-10 23 -37 37 -60 13 -22 29 -48 35 -57 60 -101 103 -170 127 -202 15 -21 28
-43 28 -47 0 -5 13 -28 29 -51 51 -75 121 -187 129 -205 7 -17 32 -57 118
-190 19 -28 34 -54 34 -57 0 -3 14 -25 31 -50 20 -30 29 -55 27 -73 l-3 -28
-2287 -3 -2286 -2 -30 25 c-26 22 -31 23 -42 10 -19 -23 -1228 -23 -1236 0 -4
8 41 98 102 207 59 106 120 216 135 243 14 28 41 74 58 103 17 29 31 55 31 57
0 2 20 38 45 79 25 42 45 79 45 81 0 2 23 42 50 89 28 47 50 87 50 90 0 3 16
33 36 66 33 57 39 62 65 58 30 -5 40 6 15 15 -29 11 -27 54 4 105 16 27 30 52
30 55 0 5 67 122 101 177 5 8 21 40 37 70 15 30 30 57 33 60 3 3 16 28 30 55
13 28 27 52 30 55 6 5 17 24 59 107 13 26 29 55 36 63 6 8 29 47 49 85 41 76
54 99 89 160 12 22 40 72 61 110 20 39 44 77 51 86 8 8 14 23 14 31 0 9 7 21
15 28 8 7 15 17 15 22 0 6 22 47 48 92 27 44 58 99 68 121 11 22 32 59 47 82
15 24 27 45 27 47 0 3 14 28 30 56 17 28 47 81 66 118 20 37 47 85 59 107 12
22 39 72 60 110 20 39 42 76 48 84 14 16 34 51 42 71 4 8 11 22 16 30 5 8 21
40 36 70 15 30 47 87 70 126 24 39 43 75 43 79 0 5 6 16 14 24 7 9 27 41 43
71 17 30 45 82 63 115 27 51 76 136 110 195 5 8 20 35 33 60 14 25 34 61 45
80 11 19 33 60 49 90 15 30 31 57 34 60 3 3 23 37 44 75 21 39 49 90 63 115
49 90 74 136 96 175 12 22 47 83 76 135 29 52 64 115 78 140 36 68 65 114 75
121 17 12 49 -4 58 -29z"/>
<path d="M24207 3692 c-32 -33 -37 -44 -37 -84 0 -38 6 -52 33 -83 27 -30 38
-36 62 -33 l30 4 -30 9 c-45 13 -64 43 -64 100 0 35 6 57 19 74 41 49 138 44
168 -9 9 -17 20 -30 25 -30 16 0 6 29 -20 59 -25 28 -33 31 -88 31 -57 0 -63
-2 -98 -38z"/>
<path d="M23294 3642 c-46 -34 -83 -81 -109 -142 -29 -65 -29 -295 -1 -360 31
-71 65 -110 113 -131 48 -21 108 -25 118 -9 3 6 15 10 25 10 27 0 87 56 112
104 57 109 -2 286 -104 311 -31 8 -37 -5 -12 -26 35 -29 44 -66 44 -181 0 -91
-3 -118 -17 -138 -26 -38 -66 -69 -86 -70 -29 0 -76 32 -98 66 -24 40 -35 160
-20 237 8 43 8 63 -1 76 -17 28 4 139 37 191 14 23 39 49 56 58 16 10 29 20
29 25 0 17 -50 5 -86 -21z"/>
<path d="M23477 3664 c-3 -4 0 -15 6 -26 10 -16 9 -21 -5 -29 -24 -14 -23 -51
3 -67 17 -11 25 -11 45 3 28 18 31 50 8 83 -17 25 -48 44 -57 36z"/>
<path d="M23744 3631 c-63 -62 -78 -120 -79 -291 0 -119 3 -154 19 -195 26
-68 72 -125 107 -132 16 -3 32 -10 35 -14 7 -12 84 -11 84 1 0 6 -19 10 -42
11 -36 0 -47 5 -67 30 -40 51 -53 106 -59 248 -7 179 9 291 49 336 34 38 35
45 10 45 -10 0 -36 -17 -57 -39z"/>
<path d="M23920 3663 c0 -5 14 -21 29 -36 38 -37 51 -111 51 -278 0 -164 -12
-241 -45 -291 l-26 -39 27 3 c37 4 89 72 110 145 13 43 15 87 12 197 -4 129
-6 146 -32 198 -29 61 -76 108 -107 108 -10 0 -19 -3 -19 -7z"/>
<path d="M22465 3584 c36 -28 61 -36 30 -10 -16 14 -34 26 -40 26 -5 -1 -1 -8
10 -16z"/>
<path d="M24391 3545 c-12 -21 -28 -35 -40 -35 -11 0 -23 -4 -26 -10 -4 -6 5
-10 20 -10 30 0 75 43 75 71 0 27 -5 24 -29 -16z"/>
<path d="M22565 3510 c16 -16 31 -27 34 -24 5 5 -47 54 -57 54 -3 0 7 -13 23
-30z"/>
<path d="M22610 3475 c0 -4 32 -39 72 -78 72 -72 75 -68 9 8 -38 43 -81 81
-81 70z"/>
<path d="M23388 3433 c7 -3 16 -2 19 1 4 3 -2 6 -13 5 -11 0 -14 -3 -6 -6z"/>
<path d="M22770 3294 c1 -17 50 -70 50 -53 0 8 -11 26 -25 39 -14 13 -25 19
-25 14z"/>
<path d="M22830 3206 c0 -8 5 -18 10 -21 6 -3 10 1 10 9 0 8 -4 18 -10 21 -5
3 -10 -1 -10 -9z"/>
<path d="M22860 3156 c0 -8 5 -18 10 -21 6 -3 10 1 10 9 0 8 -4 18 -10 21 -5
3 -10 -1 -10 -9z"/>
<path d="M22932 3020 c0 -14 2 -19 5 -12 2 6 2 18 0 25 -3 6 -5 1 -5 -13z"/>
<path d="M22958 2945 c2 -14 6 -25 8 -25 2 0 4 11 4 25 0 14 -4 25 -9 25 -4 0
-6 -11 -3 -25z"/>
<path d="M22990 2828 c0 -16 5 -28 10 -28 13 0 13 20 0 40 -8 12 -10 9 -10
-12z"/>
<path d="M23021 2695 c0 -42 2 -46 11 -28 7 15 7 30 0 50 -10 26 -10 24 -11
-22z"/>
<path d="M23730 7435 c-14 -8 -39 -14 -56 -15 -18 0 -54 -6 -80 -14 -50 -14
-114 -28 -214 -47 -30 -5 -59 -14 -64 -20 -15 -14 65 -11 95 4 14 8 50 17 80
20 29 4 72 14 94 22 22 8 57 14 78 15 20 0 45 4 55 9 9 6 38 13 64 16 26 3 50
10 53 16 10 15 -77 10 -105 -6z"/>
<path d="M23220 7323 c-25 -3 -49 -9 -55 -15 -13 -14 115 -2 129 12 7 7 3 9
-9 8 -11 -1 -40 -3 -65 -5z"/>
<path d="M23083 7291 c-59 -10 -65 -21 -12 -21 25 0 54 7 65 15 21 16 16 17
-53 6z"/>
<path d="M22936 7259 c-27 -4 -54 -13 -60 -20 -8 -9 -5 -10 14 -5 14 3 41 6
61 6 19 0 44 7 55 15 19 14 19 14 -1 14 -11 -1 -42 -5 -69 -10z"/>
<path d="M22730 7215 c-86 -25 -135 -36 -198 -45 -35 -5 -68 -12 -73 -16 -11
-6 -83 -24 -204 -48 -38 -8 -99 -22 -135 -30 -36 -9 -98 -23 -139 -31 -41 -8
-79 -19 -85 -24 -6 -5 -33 -11 -61 -14 -63 -7 -149 -25 -198 -43 -20 -8 -55
-14 -77 -14 -21 0 -51 -5 -67 -11 -15 -7 -48 -16 -73 -20 -73 -13 -204 -41
-220 -47 -8 -3 -42 -11 -75 -18 -158 -33 -192 -41 -212 -52 -12 -7 -42 -12
-67 -12 -25 0 -47 -4 -50 -9 -3 -4 -27 -11 -53 -15 -27 -3 -66 -13 -88 -21
-22 -8 -58 -14 -81 -15 -22 0 -49 -7 -60 -15 -17 -15 -15 -15 36 -9 30 3 66
11 80 17 14 6 50 14 80 18 54 7 95 17 194 45 26 8 62 14 80 14 17 0 51 6 76
14 73 23 169 45 333 76 26 5 62 13 80 19 57 18 160 42 217 51 57 9 145 29 215
49 22 6 54 11 70 11 17 0 50 6 75 14 62 19 124 34 195 47 33 5 68 14 77 20 10
5 31 9 48 9 16 0 47 6 67 14 21 8 61 18 88 21 28 4 58 11 67 16 9 5 43 13 75
19 78 12 183 37 191 44 10 11 -83 4 -128 -9z"/>
<path d="M20390 6690 c-17 -11 -10 -13 40 -10 56 3 73 19 20 20 -25 0 -52 -5
-60 -10z"/>
<path d="M20255 6658 c-22 -5 -67 -13 -100 -19 -32 -5 -64 -14 -69 -19 -6 -6
-24 -10 -40 -10 -17 0 -53 -8 -81 -16 -27 -9 -75 -20 -105 -25 -84 -12 -164
-31 -175 -41 -15 -15 78 -3 175 21 47 12 111 26 144 31 32 4 63 13 69 19 6 6
26 11 44 11 19 0 50 7 69 15 20 8 65 18 100 21 36 4 67 11 70 15 7 11 -48 10
-101 -3z"/>
<path d="M19578 6510 c-26 -5 -52 -11 -58 -15 -6 -4 -35 -11 -63 -15 -29 -5
-90 -18 -137 -30 -47 -11 -111 -24 -142 -29 -31 -5 -72 -14 -90 -19 -46 -14
-121 -32 -198 -48 -146 -29 -167 -34 -202 -45 -31 -10 -41 -9 -61 4 -22 14
-24 22 -23 79 1 35 -3 69 -7 76 -7 9 -145 12 -632 12 -541 0 -624 -2 -635 -15
-11 -13 -69 -15 -412 -15 l-399 0 5 -272 c2 -150 5 -289 7 -308 4 -31 1 -35
-26 -43 -16 -5 -38 -13 -47 -18 -10 -5 -28 -9 -40 -9 -13 0 -55 -9 -93 -20
-38 -11 -86 -20 -105 -20 -20 0 -44 -6 -55 -14 -11 -7 -40 -16 -65 -19 -67 -8
-218 -41 -226 -50 -4 -4 -24 -7 -45 -7 -21 0 -50 -5 -66 -11 -15 -6 -57 -18
-93 -26 -132 -29 -196 -42 -250 -53 -30 -6 -74 -18 -98 -26 -23 -8 -57 -14
-75 -14 -18 0 -45 -7 -61 -15 -15 -8 -45 -15 -65 -15 -20 0 -43 -5 -51 -11
-31 -21 218 16 253 38 7 4 37 11 67 15 30 4 93 17 140 28 47 12 114 26 150 31
36 6 69 15 75 20 5 5 21 9 36 9 14 0 45 7 68 15 23 8 65 17 94 21 29 4 57 10
62 14 6 4 35 11 65 15 30 4 60 11 65 15 6 4 35 11 65 15 30 4 70 13 89 21 18
8 52 14 75 14 23 0 51 7 62 15 24 18 75 19 100 1 17 -13 19 -29 21 -158 3
-126 19 -282 22 -206 1 14 4 33 7 42 7 17 44 22 44 6 0 -5 9 -10 20 -10 11 0
20 5 20 10 0 6 9 10 20 10 11 0 20 6 20 13 0 10 18 14 67 15 46 1 69 5 75 15
5 10 36 17 95 22 59 5 91 12 98 22 8 11 40 16 114 20 73 4 104 10 108 20 4 10
30 13 103 13 54 0 110 4 124 10 25 9 143 -5 158 -19 4 -3 8 -82 10 -176 3
-178 0 -192 -49 -243 -7 -7 -13 -18 -13 -24 0 -5 -9 -21 -20 -35 l-20 -26 -11
32 c-11 31 -27 39 -45 22 -5 -5 -20 -11 -34 -13 -20 -2 -26 -9 -28 -35 -2 -20
-9 -33 -17 -33 -26 0 -26 -20 0 -30 20 -7 26 -16 23 -33 -3 -19 -11 -23 -58
-29 -55 -8 -158 -24 -216 -34 -43 -8 -52 11 -21 44 13 15 27 38 29 52 3 14 7
32 9 40 3 10 -5 16 -22 18 -21 2 -31 -4 -48 -31 -11 -19 -21 -50 -21 -69 0
-20 -7 -41 -15 -48 -8 -7 -15 -21 -15 -31 0 -10 -4 -28 -9 -41 -6 -13 -20 -57
-31 -98 -12 -41 -28 -91 -35 -110 -30 -81 -45 -150 -45 -204 0 -52 28 -166 51
-208 5 -10 9 -26 9 -36 0 -10 5 -23 10 -28 6 -6 16 -32 24 -60 33 -119 73
-205 92 -197 20 7 18 27 -6 48 -12 11 -20 31 -20 51 l0 32 68 5 c37 2 92 11
122 20 64 19 168 13 177 -10 7 -18 -18 -97 -26 -84 -7 10 -70 3 -205 -21 -74
-14 -96 -32 -49 -42 82 -16 355 -2 373 19 6 7 11 41 13 76 l3 64 188 -2 c103
-1 191 -4 194 -8 17 -16 -35 -25 -158 -26 -74 -1 -148 -4 -165 -8 -27 -6 -24
-8 25 -14 30 -4 84 -7 118 -7 54 0 65 -3 69 -19 2 -10 17 -24 31 -31 15 -7 35
-16 44 -21 23 -12 65 -11 73 1 3 5 -2 21 -11 36 -16 24 -16 28 -2 57 17 35 46
122 58 177 4 19 13 49 19 65 5 17 20 63 32 102 21 70 21 74 5 120 -10 27 -20
59 -23 73 -2 14 -10 39 -18 55 -7 17 -20 57 -30 90 -9 33 -23 71 -30 85 -7 14
-15 41 -19 61 -4 21 -15 48 -24 60 -10 13 -24 50 -31 82 -8 37 -17 57 -27 57
-20 0 -19 -66 1 -74 23 -8 18 -36 -6 -36 -13 0 -23 10 -31 30 -5 17 -23 37
-38 45 -27 14 -29 13 -35 -5 -9 -29 -40 -43 -65 -30 -24 13 -19 25 21 45 34
18 37 35 9 60 -24 22 -25 38 -5 55 20 17 19 59 -2 82 -16 18 -16 21 1 49 16
28 16 32 2 54 -21 31 -20 64 1 87 15 17 15 20 -6 49 -14 18 -20 37 -16 47 4 9
9 40 11 67 7 72 11 82 29 59 8 -10 15 -14 15 -7 0 11 20 14 183 29 47 4 67 10
67 20 0 10 14 14 50 14 38 0 50 -4 50 -15 0 -10 10 -15 30 -15 20 0 30 5 30
15 0 12 22 15 128 17 159 2 176 1 180 -12 2 -5 24 -10 48 -10 39 0 44 -3 44
-22 0 -19 2 -20 10 -8 13 20 13 197 0 205 -14 8 -13 330 0 356 13 24 71 50
135 60 28 4 91 17 140 29 50 12 113 25 142 30 28 4 66 13 85 19 63 20 204 51
231 51 15 0 35 4 45 9 17 9 166 45 234 56 21 3 40 10 43 15 7 11 -19 11 -87 0z
m-1783 -659 c5 -9 -36 -61 -49 -61 -11 0 -6 20 10 45 17 26 29 31 39 16z
m-142 -116 c-6 -17 -25 -15 -31 3 -2 7 5 12 17 12 14 0 19 -5 14 -15z m7 -607
c0 -7 7 -26 15 -42 18 -34 14 -42 -14 -26 -15 8 -21 20 -21 45 0 19 5 35 10
35 6 0 10 -6 10 -12z m147 -814 c5 -15 -28 -27 -40 -15 -5 5 -6 14 -2 21 8 13
37 9 42 -6z m73 -29 c0 -8 -4 -15 -10 -15 -5 0 -10 7 -10 15 0 8 5 15 10 15 6
0 10 -7 10 -15z m-136 -10 c3 -9 -1 -18 -10 -22 -19 -7 -26 0 -18 21 8 20 20
21 28 1z"/>
<path d="M14968 5476 c-79 -17 -86 -29 -13 -21 75 8 95 14 95 26 0 11 -10 11
-82 -5z"/>
<path d="M14781 5435 c-18 -8 -46 -15 -62 -15 -17 0 -45 -7 -64 -15 -19 -7
-63 -17 -98 -21 -34 -4 -66 -10 -72 -14 -5 -4 -34 -11 -62 -15 -29 -4 -55 -11
-59 -16 -9 -15 69 -10 100 6 15 8 45 15 65 15 20 1 54 7 76 16 22 8 66 17 98
21 32 3 60 10 63 14 3 5 20 9 37 9 18 1 46 7 62 15 l30 13 -40 1 c-22 0 -55
-6 -74 -14z"/>
<path d="M14256 5319 c-27 -4 -54 -13 -59 -18 -6 -6 -32 -11 -58 -11 -26 0
-51 -4 -54 -10 -8 -13 70 -13 94 0 10 5 49 14 87 20 38 6 73 15 79 21 11 11
-18 10 -89 -2z"/>
<path d="M13985 5258 c-27 -5 -54 -14 -60 -20 -7 -8 -3 -9 15 -4 14 3 41 6 61
6 19 0 44 7 55 15 19 14 19 14 -1 14 -11 -1 -42 -6 -70 -11z"/>
<path d="M13799 5216 c-14 -7 -49 -15 -78 -18 -29 -3 -57 -10 -62 -15 -12 -12
85 -6 116 7 11 5 40 11 65 15 25 3 52 10 60 15 24 16 -71 12 -101 -4z"/>
<path d="M13550 5163 c-14 -2 -32 -7 -40 -10 -15 -7 -91 -24 -205 -46 -73 -14
-120 -44 -50 -32 22 4 58 11 80 17 22 5 64 14 94 19 29 5 61 14 70 18 9 5 39
12 66 16 64 8 96 25 45 23 -19 0 -46 -3 -60 -5z"/>
<path d="M13140 5069 c-25 -4 -83 -18 -130 -29 -47 -12 -107 -25 -135 -30 -27
-5 -70 -14 -95 -20 -25 -7 -67 -18 -95 -26 -27 -7 -74 -16 -102 -19 -29 -4
-55 -11 -59 -16 -3 -5 -21 -9 -40 -9 -19 0 -50 -6 -68 -14 -18 -7 -57 -17 -87
-21 -30 -4 -63 -12 -74 -18 -11 -6 -45 -14 -75 -18 -95 -13 -171 -29 -207 -44
-20 -8 -56 -15 -82 -15 -25 0 -55 -7 -65 -15 -11 -8 -36 -15 -55 -15 -20 0
-43 -5 -51 -11 -33 -22 203 16 249 40 11 6 39 11 63 11 24 0 56 7 72 15 15 8
41 15 57 15 17 0 45 6 63 14 19 8 64 17 100 21 37 4 69 11 72 16 3 5 20 9 39
9 19 0 46 5 62 11 15 6 58 18 96 25 37 8 97 21 135 29 37 7 99 21 137 29 39 8
83 19 98 25 16 6 42 11 60 11 17 0 49 6 72 14 22 8 57 17 78 21 21 3 35 10 32
16 -4 5 -9 8 -13 8 -4 -1 -27 -5 -52 -10z"/>
<path d="M17267 5054 c-13 -13 -7 -24 14 -24 11 0 19 5 17 12 -5 14 -22 21
-31 12z"/>
<path d="M11626 4729 c-56 -8 -102 -29 -64 -29 32 0 123 21 132 30 6 6 6 10 1
9 -6 -1 -37 -5 -69 -10z"/>
<path d="M11430 4686 c-14 -7 -50 -16 -80 -20 -30 -3 -73 -13 -95 -21 -22 -8
-57 -14 -77 -15 -20 0 -40 -4 -43 -10 -3 -5 -21 -10 -38 -10 -18 -1 -50 -7
-72 -16 -22 -8 -67 -17 -100 -21 -33 -3 -69 -12 -80 -19 -11 -8 -38 -14 -60
-14 -22 0 -47 -5 -55 -11 -23 -15 69 -5 175 20 50 12 116 26 149 30 32 5 63
14 69 20 6 6 26 11 44 11 19 0 49 6 68 14 18 8 60 17 92 21 32 3 67 10 78 15
11 5 41 11 67 15 26 3 50 10 53 16 9 14 -66 10 -95 -5z"/>
<path d="M10625 4509 c-27 -5 -58 -14 -67 -19 -10 -6 -32 -10 -50 -10 -18 0
-50 -6 -73 -14 -22 -7 -67 -19 -100 -26 -215 -43 -279 -57 -331 -75 -25 -8
-62 -15 -83 -15 -21 0 -41 -3 -45 -7 -4 -5 -33 -13 -64 -20 -31 -6 -93 -19
-137 -28 -44 -9 -84 -21 -90 -26 -5 -5 -27 -9 -48 -9 -22 0 -60 -6 -86 -14
-76 -24 -133 -37 -200 -47 -36 -5 -69 -13 -75 -19 -5 -5 -26 -10 -46 -10 -19
-1 -53 -7 -75 -15 -22 -8 -62 -17 -90 -21 -27 -3 -59 -10 -70 -14 -19 -9 -46
-15 -198 -44 -38 -7 -73 -18 -78 -23 -15 -15 90 -4 125 13 16 8 44 14 63 14
18 0 48 6 66 14 18 7 59 16 91 20 33 5 66 11 75 16 15 7 84 23 182 40 26 5 68
16 93 24 26 9 64 16 86 16 21 0 41 4 44 9 3 4 28 11 55 15 28 4 69 13 92 21
23 8 58 15 78 15 20 0 45 6 56 14 11 7 43 16 70 19 28 3 91 16 140 27 50 12
113 25 142 30 28 4 56 11 61 14 9 5 103 27 222 52 36 7 92 20 125 28 54 13
139 31 203 42 26 5 30 25 5 23 -10 -1 -40 -5 -68 -10z"/>
<path d="M8490 4030 c-8 -5 -45 -14 -82 -20 -37 -7 -70 -15 -73 -19 -6 -10 94
-2 120 9 11 5 47 14 79 20 33 5 62 12 64 15 10 9 -93 5 -108 -5z"/>
<path d="M8213 3970 c-13 -5 -23 -12 -23 -16 0 -9 113 6 125 17 12 12 -72 11
-102 -1z"/>
<path d="M8081 3939 c-13 -5 -21 -12 -18 -15 8 -9 106 6 113 17 7 12 -64 10
-95 -2z"/>
<path d="M7960 3913 c-19 -3 -39 -9 -45 -15 -13 -13 116 -1 130 13 9 9 -16 10
-85 2z"/>
<path d="M7815 3883 c-11 -3 -24 -9 -30 -13 -5 -4 -35 -10 -66 -14 -31 -3 -72
-13 -92 -21 -20 -8 -52 -15 -71 -15 -19 0 -45 -4 -58 -9 -13 -5 -68 -19 -123
-31 -55 -11 -118 -26 -140 -31 -22 -6 -60 -14 -85 -19 -140 -28 -219 -46 -226
-53 -4 -4 -22 -7 -40 -7 -17 0 -54 -6 -80 -14 -69 -19 -191 -48 -244 -57 -51
-9 -148 -32 -200 -48 -19 -6 -48 -11 -63 -11 -16 0 -43 -6 -60 -14 -18 -8 -50
-17 -72 -19 -22 -3 -80 -15 -130 -27 -49 -12 -114 -25 -144 -30 -79 -13 -93
-34 -17 -26 32 4 66 11 77 16 10 6 44 14 76 19 32 6 90 17 128 26 39 9 103 23
143 30 40 8 78 18 85 22 6 4 34 10 62 15 27 4 88 17 135 28 47 12 108 25 135
29 28 4 66 12 85 18 43 14 158 41 225 53 28 5 79 16 115 25 36 8 98 22 138 30
40 8 77 17 83 20 5 4 34 11 62 15 29 5 90 18 137 30 47 12 111 25 143 29 31 5
63 13 70 19 6 5 34 12 60 15 59 6 89 28 37 26 -19 -1 -44 -4 -55 -6z"/>
<path d="M5710 3408 l-25 -11 24 -5 c30 -5 89 6 96 18 8 14 -64 11 -95 -2z"/>
<path d="M17728 3399 c-19 -11 -25 -39 -8 -39 14 0 12 -36 -3 -48 -6 -6 -28
-12 -47 -14 -27 -2 -36 -8 -38 -25 -3 -18 3 -22 37 -28 45 -7 98 1 121 19 8 7
30 18 47 26 28 10 38 10 67 -4 46 -22 76 -20 109 8 l29 23 -53 7 c-38 5 -63
16 -94 42 -23 18 -45 34 -48 34 -3 0 -15 -10 -27 -22 -14 -16 -23 -19 -31 -11
-8 8 -8 13 0 17 35 22 -25 37 -61 15z"/>
<path d="M5593 3381 c-28 -4 -55 -10 -60 -15 -11 -12 114 1 135 14 15 8 15 9
-3 8 -11 0 -43 -4 -72 -7z"/>
<path d="M16590 3379 c0 -7 8 -18 18 -25 16 -13 16 -15 -2 -29 -10 -8 -16 -21
-13 -29 4 -9 2 -18 -3 -21 -24 -15 -5 -21 65 -22 l75 -2 -45 46 c-33 32 -43
49 -36 56 22 22 11 37 -24 37 -20 0 -35 -5 -35 -11z"/>
<path d="M16697 3351 l-28 -18 58 -5 c32 -3 59 -4 61 -3 6 5 -42 45 -52 44 -6
0 -24 -9 -39 -18z"/>
<path d="M5410 3341 c-8 -6 -37 -13 -65 -16 -27 -4 -58 -9 -67 -11 -22 -6 -24
-24 -3 -24 8 0 15 -2 15 -5 0 -12 -26 -51 -42 -63 -13 -9 -18 -27 -18 -58 0
-37 4 -46 23 -53 57 -21 89 39 46 85 l-23 25 29 24 c22 18 43 24 76 25 85 0
122 -60 105 -174 -6 -35 -16 -55 -43 -81 -20 -19 -42 -35 -50 -35 -24 0 -13
-20 15 -25 43 -9 55 -19 79 -61 30 -53 31 -148 2 -205 -28 -56 -73 -74 -142
-59 -49 10 -87 33 -87 52 0 4 9 17 20 28 29 29 27 77 -5 92 -19 8 -31 8 -50 0
-21 -10 -25 -18 -25 -56 0 -39 5 -50 44 -89 l45 -44 88 -6 c78 -5 93 -3 128
16 21 12 54 42 73 67 32 41 34 48 30 106 -4 72 -39 127 -94 150 -19 8 -34 19
-34 25 0 6 16 25 36 42 48 43 64 76 64 136 0 66 -30 101 -110 131 -69 26 -80
50 -22 50 20 0 44 5 52 10 11 7 3 10 -30 10 -25 0 -52 -4 -60 -9z"/>
<path d="M7242 3334 c-44 -19 -72 -49 -71 -76 0 -22 1 -22 12 -4 27 44 71 76
105 76 20 0 31 4 27 10 -8 13 -33 11 -73 -6z"/>
<path d="M18574 3333 c-3 -10 -10 -26 -16 -37 -12 -23 4 -36 45 -36 35 0 43
20 22 59 -17 34 -43 41 -51 14z"/>
<path d="M7330 3324 c0 -3 14 -19 30 -34 26 -24 30 -35 30 -78 0 -67 -33 -105
-94 -106 -49 -1 -93 19 -102 46 -6 21 -24 24 -24 4 0 -8 16 -28 35 -45 30 -26
44 -31 86 -31 35 0 51 4 55 15 4 8 12 15 19 15 14 0 38 33 50 68 11 37 -2 85
-34 120 -27 29 -51 41 -51 26z"/>
<path d="M17475 3311 c-3 -5 -18 -12 -33 -16 -15 -3 -38 -14 -52 -25 l-25 -20
123 0 c77 0 122 4 122 10 0 6 -8 13 -17 16 -10 3 -36 14 -58 25 -45 22 -52 23
-60 10z"/>
<path d="M6919 3253 c-44 -72 -63 -127 -36 -104 8 6 17 8 20 4 4 -3 7 -75 7
-158 0 -120 -3 -155 -14 -164 -14 -12 -174 -11 -231 0 -15 3 -20 -1 -20 -16 0
-19 8 -20 122 -23 l121 -3 11 -30 c7 -21 7 -40 -2 -66 -12 -35 -22 -45 -62
-58 -43 -14 12 -20 120 -15 103 5 108 7 77 19 -39 16 -52 37 -52 88 0 49 8 60
44 65 45 5 44 26 -1 30 l-38 3 -3 233 c-2 220 -3 232 -21 232 -11 0 -29 -16
-42 -37z"/>
<path d="M5767 3274 c-4 -4 -7 -76 -7 -160 0 -162 7 -187 41 -143 16 21 16 26
3 40 -11 12 -14 36 -12 90 l3 74 70 1 c76 1 124 18 168 58 38 36 35 49 -10 39
-49 -10 -168 -10 -213 0 -19 5 -39 5 -43 1z"/>
<path d="M16898 3263 c7 -3 16 -2 19 1 4 3 -2 6 -13 5 -11 0 -14 -3 -6 -6z"/>
<path d="M6800 3060 c0 -5 5 -10 10 -10 6 0 10 5 10 10 0 6 -4 10 -10 10 -5 0
-10 -4 -10 -10z"/>
<path d="M5865 3030 c-3 -5 3 -10 14 -10 12 0 21 5 21 10 0 6 -6 10 -14 10 -8
0 -18 -4 -21 -10z"/>
<path d="M5915 3030 c3 -5 14 -10 24 -10 10 0 32 -17 47 -37 28 -37 29 -42 29
-154 0 -111 -1 -117 -27 -151 -36 -47 -82 -63 -140 -48 -24 7 -51 19 -61 28
-9 8 -20 12 -24 8 -4 -4 6 -18 22 -31 30 -24 86 -32 170 -26 41 4 109 62 135
117 19 38 22 57 18 114 -6 81 -41 142 -103 177 -40 23 -102 32 -90 13z"/>
<path d="M6740 2969 c0 -5 5 -7 10 -4 6 3 10 8 10 11 0 2 -4 4 -10 4 -5 0 -10
-5 -10 -11z"/>
<path d="M6681 2874 c0 -11 3 -14 6 -6 3 7 2 16 -1 19 -3 4 -6 -2 -5 -13z"/>
<path d="M5726 2814 c-21 -20 -20 -55 2 -98 18 -38 38 -49 27 -17 -4 13 1 24
13 33 33 23 43 52 26 76 -18 26 -46 28 -68 6z"/>
<path d="M6272 2708 c-7 -7 -12 -25 -12 -41 0 -23 7 -31 36 -43 48 -20 64 -12
64 29 0 53 -55 88 -88 55z"/>
<path d="M3022 2635 c0 -16 2 -22 5 -12 2 9 2 23 0 30 -3 6 -5 -1 -5 -18z"/>
<path d="M2200 2125 c-69 -18 -169 -45 -224 -59 -54 -14 -106 -26 -117 -26
-10 0 -20 -4 -24 -9 -5 -10 35 -23 160 -55 281 -71 350 -86 361 -82 9 3 14 21
14 44 0 21 6 47 14 57 13 19 66 19 1992 27 1089 4 2526 12 3194 17 1571 14
8380 14 9417 1 439 -6 1548 -14 2464 -19 917 -5 1672 -12 1678 -15 6 -4 11
-30 11 -57 0 -70 -7 -69 185 -20 44 11 139 34 210 52 128 31 163 44 134 52
-28 8 -115 30 -149 37 -19 4 -71 18 -115 29 -123 34 -208 53 -235 55 -23 1
-25 -3 -30 -54 l-5 -55 -1620 0 c-891 0 -1888 4 -2215 8 -2088 28 -8522 26
-10645 -3 -1113 -15 -4260 -13 -4273 3 -6 7 -12 33 -14 57 -4 57 -7 57 -168
15z"/>
<path d="M12337 1483 c-24 -6 -16 -26 14 -33 13 -3 25 -13 27 -21 1 -8 -31
-149 -73 -314 -42 -164 -73 -305 -71 -312 7 -17 41 -17 53 0 12 17 29 72 43
140 12 62 34 83 73 73 37 -10 60 -53 58 -108 -2 -55 19 -104 50 -113 28 -9 34
0 21 29 -6 14 -8 48 -5 78 7 70 -5 92 -67 123 -28 14 -50 30 -50 35 0 6 -6 10
-14 10 -32 0 -30 32 10 175 40 145 54 218 43 232 -11 12 -73 16 -112 6z"/>
<path d="M11859 1451 c-19 -4 -44 -14 -56 -22 -89 -62 -113 -199 -35 -199 35
0 52 17 52 51 0 17 -9 32 -25 43 -31 21 -31 34 0 68 27 29 86 44 134 33 43 -9
87 -64 95 -117 14 -93 -23 -175 -138 -308 -54 -63 -65 -80 -48 -80 15 1 207
181 237 225 62 86 58 182 -9 253 -54 56 -112 71 -207 53z"/>
<path d="M12595 1222 c-35 -4 -37 -6 -15 -11 21 -6 25 -13 25 -47 0 -35 3 -39
26 -42 30 -4 52 18 52 53 0 28 -20 56 -37 53 -6 -1 -29 -3 -51 -6z"/>
<path d="M12833 1220 c-13 -5 -23 -15 -22 -22 0 -10 2 -10 6 0 7 17 39 15 58
-5 17 -17 16 -49 -5 -118 -27 -87 -62 -255 -57 -269 7 -18 42 -22 52 -6 4 6
22 72 41 147 18 75 42 153 53 173 l19 38 -37 36 c-38 37 -65 43 -108 26z"/>
<path d="M13120 1222 c0 -4 9 -15 20 -25 28 -24 26 -59 -16 -230 -20 -81 -34
-154 -30 -162 8 -21 43 -19 55 3 5 10 21 67 36 127 14 61 35 134 46 163 l19
54 -40 39 c-25 24 -49 39 -65 39 -14 0 -25 -3 -25 -8z"/>
<path d="M13395 1220 c-3 -5 -2 -10 4 -10 20 0 41 -33 41 -65 0 -38 -18 -110
-49 -199 -26 -73 -26 -107 -3 -137 25 -30 55 -20 46 15 -4 16 7 65 30 135 47
145 52 180 32 219 -23 45 -84 70 -101 42z"/>
<path d="M13048 1213 c6 -2 18 -2 25 0 6 3 1 5 -13 5 -14 0 -19 -2 -12 -5z"/>
<path d="M13328 1213 c6 -2 18 -2 25 0 6 3 1 5 -13 5 -14 0 -19 -2 -12 -5z"/>
<path d="M12778 1154 c-5 -4 -8 -19 -8 -33 0 -18 3 -22 11 -14 6 6 9 21 7 33
-1 12 -6 18 -10 14z"/>
<path d="M12079 905 l-14 -30 -118 -3 c-98 -2 -117 0 -117 12 0 30 -21 26 -60
-10 -27 -25 -40 -45 -38 -59 3 -19 10 -20 166 -23 93 -1 170 2 181 7 21 12 33
68 22 108 l-7 28 -15 -30z"/>
<path d="M12646 905 c-3 -8 -1 -15 4 -15 6 0 10 7 10 15 0 8 -2 15 -4 15 -2 0
-6 -7 -10 -15z"/>
<path d="M13550 894 c0 -8 5 -12 10 -9 6 3 10 10 10 16 0 5 -4 9 -10 9 -5 0
-10 -7 -10 -16z"/>
<path d="M12616 851 c-4 -7 -5 -15 -2 -18 9 -9 19 4 14 18 -4 11 -6 11 -12 0z"/>
<path d="M13520 839 c0 -5 5 -7 10 -4 6 3 10 8 10 11 0 2 -4 4 -10 4 -5 0 -10
-5 -10 -11z"/>
</g>
</svg>
