<?xml version="1.0" standalone="no"?>
<!DOCTYPE svg PUBLIC "-//W3C//DTD SVG 20010904//EN"
 "http://www.w3.org/TR/2001/REC-SVG-20010904/DTD/svg10.dtd">
<svg version="1.0" xmlns="http://www.w3.org/2000/svg"
 width="1317.000000pt" height="567.000000pt" viewBox="0 0 1317.000000 567.000000"
 preserveAspectRatio="xMidYMid meet">
<metadata>
Created by potrace 1.16, written by Peter Selinger 2001-2019
</metadata>
<g transform="translate(0.000000,567.000000) scale(0.100000,-0.100000)"
fill="#000000" stroke="none">
<path d="M2685 5214 c-496 -42 -920 -203 -1317 -501 -65 -49 -98 -80 -98 -93
0 -27 39 -61 67 -58 19 3 142 -140 743 -855 610 -727 719 -862 714 -882 -3
-13 -1 -33 6 -44 15 -29 75 -29 92 -1 13 20 24 20 1133 20 859 0 1124 -3 1133
-12 7 -7 12 -38 12 -70 l0 -58 34 0 c33 0 33 1 42 58 13 88 5 282 -17 437 -76
520 -309 985 -681 1357 -440 441 -1021 689 -1642 702 -94 2 -193 2 -221 0z
m482 -115 c509 -73 947 -292 1309 -653 196 -197 329 -381 447 -621 135 -274
218 -589 234 -892 l6 -113 -855 0 -855 0 -7 60 c-27 237 -205 446 -436 509
-132 37 -333 21 -439 -34 l-31 -16 0 54 c0 55 -24 152 -43 175 -22 27 -26 -6
-6 -58 16 -43 20 -70 16 -120 -3 -36 -8 -75 -12 -86 -6 -21 -4 -22 62 -20 58
1 78 -4 141 -33 68 -32 92 -36 77 -11 -13 21 -107 61 -163 69 l-57 7 39 17
c247 108 532 41 697 -163 71 -87 129 -230 129 -317 l0 -33 -258 0 c-243 0
-258 1 -269 19 -7 11 -26 21 -45 23 -30 3 -95 77 -755 863 l-723 860 38 34
c72 65 294 203 434 271 286 137 573 212 898 234 97 6 291 -5 427 -25z"/>
<path d="M3673 3950 c-49 -20 -75 -120 -53 -210 13 -55 39 -80 81 -80 67 0 89
36 89 145 0 86 -17 131 -56 145 -29 12 -32 12 -61 0z m59 -47 c14 -13 18 -31
18 -92 0 -107 -31 -149 -76 -100 -14 16 -18 36 -18 92 -1 104 29 143 76 100z"/>
<path d="M3190 3928 c0 -7 50 -35 110 -63 l110 -50 -110 -52 c-61 -28 -110
-57 -110 -62 0 -6 4 -11 9 -11 20 0 251 114 251 124 0 9 -235 126 -253 126 -4
0 -7 -6 -7 -12z"/>
<path d="M2861 3842 c-74 -37 -90 -137 -28 -172 24 -13 31 -13 72 1 38 14 46
14 56 3 15 -18 43 -18 59 1 17 20 5 32 -15 15 -12 -10 -16 -9 -21 5 -4 10 -2
25 5 34 21 30 42 83 38 99 -2 11 -11 1 -24 -28 -20 -41 -21 -43 -22 -17 -1 32
-41 77 -68 77 -10 0 -33 -8 -52 -18z m68 -16 c6 -8 14 -36 17 -63 6 -47 5 -49
-28 -67 -63 -34 -97 -8 -79 60 18 67 63 102 90 70z"/>
<path d="M3190 3620 c0 -6 50 -10 130 -10 80 0 130 4 130 10 0 6 -50 10 -130
10 -80 0 -130 -4 -130 -10z"/>
<path d="M9780 5214 c-19 -2 -80 -9 -135 -15 -413 -46 -859 -227 -1182 -480
-35 -27 -67 -49 -72 -49 -12 0 -31 -33 -31 -54 0 -26 39 -58 63 -53 19 5 126
-119 742 -853 652 -778 720 -862 717 -890 -5 -41 13 -60 54 -60 23 0 37 6 44
20 11 20 21 20 1135 20 l1124 0 12 -21 c6 -12 9 -44 7 -70 l-5 -49 38 0 39 0
0 51 c0 28 4 58 9 67 22 41 -21 418 -70 617 -260 1051 -1195 1797 -2284 1820
-93 2 -186 2 -205 -1z m480 -115 c688 -101 1284 -495 1649 -1089 197 -321 323
-729 333 -1080 l3 -105 -1127 -3 c-1108 -2 -1127 -2 -1138 17 -6 12 -23 21
-44 23 -30 3 -50 23 -199 200 l-166 196 37 25 c108 71 204 100 327 100 269 0
514 -189 570 -438 l7 -30 -29 27 c-35 33 -140 88 -170 88 -27 0 -31 -18 -5
-27 95 -32 182 -96 198 -145 9 -29 27 -21 52 22 25 45 87 91 151 112 25 8 47
20 49 26 11 35 -120 -14 -181 -67 l-36 -32 -7 28 c-30 137 -102 248 -218 336
-211 160 -510 171 -722 26 l-41 -28 -544 648 c-299 357 -544 654 -544 659 0
13 107 95 217 165 295 189 612 305 963 351 221 29 389 28 615 -5z"/>
<path d="M10763 3930 c-49 -20 -75 -120 -53 -210 13 -55 39 -80 81 -80 67 0
89 36 89 145 0 86 -17 131 -56 145 -29 12 -32 12 -61 0z m59 -47 c14 -13 18
-31 18 -92 0 -107 -31 -149 -76 -100 -14 16 -18 36 -18 92 -1 104 29 143 76
100z"/>
<path d="M10403 3820 c-68 -32 -123 -63 -123 -67 0 -9 236 -123 253 -123 4 0
7 5 7 11 0 5 -48 33 -107 62 l-108 51 107 51 c60 27 108 56 108 63 0 18 -4 16
-137 -48z"/>
<path d="M9951 3822 c-74 -37 -90 -137 -28 -172 24 -13 31 -13 72 1 38 14 46
14 56 3 15 -18 43 -18 59 1 17 20 5 32 -15 15 -12 -10 -16 -9 -21 5 -4 10 -2
25 5 34 21 30 42 83 38 99 -2 11 -11 1 -24 -28 -20 -41 -21 -43 -22 -17 -1 32
-41 77 -68 77 -10 0 -33 -8 -52 -18z m68 -16 c6 -8 14 -36 17 -63 6 -47 5 -49
-28 -67 -63 -34 -97 -8 -79 60 18 67 63 102 90 70z"/>
<path d="M945 5078 c-6 -20 -55 -257 -55 -268 0 -6 33 -10 79 -10 65 0 84 4
112 23 44 29 51 77 18 113 -12 13 -17 24 -11 24 22 0 52 40 52 69 0 45 -31 61
-118 61 -49 0 -74 -4 -77 -12z m136 -28 c49 -27 -2 -80 -77 -80 -36 0 -36 1
-30 31 3 17 6 38 6 45 0 17 71 19 101 4z m-16 -133 c24 -19 14 -60 -20 -75
-14 -7 -44 -12 -66 -12 l-41 0 7 43 c4 23 9 45 12 50 7 12 88 8 108 -6z"/>
<path d="M8025 5078 c-6 -20 -55 -257 -55 -268 0 -6 33 -10 79 -10 65 0 84 4
112 23 44 29 51 77 18 113 -12 13 -17 24 -11 24 22 0 52 40 52 69 0 45 -31 61
-118 61 -49 0 -74 -4 -77 -12z m136 -28 c49 -27 -2 -80 -77 -80 -36 0 -36 1
-30 31 3 17 6 38 6 45 0 17 71 19 101 4z m-16 -133 c24 -19 14 -60 -20 -75
-14 -7 -44 -12 -66 -12 l-41 0 7 43 c4 23 9 45 12 50 7 12 88 8 108 -6z"/>
<path d="M1165 4520 l-48 -49 24 -20 c13 -11 29 -20 34 -21 6 0 30 19 53 43
l42 43 -28 27 -28 27 -49 -50z"/>
<path d="M8270 4537 c-61 -55 -65 -64 -45 -87 10 -11 22 -20 27 -20 14 0 98
73 98 85 0 7 -10 21 -22 32 l-23 21 -35 -31z"/>
<path d="M1001 4343 c-22 -26 -41 -53 -41 -59 0 -7 12 -19 26 -29 27 -17 27
-17 65 26 21 24 38 49 39 55 0 6 -11 21 -24 33 l-23 22 -42 -48z"/>
<path d="M8086 4338 l-47 -53 26 -22 c14 -13 29 -23 34 -23 4 0 24 23 46 51
l38 50 -25 25 -25 26 -47 -54z"/>
<path d="M846 4133 l-36 -58 22 -17 c13 -10 28 -18 34 -18 10 0 74 93 74 107
0 6 -43 42 -52 43 -3 0 -23 -26 -42 -57z"/>
<path d="M7933 4134 l-37 -56 24 -19 c14 -10 30 -19 35 -19 6 0 25 23 43 52
34 53 33 66 -9 89 -16 8 -24 0 -56 -47z"/>
<path d="M717 3915 c-15 -31 -27 -57 -27 -60 0 -6 61 -37 65 -33 8 9 55 108
55 116 0 8 -43 32 -58 32 -4 0 -20 -25 -35 -55z"/>
<path d="M7811 3933 c-35 -71 -35 -80 -1 -98 18 -9 33 -15 34 -13 1 2 13 29
28 60 l27 57 -22 16 c-33 23 -45 19 -66 -22z"/>
<path d="M613 3680 l-22 -61 26 -10 c15 -5 32 -8 39 -5 13 5 51 112 43 121 -3
3 -19 7 -35 11 -28 5 -30 3 -51 -56z"/>
<path d="M7701 3684 c-24 -62 -20 -74 24 -77 26 -2 29 3 47 56 11 32 18 60 16
63 -3 2 -18 7 -35 10 -30 6 -31 4 -52 -52z"/>
<path d="M536 3448 c-18 -65 -16 -72 26 -82 25 -6 28 -3 37 31 26 101 27 95
-20 106 -24 6 -27 3 -43 -55z"/>
<path d="M7637 3503 c-8 -14 -30 -123 -26 -127 2 -2 18 -7 35 -10 l31 -7 16
63 c9 35 13 66 9 69 -12 11 -61 19 -65 12z"/>
<path d="M5485 3143 c-96 -165 -91 -153 -66 -153 13 0 28 14 42 40 22 39 23
40 81 40 l58 0 6 -40 c6 -34 10 -40 31 -40 21 0 24 3 19 28 -3 15 -12 70 -21
122 -23 140 -23 140 -48 140 -18 0 -37 -26 -102 -137z m104 -15 c1 -26 -2 -28
-39 -28 -22 0 -40 3 -40 6 0 3 15 32 33 64 l32 59 7 -37 c4 -20 7 -49 7 -64z"/>
<path d="M12575 3143 c-96 -165 -91 -153 -66 -153 13 0 28 14 42 40 22 39 23
40 81 40 l58 0 6 -40 c6 -34 10 -40 31 -40 21 0 24 3 19 28 -3 15 -12 70 -21
122 -23 140 -23 140 -48 140 -18 0 -37 -26 -102 -137z m104 -15 c1 -26 -2 -28
-39 -28 -22 0 -40 3 -40 6 0 3 15 32 33 64 l32 59 7 -37 c4 -20 7 -49 7 -64z"/>
<path d="M485 3213 c-4 -26 -9 -56 -11 -65 -4 -13 4 -19 31 -24 20 -3 38 -5
40 -2 2 2 5 33 7 68 l3 65 -32 3 c-31 3 -32 2 -38 -45z"/>
<path d="M7577 3243 c-3 -10 -8 -39 -12 -65 -6 -46 -6 -46 26 -53 21 -5 34 -3
39 5 10 16 21 111 14 121 -10 17 -62 10 -67 -8z"/>
<path d="M456 2979 c-3 -17 -6 -47 -6 -65 0 -32 2 -34 34 -34 30 0 34 4 40 31
3 17 6 47 6 65 0 32 -2 34 -34 34 -30 0 -34 -4 -40 -31z"/>
<path d="M7540 2945 l0 -65 35 0 c33 0 35 2 35 34 0 18 3 48 6 65 6 31 6 31
-35 31 l-41 0 0 -65z"/>
<path d="M450 2711 c0 -70 6 -81 46 -81 38 0 39 3 28 84 -6 44 -8 46 -40 46
-34 0 -34 0 -34 -49z"/>
<path d="M7540 2695 l0 -65 41 0 c33 0 40 3 35 16 -3 9 -6 38 -6 65 l0 49 -35
0 -35 0 0 -65z"/>
<path d="M2835 2628 c-67 -37 -105 -103 -105 -183 0 -49 4 -60 29 -86 61 -61
173 -24 220 73 37 77 20 172 -35 197 -31 14 -83 14 -109 -1z m78 -27 c59 -23
55 -132 -6 -196 -41 -44 -76 -52 -108 -26 -20 16 -24 28 -24 73 1 65 30 118
78 142 39 19 31 18 60 7z"/>
<path d="M9925 2628 c-67 -37 -105 -103 -105 -183 0 -49 4 -60 29 -86 61 -61
173 -24 220 73 37 77 20 172 -35 197 -31 14 -83 14 -109 -1z m78 -27 c59 -23
55 -132 -6 -196 -41 -44 -76 -52 -108 -26 -20 16 -24 28 -24 73 1 65 30 118
78 142 39 19 31 18 60 7z"/>
<path d="M5155 2538 c-13 -45 -16 -111 -3 -119 12 -8 58 -13 58 -6 0 1 5 29
10 62 7 45 7 61 -3 67 -19 12 -57 9 -62 -4z"/>
<path d="M12235 2489 c-8 -66 -1 -79 42 -79 19 0 22 8 30 63 9 68 5 77 -39 77
-25 0 -26 -3 -33 -61z"/>
<path d="M487 2513 c-15 -4 -17 -12 -12 -51 11 -80 13 -83 48 -80 31 3 32 4
29 48 -4 89 -11 97 -65 83z"/>
<path d="M7576 2513 c-16 -4 -18 -11 -12 -50 3 -25 6 -54 6 -65 0 -16 6 -19
38 -16 41 3 40 1 27 91 -6 48 -12 52 -59 40z"/>
<path d="M5117 2303 c-2 -5 -10 -32 -18 -61 -14 -56 -10 -66 32 -75 24 -6 26
-3 41 58 8 36 13 67 9 69 -17 9 -60 15 -64 9z"/>
<path d="M12191 2263 c-7 -26 -14 -56 -17 -65 -4 -13 3 -19 28 -26 18 -5 36
-8 39 -6 8 4 33 123 28 128 -2 2 -18 7 -35 10 -31 7 -32 6 -43 -41z"/>
<path d="M550 2271 c-31 -9 -35 -27 -17 -88 13 -41 18 -48 38 -45 47 5 48 7
31 76 -9 36 -18 66 -21 65 -3 -1 -17 -4 -31 -8z"/>
<path d="M7630 2271 c-29 -8 -29 -8 -12 -84 l14 -58 31 7 c18 3 34 8 36 10 8
7 -24 127 -34 130 -6 1 -21 -1 -35 -5z"/>
<path d="M5044 2054 c-4 -11 -13 -34 -20 -53 -20 -48 -18 -55 18 -69 17 -6 32
-11 33 -9 15 25 44 122 38 128 -4 4 -20 11 -35 14 -22 6 -29 3 -34 -11z"/>
<path d="M12113 2009 l-22 -60 32 -14 c18 -7 35 -11 38 -7 3 4 15 33 27 65
l22 58 -26 9 c-42 16 -48 12 -71 -51z"/>
<path d="M613 2030 c-28 -11 -28 -16 -3 -84 l21 -55 32 11 c18 6 33 12 35 13
7 5 -43 125 -52 124 -6 0 -21 -4 -33 -9z"/>
<path d="M7693 2028 l-21 -10 18 -54 c26 -74 26 -74 61 -62 27 9 30 14 25 39
-9 48 -34 99 -48 98 -7 0 -23 -5 -35 -11z"/>
<path d="M4931 1784 c-24 -55 -24 -57 -6 -70 35 -26 51 -17 77 44 l25 57 -21
12 c-38 22 -50 14 -75 -43z"/>
<path d="M12017 1784 c-16 -31 -27 -57 -25 -59 10 -8 48 -25 57 -25 6 0 24 25
39 56 26 55 27 56 8 70 -35 25 -51 16 -79 -42z"/>
<path d="M705 1798 c-11 -6 -21 -12 -23 -13 -2 -2 9 -28 25 -59 28 -58 44 -67
79 -42 19 14 18 15 -8 70 -29 58 -38 64 -73 44z"/>
<path d="M7793 1800 c-13 -5 -23 -12 -23 -14 0 -18 51 -116 60 -116 9 0 47 16
58 25 1 1 -9 27 -24 58 -26 58 -32 62 -71 47z"/>
<path d="M4812 1573 l-33 -57 23 -18 c13 -10 28 -18 33 -18 10 0 80 109 73
114 -19 13 -58 36 -60 36 -2 0 -18 -26 -36 -57z"/>
<path d="M11899 1573 l-32 -56 22 -19 c13 -10 27 -18 32 -18 11 0 69 90 69
107 0 7 -13 19 -29 28 l-30 15 -32 -57z"/>
<path d="M830 1583 c-14 -9 -27 -17 -28 -19 -6 -4 67 -114 75 -114 5 0 19 9
32 19 l24 18 -34 57 c-18 31 -36 56 -39 56 -3 0 -17 -8 -30 -17z"/>
<path d="M7918 1584 c-16 -8 -28 -18 -28 -21 0 -15 65 -113 75 -113 5 1 20 9
33 19 l22 19 -32 56 c-18 31 -35 56 -38 55 -3 0 -17 -7 -32 -15z"/>
<path d="M4668 1371 l-36 -49 28 -27 28 -27 42 56 42 56 -23 20 c-13 10 -28
19 -34 19 -5 0 -27 -22 -47 -48z"/>
<path d="M11756 1371 c-20 -27 -36 -51 -36 -54 0 -3 13 -15 28 -26 l29 -20 36
49 c20 27 37 54 37 59 0 10 -39 41 -51 41 -4 0 -23 -22 -43 -49z"/>
<path d="M972 1380 c-28 -23 -24 -40 22 -95 l35 -40 26 26 27 27 -38 50 c-22
28 -41 51 -44 51 -3 0 -15 -8 -28 -19z"/>
<path d="M8057 1377 l-29 -23 41 -52 c23 -29 45 -52 49 -52 5 0 18 11 30 23
l22 24 -41 51 c-22 29 -41 52 -42 52 -1 0 -15 -10 -30 -23z"/>
<path d="M4507 1185 c-38 -44 -38 -45 -20 -70 10 -13 23 -25 29 -25 6 0 29 22
52 49 l41 48 -23 22 c-12 11 -26 21 -32 21 -5 -1 -26 -21 -47 -45z"/>
<path d="M11590 1184 l-43 -45 26 -27 27 -26 45 44 c50 49 53 59 27 83 -27 24
-33 22 -82 -29z"/>
<path d="M1130 1185 l-24 -25 44 -45 c24 -25 49 -45 56 -45 6 0 19 12 29 26
17 26 17 27 -26 70 -24 24 -46 44 -49 44 -4 0 -17 -11 -30 -25z"/>
<path d="M8223 1191 c-13 -11 -23 -24 -23 -29 0 -11 79 -92 89 -92 4 0 18 11
30 24 l23 24 -48 46 c-26 25 -48 46 -48 46 -1 -1 -11 -9 -23 -19z"/>
<path d="M4350 1038 c-14 -11 -36 -29 -48 -39 l-24 -18 22 -31 22 -30 26 20
c15 11 40 31 57 44 l29 25 -24 26 c-28 30 -28 30 -60 3z"/>
<path d="M11412 1020 c-36 -32 -42 -42 -33 -58 23 -43 35 -43 84 -1 52 44 56
58 29 82 -25 23 -31 22 -80 -23z"/>
<path d="M1310 1015 c-27 -28 -23 -35 44 -83 l45 -32 21 30 c12 17 21 32 19
33 -2 2 -25 19 -51 40 -25 20 -48 37 -50 37 -3 0 -15 -11 -28 -25z"/>
<path d="M8399 1014 l-24 -26 40 -35 c62 -54 69 -56 93 -24 l21 29 -49 41
c-27 22 -50 41 -53 41 -2 0 -14 -12 -28 -26z"/>
<path d="M4140 880 c-25 -16 -49 -31 -54 -33 -9 -3 20 -67 30 -67 11 0 92 51
104 65 9 11 8 20 -7 39 -10 14 -20 25 -23 26 -3 0 -25 -14 -50 -30z"/>
<path d="M11218 876 c-53 -35 -56 -43 -29 -77 l19 -23 56 37 57 38 -21 29
c-12 17 -24 30 -28 29 -4 -1 -28 -15 -54 -33z"/>
<path d="M1508 865 c-10 -13 -18 -26 -18 -29 0 -6 107 -76 115 -76 5 0 35 55
35 64 0 5 -104 66 -111 66 -2 0 -12 -11 -21 -25z"/>
<path d="M8596 865 c-9 -13 -16 -28 -16 -32 0 -6 72 -52 110 -71 6 -3 44 58
38 62 -8 9 -106 66 -110 66 -3 0 -13 -11 -22 -25z"/>
<path d="M3923 752 c-55 -27 -63 -44 -39 -77 14 -19 16 -19 75 10 34 16 60 31
58 34 -1 3 -9 18 -16 34 -8 15 -17 27 -20 26 -3 0 -30 -12 -58 -27z"/>
<path d="M11007 749 l-57 -29 15 -30 c19 -36 23 -37 85 -5 54 27 59 38 32 72
l-17 21 -58 -29z"/>
<path d="M1720 730 c-7 -17 -11 -33 -8 -35 2 -2 30 -16 61 -29 l57 -26 15 30
c8 16 15 31 15 34 0 5 -108 56 -120 56 -4 0 -13 -14 -20 -30z"/>
<path d="M8810 741 c-18 -35 -11 -46 46 -74 31 -16 57 -27 59 -25 8 10 25 48
25 57 0 11 -90 61 -109 61 -6 0 -15 -9 -21 -19z"/>
<path d="M3695 648 c-27 -11 -52 -21 -54 -23 -6 -7 21 -65 30 -65 8 0 112 39
117 44 7 7 -22 66 -31 65 -7 -1 -34 -10 -62 -21z"/>
<path d="M10783 648 c-55 -22 -65 -38 -40 -72 13 -18 16 -17 75 4 34 13 62 25
62 27 0 11 -31 63 -38 62 -4 0 -31 -10 -59 -21z"/>
<path d="M1949 633 c-5 -14 -8 -31 -6 -37 5 -12 114 -52 122 -44 3 2 7 18 11
34 6 29 4 31 -51 52 -31 12 -59 22 -61 22 -3 0 -9 -12 -15 -27z"/>
<path d="M9033 626 l-11 -35 54 -21 c69 -25 72 -25 84 6 15 39 14 41 -42 60
-29 9 -58 19 -64 21 -6 2 -15 -12 -21 -31z"/>
<path d="M3465 573 c-33 -9 -61 -17 -62 -17 -1 -1 3 -18 9 -38 l10 -35 62 15
c33 8 62 16 64 17 6 5 -10 75 -17 74 -3 -1 -33 -8 -66 -16z"/>
<path d="M10552 571 c-63 -15 -63 -15 -56 -45 10 -46 9 -46 77 -27 60 16 62
18 59 46 -2 17 -6 33 -10 36 -4 3 -35 -1 -70 -10z"/>
<path d="M2182 548 c-8 -30 -7 -34 19 -45 15 -7 45 -15 67 -19 35 -5 40 -4 45
17 11 42 8 46 -40 58 -27 7 -56 14 -65 17 -13 4 -19 -3 -26 -28z"/>
<path d="M9275 568 c-3 -7 -6 -24 -7 -37 -3 -22 3 -26 55 -39 62 -16 71 -12
81 29 5 25 3 27 -42 38 -26 7 -55 14 -65 17 -9 3 -19 -1 -22 -8z"/>
<path d="M3217 517 c-45 -7 -57 -13 -53 -24 3 -8 6 -24 6 -35 0 -19 4 -19 63
-13 34 4 65 9 68 11 10 6 -3 74 -15 73 -6 -1 -37 -6 -69 -12z"/>
<path d="M10355 525 c-5 -2 -32 -6 -59 -10 -48 -6 -48 -7 -42 -38 3 -17 8 -32
10 -34 2 -3 32 -1 65 3 l62 7 -3 35 c-3 34 -12 44 -33 37z"/>
<path d="M2425 490 c-4 -17 -5 -33 -3 -35 7 -7 123 -23 131 -18 4 2 7 17 7 33
0 35 -2 36 -71 45 l-57 7 -7 -32z"/>
<path d="M9518 514 c-5 -4 -8 -20 -8 -35 0 -23 5 -28 38 -33 20 -4 49 -9 64
-12 23 -5 27 -1 33 26 4 18 3 36 -1 40 -12 12 -117 23 -126 14z"/>
<path d="M2670 456 c0 -32 2 -34 46 -40 88 -12 94 -10 94 28 0 39 -14 46 -92
46 -48 0 -48 0 -48 -34z"/>
<path d="M2920 450 l0 -39 68 6 c37 3 69 7 70 9 2 1 1 16 -3 33 -7 31 -7 31
-71 31 l-64 0 0 -40z"/>
<path d="M9760 456 c0 -32 2 -34 46 -40 81 -11 84 -10 84 28 0 38 -14 46 -87
46 -42 0 -43 -1 -43 -34z"/>
<path d="M10010 449 c0 -41 0 -41 31 -35 17 3 47 6 65 6 32 0 34 2 34 35 l0
35 -65 0 -65 0 0 -41z"/>
</g>
</svg>
