<?xml version="1.0" standalone="no"?>
<!DOCTYPE svg PUBLIC "-//W3C//DTD SVG 20010904//EN"
 "http://www.w3.org/TR/2001/REC-SVG-20010904/DTD/svg10.dtd">
<svg version="1.0" xmlns="http://www.w3.org/2000/svg"
 width="608.000000pt" height="567.000000pt" viewBox="0 0 608.000000 567.000000"
 preserveAspectRatio="xMidYMid meet">
<metadata>
Created by potrace 1.16, written by Peter Selinger 2001-2019
</metadata>
<g transform="translate(0.000000,567.000000) scale(0.100000,-0.100000)"
fill="#000000" stroke="none">
<path d="M2685 5214 c-496 -42 -920 -203 -1317 -501 -65 -49 -98 -80 -98 -93
0 -27 39 -61 67 -58 19 3 142 -140 743 -855 610 -727 719 -862 714 -882 -3
-13 -1 -33 6 -44 15 -29 75 -29 92 -1 13 20 24 20 1133 20 859 0 1124 -3 1133
-12 7 -7 12 -38 12 -70 l0 -58 34 0 c33 0 33 1 42 58 13 88 5 282 -17 437 -76
520 -309 985 -681 1357 -440 441 -1021 689 -1642 702 -94 2 -193 2 -221 0z
m482 -115 c509 -73 947 -292 1309 -653 196 -197 329 -381 447 -621 135 -274
218 -589 234 -892 l6 -113 -855 0 -855 0 -7 60 c-34 302 -292 530 -599 530
-128 0 -257 -40 -357 -110 l-25 -18 -547 652 -547 651 37 34 c72 65 294 203
434 271 286 137 573 212 898 234 97 6 291 -5 427 -25z m-157 -1739 c66 -20
163 -74 216 -120 104 -90 194 -271 194 -387 l0 -33 -258 0 c-243 0 -258 1
-269 19 -7 11 -26 21 -45 23 -28 3 -50 25 -176 173 -79 94 -152 183 -164 198
-20 27 -20 29 -2 43 37 28 160 82 214 93 30 6 64 13 75 15 36 8 149 -4 215
-24z"/>
<path d="M3241 3852 c-74 -37 -90 -137 -28 -172 24 -13 31 -13 72 1 38 14 46
14 56 3 15 -18 43 -18 59 1 17 20 5 32 -15 15 -12 -10 -16 -9 -21 5 -4 10 -2
25 5 34 21 30 42 83 38 99 -2 11 -11 1 -24 -28 -20 -41 -21 -43 -22 -17 -1 32
-41 77 -68 77 -10 0 -33 -8 -52 -18z m68 -16 c6 -8 14 -36 17 -63 6 -47 5 -49
-28 -67 -63 -34 -97 -8 -79 60 18 67 63 102 90 70z"/>
<path d="M945 5078 c-6 -20 -55 -257 -55 -268 0 -6 33 -10 79 -10 65 0 84 4
112 23 44 29 51 77 18 113 -12 13 -17 24 -11 24 22 0 52 40 52 69 0 45 -31 61
-118 61 -49 0 -74 -4 -77 -12z m136 -28 c49 -27 -2 -80 -77 -80 -36 0 -36 1
-30 31 3 17 6 38 6 45 0 17 71 19 101 4z m-16 -133 c24 -19 14 -60 -20 -75
-14 -7 -44 -12 -66 -12 l-41 0 7 43 c4 23 9 45 12 50 7 12 88 8 108 -6z"/>
<path d="M1165 4520 l-48 -49 24 -20 c13 -11 29 -20 34 -21 6 0 30 19 53 43
l42 43 -28 27 -28 27 -49 -50z"/>
<path d="M1001 4343 c-22 -26 -41 -53 -41 -59 0 -7 12 -19 26 -29 27 -17 27
-17 65 26 21 24 38 49 39 55 0 6 -11 21 -24 33 l-23 22 -42 -48z"/>
<path d="M846 4133 l-36 -58 22 -17 c13 -10 28 -18 34 -18 10 0 74 93 74 107
0 6 -43 42 -52 43 -3 0 -23 -26 -42 -57z"/>
<path d="M717 3915 c-15 -31 -27 -57 -27 -60 0 -6 61 -37 65 -33 8 9 55 108
55 116 0 8 -43 32 -58 32 -4 0 -20 -25 -35 -55z"/>
<path d="M613 3680 l-22 -61 26 -10 c15 -5 32 -8 39 -5 13 5 51 112 43 121 -3
3 -19 7 -35 11 -28 5 -30 3 -51 -56z"/>
<path d="M536 3448 c-18 -65 -16 -72 26 -82 25 -6 28 -3 37 31 26 101 27 95
-20 106 -24 6 -27 3 -43 -55z"/>
<path d="M5485 3143 c-96 -165 -91 -153 -66 -153 13 0 28 14 42 40 22 39 23
40 81 40 l58 0 6 -40 c6 -34 10 -40 31 -40 21 0 24 3 19 28 -3 15 -12 70 -21
122 -23 140 -23 140 -48 140 -18 0 -37 -26 -102 -137z m104 -15 c1 -26 -2 -28
-39 -28 -22 0 -40 3 -40 6 0 3 15 32 33 64 l32 59 7 -37 c4 -20 7 -49 7 -64z"/>
<path d="M485 3213 c-4 -26 -9 -56 -11 -65 -4 -13 4 -19 31 -24 20 -3 38 -5
40 -2 2 2 5 33 7 68 l3 65 -32 3 c-31 3 -32 2 -38 -45z"/>
<path d="M456 2979 c-3 -17 -6 -47 -6 -65 0 -32 2 -34 34 -34 30 0 34 4 40 31
3 17 6 47 6 65 0 32 -2 34 -34 34 -30 0 -34 -4 -40 -31z"/>
<path d="M450 2711 c0 -70 6 -81 46 -81 38 0 39 3 28 84 -6 44 -8 46 -40 46
-34 0 -34 0 -34 -49z"/>
<path d="M2835 2628 c-67 -37 -105 -103 -105 -183 0 -49 4 -60 29 -86 61 -61
173 -24 220 73 37 77 20 172 -35 197 -31 14 -83 14 -109 -1z m78 -27 c59 -23
55 -132 -6 -196 -41 -44 -76 -52 -108 -26 -20 16 -24 28 -24 73 1 65 30 118
78 142 39 19 31 18 60 7z"/>
<path d="M5155 2538 c-13 -45 -16 -111 -3 -119 12 -8 58 -13 58 -6 0 1 5 29
10 62 7 45 7 61 -3 67 -19 12 -57 9 -62 -4z"/>
<path d="M487 2513 c-15 -4 -17 -12 -12 -51 11 -80 13 -83 48 -80 31 3 32 4
29 48 -4 89 -11 97 -65 83z"/>
<path d="M5117 2303 c-2 -5 -10 -32 -18 -61 -14 -56 -10 -66 32 -75 24 -6 26
-3 41 58 8 36 13 67 9 69 -17 9 -60 15 -64 9z"/>
<path d="M550 2271 c-31 -9 -35 -27 -17 -88 13 -41 18 -48 38 -45 47 5 48 7
31 76 -9 36 -18 66 -21 65 -3 -1 -17 -4 -31 -8z"/>
<path d="M5044 2054 c-4 -11 -13 -34 -20 -53 -20 -48 -18 -55 18 -69 17 -6 32
-11 33 -9 15 25 44 122 38 128 -4 4 -20 11 -35 14 -22 6 -29 3 -34 -11z"/>
<path d="M613 2030 c-28 -11 -28 -16 -3 -84 l21 -55 32 11 c18 6 33 12 35 13
7 5 -43 125 -52 124 -6 0 -21 -4 -33 -9z"/>
<path d="M4931 1784 c-24 -55 -24 -57 -6 -70 35 -26 51 -17 77 44 l25 57 -21
12 c-38 22 -50 14 -75 -43z"/>
<path d="M705 1798 c-11 -6 -21 -12 -23 -13 -2 -2 9 -28 25 -59 28 -58 44 -67
79 -42 19 14 18 15 -8 70 -29 58 -38 64 -73 44z"/>
<path d="M4812 1573 l-33 -57 23 -18 c13 -10 28 -18 33 -18 10 0 80 109 73
114 -19 13 -58 36 -60 36 -2 0 -18 -26 -36 -57z"/>
<path d="M830 1583 c-14 -9 -27 -17 -28 -19 -6 -4 67 -114 75 -114 5 0 19 9
32 19 l24 18 -34 57 c-18 31 -36 56 -39 56 -3 0 -17 -8 -30 -17z"/>
<path d="M4668 1371 l-36 -49 28 -27 28 -27 42 56 42 56 -23 20 c-13 10 -28
19 -34 19 -5 0 -27 -22 -47 -48z"/>
<path d="M972 1380 c-28 -23 -24 -40 22 -95 l35 -40 26 26 27 27 -38 50 c-22
28 -41 51 -44 51 -3 0 -15 -8 -28 -19z"/>
<path d="M4507 1185 c-38 -44 -38 -45 -20 -70 10 -13 23 -25 29 -25 6 0 29 22
52 49 l41 48 -23 22 c-12 11 -26 21 -32 21 -5 -1 -26 -21 -47 -45z"/>
<path d="M1130 1185 l-24 -25 44 -45 c24 -25 49 -45 56 -45 6 0 19 12 29 26
17 26 17 27 -26 70 -24 24 -46 44 -49 44 -4 0 -17 -11 -30 -25z"/>
<path d="M4350 1038 c-14 -11 -36 -29 -48 -39 l-24 -18 22 -31 22 -30 26 20
c15 11 40 31 57 44 l29 25 -24 26 c-28 30 -28 30 -60 3z"/>
<path d="M1310 1015 c-27 -28 -23 -35 44 -83 l45 -32 21 30 c12 17 21 32 19
33 -2 2 -25 19 -51 40 -25 20 -48 37 -50 37 -3 0 -15 -11 -28 -25z"/>
<path d="M4140 880 c-25 -16 -49 -31 -54 -33 -9 -3 20 -67 30 -67 11 0 92 51
104 65 9 11 8 20 -7 39 -10 14 -20 25 -23 26 -3 0 -25 -14 -50 -30z"/>
<path d="M1508 865 c-10 -13 -18 -26 -18 -29 0 -6 107 -76 115 -76 5 0 35 55
35 64 0 5 -104 66 -111 66 -2 0 -12 -11 -21 -25z"/>
<path d="M3923 752 c-55 -27 -63 -44 -39 -77 14 -19 16 -19 75 10 34 16 60 31
58 34 -1 3 -9 18 -16 34 -8 15 -17 27 -20 26 -3 0 -30 -12 -58 -27z"/>
<path d="M1720 730 c-7 -17 -11 -33 -8 -35 2 -2 30 -16 61 -29 l57 -26 15 30
c8 16 15 31 15 34 0 5 -108 56 -120 56 -4 0 -13 -14 -20 -30z"/>
<path d="M3695 648 c-27 -11 -52 -21 -54 -23 -6 -7 21 -65 30 -65 8 0 112 39
117 44 7 7 -22 66 -31 65 -7 -1 -34 -10 -62 -21z"/>
<path d="M1949 633 c-5 -14 -8 -31 -6 -37 5 -12 114 -52 122 -44 3 2 7 18 11
34 6 29 4 31 -51 52 -31 12 -59 22 -61 22 -3 0 -9 -12 -15 -27z"/>
<path d="M3465 573 c-33 -9 -61 -17 -62 -17 -1 -1 3 -18 9 -38 l10 -35 62 15
c33 8 62 16 64 17 6 5 -10 75 -17 74 -3 -1 -33 -8 -66 -16z"/>
<path d="M2182 548 c-8 -30 -7 -34 19 -45 15 -7 45 -15 67 -19 35 -5 40 -4 45
17 11 42 8 46 -40 58 -27 7 -56 14 -65 17 -13 4 -19 -3 -26 -28z"/>
<path d="M3217 517 c-45 -7 -57 -13 -53 -24 3 -8 6 -24 6 -35 0 -19 4 -19 63
-13 34 4 65 9 68 11 10 6 -3 74 -15 73 -6 -1 -37 -6 -69 -12z"/>
<path d="M2425 490 c-4 -17 -5 -33 -3 -35 7 -7 123 -23 131 -18 4 2 7 17 7 33
0 35 -2 36 -71 45 l-57 7 -7 -32z"/>
<path d="M2670 456 c0 -32 2 -34 46 -40 88 -12 94 -10 94 28 0 39 -14 46 -92
46 -48 0 -48 0 -48 -34z"/>
<path d="M2920 450 l0 -39 68 6 c37 3 69 7 70 9 2 1 1 16 -3 33 -7 31 -7 31
-71 31 l-64 0 0 -40z"/>
</g>
</svg>
