<?xml version="1.0" standalone="no"?>
<!DOCTYPE svg PUBLIC "-//W3C//DTD SVG 20010904//EN"
 "http://www.w3.org/TR/2001/REC-SVG-20010904/DTD/svg10.dtd">
<svg version="1.0" xmlns="http://www.w3.org/2000/svg"
 width="7317.000000pt" height="2592.000000pt" viewBox="0 0 7317.000000 2592.000000"
 preserveAspectRatio="xMidYMid meet">
<metadata>
Created by potrace 1.16, written by Peter Selinger 2001-2019
</metadata>
<g transform="translate(0.000000,2592.000000) scale(0.100000,-0.100000)"
fill="#000000" stroke="none">
<path d="M12454 25394 l-31 -84 24 0 23 0 0 -495 0 -495 -74 0 c-41 0 -76 -4
-78 -9 -1 -5 -56 -11 -121 -13 l-117 -3 0 74 c0 66 -2 72 -17 66 -10 -4 -30
-10 -45 -13 -16 -2 -28 -11 -28 -19 0 -11 7 -14 25 -11 24 5 25 3 25 -48 l0
-54 -87 0 c-49 0 -230 -11 -403 -25 -3288 -256 -6315 -1880 -8361 -4485 -1449
-1844 -2311 -4066 -2483 -6399 -32 -422 -51 -889 -42 -1022 3 -57 9 -164 13
-236 l6 -133 -122 0 c-79 0 -120 -4 -116 -10 4 -6 55 -10 120 -10 l113 0 6
-72 c3 -40 15 -201 26 -358 53 -738 199 -1553 411 -2300 1232 -4324 4847
-7596 9264 -8385 418 -75 863 -131 1185 -150 58 -4 155 -11 215 -16 61 -5 143
-9 183 -9 l72 0 0 -45 c0 -41 -2 -45 -25 -45 -16 0 -25 -6 -25 -15 0 -12 15
-15 71 -15 52 0 70 3 67 13 -3 6 -14 13 -26 15 -19 3 -22 10 -22 45 l0 42 118
-3 c64 -2 119 -8 120 -13 5 -11 342 -12 342 -1 0 5 101 12 224 16 514 15 1155
82 1684 176 2849 506 5410 2044 7212 4330 1321 1677 2161 3682 2430 5800 33
263 80 773 80 873 0 25 3 27 46 27 32 0 44 4 42 13 -3 6 -14 13 -26 15 -21 3
-22 8 -22 129 0 112 -2 124 -16 119 -15 -6 -16 0 -10 46 3 29 9 101 12 161 l7
107 493 0 494 0 0 -26 c0 -14 3 -24 8 -22 4 2 44 16 88 33 l81 29 -86 33 c-47
18 -87 33 -88 33 -2 0 -3 -11 -3 -25 l0 -25 -494 0 -494 0 -5 93 c-3 50 -10
192 -16 314 -73 1611 -411 3055 -1041 4448 -1512 3343 -4520 5815 -8083 6641
-728 169 -1571 279 -2289 301 -126 3 -228 10 -228 15 0 4 -36 8 -80 8 l-80 0
0 495 0 495 30 0 30 0 -18 38 c-11 20 -25 55 -32 77 -7 22 -15 43 -19 47 -3 4
-20 -31 -37 -78z m-134 -1115 c0 -5 34 -9 75 -9 l75 0 0 -1155 0 -1155 -75 0
c-73 0 -75 -1 -75 -25 0 -24 2 -25 75 -25 l75 0 0 -1160 0 -1160 -75 0 c-68 0
-75 -2 -75 -20 0 -18 7 -20 75 -20 l75 0 0 -1160 0 -1160 -75 0 c-68 0 -75 -2
-75 -20 0 -18 7 -20 75 -20 l75 0 0 -1160 0 -1160 -75 0 c-68 0 -75 -2 -75
-20 0 -18 7 -20 75 -20 l75 0 0 -1160 0 -1160 -43 0 c-106 0 -227 -13 -227
-25 0 -12 121 -25 227 -25 l43 0 0 -130 c0 -103 3 -130 14 -130 13 0 26 102
26 211 l0 46 113 6 c61 4 583 7 1160 7 l1047 0 0 -80 c0 -73 2 -80 20 -80 18
0 20 7 20 80 l0 80 1160 0 1160 0 0 -80 c0 -73 2 -80 20 -80 18 0 20 7 20 80
l0 80 1160 0 1160 0 0 -80 c0 -79 0 -80 25 -80 25 0 25 1 25 80 l0 80 1160 0
1160 0 0 -80 c0 -73 2 -80 20 -80 18 0 20 7 20 80 l0 80 1158 0 1159 0 6 -122
c11 -204 11 -208 -18 -208 -16 0 -25 -6 -25 -16 0 -12 7 -15 26 -11 19 3 24 1
20 -10 -3 -8 -6 -55 -6 -104 0 -82 -1 -89 -20 -89 -11 0 -20 -7 -20 -15 0 -9
9 -15 21 -15 17 0 20 -5 15 -27 -3 -16 -15 -149 -26 -298 -234 -3073 -1699
-5966 -4050 -7996 -1920 -1659 -4299 -2649 -6820 -2839 -318 -24 -713 -39
-718 -28 -2 4 -39 8 -83 8 l-79 0 0 1155 0 1155 80 0 c79 0 80 0 80 25 0 25
-1 25 -80 25 l-80 0 0 1160 0 1160 80 0 c73 0 80 2 80 20 0 18 -7 20 -80 20
l-80 0 0 1160 0 1160 80 0 c73 0 80 2 80 20 0 18 -7 20 -80 20 l-80 0 0 1160
0 1160 80 0 c73 0 80 2 80 20 0 18 -7 20 -80 20 l-80 0 0 851 c0 676 -3 850
-12 847 -10 -4 -14 -185 -16 -851 l-2 -847 -75 0 c-68 0 -75 -2 -75 -20 0 -18
7 -20 75 -20 l75 0 0 -1160 0 -1160 -75 0 c-68 0 -75 -2 -75 -20 0 -18 7 -20
75 -20 l75 0 0 -1160 0 -1160 -75 0 c-68 0 -75 -2 -75 -20 0 -18 7 -20 75 -20
l75 0 0 -1160 0 -1160 -75 0 c-73 0 -75 -1 -75 -25 0 -24 2 -25 75 -25 l75 0
0 -1155 0 -1155 -74 0 c-41 0 -76 -3 -78 -7 -1 -5 -56 -6 -120 -5 l-118 4 0
75 c0 68 -2 74 -17 68 -10 -4 -30 -10 -45 -13 -16 -2 -28 -11 -28 -19 0 -11 7
-14 25 -11 24 5 25 3 25 -48 l0 -54 -42 0 c-43 0 -259 17 -583 44 -866 73
-1885 291 -2740 584 -4059 1394 -7052 4878 -7800 9082 -118 664 -198 1504
-180 1903 l7 167 1159 0 1159 0 0 -80 c0 -73 2 -80 20 -80 18 0 20 7 20 80 l0
80 1160 0 1160 0 0 -80 c0 -73 2 -80 20 -80 18 0 20 7 20 80 l0 80 1160 0
1160 0 0 -80 c0 -79 0 -80 25 -80 25 0 25 1 25 80 l0 80 1155 0 1155 0 0 -80
c0 -79 0 -80 25 -80 25 0 25 1 25 80 l0 80 875 0 c771 0 875 2 875 15 0 13
-104 15 -875 15 l-875 0 0 80 c0 79 0 80 -25 80 -25 0 -25 -1 -25 -80 l0 -80
-1155 0 -1155 0 0 80 c0 79 0 80 -25 80 -25 0 -25 -1 -25 -80 l0 -80 -1160 0
-1160 0 0 80 c0 73 -2 80 -20 80 -18 0 -20 -7 -20 -80 l0 -80 -1160 0 -1160 0
0 80 c0 73 -2 80 -20 80 -18 0 -20 -7 -20 -80 l0 -80 -1159 0 -1159 0 -6 153
c-12 271 29 872 94 1367 200 1532 690 2986 1456 4321 1532 2673 4048 4646
6999 5490 849 243 1694 382 2708 446 l87 6 0 -47 c0 -42 -2 -46 -25 -46 -16 0
-25 -6 -25 -15 0 -12 15 -15 71 -15 52 0 70 3 67 13 -3 6 -14 13 -26 15 -19 3
-22 10 -22 47 l0 44 58 3 c119 6 182 5 182 -3z m625 -4 c466 -14 1121 -85
1630 -176 5054 -905 8965 -5015 9615 -10104 63 -497 106 -1132 93 -1388 l-6
-107 -1158 0 -1159 0 0 80 c0 73 -2 80 -20 80 -18 0 -20 -7 -20 -80 l0 -80
-1160 0 -1160 0 0 80 c0 79 0 80 -25 80 -25 0 -25 -1 -25 -80 l0 -80 -1160 0
-1160 0 0 80 c0 73 -2 80 -20 80 -18 0 -20 -7 -20 -80 l0 -80 -1160 0 -1160 0
0 80 c0 73 -2 80 -20 80 -18 0 -20 -7 -20 -81 l0 -80 -1154 3 c-635 2 -1158 7
-1163 11 -4 5 -9 528 -11 1163 l-3 1154 80 0 c74 0 81 2 81 20 0 18 -7 20 -80
20 l-80 0 0 1160 0 1160 80 0 c73 0 80 2 80 20 0 18 -7 20 -80 20 l-80 0 0
1160 0 1160 80 0 c73 0 80 2 80 20 0 18 -7 20 -80 20 l-80 0 0 1160 0 1160 80
0 c79 0 80 0 80 25 0 25 -1 25 -80 25 l-80 0 0 1155 0 1155 80 0 c46 0 80 4
80 10 0 6 23 8 58 5 31 -2 134 -7 227 -10z"/>
<path d="M11680 22055 c-22 -23 -25 -37 -28 -108 -3 -91 8 -123 50 -146 37
-21 78 -5 101 39 25 49 20 168 -9 207 -30 40 -81 43 -114 8z m101 -46 c11 -38
9 -111 -4 -149 -10 -29 -17 -35 -42 -35 -39 0 -55 32 -55 112 0 68 14 110 39
116 23 6 55 -16 62 -44z"/>
<path d="M11999 22062 c-30 -25 -31 -80 -1 -100 l22 -14 -25 -20 c-41 -32 -33
-98 16 -123 42 -22 67 -18 100 14 36 36 37 73 5 106 -23 23 -23 24 -5 41 25
22 24 69 -1 94 -25 25 -80 26 -111 2z m82 -12 c22 -12 26 -59 7 -78 -17 -17
-48 -15 -70 5 -23 21 -23 38 2 63 23 23 33 24 61 10z m9 -135 c16 -20 16 -61
0 -80 -8 -10 -25 -15 -44 -13 -62 6 -60 108 3 108 16 0 34 -7 41 -15z"/>
<path d="M11870 21821 c0 -15 6 -21 21 -21 25 0 22 33 -4 38 -12 2 -17 -3 -17
-17z"/>
<path d="M11680 19695 c-22 -23 -25 -37 -28 -108 -3 -91 8 -123 50 -146 37
-21 78 -5 101 39 25 49 20 168 -9 207 -30 40 -81 43 -114 8z m101 -46 c11 -38
9 -111 -4 -149 -10 -29 -17 -35 -42 -35 -39 0 -55 32 -55 112 0 68 14 110 39
116 23 6 55 -16 62 -44z"/>
<path d="M12016 19695 c-34 -31 -46 -64 -46 -126 0 -117 68 -174 137 -115 24
21 28 31 28 79 0 85 -53 124 -112 82 -21 -15 -21 -15 -12 17 12 45 46 71 81
64 21 -4 28 -2 28 9 0 26 -73 19 -104 -10z m68 -101 c19 -19 22 -104 4 -122
-16 -16 -53 -15 -66 1 -6 6 -13 29 -17 49 -6 31 -3 41 19 62 29 30 39 32 60
10z"/>
<path d="M11870 19461 c0 -15 6 -21 21 -21 25 0 22 33 -4 38 -12 2 -17 -3 -17
-17z"/>
<path d="M6214 18812 c-283 -101 -300 -582 -25 -719 26 -13 59 -18 119 -18
l83 0 37 -57 37 -58 58 0 58 0 -22 33 c-13 17 -40 55 -60 83 l-38 51 35 34
c19 19 49 63 67 98 28 57 32 77 35 167 5 116 -10 176 -60 256 -75 119 -207
172 -324 130z m154 -76 c42 -22 89 -76 114 -131 20 -43 23 -66 23 -160 -1
-116 -14 -161 -66 -225 l-20 -25 -22 29 c-53 70 -50 67 -100 64 l-47 -3 45
-67 45 -68 -25 -6 c-68 -17 -178 70 -209 164 -46 140 -16 312 68 391 53 50
138 66 194 37z"/>
<path d="M6750 18450 l0 -360 45 0 45 0 0 360 0 360 -45 0 -45 0 0 -360z"/>
<path d="M7040 18450 l0 -360 45 0 45 0 0 360 0 360 -45 0 -45 0 0 -360z"/>
<path d="M11680 17325 c-22 -23 -25 -37 -28 -108 -3 -91 8 -123 50 -146 37
-21 78 -5 101 39 25 49 20 168 -9 207 -30 40 -81 43 -114 8z m101 -46 c11 -38
9 -111 -4 -149 -10 -29 -17 -35 -42 -35 -39 0 -55 32 -55 112 0 68 14 110 39
116 23 6 55 -16 62 -44z"/>
<path d="M12012 17252 c-29 -49 -52 -94 -52 -100 0 -8 19 -12 55 -12 l55 0 0
-35 c0 -28 4 -35 20 -35 16 0 20 7 20 35 0 28 4 35 20 35 11 0 20 5 20 11 0 6
-9 13 -20 16 -18 5 -20 14 -20 89 0 81 -1 84 -23 84 -18 0 -33 -18 -75 -88z
m58 -22 l0 -60 -36 0 -35 0 33 60 c18 33 34 60 35 60 2 0 3 -27 3 -60z"/>
<path d="M11870 17091 c0 -15 6 -21 21 -21 25 0 22 33 -4 38 -12 2 -17 -3 -17
-17z"/>
<path d="M11680 14965 c-22 -23 -25 -37 -28 -108 -3 -91 8 -123 50 -146 37
-21 78 -5 101 39 25 49 20 168 -9 207 -30 40 -81 43 -114 8z m101 -46 c11 -38
9 -111 -4 -149 -10 -29 -17 -35 -42 -35 -39 0 -55 32 -55 112 0 68 14 110 39
116 23 6 55 -16 62 -44z"/>
<path d="M11992 14967 c-22 -23 -30 -57 -14 -57 5 0 14 11 20 25 15 32 75 36
92 6 23 -43 12 -71 -55 -140 -36 -37 -65 -73 -65 -79 0 -8 27 -12 85 -12 69 0
85 3 85 15 0 12 -14 15 -67 15 l-67 0 64 65 c55 56 64 70 64 101 0 72 -94 112
-142 61z"/>
<path d="M11870 14731 c0 -15 6 -21 21 -21 25 0 22 33 -4 38 -12 2 -17 -3 -17
-17z"/>
<path d="M12000 12605 c-22 -23 -25 -37 -28 -108 -3 -91 8 -123 50 -146 37
-21 78 -5 101 39 25 49 20 168 -9 207 -30 40 -81 43 -114 8z m101 -46 c11 -38
9 -111 -4 -149 -10 -29 -17 -35 -42 -35 -39 0 -55 32 -55 112 0 68 14 110 39
116 23 6 55 -16 62 -44z"/>
<path d="M830 12150 c-8 -5 -25 -10 -37 -10 -14 0 -23 -6 -23 -16 0 -12 7 -15
25 -12 l25 5 0 -103 0 -104 -25 0 c-16 0 -25 -6 -25 -15 0 -12 15 -15 71 -15
52 0 70 3 67 13 -3 6 -14 13 -26 15 -21 3 -22 8 -22 128 0 68 -3 124 -7 124
-5 0 -15 -5 -23 -10z"/>
<path d="M2990 12135 c-22 -23 -25 -37 -28 -108 -3 -91 8 -123 50 -146 37 -21
78 -5 101 39 25 49 20 168 -9 207 -30 40 -81 43 -114 8z m101 -46 c11 -38 9
-111 -4 -149 -10 -29 -17 -35 -42 -35 -39 0 -55 32 -55 112 0 68 14 110 39
116 23 6 55 -16 62 -44z"/>
<path d="M3309 12142 c-30 -25 -31 -80 -1 -100 l22 -14 -25 -20 c-41 -32 -33
-98 16 -123 42 -22 67 -18 100 14 36 36 37 73 5 106 -23 23 -23 24 -5 41 25
22 24 69 -1 94 -25 25 -80 26 -111 2z m82 -12 c22 -12 26 -59 7 -78 -17 -17
-48 -15 -70 5 -23 21 -23 38 2 63 23 23 33 24 61 10z m9 -135 c16 -20 16 -61
0 -80 -8 -10 -25 -15 -44 -13 -62 6 -60 108 3 108 16 0 34 -7 41 -15z"/>
<path d="M5350 12135 c-22 -23 -25 -37 -28 -108 -3 -91 8 -123 50 -146 37 -21
78 -5 101 39 25 49 20 168 -9 207 -30 40 -81 43 -114 8z m101 -46 c11 -38 9
-111 -4 -149 -10 -29 -17 -35 -42 -35 -39 0 -55 32 -55 112 0 68 14 110 39
116 23 6 55 -16 62 -44z"/>
<path d="M5686 12135 c-34 -31 -46 -64 -46 -126 0 -117 68 -174 137 -115 24
21 28 31 28 79 0 85 -53 124 -112 82 -21 -15 -21 -15 -12 17 12 45 46 71 81
64 21 -4 28 -2 28 9 0 26 -73 19 -104 -10z m68 -101 c19 -19 22 -104 4 -122
-16 -16 -53 -15 -66 1 -6 6 -13 29 -17 49 -6 31 -3 41 19 62 29 30 39 32 60
10z"/>
<path d="M7710 12135 c-22 -23 -25 -37 -28 -108 -3 -91 8 -123 50 -146 37 -21
78 -5 101 39 25 49 20 168 -9 207 -30 40 -81 43 -114 8z m101 -46 c11 -38 9
-111 -4 -149 -10 -29 -17 -35 -42 -35 -39 0 -55 32 -55 112 0 68 14 110 39
116 23 6 55 -16 62 -44z"/>
<path d="M10070 12135 c-22 -23 -25 -37 -28 -108 -3 -91 8 -123 50 -146 37
-21 78 -5 101 39 25 49 20 168 -9 207 -30 40 -81 43 -114 8z m101 -46 c11 -38
9 -111 -4 -149 -10 -29 -17 -35 -42 -35 -39 0 -55 32 -55 112 0 68 14 110 39
116 23 6 55 -16 62 -44z"/>
<path d="M10382 12137 c-22 -23 -30 -57 -14 -57 5 0 14 11 20 25 15 32 75 36
92 6 23 -43 12 -71 -55 -140 -36 -37 -65 -73 -65 -79 0 -8 27 -12 85 -12 69 0
85 3 85 15 0 12 -14 15 -67 15 l-67 0 64 65 c55 56 64 70 64 101 0 72 -94 112
-142 61z"/>
<path d="M12430 12135 c-22 -23 -25 -37 -28 -108 -3 -91 8 -123 50 -146 37
-21 78 -5 101 39 25 49 20 168 -9 207 -30 40 -81 43 -114 8z m101 -46 c11 -38
9 -111 -4 -149 -10 -29 -17 -35 -42 -35 -39 0 -55 32 -55 112 0 68 14 110 39
116 23 6 55 -16 62 -44z"/>
<path d="M14640 12135 c-22 -23 -25 -37 -28 -108 -3 -91 8 -123 50 -146 37
-21 78 -5 101 39 25 49 20 168 -9 207 -30 40 -81 43 -114 8z m101 -46 c11 -38
9 -111 -4 -149 -10 -29 -17 -35 -42 -35 -39 0 -55 32 -55 112 0 68 14 110 39
116 23 6 55 -16 62 -44z"/>
<path d="M14952 12137 c-22 -23 -30 -57 -14 -57 5 0 14 11 20 25 15 32 75 36
92 6 23 -43 12 -71 -55 -140 -36 -37 -65 -73 -65 -79 0 -8 27 -12 85 -12 69 0
85 3 85 15 0 12 -14 15 -67 15 l-67 0 64 65 c55 56 64 70 64 101 0 72 -94 112
-142 61z"/>
<path d="M17000 12135 c-22 -23 -25 -37 -28 -108 -3 -91 8 -123 50 -146 37
-21 78 -5 101 39 25 49 20 168 -9 207 -30 40 -81 43 -114 8z m101 -46 c11 -38
9 -111 -4 -149 -10 -29 -17 -35 -42 -35 -39 0 -55 32 -55 112 0 68 14 110 39
116 23 6 55 -16 62 -44z"/>
<path d="M19360 12135 c-22 -23 -25 -37 -28 -108 -3 -91 8 -123 50 -146 37
-21 78 -5 101 39 25 49 20 168 -9 207 -30 40 -81 43 -114 8z m101 -46 c11 -38
9 -111 -4 -149 -10 -29 -17 -35 -42 -35 -39 0 -55 32 -55 112 0 68 14 110 39
116 23 6 55 -16 62 -44z"/>
<path d="M19696 12135 c-34 -31 -46 -64 -46 -126 0 -117 68 -174 137 -115 24
21 28 31 28 79 0 85 -53 124 -112 82 -21 -15 -21 -15 -12 17 12 45 46 71 81
64 21 -4 28 -2 28 9 0 26 -73 19 -104 -10z m68 -101 c19 -19 22 -104 4 -122
-16 -16 -53 -15 -66 1 -6 6 -13 29 -17 49 -6 31 -3 41 19 62 29 30 39 32 60
10z"/>
<path d="M21720 12135 c-22 -23 -25 -37 -28 -108 -3 -91 8 -123 50 -146 37
-21 78 -5 101 39 25 49 20 168 -9 207 -30 40 -81 43 -114 8z m101 -46 c11 -38
9 -111 -4 -149 -10 -29 -17 -35 -42 -35 -39 0 -55 32 -55 112 0 68 14 110 39
116 23 6 55 -16 62 -44z"/>
<path d="M22039 12142 c-30 -25 -31 -80 -1 -100 l22 -14 -25 -20 c-41 -32 -33
-98 16 -123 42 -22 67 -18 100 14 36 36 37 73 5 106 -23 23 -23 24 -5 41 25
22 24 69 -1 94 -25 25 -80 26 -111 2z m82 -12 c22 -12 26 -59 7 -78 -17 -17
-48 -15 -70 5 -23 21 -23 38 2 63 23 23 33 24 61 10z m9 -135 c16 -20 16 -61
0 -80 -8 -10 -25 -15 -44 -13 -62 6 -60 108 3 108 16 0 34 -7 41 -15z"/>
<path d="M8042 12062 c-29 -49 -52 -94 -52 -100 0 -8 19 -12 55 -12 l55 0 0
-35 c0 -28 4 -35 20 -35 16 0 20 7 20 35 0 28 4 35 20 35 11 0 20 5 20 11 0 6
-9 13 -20 16 -18 5 -20 14 -20 89 0 81 -1 84 -23 84 -18 0 -33 -18 -75 -88z
m58 -22 l0 -60 -36 0 -35 0 33 60 c18 33 34 60 35 60 2 0 3 -27 3 -60z"/>
<path d="M17332 12062 c-29 -49 -52 -94 -52 -100 0 -8 19 -12 55 -12 l55 0 0
-35 c0 -28 4 -35 20 -35 16 0 20 7 20 35 0 28 4 35 20 35 11 0 20 5 20 11 0 6
-9 13 -20 16 -18 5 -20 14 -20 89 0 81 -1 84 -23 84 -18 0 -33 -18 -75 -88z
m58 -22 l0 -60 -36 0 -35 0 33 60 c18 33 34 60 35 60 2 0 3 -27 3 -60z"/>
<path d="M2645 11980 c4 -6 57 -10 125 -10 68 0 121 4 125 10 4 6 -40 10 -125
10 -85 0 -129 -4 -125 -10z"/>
<path d="M5005 11980 c4 -6 57 -10 125 -10 68 0 121 4 125 10 4 6 -40 10 -125
10 -85 0 -129 -4 -125 -10z"/>
<path d="M7375 11980 c4 -6 57 -10 125 -10 68 0 121 4 125 10 4 6 -40 10 -125
10 -85 0 -129 -4 -125 -10z"/>
<path d="M9735 11980 c4 -6 57 -10 125 -10 68 0 121 4 125 10 4 6 -40 10 -125
10 -85 0 -129 -4 -125 -10z"/>
<path d="M3180 11901 c0 -15 6 -21 21 -21 14 0 19 5 17 17 -5 26 -38 29 -38 4z"/>
<path d="M5550 11901 c0 -15 6 -21 21 -21 14 0 19 5 17 17 -5 26 -38 29 -38 4z"/>
<path d="M7910 11901 c0 -15 6 -21 21 -21 14 0 19 5 17 17 -5 26 -38 29 -38 4z"/>
<path d="M10270 11901 c0 -15 6 -21 21 -21 14 0 19 5 17 17 -5 26 -38 29 -38
4z"/>
<path d="M14830 11901 c0 -15 6 -21 21 -21 14 0 19 5 17 17 -5 26 -38 29 -38
4z"/>
<path d="M17190 11901 c0 -15 6 -21 21 -21 14 0 19 5 17 17 -5 26 -38 29 -38
4z"/>
<path d="M19560 11901 c0 -15 6 -21 21 -21 14 0 19 5 17 17 -5 26 -38 29 -38
4z"/>
<path d="M21920 11901 c0 -15 6 -21 21 -21 25 0 22 33 -4 38 -12 2 -17 -3 -17
-17z"/>
<path d="M11680 10255 c-22 -23 -25 -37 -28 -108 -3 -91 8 -123 50 -146 37
-21 78 -5 101 39 25 49 20 168 -9 207 -30 40 -81 43 -114 8z m101 -46 c11 -38
9 -111 -4 -149 -10 -29 -17 -35 -42 -35 -39 0 -55 32 -55 112 0 68 14 110 39
116 23 6 55 -16 62 -44z"/>
<path d="M11992 10257 c-22 -23 -30 -57 -14 -57 5 0 14 11 20 25 15 32 75 36
92 6 23 -43 12 -71 -55 -140 -36 -37 -65 -73 -65 -79 0 -8 27 -12 85 -12 69 0
85 3 85 15 0 12 -14 15 -67 15 l-67 0 64 65 c55 56 64 70 64 101 0 72 -94 112
-142 61z"/>
<path d="M11335 10100 c4 -6 57 -10 125 -10 68 0 121 4 125 10 4 6 -40 10
-125 10 -85 0 -129 -4 -125 -10z"/>
<path d="M11870 10021 c0 -15 6 -21 21 -21 14 0 19 5 17 17 -5 26 -38 29 -38
4z"/>
<path d="M11680 7895 c-22 -23 -25 -37 -28 -108 -3 -91 8 -123 50 -146 37 -21
78 -5 101 39 25 49 20 168 -9 207 -30 40 -81 43 -114 8z m101 -46 c11 -38 9
-111 -4 -149 -10 -29 -17 -35 -42 -35 -39 0 -55 32 -55 112 0 68 14 110 39
116 23 6 55 -16 62 -44z"/>
<path d="M12012 7822 c-29 -49 -52 -94 -52 -100 0 -8 19 -12 55 -12 l55 0 0
-35 c0 -28 4 -35 20 -35 16 0 20 7 20 35 0 28 4 35 20 35 11 0 20 5 20 11 0 6
-9 13 -20 16 -18 5 -20 14 -20 89 0 81 -1 84 -23 84 -18 0 -33 -18 -75 -88z
m58 -22 l0 -60 -36 0 -35 0 33 60 c18 33 34 60 35 60 2 0 3 -27 3 -60z"/>
<path d="M11335 7740 c4 -6 57 -10 125 -10 68 0 121 4 125 10 4 6 -40 10 -125
10 -85 0 -129 -4 -125 -10z"/>
<path d="M11870 7661 c0 -15 6 -21 21 -21 14 0 19 5 17 17 -5 26 -38 29 -38 4z"/>
<path d="M6074 7002 c-283 -101 -300 -582 -25 -719 26 -13 59 -18 119 -18 l83
0 37 -57 37 -58 58 0 58 0 -22 33 c-13 17 -40 55 -60 83 l-38 51 35 34 c19 19
49 63 67 98 28 57 32 77 35 167 5 116 -10 176 -60 256 -75 119 -207 172 -324
130z m154 -76 c42 -22 89 -76 114 -131 20 -43 23 -66 23 -160 -1 -116 -14
-161 -66 -225 l-20 -25 -22 29 c-53 70 -50 67 -100 64 l-47 -3 45 -67 45 -68
-25 -6 c-68 -17 -178 70 -209 164 -46 140 -16 312 68 391 53 50 138 66 194 37z"/>
<path d="M17854 7002 c-283 -101 -300 -582 -25 -719 26 -13 59 -18 119 -18
l83 0 37 -57 37 -58 58 0 58 0 -22 33 c-13 17 -40 55 -60 83 l-38 51 35 34
c19 19 49 63 67 98 28 57 32 77 35 167 5 116 -10 176 -60 256 -75 119 -207
172 -324 130z m154 -76 c42 -22 89 -76 114 -131 20 -43 23 -66 23 -160 -1
-116 -14 -161 -66 -225 l-20 -25 -22 29 c-53 70 -50 67 -100 64 l-47 -3 45
-67 45 -68 -25 -6 c-68 -17 -178 70 -209 164 -46 140 -16 312 68 391 53 50
138 66 194 37z"/>
<path d="M6600 6640 l0 -360 45 0 45 0 0 360 0 360 -45 0 -45 0 0 -360z"/>
<path d="M6900 6640 l0 -360 45 0 45 0 0 360 0 360 -45 0 -45 0 0 -360z"/>
<path d="M7190 6640 l0 -360 45 0 45 0 0 360 0 360 -45 0 -45 0 0 -360z"/>
<path d="M18380 6640 l0 -360 45 0 45 0 0 360 0 360 -45 0 -45 0 0 -360z"/>
<path d="M18570 6996 c0 -2 54 -152 121 -332 67 -181 126 -342 131 -357 10
-26 13 -28 61 -25 l52 3 127 345 c70 190 127 351 127 358 1 8 -14 12 -41 12
l-43 0 -104 -293 c-56 -160 -105 -299 -108 -307 -2 -8 -36 73 -74 180 -38 107
-87 246 -110 308 l-41 112 -49 0 c-27 0 -49 -2 -49 -4z"/>
<path d="M11680 5535 c-22 -23 -25 -37 -28 -108 -3 -91 8 -123 50 -146 37 -21
78 -5 101 39 25 49 20 168 -9 207 -30 40 -81 43 -114 8z m101 -46 c11 -38 9
-111 -4 -149 -10 -29 -17 -35 -42 -35 -39 0 -55 32 -55 112 0 68 14 110 39
116 23 6 55 -16 62 -44z"/>
<path d="M12016 5535 c-34 -31 -46 -64 -46 -126 0 -117 68 -174 137 -115 24
21 28 31 28 79 0 85 -53 124 -112 82 -21 -15 -21 -15 -12 17 12 45 46 71 81
64 21 -4 28 -2 28 9 0 26 -73 19 -104 -10z m68 -101 c19 -19 22 -104 4 -122
-16 -16 -53 -15 -66 1 -6 6 -13 29 -17 49 -6 31 -3 41 19 62 29 30 39 32 60
10z"/>
<path d="M11335 5380 c4 -6 57 -10 125 -10 68 0 121 4 125 10 4 6 -40 10 -125
10 -85 0 -129 -4 -125 -10z"/>
<path d="M11870 5301 c0 -15 6 -21 21 -21 14 0 19 5 17 17 -5 26 -38 29 -38 4z"/>
<path d="M11680 3175 c-22 -23 -25 -37 -28 -108 -3 -91 8 -123 50 -146 37 -21
78 -5 101 39 25 49 20 168 -9 207 -30 40 -81 43 -114 8z m101 -46 c11 -38 9
-111 -4 -149 -10 -29 -17 -35 -42 -35 -39 0 -55 32 -55 112 0 68 14 110 39
116 23 6 55 -16 62 -44z"/>
<path d="M11999 3182 c-30 -25 -31 -80 -1 -100 l22 -14 -25 -20 c-41 -32 -33
-98 16 -123 42 -22 67 -18 100 14 36 36 37 73 5 106 -23 23 -23 24 -5 41 25
22 24 69 -1 94 -25 25 -80 26 -111 2z m82 -12 c22 -12 26 -59 7 -78 -17 -17
-48 -15 -70 5 -23 21 -23 38 2 63 23 23 33 24 61 10z m9 -135 c16 -20 16 -61
0 -80 -8 -10 -25 -15 -44 -13 -62 6 -60 108 3 108 16 0 34 -7 41 -15z"/>
<path d="M11335 3020 c4 -6 57 -10 125 -10 68 0 121 4 125 10 4 6 -40 10 -125
10 -85 0 -129 -4 -125 -10z"/>
<path d="M11870 2941 c0 -15 6 -21 21 -21 25 0 22 33 -4 38 -12 2 -17 -3 -17
-17z"/>
<path d="M18174 18812 c-283 -101 -300 -582 -25 -719 26 -13 59 -18 119 -18
l83 0 37 -57 37 -58 58 0 58 0 -22 33 c-13 17 -40 55 -60 83 l-38 51 35 34
c19 19 49 63 67 98 28 57 32 77 35 167 5 116 -10 176 -60 256 -75 119 -207
172 -324 130z m154 -76 c42 -22 89 -76 114 -131 20 -43 23 -66 23 -160 -1
-116 -14 -161 -66 -225 l-20 -25 -22 29 c-53 70 -50 67 -100 64 l-47 -3 45
-67 45 -68 -25 -6 c-68 -17 -178 70 -209 164 -46 140 -16 312 68 391 53 50
138 66 194 37z"/>
<path d="M18710 18450 l0 -360 45 0 45 0 0 360 0 360 -45 0 -45 0 0 -360z"/>
<path d="M59727 25470 c-7 -21 -44 -122 -52 -142 -6 -14 -2 -18 19 -18 l26 0
0 -395 0 -394 -37 -10 c-81 -22 -151 -96 -167 -177 l-7 -31 -207 -7 c-905 -31
-1929 -191 -2789 -436 -828 -236 -1690 -587 -2419 -983 l-82 -45 -20 28 c-55
74 -204 94 -285 38 -79 -54 -115 -155 -89 -250 l10 -36 -247 -158 c-307 -197
-660 -446 -940 -667 -219 -171 -621 -517 -808 -693 l-102 -96 -29 21 c-136 96
-324 4 -339 -167 -4 -50 -1 -64 25 -113 l29 -56 -131 -139 c-447 -474 -930
-1097 -1312 -1691 -124 -193 -170 -257 -182 -254 -9 2 -48 4 -87 5 -61 1 -76
-3 -115 -28 -82 -51 -123 -145 -101 -232 14 -54 48 -109 78 -125 17 -9 20 -16
12 -25 -5 -7 -73 -135 -150 -286 -639 -1244 -1044 -2547 -1218 -3918 -44 -350
-79 -772 -88 -1073 l-6 -199 -26 -10 c-69 -26 -114 -54 -140 -87 -57 -74 -65
-148 -25 -229 30 -60 68 -93 139 -119 l50 -19 7 -195 c52 -1524 414 -3067
1046 -4459 106 -234 385 -793 412 -825 7 -8 3 -15 -13 -24 -30 -16 -64 -71
-78 -125 -22 -87 19 -181 100 -232 38 -24 57 -29 106 -29 33 0 72 2 87 5 25 5
35 -8 191 -250 386 -601 859 -1210 1313 -1693 l132 -140 -30 -56 c-26 -49 -29
-63 -25 -113 9 -103 74 -176 177 -200 56 -13 114 -1 163 34 l29 21 41 -39 c23
-22 85 -80 137 -130 148 -141 504 -443 735 -625 275 -216 631 -468 936 -663
l247 -158 -10 -36 c-17 -60 -4 -143 28 -189 43 -59 87 -85 159 -91 78 -6 123
9 172 56 l38 37 100 -53 c975 -517 1938 -880 2965 -1115 707 -163 1503 -267
2227 -293 l202 -7 7 -31 c18 -88 102 -168 190 -182 105 -15 223 70 240 174 l6
39 207 7 c1732 60 3468 515 5011 1315 l284 147 23 -27 c64 -76 201 -92 285
-33 26 18 53 50 71 84 29 55 31 76 15 184 -2 14 56 56 257 185 601 387 1268
906 1707 1329 l117 113 48 -28 c194 -114 422 126 292 308 -10 15 -19 30 -19
34 0 4 51 60 113 124 288 300 722 830 1013 1240 133 188 467 695 477 725 2 5
20 3 41 -4 90 -29 195 9 253 92 25 37 28 50 28 117 0 81 -16 119 -72 167 l-25
21 30 49 c63 105 280 542 394 794 480 1059 808 2216 953 3365 37 298 80 814
91 1107 l6 178 41 11 c82 22 152 93 164 165 l6 34 393 0 394 0 0 -26 c0 -30 1
-30 90 6 30 13 64 26 74 29 14 6 1 14 -55 35 -115 42 -109 42 -109 12 l0 -26
-394 0 -393 0 -6 34 c-12 72 -82 143 -164 165 l-41 11 -6 178 c-4 97 -18 323
-31 502 -120 1590 -554 3120 -1287 4535 l-145 280 22 20 c54 49 70 86 70 166
0 65 -4 81 -26 115 -14 22 -45 53 -69 69 -36 25 -52 29 -109 30 -36 0 -77 -2
-90 -5 -22 -5 -38 16 -185 246 -386 602 -917 1285 -1333 1715 -62 64 -113 119
-113 124 0 4 9 19 19 34 32 45 45 111 31 162 -39 150 -196 220 -323 146 l-48
-29 -117 114 c-173 167 -526 470 -787 675 -297 233 -595 445 -920 654 -201
129 -259 171 -257 186 16 107 14 128 -15 183 -50 95 -132 133 -247 116 -33 -5
-56 -18 -89 -49 l-45 -42 -274 142 c-1539 802 -3284 1260 -5021 1319 l-205 7
-6 39 c-12 74 -74 140 -158 167 l-38 13 0 394 0 394 25 0 c30 0 30 2 9 42 -9
18 -24 55 -34 82 -10 30 -20 45 -23 36z m-211 -1217 c19 -81 95 -158 168 -170
l36 -6 0 -1058 0 -1059 -80 0 c-79 0 -80 0 -80 -25 0 -25 1 -25 80 -25 l80 0
0 -1160 0 -1160 -80 0 c-73 0 -80 -2 -80 -20 0 -18 7 -20 80 -20 l80 0 0
-1160 0 -1160 -80 0 c-73 0 -80 -2 -80 -20 0 -18 7 -20 80 -20 l80 0 0 -1160
0 -1160 -80 0 c-73 0 -80 -2 -80 -20 0 -18 7 -20 81 -20 l80 0 -3 -1154 c-2
-635 -7 -1158 -11 -1163 -5 -4 -528 -9 -1163 -11 l-1154 -3 0 80 c0 74 -2 81
-20 81 -18 0 -20 -7 -20 -80 l0 -80 -1160 0 -1160 0 0 80 c0 73 -2 80 -20 80
-18 0 -20 -7 -20 -80 l0 -80 -1160 0 -1160 0 0 80 c0 79 0 80 -25 80 -25 0
-25 -1 -25 -80 l0 -80 -1155 0 -1155 0 0 80 c0 79 0 80 -25 80 -25 0 -25 -1
-25 -80 l0 -80 -1059 0 -1059 0 -6 36 c-14 73 -83 142 -164 164 l-41 11 4 77
c3 42 7 140 10 217 17 449 82 1043 171 1544 206 1169 591 2306 1141 3366 116
224 143 269 159 266 10 -2 51 -4 90 -5 63 -1 75 2 114 29 64 45 93 95 98 171
5 73 -20 137 -67 177 l-28 23 167 260 c387 603 896 1258 1329 1710 l116 121
45 -24 c38 -21 56 -24 111 -21 79 4 134 35 176 100 24 36 28 51 28 117 0 64
-4 81 -24 109 l-23 33 123 118 c509 485 1269 1064 1931 1470 l38 23 29 -30
c45 -45 99 -67 161 -67 138 1 246 141 210 274 -10 38 -9 44 7 56 44 33 572
297 813 407 1252 568 2623 919 3980 1017 376 28 364 27 527 29 l143 2 6 -27z
m1119 -3 c1364 -106 2706 -447 3935 -1002 278 -125 316 -144 638 -311 211
-109 232 -122 225 -141 -5 -12 -8 -52 -8 -91 0 -59 5 -76 27 -108 65 -95 186
-130 280 -81 15 8 43 28 63 45 l34 30 253 -162 c603 -386 1261 -898 1718
-1336 l115 -110 -22 -39 c-29 -53 -37 -103 -23 -154 15 -57 49 -106 97 -138
33 -24 48 -27 118 -27 67 0 85 4 112 22 l31 23 113 -118 c438 -457 952 -1118
1338 -1721 l162 -252 -29 -27 c-48 -45 -66 -90 -67 -162 0 -55 5 -72 29 -111
43 -68 105 -103 180 -104 34 0 72 4 86 8 25 8 29 2 177 -285 727 -1409 1156
-2920 1278 -4493 13 -170 27 -396 31 -501 l7 -192 -39 -12 c-86 -27 -149 -93
-168 -172 l-6 -28 -1060 0 -1060 0 0 80 c0 73 -2 80 -20 80 -18 0 -20 -7 -20
-80 l0 -80 -1160 0 -1160 0 0 80 c0 73 -2 80 -20 80 -18 0 -20 -7 -20 -80 l0
-80 -1160 0 -1160 0 0 80 c0 73 -2 80 -20 80 -18 0 -20 -7 -20 -80 l0 -80
-1160 0 -1160 0 0 80 c0 79 0 80 -25 80 -25 0 -25 -1 -25 -80 l0 -80 -1047 0
c-577 0 -1099 3 -1160 7 l-113 6 0 1159 0 1158 75 0 c68 0 75 2 75 20 0 18 -7
20 -75 20 l-75 0 0 1160 0 1160 75 0 c68 0 75 2 75 20 0 18 -7 20 -75 20 l-75
0 0 1160 0 1160 75 0 c68 0 75 2 75 20 0 18 -7 20 -75 20 l-75 0 0 1160 0
1160 75 0 c73 0 75 1 75 25 0 24 -2 25 -75 25 l-75 0 0 1059 0 1059 36 7 c74
13 146 85 160 159 l7 39 206 -6 c113 -4 328 -16 476 -27z m-10375 -11860 c0
-79 0 -80 25 -80 25 0 25 1 25 80 l0 80 1155 0 1155 0 0 -80 c0 -79 0 -80 25
-80 25 0 25 1 25 80 l0 80 1160 0 1160 0 0 -80 c0 -73 2 -80 20 -80 18 0 20 7
20 80 l0 80 1160 0 1160 0 0 -80 c0 -73 2 -80 20 -80 18 0 20 7 20 81 l0 80
1154 -3 c635 -2 1158 -7 1163 -11 4 -5 9 -528 11 -1163 l3 -1154 -80 0 c-74 0
-81 -2 -81 -20 0 -18 7 -20 80 -20 l80 0 0 -1160 0 -1160 -80 0 c-73 0 -80 -2
-80 -20 0 -18 7 -20 80 -20 l80 0 0 -1160 0 -1160 -80 0 c-73 0 -80 -2 -80
-20 0 -18 7 -20 80 -20 l80 0 0 -1160 0 -1160 -80 0 c-79 0 -80 0 -80 -25 0
-25 1 -25 80 -25 l80 0 0 -1060 0 -1060 -22 0 c-68 0 -157 -81 -179 -163 l-11
-40 -199 6 c-500 16 -1094 79 -1629 173 -962 169 -1926 466 -2807 866 -230
105 -783 381 -826 413 -16 12 -17 18 -7 56 36 133 -72 273 -210 274 -62 0
-116 -22 -161 -67 -17 -18 -34 -26 -41 -22 -125 73 -560 361 -739 489 -418
300 -912 704 -1222 1001 l-119 114 24 32 c19 28 23 45 23 109 0 66 -4 81 -28
117 -42 65 -97 96 -176 100 -55 3 -74 -1 -111 -21 l-45 -24 -116 121 c-430
448 -941 1106 -1329 1710 l-167 260 28 23 c74 63 92 198 36 282 -15 22 -46 53
-69 68 -36 25 -50 28 -112 27 -39 -1 -80 -3 -90 -5 -16 -3 -43 42 -159 266
-642 1239 -1059 2580 -1231 3960 -37 289 -72 706 -81 950 -3 77 -7 175 -10
217 l-4 77 41 11 c81 22 149 91 164 168 l7 32 1058 0 1059 0 0 -80z m11810 0
c0 -79 0 -80 25 -80 25 0 25 1 25 80 l0 80 1160 0 1160 0 0 -80 c0 -73 2 -80
20 -80 18 0 20 7 20 80 l0 80 1160 0 1160 0 0 -80 c0 -73 2 -80 20 -80 18 0
20 7 20 80 l0 80 1160 0 1160 0 0 -80 c0 -73 2 -80 20 -80 18 0 20 7 20 80 l0
80 1060 0 1060 0 6 -27 c18 -80 79 -145 157 -168 l42 -12 -3 -194 c-2 -107
-14 -333 -27 -504 -122 -1575 -552 -3083 -1278 -4493 -118 -229 -154 -291
-166 -287 -9 4 -40 9 -68 12 -89 10 -161 -29 -214 -114 -19 -30 -24 -52 -24
-103 1 -72 16 -110 65 -158 l30 -31 -161 -252 c-387 -604 -862 -1216 -1316
-1697 l-135 -142 -31 22 c-43 31 -149 37 -201 13 -115 -55 -162 -187 -107
-300 l25 -49 -115 -109 c-463 -443 -1119 -952 -1717 -1336 l-253 -162 -45 40
c-104 92 -252 71 -332 -46 -22 -32 -27 -49 -27 -108 0 -38 3 -79 8 -91 7 -19
-18 -34 -285 -172 -1401 -723 -2903 -1152 -4473 -1277 -170 -14 -403 -28 -516
-32 l-206 -6 -7 38 c-15 76 -89 150 -162 162 l-34 6 0 1058 0 1059 75 0 c73 0
75 1 75 25 0 24 -2 25 -75 25 l-75 0 0 1160 0 1160 75 0 c68 0 75 2 75 20 0
18 -7 20 -75 20 l-75 0 0 1160 0 1160 75 0 c68 0 75 2 75 20 0 18 -7 20 -75
20 l-75 0 0 1160 0 1160 75 0 c68 0 75 2 75 20 0 18 -7 20 -75 20 l-75 0 0
1160 0 1159 78 4 c42 1 564 4 1160 5 l1082 2 0 -80z"/>
<path d="M29780 12485 l0 -3265 6335 0 6335 0 0 3265 0 3265 -6335 0 -6335 0
0 -3265z m12640 0 l0 -3235 -6310 0 -6310 0 0 3235 0 3235 6310 0 6310 0 0
-3235z"/>
<path d="M30454 15452 c-283 -101 -300 -582 -25 -719 26 -13 59 -18 119 -18
l83 0 37 -57 37 -58 58 0 58 0 -22 33 c-13 17 -40 55 -60 83 l-38 51 35 34
c19 19 49 63 67 98 28 57 32 77 35 167 5 116 -10 176 -60 256 -75 119 -207
172 -324 130z m154 -76 c42 -22 89 -76 114 -131 20 -43 23 -66 23 -160 -1
-116 -14 -161 -66 -225 l-20 -25 -22 29 c-53 70 -50 67 -100 64 l-47 -3 45
-67 45 -68 -25 -6 c-68 -17 -178 70 -209 164 -46 140 -16 312 68 391 53 50
138 66 194 37z"/>
<path d="M32700 15295 l0 -155 -22 14 c-13 8 -44 20 -71 27 -128 32 -230 -92
-214 -261 6 -71 45 -146 90 -177 45 -31 109 -30 170 1 44 22 47 22 47 5 0 -16
8 -19 45 -19 l45 0 0 360 0 360 -45 0 -45 0 0 -155z m-30 -204 c23 -17 25 -24
28 -117 4 -123 -1 -140 -41 -164 -41 -25 -73 -25 -115 0 -41 25 -62 73 -62
140 0 84 34 141 96 160 35 10 60 5 94 -19z"/>
<path d="M35090 15090 l0 -360 45 0 45 0 1 293 1 292 18 -55 c17 -56 162 -470
175 -503 6 -14 17 -17 48 -15 l41 3 34 95 c19 52 65 185 103 295 l69 200 0
-302 0 -303 45 0 45 0 0 360 0 361 -66 -3 -66 -3 -30 -80 c-16 -44 -62 -177
-102 -296 l-73 -215 -28 85 c-15 48 -61 182 -103 299 l-74 212 -64 0 -64 0 0
-360z"/>
<path d="M39830 15295 l0 -155 -22 14 c-13 8 -44 20 -71 27 -128 32 -230 -92
-214 -261 6 -71 45 -146 90 -177 45 -31 109 -30 170 1 44 22 47 22 47 5 0 -16
8 -19 45 -19 l45 0 0 360 0 360 -45 0 -45 0 0 -155z m-30 -204 c23 -17 25 -24
28 -117 4 -123 -1 -140 -41 -164 -41 -25 -73 -25 -115 0 -41 25 -62 73 -62
140 0 84 34 141 96 160 35 10 60 5 94 -19z"/>
<path d="M41445 15358 l-65 -93 36 -3 c23 -2 40 2 47 12 7 8 40 51 75 95 l63
81 -45 0 -45 0 -66 -92z"/>
<path d="M34250 15240 l0 -60 -45 0 c-45 0 -45 0 -45 -35 0 -34 1 -35 39 -35
l39 0 4 -164 c3 -149 5 -167 24 -193 20 -26 27 -28 85 -27 83 1 128 23 121 59
-6 34 -16 38 -51 20 -40 -20 -68 -19 -81 4 -5 11 -10 83 -10 160 l0 141 65 0
65 0 0 35 0 35 -65 0 -65 0 0 60 0 60 -40 0 -40 0 0 -60z"/>
<path d="M31528 15174 c-56 -17 -62 -25 -54 -68 l6 -33 47 23 c65 33 125 32
152 -2 21 -27 38 -90 27 -101 -3 -4 -36 -10 -71 -14 -75 -9 -142 -36 -173 -70
-42 -44 -19 -149 39 -180 29 -15 135 -7 177 15 28 14 32 15 32 1 0 -11 11 -15
40 -15 l40 0 0 171 c0 158 -2 174 -22 210 -40 71 -133 96 -240 63z m182 -279
c0 -70 -35 -105 -104 -105 -42 0 -88 35 -84 63 4 28 57 58 121 67 29 4 55 8
60 9 4 0 7 -15 7 -34z"/>
<path d="M32100 15178 c-19 -5 -42 -16 -51 -24 -21 -19 -29 -18 -29 6 0 17 -7
20 -45 20 l-45 0 0 -225 0 -225 45 0 45 0 0 145 c0 193 18 237 97 237 28 0 43
-7 60 -27 22 -25 23 -34 23 -191 l0 -164 46 0 46 0 -4 183 c-4 191 -11 224
-52 251 -30 19 -95 26 -136 14z"/>
<path d="M33135 15181 c-39 -10 -74 -28 -102 -54 l-23 -20 0 36 c0 36 -1 37
-40 37 l-40 0 0 -225 0 -225 45 0 45 0 0 130 c0 144 7 169 60 213 17 15 46 29
65 33 33 6 35 9 35 45 0 22 -3 39 -7 38 -5 -1 -21 -4 -38 -8z"/>
<path d="M33328 15174 c-56 -17 -62 -25 -54 -68 l6 -33 47 23 c65 33 125 32
152 -2 21 -27 38 -90 27 -101 -3 -4 -36 -10 -71 -14 -75 -9 -142 -36 -173 -70
-42 -44 -19 -149 39 -180 29 -15 135 -7 177 15 28 14 32 15 32 1 0 -11 11 -15
40 -15 l40 0 0 171 c0 158 -2 174 -22 210 -40 71 -133 96 -240 63z m182 -279
c0 -70 -35 -105 -104 -105 -42 0 -88 35 -84 63 4 28 57 58 121 67 29 4 55 8
60 9 4 0 7 -15 7 -34z"/>
<path d="M33890 15178 c-19 -5 -42 -16 -51 -24 -21 -19 -29 -18 -29 6 0 17 -7
20 -45 20 l-45 0 0 -225 0 -225 45 0 45 0 0 145 c0 193 18 237 97 237 28 0 43
-7 60 -27 22 -25 23 -34 23 -191 l0 -164 46 0 46 0 -4 183 c-4 191 -11 224
-52 251 -30 19 -95 26 -136 14z"/>
<path d="M35998 15170 c-46 -25 -92 -80 -107 -129 -27 -92 0 -212 60 -268 61
-55 164 -69 250 -32 47 20 49 23 49 60 0 22 -2 39 -5 39 -2 0 -23 -10 -46 -22
-95 -49 -182 -28 -219 55 -36 79 -40 77 131 77 l152 0 -7 53 c-10 77 -43 138
-91 164 -50 28 -117 29 -167 3z m130 -66 c19 -13 52 -63 52 -79 0 -3 -47 -5
-105 -5 -71 0 -105 4 -105 11 0 6 17 29 39 50 43 43 80 50 119 23z"/>
<path d="M36394 15180 c-50 -16 -77 -53 -82 -115 -4 -52 -3 -56 30 -89 24 -24
53 -39 94 -50 94 -26 109 -36 109 -76 0 -26 -6 -37 -25 -48 -33 -17 -111 -9
-163 17 -23 11 -42 19 -43 18 0 -1 -4 -18 -7 -38 -5 -34 -3 -37 31 -54 47 -22
158 -31 204 -16 57 19 81 52 86 121 4 59 4 61 -34 99 -31 31 -51 41 -99 51
-75 15 -105 33 -105 65 0 52 74 69 164 39 26 -9 48 -15 50 -13 2 2 6 18 9 35
5 27 2 33 -21 44 -34 16 -158 22 -198 10z"/>
<path d="M37425 15181 c-39 -10 -74 -28 -102 -54 l-23 -20 0 36 c0 36 -1 37
-40 37 l-40 0 0 -225 0 -225 45 0 45 0 0 130 c0 144 7 169 60 213 17 15 46 29
65 33 33 6 35 9 35 45 0 22 -3 39 -7 38 -5 -1 -21 -4 -38 -8z"/>
<path d="M37628 15170 c-46 -25 -92 -80 -107 -129 -27 -92 0 -212 60 -268 61
-55 164 -69 250 -32 47 20 49 23 49 60 0 22 -2 39 -5 39 -2 0 -23 -10 -46 -22
-95 -49 -182 -28 -219 55 -36 79 -40 77 131 77 l152 0 -7 53 c-10 77 -43 138
-91 164 -50 28 -117 29 -167 3z m130 -66 c19 -13 52 -63 52 -79 0 -3 -47 -5
-105 -5 -71 0 -105 4 -105 11 0 6 17 29 39 50 43 43 80 50 119 23z"/>
<path d="M38388 15170 c-46 -25 -92 -80 -107 -129 -27 -92 0 -212 60 -268 61
-55 164 -69 250 -32 47 20 49 23 49 60 0 22 -2 39 -5 39 -2 0 -23 -10 -46 -22
-95 -49 -182 -28 -219 55 -36 79 -40 77 131 77 l152 0 -7 53 c-10 77 -43 138
-91 164 -50 28 -117 29 -167 3z m130 -66 c19 -13 52 -63 52 -79 0 -3 -47 -5
-105 -5 -71 0 -105 4 -105 11 0 6 17 29 39 50 43 43 80 50 119 23z"/>
<path d="M38910 15178 c-19 -5 -42 -16 -51 -24 -21 -19 -29 -18 -29 6 0 17 -7
20 -45 20 l-45 0 0 -225 0 -225 45 0 45 0 0 145 c0 193 18 237 97 237 28 0 43
-7 60 -27 22 -25 23 -34 23 -191 l0 -164 46 0 46 0 -4 183 c-4 191 -11 224
-52 251 -30 19 -95 26 -136 14z"/>
<path d="M40138 15170 c-46 -25 -92 -80 -107 -129 -27 -92 0 -212 60 -268 61
-55 164 -69 250 -32 47 20 49 23 49 60 0 22 -2 39 -5 39 -2 0 -23 -10 -46 -22
-95 -49 -182 -28 -219 55 -36 79 -40 77 131 77 l152 0 -7 53 c-10 77 -43 138
-91 164 -50 28 -117 29 -167 3z m130 -66 c19 -13 52 -63 52 -79 0 -3 -47 -5
-105 -5 -71 0 -105 4 -105 11 0 6 17 29 39 50 43 43 80 50 119 23z"/>
<path d="M40584 15179 c-42 -12 -90 -68 -104 -120 -9 -34 -8 -51 4 -90 12 -35
13 -55 6 -74 -13 -33 -13 -91 0 -114 7 -14 5 -23 -10 -36 -52 -47 -45 -135 13
-179 46 -33 91 -46 166 -46 91 0 139 16 183 60 32 32 38 44 38 80 0 95 -59
135 -215 146 -55 3 -106 11 -112 17 -7 5 -13 21 -13 34 0 20 3 24 18 17 9 -4
42 -9 72 -11 42 -3 63 1 88 17 65 40 94 125 68 199 l-14 43 59 -4 59 -3 0 32
c0 17 -4 34 -9 38 -6 3 -41 -1 -79 -9 -60 -12 -75 -12 -108 -1 -45 16 -66 17
-110 4z m93 -74 c30 -21 44 -75 32 -120 -18 -64 -80 -85 -124 -40 -20 19 -25
34 -25 75 0 41 5 56 25 75 28 29 61 32 92 10z m104 -412 c67 -66 -74 -141
-190 -100 -19 7 -43 24 -54 38 -16 23 -17 30 -7 50 20 37 29 40 132 37 84 -3
100 -6 119 -25z"/>
<path d="M41185 15181 c-39 -10 -74 -28 -102 -54 l-23 -20 0 36 c0 36 -1 37
-40 37 l-40 0 0 -225 0 -225 45 0 45 0 0 130 c0 144 7 169 60 213 17 15 46 29
65 33 33 6 35 9 35 45 0 22 -3 39 -7 38 -5 -1 -21 -4 -38 -8z"/>
<path d="M41388 15170 c-46 -25 -92 -80 -107 -129 -27 -92 0 -212 60 -268 61
-55 164 -69 250 -32 47 20 49 23 49 60 0 22 -2 39 -5 39 -2 0 -23 -10 -46 -22
-95 -49 -182 -28 -219 55 -36 79 -40 77 131 77 l152 0 -7 53 c-10 77 -43 138
-91 164 -50 28 -117 29 -167 3z m130 -66 c19 -13 52 -63 52 -79 0 -3 -47 -5
-105 -5 -71 0 -105 4 -105 11 0 6 17 29 39 50 43 43 80 50 119 23z"/>
<path d="M41784 15180 c-50 -16 -77 -53 -82 -115 -4 -52 -3 -56 30 -89 24 -24
53 -39 94 -50 94 -26 109 -36 109 -76 0 -26 -6 -37 -25 -48 -33 -17 -111 -9
-163 17 -23 11 -42 19 -43 18 0 -1 -4 -18 -7 -38 -5 -34 -3 -37 31 -54 47 -22
158 -31 204 -16 57 19 81 52 86 121 4 59 4 61 -34 99 -31 31 -51 41 -99 51
-75 15 -105 33 -105 65 0 52 74 69 164 39 26 -9 48 -15 50 -13 2 2 6 18 9 35
5 27 2 33 -21 44 -34 16 -158 22 -198 10z"/>
<path d="M30962 14974 l3 -206 29 -25 c27 -23 36 -25 97 -21 44 4 80 13 103
26 35 21 36 21 36 2 0 -17 7 -20 45 -20 l45 0 0 225 0 225 -44 0 -45 0 -3
-171 -3 -171 -28 -24 c-21 -18 -40 -24 -76 -24 -26 0 -52 5 -59 12 -8 8 -12
66 -12 195 l0 183 -46 0 -45 0 3 -206z"/>
<path d="M36722 14974 l3 -206 29 -25 c27 -23 36 -25 97 -21 44 4 80 13 103
26 35 21 36 21 36 2 0 -17 7 -20 45 -20 l45 0 0 225 0 225 -44 0 -45 0 -3
-171 -3 -171 -28 -24 c-21 -18 -40 -24 -76 -24 -26 0 -52 5 -59 12 -8 8 -12
66 -12 195 l0 183 -46 0 -45 0 3 -206z"/>
<path d="M36860 14225 c0 -35 0 -35 45 -35 l45 0 0 -450 0 -450 -45 0 c-45 0
-45 0 -45 -35 l0 -35 85 0 85 0 0 520 0 520 -85 0 -85 0 0 -35z"/>
<path d="M40010 13740 l0 -520 85 0 85 0 0 35 c0 34 -1 35 -40 35 l-40 0 0
450 0 450 40 0 c39 0 40 1 40 35 l0 35 -85 0 -85 0 0 -520z"/>
<path d="M37755 14235 c-130 -46 -151 -225 -35 -301 102 -68 239 -9 265 113
16 77 -43 170 -120 192 -50 14 -61 13 -110 -4z m125 -51 c38 -23 60 -64 60
-114 0 -36 -6 -48 -39 -81 -33 -33 -45 -39 -81 -39 -76 0 -130 52 -130 125 0
97 106 158 190 109z"/>
<path d="M39625 14235 c-130 -46 -151 -225 -35 -301 102 -68 239 -9 265 113
16 77 -43 170 -120 192 -50 14 -61 13 -110 -4z m125 -51 c38 -23 60 -64 60
-114 0 -36 -6 -48 -39 -81 -33 -33 -45 -39 -81 -39 -76 0 -130 52 -130 125 0
97 106 158 190 109z"/>
<path d="M32124 14202 c-283 -101 -300 -582 -25 -719 26 -13 59 -18 119 -18
l83 0 37 -57 37 -58 58 0 58 0 -22 33 c-13 17 -40 55 -60 83 l-38 51 35 34
c19 19 49 63 67 98 28 57 32 77 35 167 5 116 -10 176 -60 256 -75 119 -207
172 -324 130z m154 -76 c42 -22 89 -76 114 -131 20 -43 23 -66 23 -160 -1
-116 -14 -161 -66 -225 l-20 -25 -22 29 c-53 70 -50 67 -100 64 l-47 -3 45
-67 45 -68 -25 -6 c-68 -17 -178 70 -209 164 -46 140 -16 312 68 391 53 50
138 66 194 37z"/>
<path d="M32650 13840 l0 -360 45 0 45 0 0 360 0 360 -45 0 -45 0 0 -360z"/>
<path d="M37306 14170 c-42 -13 -91 -65 -117 -124 -32 -71 -40 -322 -14 -412
23 -82 58 -132 108 -155 114 -51 223 6 264 139 14 44 18 91 17 207 0 131 -3
157 -23 207 -29 74 -55 106 -105 129 -44 20 -84 23 -130 9z m122 -93 c41 -38
55 -113 50 -276 -3 -131 -6 -151 -28 -196 -40 -81 -102 -97 -155 -40 -38 42
-50 106 -50 270 0 138 2 154 24 199 37 76 104 94 159 43z"/>
<path d="M38684 14169 c-39 -11 -102 -73 -125 -124 -22 -47 -26 -172 -7 -226
45 -132 139 -170 256 -103 39 23 42 23 42 6 0 -38 -33 -114 -64 -147 -43 -45
-92 -54 -146 -26 l-39 20 -16 -22 c-24 -34 -18 -46 28 -67 148 -68 295 50 328
261 19 126 -8 294 -60 367 -40 57 -123 83 -197 61z m123 -95 c31 -34 46 -97
41 -176 -4 -79 -26 -116 -81 -136 -45 -18 -81 -3 -114 47 -19 28 -23 47 -23
115 0 96 19 142 71 169 41 21 76 15 106 -19z"/>
<path d="M39166 14170 c-42 -13 -91 -65 -117 -124 -32 -71 -40 -322 -14 -412
23 -82 58 -132 108 -155 114 -51 223 6 264 139 14 44 18 91 17 207 0 131 -3
157 -23 207 -29 74 -55 106 -105 129 -44 20 -84 23 -130 9z m122 -93 c41 -38
55 -113 50 -276 -3 -131 -6 -151 -28 -196 -40 -81 -102 -97 -155 -40 -38 42
-50 106 -50 270 0 138 2 154 24 199 37 76 104 94 159 43z"/>
<path d="M38150 13885 l0 -45 45 0 45 0 0 45 0 45 -45 0 -45 0 0 -45z"/>
<path d="M38150 13525 c0 -26 5 -45 11 -45 11 0 10 -11 -8 -102 -5 -25 -2 -28
20 -28 22 0 28 8 46 62 12 34 21 84 21 110 l0 48 -45 0 -45 0 0 -45z"/>
<path d="M36370 12985 c0 -35 0 -35 45 -35 l45 0 0 -450 0 -450 -45 0 c-45 0
-45 0 -45 -35 l0 -35 85 0 85 0 0 520 0 520 -85 0 -85 0 0 -35z"/>
<path d="M40500 12500 l0 -520 85 0 85 0 0 35 c0 34 -1 35 -40 35 l-40 0 0
450 0 450 40 0 c39 0 40 1 40 35 l0 35 -85 0 -85 0 0 -520z"/>
<path d="M37755 12985 c-130 -46 -151 -225 -35 -301 102 -68 239 -9 265 113
16 77 -43 170 -120 192 -50 14 -61 13 -110 -4z m125 -51 c38 -23 60 -64 60
-114 0 -36 -6 -48 -39 -81 -33 -33 -45 -39 -81 -39 -76 0 -130 52 -130 125 0
97 106 158 190 109z"/>
<path d="M40105 12985 c-130 -46 -151 -225 -35 -301 102 -68 239 -9 265 113
16 77 -43 170 -120 192 -50 14 -61 13 -110 -4z m125 -51 c38 -23 60 -64 60
-114 0 -36 -6 -48 -39 -81 -33 -33 -45 -39 -81 -39 -76 0 -130 52 -130 125 0
97 106 158 190 109z"/>
<path d="M31974 12962 c-283 -101 -300 -582 -25 -719 26 -13 59 -18 119 -18
l83 0 37 -57 37 -58 58 0 58 0 -22 33 c-13 17 -40 55 -60 83 l-38 51 35 34
c19 19 49 63 67 98 28 57 32 77 35 167 5 116 -10 176 -60 256 -75 119 -207
172 -324 130z m154 -76 c42 -22 89 -76 114 -131 20 -43 23 -66 23 -160 -1
-116 -14 -161 -66 -225 l-20 -25 -22 29 c-53 70 -50 67 -100 64 l-47 -3 45
-67 45 -68 -25 -6 c-68 -17 -178 70 -209 164 -46 140 -16 312 68 391 53 50
138 66 194 37z"/>
<path d="M32510 12600 l0 -360 45 0 45 0 0 360 0 360 -45 0 -45 0 0 -360z"/>
<path d="M32800 12600 l0 -360 45 0 45 0 0 360 0 360 -45 0 -45 0 0 -360z"/>
<path d="M36814 12929 c-39 -11 -102 -73 -125 -124 -22 -47 -26 -172 -7 -226
45 -132 139 -170 256 -103 39 23 42 23 42 6 0 -38 -33 -114 -64 -147 -43 -45
-92 -54 -146 -26 l-39 20 -16 -22 c-24 -34 -18 -46 28 -67 148 -68 295 50 328
261 19 126 -8 294 -60 367 -40 57 -123 83 -197 61z m123 -95 c31 -34 46 -97
41 -176 -4 -79 -26 -116 -81 -136 -45 -18 -81 -3 -114 47 -19 28 -23 47 -23
115 0 96 19 142 71 169 41 21 76 15 106 -19z"/>
<path d="M37306 12930 c-42 -13 -91 -65 -117 -124 -32 -71 -40 -322 -14 -412
23 -82 58 -132 108 -155 114 -51 223 6 264 139 14 44 18 91 17 207 0 131 -3
157 -23 207 -29 74 -55 106 -105 129 -44 20 -84 23 -130 9z m122 -93 c41 -38
55 -113 50 -276 -3 -131 -6 -151 -28 -196 -40 -81 -102 -97 -155 -40 -38 42
-50 106 -50 270 0 138 2 154 24 199 37 76 104 94 159 43z"/>
<path d="M38729 12909 c-28 -18 -65 -32 -97 -36 -52 -6 -52 -6 -52 -41 l0 -35
43 7 c23 4 52 9 65 13 l22 5 0 -261 0 -261 -60 0 -60 0 0 -30 0 -30 165 0 165
0 0 30 0 30 -60 0 -60 0 0 320 c0 250 -3 320 -12 319 -7 0 -34 -14 -59 -30z"/>
<path d="M39156 12926 c-142 -53 -169 -221 -49 -302 l31 -21 -35 -18 c-79 -43
-108 -165 -60 -256 66 -125 235 -145 331 -39 81 90 70 221 -25 290 l-40 29 31
16 c67 34 92 139 51 215 -41 78 -149 118 -235 86z m108 -70 c45 -19 66 -52 66
-102 0 -112 -144 -154 -201 -60 -36 59 -15 136 44 161 41 18 50 18 91 1z m38
-325 c68 -76 35 -214 -56 -237 -40 -10 -97 16 -119 54 -24 41 -25 117 -3 160
35 68 127 80 178 23z"/>
<path d="M39656 12930 c-42 -13 -91 -65 -117 -124 -32 -71 -40 -322 -14 -412
23 -82 58 -132 108 -155 114 -51 223 6 264 139 14 44 18 91 17 207 0 131 -3
157 -23 207 -29 74 -55 106 -105 129 -44 20 -84 23 -130 9z m122 -93 c41 -38
55 -113 50 -276 -3 -131 -6 -151 -28 -196 -40 -81 -102 -97 -155 -40 -38 42
-50 106 -50 270 0 138 2 154 24 199 37 76 104 94 159 43z"/>
<path d="M38150 12645 l0 -45 45 0 45 0 0 45 0 45 -45 0 -45 0 0 -45z"/>
<path d="M38150 12285 c0 -26 5 -45 11 -45 11 0 10 -11 -8 -102 -5 -25 -2 -28
20 -28 22 0 28 8 46 62 12 34 21 84 21 110 l0 48 -45 0 -45 0 0 -45z"/>
<path d="M36130 11735 c0 -35 0 -35 45 -35 l45 0 0 -450 0 -450 -45 0 c-45 0
-45 0 -45 -35 l0 -35 85 0 85 0 0 520 0 520 -85 0 -85 0 0 -35z"/>
<path d="M40740 11250 l0 -520 85 0 85 0 0 35 c0 34 -1 35 -40 35 l-40 0 0
450 0 450 40 0 c39 0 40 1 40 35 l0 35 -85 0 -85 0 0 -520z"/>
<path d="M38005 11745 c-130 -46 -151 -225 -35 -301 102 -68 239 -9 265 113
16 77 -43 170 -120 192 -50 14 -61 13 -110 -4z m125 -51 c38 -23 60 -64 60
-114 0 -36 -6 -48 -39 -81 -33 -33 -45 -39 -81 -39 -76 0 -130 52 -130 125 0
97 106 158 190 109z"/>
<path d="M40355 11745 c-130 -46 -151 -225 -35 -301 102 -68 239 -9 265 113
16 77 -43 170 -120 192 -50 14 -61 13 -110 -4z m125 -51 c38 -23 60 -64 60
-114 0 -36 -6 -48 -39 -81 -33 -33 -45 -39 -81 -39 -76 0 -130 52 -130 125 0
97 106 158 190 109z"/>
<path d="M31824 11712 c-283 -101 -300 -582 -25 -719 26 -13 59 -18 119 -18
l83 0 37 -57 37 -58 58 0 58 0 -22 33 c-13 17 -40 55 -60 83 l-38 51 35 34
c19 19 49 63 67 98 28 57 32 77 35 167 5 116 -10 176 -60 256 -75 119 -207
172 -324 130z m154 -76 c42 -22 89 -76 114 -131 20 -43 23 -66 23 -160 -1
-116 -14 -161 -66 -225 l-20 -25 -22 29 c-53 70 -50 67 -100 64 l-47 -3 45
-67 45 -68 -25 -6 c-68 -17 -178 70 -209 164 -46 140 -16 312 68 391 53 50
138 66 194 37z"/>
<path d="M32360 11350 l0 -360 45 0 45 0 0 360 0 360 -45 0 -45 0 0 -360z"/>
<path d="M32650 11350 l0 -360 45 0 45 0 0 360 0 360 -45 0 -45 0 0 -360z"/>
<path d="M32950 11350 l0 -360 45 0 45 0 0 360 0 360 -45 0 -45 0 0 -360z"/>
<path d="M36619 11659 c-28 -18 -65 -32 -97 -36 -52 -6 -52 -6 -52 -41 l0 -35
43 7 c23 4 52 9 65 13 l22 5 0 -261 0 -261 -60 0 -60 0 0 -30 0 -30 165 0 165
0 0 30 0 30 -60 0 -60 0 0 320 c0 250 -3 320 -12 319 -7 0 -34 -14 -59 -30z"/>
<path d="M37056 11676 c-142 -53 -169 -221 -49 -302 l31 -21 -35 -18 c-79 -43
-108 -165 -60 -256 66 -125 235 -145 331 -39 81 90 70 221 -25 290 l-40 29 31
16 c67 34 92 139 51 215 -41 78 -149 118 -235 86z m108 -70 c45 -19 66 -52 66
-102 0 -112 -144 -154 -201 -60 -36 59 -15 136 44 161 41 18 50 18 91 1z m38
-325 c68 -76 35 -214 -56 -237 -40 -10 -97 16 -119 54 -24 41 -25 117 -3 160
35 68 127 80 178 23z"/>
<path d="M37546 11680 c-42 -13 -91 -65 -117 -124 -32 -71 -40 -322 -14 -412
23 -82 58 -132 108 -155 114 -51 223 6 264 139 14 44 18 91 17 207 0 131 -3
157 -23 207 -29 74 -55 106 -105 129 -44 20 -84 23 -130 9z m122 -93 c41 -38
55 -113 50 -276 -3 -131 -6 -151 -28 -196 -40 -81 -102 -97 -155 -40 -38 42
-50 106 -50 270 0 138 2 154 24 199 37 76 104 94 159 43z"/>
<path d="M38906 11680 c-53 -16 -127 -108 -126 -157 1 -17 37 -70 43 -62 2 2
9 23 15 46 7 22 25 55 41 72 24 25 37 31 73 31 114 0 173 -124 113 -239 -8
-17 -76 -95 -150 -173 -115 -122 -134 -148 -135 -175 l0 -33 200 0 200 0 0 35
0 35 -157 0 -157 0 136 138 c145 146 177 195 178 268 1 151 -133 256 -274 214z"/>
<path d="M39896 11680 c-42 -13 -91 -65 -117 -124 -32 -71 -40 -322 -14 -412
23 -82 58 -132 108 -155 114 -51 223 6 264 139 14 44 18 91 17 207 0 131 -3
157 -23 207 -29 74 -55 106 -105 129 -44 20 -84 23 -130 9z m122 -93 c41 -38
55 -113 50 -276 -3 -131 -6 -151 -28 -196 -40 -81 -102 -97 -155 -40 -38 42
-50 106 -50 270 0 138 2 154 24 199 37 76 104 94 159 43z"/>
<path d="M39270 11630 l0 -40 160 -2 160 -3 -36 -50 c-91 -126 -163 -322 -178
-487 l-7 -68 45 0 45 0 6 48 c30 245 75 376 181 525 23 32 34 58 34 82 l0 35
-205 0 -205 0 0 -40z"/>
<path d="M38390 11395 l0 -45 45 0 45 0 0 45 0 45 -45 0 -45 0 0 -45z"/>
<path d="M38390 11035 c0 -26 5 -45 11 -45 11 0 10 -11 -8 -102 -5 -25 -2 -28
20 -28 22 0 28 8 46 62 12 34 21 84 21 110 l0 48 -45 0 -45 0 0 -45z"/>
<path d="M36130 10495 c0 -35 0 -35 45 -35 l45 0 0 -450 0 -450 -45 0 c-45 0
-45 0 -45 -35 l0 -35 85 0 85 0 0 520 0 520 -85 0 -85 0 0 -35z"/>
<path d="M40740 10010 l0 -520 85 0 85 0 0 35 c0 34 -1 35 -40 35 l-40 0 0
450 0 450 40 0 c39 0 40 1 40 35 l0 35 -85 0 -85 0 0 -520z"/>
<path d="M38005 10495 c-130 -46 -151 -225 -35 -301 102 -68 239 -9 265 113
16 77 -43 170 -120 192 -50 14 -61 13 -110 -4z m125 -51 c38 -23 60 -64 60
-114 0 -36 -6 -48 -39 -81 -33 -33 -45 -39 -81 -39 -76 0 -130 52 -130 125 0
97 106 158 190 109z"/>
<path d="M40355 10495 c-130 -46 -151 -225 -35 -301 102 -68 239 -9 265 113
16 77 -43 170 -120 192 -50 14 -61 13 -110 -4z m125 -51 c38 -23 60 -64 60
-114 0 -36 -6 -48 -39 -81 -33 -33 -45 -39 -81 -39 -76 0 -130 52 -130 125 0
97 106 158 190 109z"/>
<path d="M31804 10472 c-283 -101 -300 -582 -25 -719 26 -13 59 -18 119 -18
l83 0 37 -57 37 -58 58 0 58 0 -22 33 c-13 17 -40 55 -60 83 l-38 51 35 34
c19 19 49 63 67 98 28 57 32 77 35 167 5 116 -10 176 -60 256 -75 119 -207
172 -324 130z m154 -76 c42 -22 89 -76 114 -131 20 -43 23 -66 23 -160 -1
-116 -14 -161 -66 -225 l-20 -25 -22 29 c-53 70 -50 67 -100 64 l-47 -3 45
-67 45 -68 -25 -6 c-68 -17 -178 70 -209 164 -46 140 -16 312 68 391 53 50
138 66 194 37z"/>
<path d="M32330 10110 l0 -360 45 0 45 0 0 360 0 360 -45 0 -45 0 0 -360z"/>
<path d="M32520 10466 c0 -2 54 -152 121 -332 67 -181 126 -342 131 -357 10
-26 13 -28 61 -25 l52 3 127 345 c70 190 127 351 127 358 1 8 -14 12 -41 12
l-43 0 -104 -293 c-56 -160 -105 -299 -108 -307 -2 -8 -36 73 -74 180 -38 107
-87 246 -110 308 l-41 112 -49 0 c-27 0 -49 -2 -49 -4z"/>
<path d="M36556 10440 c-53 -16 -127 -108 -126 -157 1 -17 37 -70 43 -62 2 2
9 23 15 46 7 22 25 55 41 72 24 25 37 31 73 31 114 0 173 -124 113 -239 -8
-17 -76 -95 -150 -173 -115 -122 -134 -148 -135 -175 l0 -33 200 0 200 0 0 35
0 35 -157 0 -157 0 136 138 c145 146 177 195 178 268 1 151 -133 256 -274 214z"/>
<path d="M37546 10440 c-42 -13 -91 -65 -117 -124 -32 -71 -40 -322 -14 -412
23 -82 58 -132 108 -155 114 -51 223 6 264 139 14 44 18 91 17 207 0 131 -3
157 -23 207 -29 74 -55 106 -105 129 -44 20 -84 23 -130 9z m122 -93 c41 -38
55 -113 50 -276 -3 -131 -6 -151 -28 -196 -40 -81 -102 -97 -155 -40 -38 42
-50 106 -50 270 0 138 2 154 24 199 37 76 104 94 159 43z"/>
<path d="M38905 10435 c-40 -16 -89 -56 -106 -88 -7 -12 -5 -26 7 -47 l18 -29
38 44 c89 101 218 72 205 -45 -7 -59 -54 -104 -120 -114 -45 -7 -47 -8 -47
-42 l0 -34 50 0 c99 0 146 -54 138 -157 -5 -62 -40 -108 -90 -119 -45 -9 -113
14 -162 57 -24 21 -46 35 -50 32 -3 -3 -6 -21 -6 -39 0 -79 161 -148 265 -114
90 30 154 132 141 225 -8 52 -53 118 -94 135 l-29 13 38 38 c88 88 74 226 -28
274 -51 24 -119 28 -168 10z"/>
<path d="M39462 10437 c-79 -25 -158 -129 -182 -238 -18 -83 -8 -259 19 -330
69 -179 262 -187 354 -14 33 62 31 191 -4 266 -15 31 -40 66 -57 77 -54 39
-155 26 -216 -27 -18 -15 -18 -15 -11 19 3 19 18 58 31 87 40 84 104 112 207
89 l37 -8 0 35 c0 33 -2 35 -44 46 -53 13 -89 13 -134 -2z m82 -313 c73 -74
54 -274 -29 -312 -39 -18 -60 -15 -94 14 -53 44 -78 175 -47 248 31 75 118
101 170 50z"/>
<path d="M39896 10440 c-42 -13 -91 -65 -117 -124 -32 -71 -40 -322 -14 -412
23 -82 58 -132 108 -155 114 -51 223 6 264 139 14 44 18 91 17 207 0 131 -3
157 -23 207 -29 74 -55 106 -105 129 -44 20 -84 23 -130 9z m122 -93 c41 -38
55 -113 50 -276 -3 -131 -6 -151 -28 -196 -40 -81 -102 -97 -155 -40 -38 42
-50 106 -50 270 0 138 2 154 24 199 37 76 104 94 159 43z"/>
<path d="M36920 10390 l0 -40 160 -2 160 -3 -36 -50 c-91 -126 -163 -322 -178
-487 l-7 -68 45 0 45 0 6 48 c30 245 75 376 181 525 23 32 34 58 34 82 l0 35
-205 0 -205 0 0 -40z"/>
<path d="M38390 10155 l0 -45 45 0 45 0 0 45 0 45 -45 0 -45 0 0 -45z"/>
<path d="M38390 9795 c0 -26 5 -45 11 -45 11 0 10 -11 -8 -102 -5 -25 -2 -28
20 -28 22 0 28 8 46 62 12 34 21 84 21 110 l0 48 -45 0 -45 0 0 -45z"/>
<path d="M11665 660 c4 -6 57 -10 125 -10 68 0 121 4 125 10 4 6 -40 10 -125
10 -85 0 -129 -4 -125 -10z"/>
</g>
</svg>
