<?xml version="1.0" standalone="no"?>
<!DOCTYPE svg PUBLIC "-//W3C//DTD SVG 20010904//EN"
 "http://www.w3.org/TR/2001/REC-SVG-20010904/DTD/svg10.dtd">
<svg version="1.0" xmlns="http://www.w3.org/2000/svg"
 width="10858.000000pt" height="7954.000000pt" viewBox="0 0 10858.000000 7954.000000"
 preserveAspectRatio="xMidYMid meet">
<metadata>
Created by potrace 1.16, written by Peter Selinger 2001-2019
</metadata>
<g transform="translate(0.000000,7954.000000) scale(0.100000,-0.100000)"
fill="#000000" stroke="none">
<path d="M84470 79060 l0 -40 -110 0 -110 0 0 -65 0 -65 -110 0 -110 0 0 -65
0 -65 -120 0 -120 0 0 -65 0 -65 -110 0 -110 0 0 -65 0 -65 -110 0 -110 0 0
-65 0 -65 -110 0 -110 0 0 -65 0 -65 -120 0 -120 0 0 -65 0 -65 -110 0 -110 0
0 -65 0 -65 -110 0 -110 0 0 -65 0 -65 -110 0 -110 0 0 -65 0 -65 -120 0 -120
0 0 -65 0 -65 -110 0 -110 0 0 -65 0 -65 -110 0 -110 0 0 -65 0 -65 -120 0
-120 0 0 -65 0 -65 -110 0 -110 0 0 -65 0 -65 -110 0 -110 0 0 -65 0 -65 -110
0 -110 0 0 -65 0 -65 -120 0 -120 0 0 -65 0 -65 -110 0 -110 0 0 -65 0 -65
-110 0 -110 0 0 -65 0 -65 -110 0 -110 0 0 -65 0 -65 -120 0 -120 0 0 -65 0
-65 -110 0 -110 0 0 -65 0 -65 -110 0 -110 0 0 -65 0 -65 -110 0 -110 0 0 -65
0 -65 -120 0 -120 0 0 -65 0 -65 -110 0 -110 0 0 -65 0 -65 -110 0 -110 0 0
-65 0 -65 -110 0 -110 0 0 -65 0 -65 -120 0 -120 0 0 -65 0 -65 -110 0 -110 0
0 -65 0 -65 -110 0 -110 0 0 -65 0 -65 -110 0 -110 0 0 -65 0 -65 -120 0 -120
0 0 -65 0 -65 -110 0 -110 0 0 -65 0 -65 -110 0 -110 0 0 -65 0 -65 -110 0
-110 0 0 -65 0 -65 -120 0 -120 0 0 -65 0 -65 -110 0 -110 0 0 -65 0 -65 -110
0 -110 0 0 -65 0 -65 -110 0 -110 0 0 -65 0 -65 -120 0 -120 0 0 -65 0 -65
-110 0 -110 0 0 -65 0 -65 -110 0 -110 0 0 -65 0 -65 -120 0 -120 0 0 -65 0
-65 -110 0 -110 0 0 -65 0 -65 -110 0 -110 0 0 -65 0 -65 -915 0 -915 0 0 -65
0 -65 -60 0 -60 0 0 -65 0 -65 -160 0 -160 0 0 -65 0 -65 -110 0 -110 0 0 -65
0 -65 -110 0 -110 0 0 -65 0 -65 -395 0 -395 0 0 -65 c0 -37 -4 -65 -10 -65
-6 0 -10 -28 -10 -65 0 -37 -4 -65 -10 -65 -6 0 -10 -28 -10 -65 l0 -65 -295
0 -295 0 0 -65 c0 -37 4 -65 10 -65 6 0 10 -28 10 -65 l0 -65 -105 0 -105 0 0
-130 0 -130 -105 0 -105 0 0 -65 0 -65 -60 0 -60 0 0 -65 0 -65 -170 0 -170 0
0 -65 0 -65 -90 0 -90 0 0 -65 0 -65 -75 0 -75 0 0 -65 0 -65 -405 0 -405 0 0
-65 c0 -58 2 -65 20 -65 18 0 20 -7 20 -65 l0 -65 30 0 30 0 0 -65 0 -65 40 0
40 0 0 -65 0 -65 40 0 40 0 0 -65 0 -65 40 0 40 0 0 -65 0 -65 195 0 195 0 0
-65 0 -65 -110 0 -110 0 0 -65 0 -65 -120 0 -120 0 0 -65 0 -65 -110 0 -110 0
0 -65 0 -65 -110 0 -110 0 0 -65 0 -65 -120 0 -120 0 0 -65 0 -65 -110 0 -110
0 0 -65 0 -65 -110 0 -110 0 0 -65 0 -65 -15330 0 -15330 0 0 -65 0 -65 -8940
0 -8940 0 0 -65 0 -65 -370 0 -370 0 0 -65 c0 -37 -4 -65 -10 -65 -6 0 -10
-28 -10 -65 0 -37 -4 -65 -10 -65 -6 0 -10 -28 -10 -65 l0 -65 30 0 30 0 0
-65 0 -65 369 0 369 0 7 -130 c7 -118 9 -130 26 -130 18 0 19 -19 19 -650 l0
-650 -370 0 -370 0 0 -130 0 -130 -8480 0 -8480 0 0 -8710 c0 -5800 -3 -8710
-10 -8710 -6 0 -10 -115 -10 -325 l0 -325 -155 0 c-131 0 -155 -2 -155 -15 0
-13 25 -15 168 -15 l167 0 1 -113 c0 -62 4 -125 8 -140 l6 -27 -170 0 c-107 0
-170 -4 -170 -10 0 -6 60 -10 160 -10 l160 0 2 -57 1 -58 7 50 c5 42 7 33 11
-58 l4 -107 -177 0 -178 0 0 -45 0 -45 165 0 165 0 0 -8385 0 -8385 8255 0
c8158 0 8255 0 8255 19 0 15 8 21 33 24 l32 4 -32 1 c-22 1 -33 7 -33 17 0 13
11 14 68 9 200 -17 379 -27 470 -26 l102 1 0 -69 0 -70 -35 0 c-28 0 -35 -4
-35 -20 0 -19 7 -20 96 -20 86 0 95 2 92 18 -2 11 -14 18 -36 20 l-32 3 0 65
0 64 80 0 80 0 0 -135 0 -135 -425 0 c-371 0 -425 -2 -425 -15 0 -13 1058 -15
9460 -15 l9460 0 0 -780 0 -780 915 0 915 0 0 -65 0 -65 70 0 70 0 0 -65 0
-65 60 0 60 0 0 -65 0 -65 60 0 60 0 0 -65 0 -65 70 0 70 0 0 -65 0 -65 70 0
70 0 0 -65 0 -65 60 0 60 0 0 -65 0 -65 60 0 60 0 0 -65 0 -65 70 0 70 0 0
-65 0 -65 70 0 70 0 0 -65 0 -65 60 0 60 0 0 -65 0 -65 60 0 60 0 0 -65 0 -65
80 0 80 0 0 -50 0 -50 70 0 70 0 0 50 c0 49 -1 50 -30 50 l-30 0 0 65 0 65
-80 0 -80 0 0 65 0 65 -50 0 -50 0 0 65 0 65 -70 0 -70 0 0 65 0 65 -70 0 -70
0 0 65 0 65 -60 0 -60 0 0 65 0 65 -60 0 -60 0 0 65 0 65 -70 0 -70 0 0 65 0
65 -80 0 -80 0 0 65 0 65 -50 0 -50 0 0 65 0 65 -60 0 -60 0 0 65 0 65 -70 0
-70 0 0 65 0 65 -80 0 -80 0 0 65 0 65 -50 0 -50 0 0 65 0 65 -60 0 -60 0 0
65 0 65 -70 0 -70 0 0 65 0 65 -70 0 -70 0 0 65 0 65 -60 0 -60 0 0 65 0 65
-60 0 -60 0 0 65 0 65 -70 0 -70 0 0 65 0 65 -70 0 -70 0 0 65 0 65 -60 0 -60
0 0 65 0 65 -60 0 -60 0 0 65 0 65 -80 0 -80 0 0 65 0 65 -60 0 -60 0 0 65 0
65 460 0 460 0 0 130 0 130 -95 0 -95 0 0 65 0 65 30 0 30 0 0 65 0 65 30 0
30 0 0 130 0 130 -65 0 -65 0 0 3835 0 3835 1495 0 1495 0 0 585 0 585 -1485
0 -1485 0 0 3835 0 3835 55 0 55 0 0 65 c0 37 -4 65 -10 65 -6 0 -10 28 -10
65 l0 65 2135 0 2135 0 0 65 c0 58 2 65 20 65 19 0 20 7 20 195 0 123 -4 195
-10 195 -6 0 -10 28 -10 65 l0 65 -2713 0 -2714 0 -6 293 c-4 160 -7 3027 -7
6370 l0 6077 17340 0 17340 0 0 65 0 65 1080 0 1080 0 0 65 0 65 50 0 50 0 0
65 0 65 -80 0 -80 0 0 65 0 65 70 0 70 0 0 130 0 130 -70 0 -70 0 0 65 0 65
-1040 0 -1040 0 0 65 0 65 6865 0 6865 0 0 195 0 195 11630 0 11630 0 0 65 0
65 40 0 40 0 0 65 0 65 30 0 30 0 0 65 c0 37 4 65 10 65 6 0 10 93 10 260 0
167 -4 260 -10 260 -6 0 -10 28 -10 65 l0 65 -30 0 -30 0 0 65 0 65 -1470 0
-1470 0 0 65 0 65 1555 0 1555 0 0 65 0 65 -165 0 -165 0 0 65 0 65 40 0 40 0
0 65 c0 58 2 65 20 65 18 0 20 7 20 65 0 37 4 65 10 65 6 0 10 93 10 260 0
253 -1 260 -20 260 -18 0 -20 7 -20 65 l0 65 -30 0 -30 0 0 65 0 65 -11610 0
-11610 0 0 1105 0 1105 8655 0 8655 0 0 130 0 130 1950 0 1950 0 0 130 c0 80
4 130 10 130 6 0 10 28 10 65 0 37 -4 65 -10 65 -6 0 -10 28 -10 65 l0 65
-960 0 -960 0 0 65 0 65 40 0 40 0 0 65 0 65 -2030 0 -2030 0 0 65 0 65 3055
0 3055 0 0 65 0 65 -3055 0 -3055 0 0 65 0 65 1920 0 1920 0 0 65 c0 37 4 65
10 65 6 0 10 28 10 65 l0 65 1120 0 1120 0 0 65 0 65 -80 0 -80 0 0 130 0 130
70 0 70 0 0 65 0 65 -70 0 -70 0 0 65 0 65 -1040 0 -1040 0 0 65 0 65 -9585 0
-9585 0 0 65 0 65 365 0 365 0 0 65 0 65 60 0 60 0 0 195 0 195 100 0 100 0 0
130 0 130 -100 0 -100 0 0 130 0 130 100 0 100 0 0 130 0 130 -100 0 -100 0 0
65 c0 37 -4 65 -10 65 -6 0 -10 28 -10 65 0 58 -2 65 -20 65 -18 0 -20 7 -20
65 l0 65 30 0 30 0 0 130 c0 123 -1 130 -20 130 -18 0 -20 7 -20 65 0 58 2 65
20 65 18 0 20 7 20 65 l0 65 8180 0 8180 0 0 65 0 65 1950 0 1950 0 0 130 c0
80 4 130 10 130 6 0 10 28 10 65 0 37 -4 65 -10 65 -6 0 -10 28 -10 65 l0 65
-50 0 -50 0 0 65 0 65 -880 0 -880 0 0 65 c0 37 4 65 10 65 6 0 10 28 10 65
l0 65 945 0 945 0 0 130 0 130 -885 0 -885 0 0 130 0 130 810 0 810 0 0 130
c0 80 4 130 10 130 6 0 10 28 10 65 0 37 -4 65 -10 65 -6 0 -10 28 -10 65 l0
65 -70 0 -70 0 0 65 0 65 50 0 50 0 0 65 0 65 -1275 0 -1275 0 0 65 0 65
-9210 0 -9210 0 0 1495 0 1495 9960 0 9960 0 0 65 c0 37 -4 65 -10 65 -6 0
-10 28 -10 65 0 58 -2 65 -20 65 -18 0 -20 7 -20 65 0 58 -2 65 -20 65 -18 0
-20 7 -20 65 l0 65 -30 0 -30 0 0 65 c0 58 -2 65 -20 65 -18 0 -20 7 -20 65 0
58 -2 65 -20 65 -18 0 -20 7 -20 65 l0 65 -9840 0 -9840 0 0 40 0 40 -80 0
-80 0 0 -40z m-66372 -12662 l-3 -113 -77 -3 -78 -3 0 96 c0 96 -8 113 -37 84
-7 -7 -29 -15 -50 -18 -26 -4 -39 -12 -41 -25 -4 -17 0 -18 37 -12 l41 6 0
-64 c0 -63 0 -64 -31 -70 -17 -3 -58 -6 -90 -6 l-59 0 0 120 0 120 195 0 196
0 -3 -112z m0 -270 l3 -108 -196 0 -195 0 0 99 c0 114 -4 111 113 111 l67 0 0
-60 0 -60 -35 0 c-28 0 -35 -4 -35 -20 0 -19 7 -20 96 -20 86 0 95 2 92 18 -2
11 -14 18 -36 20 l-32 3 0 59 0 59 58 4 c106 7 97 16 100 -105z m2 -3408 l0
-240 -420 0 -420 0 0 120 0 120 28 1 27 2 -27 4 -28 4 0 115 0 114 420 0 420
0 0 -240z m0 -3540 l0 -240 -420 0 -420 0 0 115 0 115 28 1 27 2 -27 4 -28 4
0 120 0 119 420 0 420 0 0 -240z m0 -3545 l0 -245 -420 0 -420 0 0 120 0 120
28 1 27 2 -27 4 -28 4 0 120 0 119 420 0 420 0 0 -245z m4190 -825 l0 -520
-135 0 -135 0 41 52 c88 112 127 231 136 415 7 138 -6 236 -43 345 -41 122
-114 218 -166 218 l-30 0 30 -37 c42 -55 79 -131 104 -220 30 -105 33 -376 5
-493 -19 -83 -67 -186 -113 -243 l-29 -37 -377 0 -378 0 -31 43 c-50 68 -97
175 -115 266 -13 65 -15 119 -11 245 6 214 35 318 120 429 l37 47 -35 0 c-30
0 -39 -7 -74 -52 -50 -68 -73 -115 -102 -208 -21 -67 -24 -94 -24 -250 0 -136
4 -189 18 -239 23 -86 68 -177 111 -228 20 -22 36 -44 36 -47 0 -3 -306 -6
-680 -6 l-680 0 0 520 0 520 1260 0 1260 0 0 -520z m-4190 -2720 l0 -240 -420
0 -420 0 0 120 0 120 28 1 27 2 -27 4 -28 4 0 115 0 114 420 0 420 0 0 -240z
m-2 -3367 l-3 -68 -37 -3 c-33 -3 -38 0 -54 33 -42 90 -150 91 -195 3 -18 -34
-23 -38 -59 -38 l-40 0 0 70 0 70 195 0 196 0 -3 -67z m-151 -25 c40 -37 30
-48 -42 -48 -72 0 -78 8 -40 45 30 31 52 31 82 3z m-147 -274 c0 -9 15 -31 34
-50 55 -55 136 -41 170 31 15 31 21 35 56 35 l40 0 0 -65 0 -65 -195 0 -195 0
0 65 0 65 45 0 c35 0 45 -4 45 -16z m170 6 c0 -6 -11 -22 -25 -36 -29 -29 -58
-26 -87 8 -29 33 -22 38 47 38 39 0 65 -4 65 -10z m-16800 -515 l0 -265 -194
0 -194 0 -7 93 c-3 50 -5 108 -4 127 1 19 -2 97 -6 173 l-8 137 206 0 207 0 0
-265z m3780 0 l0 -265 -655 0 -655 0 0 265 0 265 655 0 655 0 0 -265z m3540 0
l0 -265 -655 0 -655 0 0 265 0 265 655 0 655 0 0 -265z m3540 0 l0 -265 -650
0 -650 0 0 265 0 265 650 0 650 0 0 -265z m3550 0 l0 -265 -655 0 -655 0 0
265 0 265 655 0 655 0 0 -265z m2820 243 c0 -13 -11 -44 -24 -70 -45 -88 -43
-247 4 -310 11 -15 20 -39 20 -53 0 -24 -2 -25 -65 -25 l-65 0 0 240 0 240 65
0 c61 0 65 -1 65 -22z m260 -218 l0 -240 -65 0 c-59 0 -65 2 -65 21 0 11 8 33
19 47 54 77 54 257 1 333 -11 15 -20 39 -20 53 0 25 2 26 65 26 l65 0 0 -240z
m3770 0 l0 -240 -420 0 -420 0 0 240 0 240 420 0 420 0 0 -240z m3540 0 l0
-240 -420 0 -420 0 0 240 0 240 420 0 420 0 0 -240z m3550 0 l0 -240 -420 0
-420 0 0 240 0 240 420 0 420 0 0 -240z m3540 0 l0 -240 -420 0 -420 0 0 240
0 240 420 0 420 0 0 -240z m3020 0 l0 -240 -45 0 -45 0 0 240 0 240 45 0 45 0
0 -240z m300 0 l0 -240 -45 0 -45 0 0 240 0 240 45 0 45 0 0 -240z m-17843
-52 c-2 -29 -3 -8 -3 47 0 55 1 79 3 53 2 -26 2 -71 0 -100z m-140 10 c-2 -24
-4 -5 -4 42 0 47 2 66 4 43 2 -24 2 -62 0 -85z m-6028 -700 c-51 -65 -81 -123
-111 -218 -20 -67 -23 -94 -23 -250 0 -136 4 -189 18 -239 25 -90 70 -180 117
-234 l42 -47 -781 0 -781 0 0 520 0 520 780 0 780 0 -41 -52z m887 9 c47 -63
81 -136 106 -224 30 -105 33 -376 5 -493 -19 -83 -67 -186 -113 -243 l-29 -37
-377 0 -378 0 -31 43 c-50 68 -97 175 -115 266 -13 65 -15 119 -11 245 6 215
34 313 123 433 l39 53 375 -1 375 0 31 -42z m304 -477 l0 -520 -135 0 -135 0
41 52 c88 112 127 231 136 415 11 232 -39 409 -151 531 l-39 42 142 0 141 0 0
-520z m4540 -1725 l0 -265 -655 0 -655 0 0 130 c0 97 3 130 13 131 10 0 10 2
0 6 -10 3 -13 40 -13 134 l0 129 655 0 655 0 0 -265z m0 -3545 l0 -270 -655 0
-655 0 0 135 c0 101 3 135 13 136 10 0 10 2 0 6 -10 3 -13 40 -13 134 l0 129
655 0 655 0 0 -270z m22120 -1770 l0 -520 -135 0 -135 0 41 52 c88 112 127
231 136 415 7 138 -6 236 -43 345 -41 122 -114 218 -166 218 l-30 0 30 -37
c42 -55 79 -131 104 -220 30 -105 33 -376 5 -493 -19 -83 -67 -186 -113 -243
l-29 -37 -382 0 -383 0 -31 43 c-50 68 -97 175 -115 266 -13 65 -15 119 -11
245 6 214 35 318 120 429 l37 47 -35 0 c-30 0 -39 -7 -74 -52 -50 -68 -73
-115 -102 -208 -21 -67 -24 -94 -24 -250 0 -136 4 -189 18 -239 23 -86 68
-177 111 -228 20 -22 36 -44 36 -47 0 -3 -353 -6 -785 -6 l-785 0 0 520 0 520
1370 0 1370 0 0 -520z m-22120 -1770 l0 -270 -655 0 -655 0 0 130 c0 97 3 130
13 131 10 0 10 2 0 6 -10 3 -13 41 -13 139 l0 134 655 0 655 0 0 -270z m0
-3545 l0 -265 -655 0 -655 0 0 130 c0 97 3 130 13 131 10 0 10 2 0 6 -10 3
-13 40 -13 134 l0 129 655 0 655 0 0 -265z m0 -3400 c0 -145 3 -141 -95 -130
l-65 7 0 104 c0 105 -7 123 -37 93 -7 -7 -29 -15 -50 -18 -26 -4 -39 -12 -41
-25 -4 -17 0 -18 37 -12 l41 6 0 -75 0 -75 -37 0 c-55 0 -413 18 -515 26 l-88
7 0 108 0 109 425 0 425 0 0 -125z"/>
<path d="M17425 62932 c-66 -14 -100 -85 -99 -207 0 -96 15 -146 55 -180 55
-45 132 -26 164 42 38 80 28 249 -18 306 -23 29 -68 46 -102 39z m64 -56 c17
-18 24 -41 28 -85 l6 -61 -44 -2 -44 -1 43 -4 c42 -4 42 -4 42 -44 0 -83 -43
-139 -94 -119 -35 13 -47 41 -53 125 -8 99 3 162 32 191 31 30 56 30 84 0z"/>
<path d="M17876 62929 c-38 -11 -74 -45 -81 -80 -8 -35 17 -85 46 -94 21 -7
21 -8 -9 -31 -42 -34 -57 -82 -39 -126 21 -51 61 -78 113 -78 36 0 51 6 82 34
32 30 37 40 37 79 0 30 -6 52 -18 65 -19 20 -18 21 20 25 32 3 30 4 -14 5 -29
1 -53 4 -53 6 0 3 14 18 30 34 60 61 29 136 -70 165 -8 2 -28 0 -44 -4z m79
-54 c30 -30 31 -54 4 -89 -40 -51 -122 -22 -122 44 0 64 72 92 118 45z m4
-181 c37 -47 23 -116 -26 -135 -78 -30 -135 78 -76 144 25 27 78 22 102 -9z"/>
<path d="M17718 62723 c17 -2 47 -2 65 0 17 2 3 4 -33 4 -36 0 -50 -2 -32 -4z"/>
<path d="M17660 62556 c0 -21 5 -26 26 -26 21 0 25 4 22 23 -2 14 -11 23 -25
25 -19 3 -23 -1 -23 -22z"/>
<path d="M17425 59382 c-66 -14 -100 -85 -99 -207 0 -96 15 -146 55 -180 55
-45 132 -26 164 42 38 80 28 249 -18 306 -23 29 -68 46 -102 39z m64 -56 c17
-18 24 -41 28 -85 l6 -61 -44 -2 -44 -1 43 -4 c42 -4 42 -4 42 -44 0 -83 -43
-139 -94 -119 -35 13 -47 41 -53 125 -8 99 3 162 32 191 31 30 56 30 84 0z"/>
<path d="M17912 59379 c-60 -12 -107 -72 -120 -152 -7 -42 -8 -42 -57 -48
l-50 -6 47 -1 c44 -2 47 -4 53 -34 24 -127 55 -168 127 -168 33 0 46 6 74 35
34 37 52 103 40 143 -5 16 -2 21 16 25 20 4 20 4 -4 6 -16 0 -28 7 -28 14 0 8
-11 24 -25 37 -29 27 -81 29 -120 4 -24 -16 -25 -16 -25 7 0 31 33 85 61 99
12 7 39 10 61 7 32 -4 39 -2 36 11 -4 20 -44 30 -86 21z m34 -174 c15 -12 16
-16 6 -23 -11 -7 -9 -10 7 -15 18 -4 21 -13 21 -57 0 -44 -4 -56 -30 -82 -19
-18 -36 -28 -46 -24 -9 3 -20 6 -25 6 -17 0 -39 60 -39 110 0 41 5 56 25 75
28 28 53 32 81 10z"/>
<path d="M17660 59006 c0 -21 5 -26 26 -26 21 0 25 4 22 23 -2 14 -11 23 -25
25 -19 3 -23 -1 -23 -22z"/>
<path d="M17425 55842 c-66 -14 -100 -85 -99 -207 0 -96 15 -146 55 -180 55
-45 132 -26 164 42 38 80 28 249 -18 306 -23 29 -68 46 -102 39z m64 -56 c17
-18 24 -41 28 -85 l6 -61 -44 -2 -44 -1 43 -4 c42 -4 42 -4 42 -44 0 -83 -43
-139 -94 -119 -35 13 -47 41 -53 125 -8 99 3 162 32 191 31 30 56 30 84 0z"/>
<path d="M17868 55738 l-53 -93 -65 -6 -65 -6 58 -1 c31 -1 57 -5 57 -10 0 -4
-7 -18 -16 -30 -28 -41 -13 -52 71 -52 l75 0 0 -50 c0 -47 2 -50 25 -50 23 0
25 3 25 49 0 47 2 50 28 53 16 2 27 9 27 18 0 9 -11 16 -27 18 -22 3 -28 9
-28 27 0 21 5 24 43 28 l42 4 -42 1 -43 2 0 95 0 95 -29 0 c-26 0 -34 -9 -83
-92z m62 -63 l0 -95 -51 0 c-28 0 -49 4 -47 8 9 21 93 182 96 182 1 0 2 -43 2
-95z"/>
<path d="M17660 55466 c0 -21 5 -26 26 -26 21 0 25 4 22 23 -2 14 -11 23 -25
25 -19 3 -23 -1 -23 -22z"/>
<path d="M20220 55175 l0 -45 45 0 45 0 0 45 0 45 -45 0 -45 0 0 -45z"/>
<path d="M19899 54999 c-78 -22 -117 -102 -84 -172 18 -39 66 -67 158 -92 45
-12 60 -21 67 -40 13 -33 -6 -74 -37 -81 -37 -10 -115 1 -153 19 -37 19 -50
11 -50 -29 0 -42 150 -79 222 -55 19 6 48 25 64 42 25 26 29 38 29 85 0 52 -3
58 -41 94 -29 26 -54 40 -85 45 -24 4 -59 13 -76 21 -28 11 -33 18 -33 48 0
25 6 38 19 46 28 15 116 12 156 -4 36 -15 45 -9 45 34 0 34 -130 59 -201 39z"/>
<path d="M21496 54994 c-102 -32 -206 -175 -206 -282 0 -46 36 -119 71 -145
58 -42 167 -31 256 25 35 23 48 27 52 17 9 -27 60 -69 84 -69 29 0 87 44 87
66 0 21 -9 17 -37 -16 -43 -52 -73 -30 -73 53 0 35 8 57 40 105 43 64 94 187
84 203 -8 14 -24 1 -24 -21 0 -10 -21 -60 -47 -111 l-48 -94 -6 70 c-6 81 -14
110 -41 148 -39 55 -115 75 -192 51z m123 -33 c30 -30 41 -85 41 -205 0 -122
3 -117 -83 -162 -64 -33 -138 -42 -171 -20 -39 25 -52 83 -37 164 21 114 59
182 126 223 40 25 99 25 124 0z"/>
<path d="M20230 54775 l0 -225 35 0 35 0 0 225 0 225 -35 0 -35 0 0 -225z"/>
<path d="M20460 54775 l0 -225 40 0 40 0 0 158 c0 138 2 161 20 189 21 36 55
49 98 38 60 -15 62 -22 62 -212 l0 -173 40 0 40 0 0 183 c0 164 -2 185 -20
215 -25 41 -61 55 -127 50 -36 -3 -62 -13 -87 -32 l-36 -27 0 30 c0 29 -3 31
-35 31 l-35 0 0 -225z"/>
<path d="M17425 52302 c-66 -14 -100 -85 -99 -207 0 -96 15 -146 55 -180 55
-45 132 -26 164 42 38 80 28 249 -18 306 -23 29 -68 46 -102 39z m64 -56 c17
-18 24 -41 28 -85 l6 -61 -44 -2 -44 -1 43 -4 c42 -4 42 -4 42 -44 0 -83 -43
-139 -94 -119 -35 13 -47 41 -53 125 -8 99 3 162 32 191 31 30 56 30 84 0z"/>
<path d="M17863 52298 c-35 -9 -73 -54 -73 -86 0 -35 16 -33 33 4 21 43 59 60
99 43 36 -15 48 -37 48 -87 0 -46 -28 -88 -119 -177 -90 -88 -86 -95 54 -95
108 0 115 1 115 20 0 19 -7 20 -92 20 l-92 0 74 75 c67 67 79 75 115 77 37 1
37 2 7 5 -29 4 -31 6 -21 25 19 34 5 116 -23 145 -30 30 -82 43 -125 31z"/>
<path d="M17718 52093 c17 -2 47 -2 65 0 17 2 3 4 -33 4 -36 0 -50 -2 -32 -4z"/>
<path d="M17660 51926 c0 -21 5 -26 26 -26 21 0 25 4 22 23 -2 14 -11 23 -25
25 -19 3 -23 -1 -23 -22z"/>
<path d="M983 48129 c-7 -7 -29 -15 -50 -18 -26 -4 -39 -12 -41 -25 -4 -17 0
-18 37 -12 l41 6 0 -150 0 -150 -35 0 c-28 0 -35 -4 -35 -20 0 -19 7 -20 96
-20 86 0 95 2 92 18 -2 11 -14 18 -36 20 l-32 3 0 180 c0 140 -3 179 -13 179
-7 0 -18 -5 -24 -11z"/>
<path d="M4275 48142 c-66 -14 -100 -85 -99 -207 0 -96 15 -146 55 -180 55
-45 132 -26 164 42 38 80 28 249 -18 306 -23 29 -68 46 -102 39z m23 -79 c1
26 6 47 10 47 5 0 19 -11 32 -25 22 -23 25 -37 28 -124 5 -111 -7 -164 -43
-187 -27 -18 -68 -6 -85 26 -15 29 -24 155 -16 215 5 32 16 56 34 74 l27 26 6
-50 6 -50 1 48z"/>
<path d="M4293 47830 c0 -36 2 -50 4 -32 2 17 2 47 0 65 -2 17 -4 3 -4 -33z"/>
<path d="M4726 48139 c-38 -11 -74 -45 -81 -80 -8 -35 17 -85 46 -94 21 -7 21
-8 -9 -31 -42 -34 -57 -82 -39 -126 21 -51 61 -78 113 -78 36 0 51 6 82 34 33
30 37 40 37 81 0 40 -5 51 -32 75 l-32 29 29 30 c60 60 28 135 -70 164 -8 2
-28 0 -44 -4z m79 -54 c30 -30 31 -54 4 -89 -40 -51 -122 -22 -122 44 0 64 72
92 118 45z m4 -181 c37 -47 23 -116 -26 -135 -78 -30 -135 78 -76 144 25 27
78 22 102 -9z"/>
<path d="M3740 47890 c0 -6 67 -10 180 -10 113 0 180 4 180 10 0 6 -67 10
-180 10 -113 0 -180 -4 -180 -10z"/>
<path d="M4500 47766 c0 -21 5 -26 26 -26 21 0 25 4 22 23 -2 14 -11 23 -25
25 -19 3 -23 -1 -23 -22z"/>
<path d="M7815 48142 c-66 -14 -100 -85 -99 -207 0 -96 15 -146 55 -180 55
-45 132 -26 164 42 38 80 28 249 -18 306 -23 29 -68 46 -102 39z m23 -79 c1
26 6 47 10 47 5 0 19 -11 32 -25 22 -23 25 -37 28 -124 5 -111 -7 -164 -43
-187 -27 -18 -68 -6 -85 26 -15 29 -24 155 -16 215 5 32 16 56 34 74 l27 26 6
-50 6 -50 1 48z"/>
<path d="M7833 47830 c0 -36 2 -50 4 -32 2 17 2 47 0 65 -2 17 -4 3 -4 -33z"/>
<path d="M8302 48139 c-72 -15 -124 -99 -125 -203 -3 -130 44 -206 125 -206
81 0 135 98 108 195 -23 81 -91 111 -155 69 -24 -16 -25 -16 -25 7 0 31 33 85
61 99 12 7 39 10 61 7 32 -4 39 -2 36 11 -4 20 -44 30 -86 21z m23 -165 c25
-10 45 -58 45 -109 0 -38 -5 -52 -30 -77 -19 -18 -36 -28 -46 -24 -9 3 -20 6
-25 6 -17 0 -39 60 -39 110 0 41 5 56 25 75 25 26 41 30 70 19z"/>
<path d="M7280 47890 c0 -6 67 -10 180 -10 113 0 180 4 180 10 0 6 -67 10
-180 10 -113 0 -180 -4 -180 -10z"/>
<path d="M8050 47766 c0 -21 5 -26 26 -26 21 0 25 4 22 23 -2 14 -11 23 -25
25 -19 3 -23 -1 -23 -22z"/>
<path d="M11365 48142 c-66 -14 -100 -85 -99 -207 0 -96 15 -146 55 -180 55
-45 132 -26 164 42 38 80 28 249 -18 306 -23 29 -68 46 -102 39z m65 -57 c21
-22 24 -38 28 -115 5 -111 -3 -155 -33 -186 -37 -37 -45 -30 -47 44 l-2 67 -3
-62 c-2 -35 -8 -63 -13 -63 -5 0 -18 12 -27 27 -15 22 -18 49 -18 138 0 89 3
116 18 138 25 38 35 34 40 -15 l4 -43 1 48 c2 54 16 60 52 22z"/>
<path d="M11776 47998 c-42 -72 -75 -137 -72 -145 4 -9 27 -13 81 -13 l75 0 0
-50 c0 -47 2 -50 25 -50 23 0 25 3 25 49 0 47 2 50 28 53 16 2 27 9 27 18 0 9
-11 16 -27 18 l-28 3 0 125 0 124 -29 0 c-27 0 -35 -11 -105 -132z m84 -23 l0
-95 -51 0 c-28 0 -49 4 -47 8 9 21 93 182 96 182 1 0 2 -43 2 -95z"/>
<path d="M10820 47890 c0 -6 67 -10 180 -10 113 0 180 4 180 10 0 6 -67 10
-180 10 -113 0 -180 -4 -180 -10z"/>
<path d="M11590 47766 c0 -21 5 -26 26 -26 21 0 25 4 22 23 -2 14 -11 23 -25
25 -19 3 -23 -1 -23 -22z"/>
<path d="M14905 48142 c-66 -14 -100 -85 -99 -207 0 -96 15 -146 55 -180 55
-45 132 -26 164 42 38 80 28 249 -18 306 -23 29 -68 46 -102 39z m23 -79 c1
26 6 47 10 47 5 0 19 -11 32 -25 22 -23 25 -37 28 -124 5 -111 -7 -164 -43
-187 -27 -18 -68 -6 -85 26 -15 29 -24 155 -16 215 5 32 16 56 34 74 l27 26 6
-50 6 -50 1 48z"/>
<path d="M14923 47830 c0 -36 2 -50 4 -32 2 17 2 47 0 65 -2 17 -4 3 -4 -33z"/>
<path d="M15343 48138 c-35 -9 -73 -54 -73 -86 0 -35 16 -33 33 4 21 43 59 60
99 43 36 -15 48 -37 48 -87 0 -46 -28 -88 -119 -177 -90 -88 -86 -95 54 -95
108 0 115 1 115 20 0 19 -7 20 -92 20 l-92 0 93 95 93 95 -4 56 c-4 42 -11 61
-30 80 -30 30 -81 44 -125 32z"/>
<path d="M14370 47890 c0 -6 67 -10 180 -10 113 0 180 4 180 10 0 6 -67 10
-180 10 -113 0 -180 -4 -180 -10z"/>
<path d="M15130 47766 c0 -21 5 -26 26 -26 21 0 25 4 22 23 -2 14 -11 23 -25
25 -19 3 -23 -1 -23 -22z"/>
<path d="M21755 48142 c-66 -14 -100 -85 -99 -207 0 -96 15 -146 55 -180 55
-45 132 -26 164 42 38 80 28 249 -18 306 -23 29 -68 46 -102 39z m65 -57 c22
-23 25 -37 28 -124 5 -111 -7 -164 -43 -187 -27 -18 -68 -6 -85 26 -15 29 -24
155 -16 215 8 51 42 95 74 95 10 0 29 -11 42 -25z"/>
<path d="M22193 48138 c-35 -9 -73 -54 -73 -86 0 -35 16 -33 33 4 21 43 59 60
99 43 36 -15 48 -37 48 -87 0 -46 -28 -88 -119 -177 -90 -88 -86 -95 54 -95
108 0 115 1 115 20 0 19 -7 20 -92 20 l-92 0 93 95 93 95 -4 56 c-4 42 -11 61
-30 80 -30 30 -81 44 -125 32z"/>
<path d="M22003 48080 c0 -36 2 -50 4 -32 2 17 2 47 0 65 -2 17 -4 3 -4 -33z"/>
<path d="M22002 47855 c-1 -22 -5 -57 -8 -77 -6 -36 -5 -38 20 -38 19 0 26 5
26 20 0 10 -6 23 -14 27 -9 5 -16 28 -19 58 -3 46 -4 47 -5 10z"/>
<path d="M25305 48142 c-66 -14 -100 -85 -99 -207 0 -96 15 -146 55 -180 55
-45 132 -26 164 42 38 80 28 249 -18 306 -23 29 -68 46 -102 39z m65 -57 c22
-23 25 -37 28 -124 5 -111 -7 -164 -43 -187 -27 -18 -68 -6 -85 26 -15 29 -24
155 -16 215 8 51 42 95 74 95 10 0 29 -11 42 -25z"/>
<path d="M25553 48080 c0 -36 2 -50 4 -32 2 17 2 47 0 65 -2 17 -4 3 -4 -33z"/>
<path d="M25716 47998 c-42 -72 -75 -137 -72 -145 4 -9 27 -13 81 -13 l75 0 0
-50 c0 -47 2 -50 25 -50 23 0 25 3 25 49 0 47 2 50 28 53 16 2 27 9 27 18 0 9
-11 16 -27 18 l-28 3 0 125 0 124 -29 0 c-27 0 -35 -11 -105 -132z m84 -23 l0
-95 -51 0 c-28 0 -49 4 -47 8 9 21 93 182 96 182 1 0 2 -43 2 -95z"/>
<path d="M25552 47843 c-1 -29 -6 -53 -12 -53 -5 0 -10 -11 -10 -25 0 -20 5
-25 25 -25 26 0 35 26 16 46 -6 5 -12 32 -14 59 l-3 50 -2 -52z"/>
<path d="M28845 48142 c-66 -14 -100 -85 -99 -207 0 -96 15 -146 55 -180 55
-45 132 -26 164 42 38 80 28 249 -18 306 -23 29 -68 46 -102 39z m65 -57 c22
-23 25 -37 28 -124 5 -111 -7 -164 -43 -187 -27 -18 -68 -6 -85 26 -15 29 -24
155 -16 215 8 51 42 95 74 95 10 0 29 -11 42 -25z"/>
<path d="M29332 48139 c-72 -15 -124 -99 -125 -203 -3 -130 44 -206 125 -206
81 0 135 98 108 195 -23 81 -91 111 -155 69 -24 -16 -25 -16 -25 7 0 31 33 85
61 99 12 7 39 10 61 7 32 -4 39 -2 36 11 -4 20 -44 30 -86 21z m23 -165 c25
-10 45 -58 45 -109 0 -38 -5 -52 -30 -77 -19 -18 -36 -28 -46 -24 -9 3 -20 6
-25 6 -17 0 -39 60 -39 110 0 41 5 56 25 75 25 26 41 30 70 19z"/>
<path d="M29093 48080 c0 -36 2 -50 4 -32 2 17 2 47 0 65 -2 17 -4 3 -4 -33z"/>
<path d="M29092 47843 c-1 -29 -6 -53 -12 -53 -5 0 -10 -11 -10 -25 0 -20 5
-25 25 -25 26 0 35 26 16 46 -6 5 -12 32 -14 59 l-3 50 -2 -52z"/>
<path d="M32385 48142 c-66 -14 -100 -85 -99 -207 0 -96 15 -146 55 -180 55
-45 132 -26 164 42 38 80 28 249 -18 306 -23 29 -68 46 -102 39z m65 -57 c22
-23 25 -37 28 -124 5 -111 -7 -164 -43 -187 -27 -18 -68 -6 -85 26 -15 29 -24
155 -16 215 8 51 42 95 74 95 10 0 29 -11 42 -25z"/>
<path d="M32836 48139 c-38 -11 -74 -45 -81 -80 -8 -35 17 -85 46 -94 21 -7
21 -8 -9 -31 -42 -34 -57 -82 -39 -126 21 -51 61 -78 113 -78 36 0 51 6 82 34
33 30 37 40 37 81 0 40 -5 51 -32 75 l-32 29 29 30 c60 60 28 135 -70 164 -8
2 -28 0 -44 -4z m79 -54 c30 -30 31 -54 4 -89 -40 -51 -122 -22 -122 44 0 64
72 92 118 45z m4 -181 c37 -47 23 -116 -26 -135 -78 -30 -135 78 -76 144 25
27 78 22 102 -9z"/>
<path d="M32633 48080 c0 -36 2 -50 4 -32 2 17 2 47 0 65 -2 17 -4 3 -4 -33z"/>
<path d="M32632 47855 c-1 -22 -5 -57 -8 -77 -6 -36 -5 -38 20 -38 19 0 26 5
26 20 0 10 -6 23 -14 27 -9 5 -16 28 -19 58 -3 46 -4 47 -5 10z"/>
<path d="M11040 46919 c-160 -48 -209 -272 -86 -395 66 -67 165 -81 255 -36
30 14 36 23 39 53 l3 37 -47 -24 c-93 -47 -181 -28 -221 49 -22 43 -22 142 1
185 36 69 131 93 211 52 21 -11 40 -19 41 -17 1 1 5 16 8 33 7 30 5 32 -35 48
-55 22 -125 28 -169 15z"/>
<path d="M11460 46917 c-49 -16 -123 -93 -138 -143 -43 -144 37 -289 171 -311
133 -21 263 118 242 261 -21 138 -156 233 -275 193z m146 -89 c100 -92 46
-298 -78 -298 -86 0 -138 62 -138 165 0 106 49 165 138 165 34 0 49 -6 78 -32z"/>
<path d="M11899 46919 c-78 -22 -117 -102 -84 -172 18 -39 66 -67 158 -92 45
-12 60 -21 67 -40 13 -33 -6 -74 -37 -81 -37 -10 -115 1 -153 19 -37 19 -50
11 -50 -29 0 -42 150 -79 222 -55 19 6 48 25 64 42 25 26 29 38 29 85 0 52 -3
58 -41 94 -29 26 -54 40 -85 45 -24 4 -59 13 -76 21 -28 11 -33 18 -33 48 0
25 6 38 19 46 28 15 116 12 156 -4 36 -15 45 -9 45 34 0 34 -130 59 -201 39z"/>
<path d="M12766 46914 c-102 -32 -206 -175 -206 -282 0 -46 36 -119 71 -145
58 -42 167 -31 256 25 35 23 48 27 52 17 9 -27 60 -69 84 -69 29 0 87 44 87
66 0 21 -9 17 -37 -16 -43 -52 -73 -30 -73 53 0 35 8 57 40 105 43 64 94 187
84 203 -8 14 -24 1 -24 -21 0 -10 -21 -60 -47 -111 l-48 -94 -6 70 c-6 81 -14
110 -41 148 -39 55 -115 75 -192 51z m123 -33 c30 -30 41 -85 41 -205 0 -122
3 -117 -83 -162 -64 -33 -138 -42 -171 -20 -39 25 -52 83 -37 164 21 114 59
182 126 223 40 25 99 25 124 0z"/>
<path d="M17425 45232 c-66 -14 -100 -85 -99 -207 0 -96 15 -146 55 -180 55
-45 132 -26 164 42 38 80 28 249 -18 306 -23 29 -68 46 -102 39z m65 -57 c18
-19 24 -39 28 -95 l5 -70 -44 -2 -44 -1 43 -4 c39 -4 42 -6 42 -34 0 -41 -24
-95 -48 -108 -26 -14 -67 1 -82 29 -15 29 -24 155 -16 215 8 51 42 95 74 95
10 0 29 -11 42 -25z"/>
<path d="M17863 45228 c-35 -9 -73 -54 -73 -86 0 -35 16 -33 33 4 21 43 59 60
99 43 36 -15 48 -37 48 -87 0 -46 -28 -88 -119 -177 -90 -88 -86 -95 54 -95
108 0 115 1 115 20 0 19 -7 20 -92 20 l-92 0 64 65 c61 62 67 65 115 67 50 1
50 2 8 5 l-43 4 21 29 c30 40 23 121 -13 157 -30 30 -82 43 -125 31z"/>
<path d="M16968 45003 c17 -2 47 -2 65 0 17 2 3 4 -33 4 -36 0 -50 -2 -32 -4z"/>
<path d="M17218 45003 c17 -2 47 -2 65 0 17 2 3 4 -33 4 -36 0 -50 -2 -32 -4z"/>
<path d="M17718 45003 c17 -2 47 -2 65 0 17 2 3 4 -33 4 -36 0 -50 -2 -32 -4z"/>
<path d="M16890 44980 c0 -6 67 -10 180 -10 113 0 180 4 180 10 0 6 -67 10
-180 10 -113 0 -180 -4 -180 -10z"/>
<path d="M17660 44856 c0 -21 5 -26 26 -26 21 0 25 4 22 23 -2 14 -11 23 -25
25 -19 3 -23 -1 -23 -22z"/>
<path d="M17425 41692 c-66 -14 -100 -85 -99 -207 0 -96 15 -146 55 -180 55
-45 132 -26 164 42 38 80 28 249 -18 306 -23 29 -68 46 -102 39z m65 -57 c18
-19 24 -39 28 -95 l5 -70 -44 -2 -44 -1 43 -4 c39 -4 42 -6 42 -34 0 -41 -24
-95 -48 -108 -26 -14 -67 1 -82 29 -15 29 -24 155 -16 215 8 51 42 95 74 95
10 0 29 -11 42 -25z"/>
<path d="M17861 41575 l-61 -105 -58 -2 -57 -2 53 -3 c53 -4 61 -10 41 -30 -7
-7 -9 -19 -6 -27 5 -13 23 -16 82 -16 l75 0 0 -50 c0 -47 2 -50 25 -50 23 0
25 3 25 49 0 47 2 50 28 53 16 2 27 9 27 18 0 9 -11 16 -27 18 -45 5 -34 30
15 35 l42 4 -42 1 -43 2 0 105 0 105 -29 0 c-26 0 -35 -10 -90 -105z m69 -50
l0 -95 -51 0 c-28 0 -49 4 -47 8 9 21 93 182 96 182 1 0 2 -43 2 -95z"/>
<path d="M16968 41463 c17 -2 47 -2 65 0 17 2 3 4 -33 4 -36 0 -50 -2 -32 -4z"/>
<path d="M17218 41463 c17 -2 47 -2 65 0 17 2 3 4 -33 4 -36 0 -50 -2 -32 -4z"/>
<path d="M16890 41440 c0 -6 67 -10 180 -10 113 0 180 4 180 10 0 6 -67 10
-180 10 -113 0 -180 -4 -180 -10z"/>
<path d="M17660 41316 c0 -21 5 -26 26 -26 21 0 25 4 22 23 -2 14 -11 23 -25
25 -19 3 -23 -1 -23 -22z"/>
<path d="M37590 39940 l0 -60 -40 0 c-39 0 -40 -1 -40 -35 0 -34 1 -35 40 -35
l40 0 0 -166 0 -166 29 -29 c33 -33 56 -35 129 -14 59 18 65 24 56 59 -6 25
-7 25 -36 10 -41 -21 -80 -15 -95 16 -8 16 -13 71 -13 157 l0 132 68 3 67 3 0
30 0 30 -67 3 -68 3 0 59 0 60 -35 0 -35 0 0 -60z"/>
<path d="M37998 39877 c-63 -18 -76 -30 -70 -66 l4 -30 39 19 c24 13 58 20 92
20 67 0 88 -20 95 -88 l4 -49 -67 -6 c-144 -14 -222 -80 -197 -166 16 -50 63
-91 106 -91 30 0 93 16 139 35 12 5 17 2 17 -9 0 -12 10 -16 40 -16 l40 0 0
163 c0 149 -2 167 -22 207 -38 74 -123 104 -220 77z m162 -296 c0 -64 -30 -91
-99 -91 -106 0 -127 88 -29 119 47 14 69 19 101 20 26 1 27 -1 27 -48z"/>
<path d="M39426 39874 c-102 -32 -206 -175 -206 -282 0 -46 36 -119 71 -145
58 -42 167 -31 256 25 35 23 48 27 52 17 9 -27 60 -69 84 -69 29 0 87 44 87
66 0 21 -9 17 -37 -16 -43 -52 -73 -30 -73 53 0 35 8 57 40 105 43 64 94 187
84 203 -8 14 -24 1 -24 -21 0 -10 -21 -60 -47 -111 l-48 -94 -6 70 c-6 81 -14
110 -41 148 -39 55 -115 75 -192 51z m123 -33 c30 -30 41 -85 41 -205 0 -122
3 -117 -83 -162 -64 -33 -138 -42 -171 -20 -39 25 -52 83 -37 164 21 114 59
182 126 223 40 25 99 25 124 0z"/>
<path d="M38390 39655 l0 -225 40 0 40 0 0 158 c0 138 2 161 20 189 21 36 55
49 98 38 60 -15 62 -22 62 -212 l0 -173 40 0 40 0 0 183 c0 164 -2 185 -20
215 -25 41 -61 55 -127 50 -36 -3 -62 -13 -87 -32 l-36 -27 0 30 c0 29 -3 31
-35 31 l-35 0 0 -225z"/>
<path d="M17425 38152 c-66 -14 -100 -85 -99 -207 0 -96 15 -146 55 -180 55
-45 132 -26 164 42 38 80 28 249 -18 306 -23 29 -68 46 -102 39z m65 -57 c19
-20 24 -39 28 -100 l5 -75 -44 -2 -44 -1 43 -4 c37 -4 42 -7 42 -29 0 -37 -25
-91 -48 -103 -26 -14 -67 1 -82 29 -15 29 -24 155 -16 215 8 51 42 95 74 95
10 0 29 -11 42 -25z"/>
<path d="M17912 38149 c-64 -13 -113 -83 -126 -181 l-7 -47 -47 -4 -47 -3 53
-2 c46 -2 52 -4 52 -23 0 -43 24 -101 53 -125 70 -59 169 -8 183 96 4 33 12
50 23 53 11 3 9 5 -6 6 -15 1 -23 9 -28 30 -14 66 -91 94 -150 55 -24 -16 -25
-16 -25 7 0 31 33 85 61 99 12 7 39 10 61 7 32 -4 39 -2 36 11 -4 20 -44 30
-86 21z m23 -165 c8 -4 22 -19 31 -35 14 -28 14 -29 -8 -30 l-23 -2 23 -4 c18
-4 22 -11 22 -44 0 -32 -7 -47 -30 -71 -19 -18 -36 -28 -46 -24 -9 3 -20 6
-25 6 -17 0 -39 60 -39 110 0 41 5 56 25 75 25 26 41 30 70 19z"/>
<path d="M16918 37912 c-16 -2 -28 -8 -28 -13 0 -5 75 -9 180 -9 105 0 180 4
180 9 0 6 15 11 33 13 17 2 -51 3 -153 3 -102 0 -197 -1 -212 -3z"/>
<path d="M17660 37776 c0 -21 5 -26 26 -26 21 0 25 4 22 23 -2 14 -11 23 -25
25 -19 3 -23 -1 -23 -22z"/>
<path d="M17425 34602 c-66 -14 -100 -85 -99 -207 0 -96 15 -146 55 -180 55
-45 132 -26 164 42 38 80 28 249 -18 306 -23 29 -68 46 -102 39z m65 -57 c18
-19 24 -39 28 -95 l5 -70 -44 -2 -44 -1 43 -4 c39 -4 42 -6 42 -34 0 -41 -24
-95 -48 -108 -26 -14 -67 1 -82 29 -15 29 -24 155 -16 215 8 51 42 95 74 95
10 0 29 -11 42 -25z"/>
<path d="M17876 34599 c-38 -11 -74 -45 -81 -80 -8 -35 17 -85 47 -94 l21 -7
-24 -19 c-17 -13 -43 -19 -89 -21 l-65 -2 58 -3 c31 -2 57 -6 57 -8 0 -2 -5
-16 -10 -31 -25 -65 38 -144 115 -144 81 0 143 82 116 152 -9 25 -8 27 17 31
23 3 22 4 -8 6 -19 1 -43 8 -53 15 -17 13 -16 16 13 44 60 61 29 136 -70 165
-8 2 -28 0 -44 -4z m79 -54 c30 -30 31 -54 4 -89 -40 -51 -122 -22 -122 44 0
64 72 92 118 45z m1 -181 c41 -43 28 -115 -23 -135 -78 -30 -135 78 -76 144
24 26 71 22 99 -9z"/>
<path d="M16968 34373 c17 -2 47 -2 65 0 17 2 3 4 -33 4 -36 0 -50 -2 -32 -4z"/>
<path d="M17218 34373 c17 -2 47 -2 65 0 17 2 3 4 -33 4 -36 0 -50 -2 -32 -4z"/>
<path d="M16890 34350 c0 -6 67 -10 180 -10 113 0 180 4 180 10 0 6 -67 10
-180 10 -113 0 -180 -4 -180 -10z"/>
<path d="M17660 34226 c0 -21 5 -26 26 -26 21 0 25 4 22 23 -2 14 -11 23 -25
25 -19 3 -23 -1 -23 -22z"/>
<path d="M17468 30833 c17 -2 47 -2 65 0 17 2 3 4 -33 4 -36 0 -50 -2 -32 -4z"/>
<path d="M17340 30810 c0 -6 67 -10 180 -10 113 0 180 4 180 10 0 6 -67 10
-180 10 -113 0 -180 -4 -180 -10z"/>
<path d="M46240 25380 l0 -50 -40 0 -40 0 0 -65 0 -65 -30 0 -30 0 0 -65 0
-65 -40 0 -40 0 0 -65 0 -65 -40 0 -40 0 0 -65 0 -65 -30 0 c-29 0 -30 -1 -30
-50 l0 -50 310 0 310 0 0 50 c0 28 -4 50 -10 50 -6 0 -10 28 -10 65 0 37 -4
65 -10 65 -6 0 -10 28 -10 65 0 37 -4 65 -10 65 -6 0 -10 28 -10 65 0 37 -4
65 -10 65 -6 0 -10 45 -10 115 l0 115 -90 0 -90 0 0 -50z"/>
<path d="M46140 24585 c0 -33 -2 -35 -35 -35 l-35 0 0 -65 0 -65 -40 0 -40 0
0 -65 0 -65 -30 0 -30 0 0 -65 0 -65 -40 0 -40 0 0 -65 0 -65 -40 0 -40 0 0
-65 0 -65 -40 0 -40 0 0 -65 0 -65 -30 0 -30 0 0 -65 0 -65 -40 0 -40 0 0 -65
0 -65 -40 0 -40 0 0 -65 0 -65 -40 0 -40 0 0 -65 0 -65 -40 0 -40 0 0 -65 0
-65 -30 0 -30 0 0 -65 0 -65 -40 0 -40 0 0 -65 0 -65 -40 0 -40 0 0 -65 0 -65
-40 0 -40 0 0 -65 0 -65 -40 0 -40 0 0 -65 0 -65 -30 0 -30 0 0 -65 0 -65 -40
0 -40 0 0 -65 0 -65 -40 0 -40 0 0 -65 0 -65 -40 0 -40 0 0 -65 0 -65 -30 0
-30 0 0 -65 0 -65 -40 0 -40 0 0 -65 0 -65 -40 0 -40 0 0 -65 0 -65 -40 0 -40
0 0 -65 0 -65 -40 0 -40 0 0 -65 0 -65 -30 0 -30 0 0 -65 0 -65 -40 0 -40 0 0
-65 0 -65 -40 0 -40 0 0 -65 0 -65 -40 0 -40 0 0 -65 0 -65 -40 0 -40 0 0 -65
0 -65 -30 0 -30 0 0 -65 0 -65 -40 0 -40 0 0 -65 0 -65 -40 0 -40 0 0 -65 0
-65 -40 0 -40 0 0 -65 0 -65 -30 0 -30 0 0 -65 0 -65 -40 0 -40 0 0 -65 0 -65
-40 0 -40 0 0 -65 0 -65 -40 0 -40 0 0 -65 0 -65 -40 0 -40 0 0 -65 0 -65 -30
0 -30 0 0 -65 0 -65 -40 0 -40 0 0 -65 0 -65 -40 0 -40 0 0 -65 0 -65 -40 0
-40 0 0 -65 0 -65 -40 0 -40 0 0 -65 0 -65 -30 0 -30 0 0 -65 0 -65 -40 0 -40
0 0 -65 0 -65 -40 0 -40 0 0 -65 0 -65 -40 0 -40 0 0 -65 0 -65 -30 0 -30 0 0
-65 0 -65 -40 0 -40 0 0 -65 0 -65 -40 0 -40 0 0 -65 0 -65 -40 0 -40 0 0 -65
0 -65 -40 0 -40 0 0 -65 0 -65 -30 0 -30 0 0 -65 0 -65 -40 0 -40 0 0 -65 0
-65 -40 0 -40 0 0 -65 0 -65 -40 0 -40 0 0 -65 0 -65 -40 0 -40 0 0 -65 0 -65
-30 0 -30 0 0 -65 0 -65 -40 0 -40 0 0 -65 0 -65 -40 0 -40 0 0 -65 0 -65 -40
0 -40 0 0 -65 0 -65 -40 0 -40 0 0 -65 0 -65 -30 0 -30 0 0 -65 0 -65 -40 0
-40 0 0 -65 0 -65 -40 0 -40 0 0 -65 0 -65 -40 0 -40 0 0 -65 0 -65 -30 0 -30
0 0 -65 0 -65 -40 0 -40 0 0 -65 0 -65 -40 0 -40 0 0 -65 0 -65 -40 0 -40 0 0
-65 0 -65 -40 0 -40 0 0 -65 0 -65 -30 0 -30 0 0 -65 0 -65 -40 0 -40 0 0 -65
0 -65 -40 0 -40 0 0 -65 0 -65 -40 0 -40 0 0 -65 0 -65 -40 0 -40 0 0 -65 0
-65 -30 0 -30 0 0 -65 0 -65 -40 0 -40 0 0 -65 0 -65 -40 0 -40 0 0 -65 0 -65
-40 0 -40 0 0 -65 0 -65 -30 0 -30 0 0 -65 0 -65 -505 0 -505 0 0 -65 c0 -58
-2 -65 -20 -65 -18 0 -20 -7 -20 -65 0 -37 -4 -65 -10 -65 -6 0 -10 -28 -10
-65 0 -37 -4 -65 -10 -65 -6 0 -10 -28 -10 -65 0 -58 -2 -65 -20 -65 -18 0
-20 -7 -20 -65 0 -37 -4 -65 -10 -65 -6 0 -10 -28 -10 -65 0 -37 -4 -65 -10
-65 -6 0 -10 -28 -10 -65 l0 -65 275 0 275 0 0 -65 0 -65 -40 0 -40 0 0 -65 0
-65 -30 0 -30 0 0 -65 0 -65 -40 0 -40 0 0 -65 0 -65 -40 0 -40 0 0 -65 0 -65
-40 0 -40 0 0 -65 0 -65 -30 0 -30 0 0 -65 0 -65 -40 0 -40 0 0 -65 0 -65 -40
0 -40 0 0 -65 0 -65 -40 0 -40 0 0 -65 0 -65 -40 0 -40 0 0 -65 0 -65 -30 0
-30 0 0 -65 0 -65 -40 0 -40 0 0 -65 0 -65 -40 0 -40 0 0 -65 0 -65 -40 0 -40
0 0 -65 0 -65 -40 0 -40 0 0 -65 0 -65 -30 0 -30 0 0 -65 0 -65 -40 0 -40 0 0
-65 0 -65 -40 0 -40 0 0 -65 0 -65 -40 0 -40 0 0 -65 0 -65 -30 0 -30 0 0 -65
0 -65 -40 0 -40 0 0 -65 0 -65 -40 0 -40 0 0 -65 0 -65 -40 0 -40 0 0 -65 0
-65 -40 0 -40 0 0 -65 0 -65 -30 0 -30 0 0 -65 0 -65 -40 0 -40 0 0 -65 0 -65
-40 0 -40 0 0 -65 0 -65 -40 0 -40 0 0 -65 0 -65 -40 0 -40 0 0 -65 0 -65 -30
0 -30 0 0 -65 0 -65 -40 0 -40 0 0 -65 0 -65 -40 0 -40 0 0 -65 0 -65 -40 0
-40 0 0 -65 0 -65 -30 0 -30 0 0 -65 0 -65 -40 0 -40 0 0 -65 0 -65 -40 0 -40
0 0 -65 0 -65 -40 0 -40 0 0 -65 0 -65 -40 0 -40 0 0 -65 0 -65 -30 0 -30 0 0
-65 0 -65 -40 0 -40 0 0 -65 0 -65 -40 0 -40 0 0 -65 0 -65 -40 0 -40 0 0 -65
0 -65 -40 0 -40 0 0 -65 0 -65 -30 0 -30 0 0 -65 0 -65 -40 0 -40 0 0 -65 0
-65 -40 0 -40 0 0 -65 0 -65 -40 0 -40 0 0 -65 0 -65 -30 0 -30 0 0 -65 0 -65
-40 0 -40 0 0 -65 0 -65 -40 0 -40 0 0 -65 0 -65 -40 0 -40 0 0 -65 0 -65 -40
0 -40 0 0 -65 0 -65 -30 0 -30 0 0 -65 0 -65 -40 0 -40 0 0 -65 0 -65 -40 0
-40 0 0 -65 0 -65 -40 0 -40 0 0 -65 0 -65 -40 0 -40 0 0 -65 0 -65 -30 0 -30
0 0 -65 0 -65 -40 0 -40 0 0 -65 0 -65 -40 0 -40 0 0 -65 0 -65 -40 0 -40 0 0
-65 0 -65 -30 0 -30 0 0 -65 0 -65 -40 0 -40 0 0 -65 0 -65 -40 0 -40 0 0 -65
0 -65 -40 0 -40 0 0 -65 0 -65 -40 0 -40 0 0 -65 0 -65 -30 0 -30 0 0 -65 0
-65 -40 0 -40 0 0 -65 0 -65 -40 0 -40 0 0 -65 0 -65 -40 0 -40 0 0 -65 0 -65
-40 0 -40 0 0 -65 0 -65 -30 0 -30 0 0 -65 0 -65 -40 0 -40 0 0 -65 0 -65 -40
0 -40 0 0 -65 0 -65 -40 0 -40 0 0 -65 0 -65 -30 0 -30 0 0 -65 0 -65 -40 0
-40 0 0 -65 0 -65 -40 0 -40 0 0 -65 0 -65 -40 0 -40 0 0 -65 0 -65 -40 0 -40
0 0 -65 0 -65 -30 0 -30 0 0 -65 0 -65 -40 0 -40 0 0 -65 0 -65 -40 0 -40 0 0
-65 0 -65 -40 0 -40 0 0 -65 0 -65 -40 0 -40 0 0 -65 0 -65 -30 0 -30 0 0 -65
0 -65 -40 0 -40 0 0 -65 0 -65 -40 0 -40 0 0 -65 0 -65 -50 0 -50 0 0 -65 c0
-37 4 -65 10 -65 6 0 10 -7 10 -15 0 -11 12 -15 50 -15 38 0 50 4 50 15 0 13
28 15 190 15 l190 0 0 65 0 65 220 0 220 0 0 65 0 65 220 0 220 0 0 65 0 65
220 0 220 0 0 65 0 65 220 0 220 0 0 65 0 65 220 0 220 0 0 65 0 65 220 0 220
0 0 65 0 65 220 0 220 0 0 65 0 65 230 0 230 0 0 65 0 65 220 0 220 0 0 65 0
65 220 0 220 0 0 65 0 65 220 0 220 0 0 65 0 65 220 0 220 0 0 65 0 65 220 0
220 0 0 65 0 65 220 0 220 0 0 65 0 65 220 0 220 0 0 65 0 65 220 0 220 0 0
65 0 65 220 0 220 0 0 65 0 65 220 0 220 0 0 65 0 65 220 0 220 0 0 65 0 65
230 0 230 0 0 65 0 65 220 0 220 0 0 65 0 65 220 0 220 0 0 65 0 65 220 0 220
0 0 65 0 65 220 0 220 0 0 65 0 65 220 0 220 0 0 65 0 65 220 0 220 0 0 65 0
65 220 0 220 0 0 65 0 65 220 0 220 0 0 65 0 65 220 0 220 0 0 65 0 65 220 0
220 0 0 65 0 65 220 0 220 0 0 65 0 65 230 0 230 0 0 65 0 65 220 0 220 0 0
65 0 65 220 0 220 0 0 65 0 65 220 0 220 0 0 65 0 65 220 0 220 0 0 65 0 65
220 0 220 0 0 65 0 65 220 0 220 0 0 65 0 65 220 0 220 0 0 65 0 65 220 0 220
0 0 65 0 65 220 0 220 0 0 65 0 65 220 0 220 0 0 65 0 65 220 0 220 0 0 65 0
65 230 0 230 0 0 65 0 65 220 0 220 0 0 65 0 65 220 0 220 0 0 65 0 65 220 0
220 0 0 65 0 65 220 0 220 0 0 65 0 65 220 0 220 0 0 65 0 65 220 0 220 0 0
65 0 65 1375 0 1375 0 0 65 c0 58 2 65 20 65 18 0 20 7 20 65 0 37 4 65 10 65
6 0 10 50 10 130 l0 130 -40 0 -40 0 0 65 0 65 -45 0 -45 0 0 65 0 65 230 0
230 0 0 65 0 65 220 0 220 0 0 65 0 65 220 0 220 0 0 65 0 65 220 0 220 0 0
65 0 65 220 0 220 0 0 65 0 65 220 0 220 0 0 65 0 65 220 0 220 0 0 65 0 65
220 0 220 0 0 65 0 65 220 0 220 0 0 65 0 65 220 0 220 0 0 65 0 65 220 0 220
0 0 65 0 65 220 0 220 0 0 65 0 65 230 0 230 0 0 65 0 65 220 0 220 0 0 65 0
65 220 0 220 0 0 65 0 65 220 0 220 0 0 65 0 65 220 0 220 0 0 65 0 65 220 0
220 0 0 65 0 65 220 0 220 0 0 65 0 65 220 0 220 0 0 65 0 65 220 0 220 0 0
65 0 65 220 0 220 0 0 65 0 65 220 0 220 0 0 65 0 65 220 0 220 0 0 65 0 65
230 0 230 0 0 65 0 65 220 0 220 0 0 65 0 65 220 0 220 0 0 65 0 65 220 0 220
0 0 65 0 65 220 0 220 0 0 65 0 65 220 0 220 0 0 65 0 65 220 0 220 0 0 65 0
65 220 0 220 0 0 65 0 65 220 0 220 0 0 65 0 65 220 0 220 0 0 65 0 65 220 0
220 0 0 65 0 65 220 0 220 0 0 65 0 65 230 0 230 0 0 65 0 65 220 0 220 0 0
65 0 65 220 0 220 0 0 65 0 65 220 0 220 0 0 65 0 65 220 0 220 0 0 65 0 65
220 0 220 0 0 65 0 65 220 0 220 0 0 65 0 65 220 0 220 0 0 65 0 65 220 0 220
0 0 65 0 65 220 0 220 0 0 65 0 65 220 0 220 0 0 65 0 65 220 0 220 0 0 65 0
65 1890 0 1890 0 0 65 0 65 30 0 30 0 0 130 c0 80 4 130 10 130 6 0 10 28 10
65 0 58 2 65 20 65 18 0 20 7 20 65 0 37 -4 65 -10 65 -6 0 -10 28 -10 65 l0
65 -385 0 -385 0 0 130 0 130 -245 0 -245 0 0 65 0 65 -260 0 -260 0 0 65 0
65 -270 0 -270 0 0 65 0 65 -270 0 -270 0 0 65 0 65 -270 0 -270 0 0 65 0 65
-260 0 -260 0 0 65 0 65 -270 0 -270 0 0 65 0 65 -270 0 -270 0 0 65 0 65
-260 0 -260 0 0 65 0 65 -270 0 -270 0 0 65 0 65 -270 0 -270 0 0 65 0 65
-270 0 -270 0 0 65 0 65 -260 0 -260 0 0 65 0 65 -270 0 -270 0 0 65 0 65
-270 0 -270 0 0 65 0 65 -270 0 -270 0 0 65 0 65 -260 0 -260 0 0 65 0 65
-270 0 -270 0 0 65 0 65 -270 0 -270 0 0 65 0 65 -260 0 -260 0 0 65 0 65
-270 0 -270 0 0 65 0 65 -270 0 -270 0 0 65 0 65 -270 0 -270 0 0 65 0 65
-260 0 -260 0 0 65 0 65 -270 0 -270 0 0 65 0 65 -270 0 -270 0 0 65 0 65
-260 0 -260 0 0 65 0 65 -270 0 -270 0 0 65 0 65 -270 0 -270 0 0 65 0 65
-270 0 -270 0 0 65 0 65 -260 0 -260 0 0 65 0 65 -270 0 -270 0 0 65 0 65
-270 0 -270 0 0 65 0 65 85 0 85 0 0 130 0 130 -110 0 -110 0 0 65 0 65 150 0
150 0 0 65 c0 58 -2 65 -20 65 -18 0 -20 7 -20 65 l0 65 -1705 0 -1705 0 0 65
0 65 -270 0 -270 0 0 65 0 65 -270 0 -270 0 0 65 0 65 -260 0 -260 0 0 65 0
65 -270 0 -270 0 0 65 0 65 -270 0 -270 0 0 65 0 65 -270 0 -270 0 0 65 0 65
-260 0 -260 0 0 65 0 65 -270 0 -270 0 0 65 0 65 -270 0 -270 0 0 65 0 65
-260 0 -260 0 0 65 0 65 -270 0 -270 0 0 65 0 65 -270 0 -270 0 0 65 0 65
-270 0 -270 0 0 65 0 65 -260 0 -260 0 0 65 0 65 -270 0 -270 0 0 65 0 65
-270 0 -270 0 0 65 0 65 -260 0 -260 0 0 65 0 65 -270 0 -270 0 0 65 0 65
-270 0 -270 0 0 65 0 65 -270 0 -270 0 0 65 0 65 -260 0 -260 0 0 65 0 65
-270 0 -270 0 0 65 0 65 -270 0 -270 0 0 65 0 65 -270 0 -270 0 0 65 0 65
-260 0 -260 0 0 65 0 65 -270 0 -270 0 0 65 0 65 -270 0 -270 0 0 65 0 65
-260 0 -260 0 0 35 0 35 -105 0 -105 0 0 -35z m2365 -600 c1238 -301 2252
-549 2255 -551 11 -12 -88 -338 -162 -534 -480 -1270 -1493 -2277 -2768 -2749
-533 -198 -1058 -292 -1641 -292 -780 -1 -1510 180 -2217 551 -88 46 -127 71
-126 83 1 13 2299 3967 2335 4017 8 12 12 12 16 2 4 -10 9 -8 19 7 8 11 20 18
27 16 6 -2 1025 -250 2262 -550z m15622 -3800 c7317 -1779 13304 -3235 13306
-3235 1 0 -10 -61 -25 -136 -143 -713 -129 -1405 44 -2117 22 -92 39 -169 37
-171 -2 -2 -5863 -1727 -13024 -3835 -7161 -2107 -13027 -3834 -13035 -3836
-12 -4 -49 110 -181 558 -127 432 -169 561 -180 558 -21 -6 -1123 -331 -1130
-334 -4 -1 67 -253 158 -560 90 -308 162 -561 159 -564 -4 -5 -12975 -3826
-13063 -3849 -18 -5 -22 0 -28 28 -17 77 -134 378 -223 573 -366 804 -962
1500 -1705 1994 -91 60 -173 113 -182 118 -14 8 651 1155 4366 7534 2410 4138
4388 7530 4394 7537 10 11 34 2 136 -52 554 -292 1121 -465 1759 -537 239 -27
675 -29 915 -5 816 83 1548 344 2209 788 732 492 1334 1210 1682 2006 98 224
201 517 250 710 16 64 21 72 39 68 11 -3 6006 -1461 13322 -3241z m17840
-4339 c2 -2 -33 -16 -79 -29 -254 -77 -4336 -1276 -4353 -1279 -17 -3 -23 11
-48 107 -98 380 -157 841 -157 1225 0 286 48 704 116 1011 l15 65 2250 -547
c1238 -301 2253 -550 2256 -553z m-30736 -8441 c87 -297 159 -545 159 -551 0
-7 -8 -14 -17 -16 -10 -3 -258 -76 -551 -163 -293 -86 -535 -155 -538 -152
-10 9 -324 1091 -319 1096 8 8 1088 329 1099 327 4 -1 80 -245 167 -541z
m-16015 -2153 c751 -497 1344 -1189 1712 -1997 105 -231 240 -590 227 -603 -2
-2 -986 -293 -2187 -647 -1201 -353 -2207 -650 -2236 -659 -47 -13 -53 -14
-48 -1 11 30 2341 4025 2347 4025 4 0 87 -53 185 -118z"/>
<path d="M46281 24244 c0 -11 3 -14 6 -6 3 7 2 16 -1 19 -3 4 -6 -2 -5 -13z"/>
<path d="M46331 24074 c0 -11 3 -14 6 -6 3 7 2 16 -1 19 -3 4 -6 -2 -5 -13z"/>
<path d="M46351 24004 c0 -11 3 -14 6 -6 3 7 2 16 -1 19 -3 4 -6 -2 -5 -13z"/>
<path d="M46401 23834 c0 -11 3 -14 6 -6 3 7 2 16 -1 19 -3 4 -6 -2 -5 -13z"/>
<path d="M46481 23564 c0 -11 3 -14 6 -6 3 7 2 16 -1 19 -3 4 -6 -2 -5 -13z"/>
<path d="M46551 23324 c0 -11 3 -14 6 -6 3 7 2 16 -1 19 -3 4 -6 -2 -5 -13z"/>
<path d="M46631 23054 c0 -11 3 -14 6 -6 3 7 2 16 -1 19 -3 4 -6 -2 -5 -13z"/>
<path d="M46681 22884 c0 -11 3 -14 6 -6 3 7 2 16 -1 19 -3 4 -6 -2 -5 -13z"/>
<path d="M46701 22820 c0 -8 4 -24 9 -35 5 -13 9 -14 9 -5 0 8 -4 24 -9 35 -5
13 -9 14 -9 5z"/>
<path d="M46751 22650 c0 -8 4 -24 9 -35 5 -13 9 -14 9 -5 0 8 -4 24 -9 35 -5
13 -9 14 -9 5z"/>
<path d="M46831 22374 c0 -11 3 -14 6 -6 3 7 2 16 -1 19 -3 4 -6 -2 -5 -13z"/>
<path d="M46911 22104 c0 -11 3 -14 6 -6 3 7 2 16 -1 19 -3 4 -6 -2 -5 -13z"/>
<path d="M46981 21864 c0 -11 3 -14 6 -6 3 7 2 16 -1 19 -3 4 -6 -2 -5 -13z"/>
<path d="M47061 21594 c0 -11 3 -14 6 -6 3 7 2 16 -1 19 -3 4 -6 -2 -5 -13z"/>
<path d="M47111 21424 c0 -11 3 -14 6 -6 3 7 2 16 -1 19 -3 4 -6 -2 -5 -13z"/>
<path d="M47131 21354 c0 -11 3 -14 6 -6 3 7 2 16 -1 19 -3 4 -6 -2 -5 -13z"/>
<path d="M47181 21184 c0 -11 3 -14 6 -6 3 7 2 16 -1 19 -3 4 -6 -2 -5 -13z"/>
<path d="M47261 20914 c0 -11 3 -14 6 -6 3 7 2 16 -1 19 -3 4 -6 -2 -5 -13z"/>
<path d="M47331 20674 c0 -11 3 -14 6 -6 3 7 2 16 -1 19 -3 4 -6 -2 -5 -13z"/>
<path d="M47411 20404 c0 -11 3 -14 6 -6 3 7 2 16 -1 19 -3 4 -6 -2 -5 -13z"/>
<path d="M47461 20234 c0 -11 3 -14 6 -6 3 7 2 16 -1 19 -3 4 -6 -2 -5 -13z"/>
<path d="M47481 20164 c0 -11 3 -14 6 -6 3 7 2 16 -1 19 -3 4 -6 -2 -5 -13z"/>
<path d="M47531 19994 c0 -11 3 -14 6 -6 3 7 2 16 -1 19 -3 4 -6 -2 -5 -13z"/>
<path d="M47611 19724 c0 -11 3 -14 6 -6 3 7 2 16 -1 19 -3 4 -6 -2 -5 -13z"/>
<path d="M47681 19490 c0 -8 4 -24 9 -35 5 -13 9 -14 9 -5 0 8 -4 24 -9 35 -5
13 -9 14 -9 5z"/>
<path d="M48426 19354 c-102 -32 -206 -175 -206 -282 0 -46 36 -119 71 -145
58 -42 167 -31 256 25 35 23 48 27 52 17 9 -27 60 -69 84 -69 29 0 87 44 87
66 0 21 -9 17 -37 -16 -43 -52 -73 -30 -73 53 0 35 8 57 40 105 43 64 94 187
84 203 -8 14 -24 1 -24 -21 0 -10 -21 -60 -47 -111 l-48 -94 -6 70 c-6 81 -14
110 -41 148 -39 55 -115 75 -192 51z m123 -33 c30 -30 41 -85 41 -205 0 -122
3 -117 -83 -162 -64 -33 -138 -42 -171 -20 -39 25 -52 83 -37 164 21 114 59
182 126 223 40 25 99 25 124 0z"/>
<path d="M47737 19289 c4 -13 8 -18 11 -10 2 7 -1 18 -6 23 -8 8 -9 4 -5 -13z"/>
<path d="M47761 19214 c0 -11 3 -14 6 -6 3 7 2 16 -1 19 -3 4 -6 -2 -5 -13z"/>
<path d="M47811 19044 c0 -11 3 -14 6 -6 3 7 2 16 -1 19 -3 4 -6 -2 -5 -13z"/>
<path d="M47830 18976 c0 -8 4 -17 9 -20 5 -4 7 3 4 14 -6 23 -13 26 -13 6z"/>
<path d="M47891 18774 c0 -11 3 -14 6 -6 3 7 2 16 -1 19 -3 4 -6 -2 -5 -13z"/>
<path d="M47961 18534 c0 -11 3 -14 6 -6 3 7 2 16 -1 19 -3 4 -6 -2 -5 -13z"/>
<path d="M48041 18264 c0 -11 3 -14 6 -6 3 7 2 16 -1 19 -3 4 -6 -2 -5 -13z"/>
<path d="M48091 18094 c0 -11 3 -14 6 -6 3 7 2 16 -1 19 -3 4 -6 -2 -5 -13z"/>
<path d="M48111 18024 c0 -11 3 -14 6 -6 3 7 2 16 -1 19 -3 4 -6 -2 -5 -13z"/>
<path d="M48161 17854 c0 -11 3 -14 6 -6 3 7 2 16 -1 19 -3 4 -6 -2 -5 -13z"/>
<path d="M48241 17584 c0 -11 3 -14 6 -6 3 7 2 16 -1 19 -3 4 -6 -2 -5 -13z"/>
<path d="M48311 17344 c0 -11 3 -14 6 -6 3 7 2 16 -1 19 -3 4 -6 -2 -5 -13z"/>
<path d="M48391 17074 c0 -11 3 -14 6 -6 3 7 2 16 -1 19 -3 4 -6 -2 -5 -13z"/>
<path d="M48441 16904 c0 -11 3 -14 6 -6 3 7 2 16 -1 19 -3 4 -6 -2 -5 -13z"/>
<path d="M48461 16834 c0 -11 3 -14 6 -6 3 7 2 16 -1 19 -3 4 -6 -2 -5 -13z"/>
<path d="M48511 16664 c0 -11 3 -14 6 -6 3 7 2 16 -1 19 -3 4 -6 -2 -5 -13z"/>
<path d="M48591 16394 c0 -11 3 -14 6 -6 3 7 2 16 -1 19 -3 4 -6 -2 -5 -13z"/>
<path d="M76192 16159 c-52 -26 -94 -75 -132 -154 -29 -61 -206 -742 -195
-753 12 -12 24 19 55 144 l32 131 38 -41 c38 -40 40 -41 107 -41 106 1 198 59
249 156 38 74 25 198 -26 244 -19 17 -18 18 29 64 111 108 75 252 -65 267 -38
4 -59 0 -92 -17z m147 -36 c20 -23 23 -34 18 -79 -6 -59 -28 -106 -63 -139
-22 -20 -30 -22 -66 -13 -46 10 -91 3 -107 -16 -21 -25 13 -38 86 -35 l68 4
18 -35 c26 -49 17 -146 -20 -220 -83 -165 -293 -171 -295 -8 -1 61 68 339 103
414 67 142 191 203 258 127z m-136 -260 c-13 -2 -33 -2 -45 0 -13 2 -3 4 22 4
25 0 35 -2 23 -4z"/>
<path d="M48661 16154 c0 -11 3 -14 6 -6 3 7 2 16 -1 19 -3 4 -6 -2 -5 -13z"/>
<path d="M48741 15884 c0 -11 3 -14 6 -6 3 7 2 16 -1 19 -3 4 -6 -2 -5 -13z"/>
<path d="M48791 15714 c0 -11 3 -14 6 -6 3 7 2 16 -1 19 -3 4 -6 -2 -5 -13z"/>
<path d="M48811 15650 c0 -8 4 -22 9 -30 12 -18 12 -2 0 25 -6 13 -9 15 -9 5z"/>
<path d="M48861 15480 c0 -8 4 -24 9 -35 5 -13 9 -14 9 -5 0 8 -4 24 -9 35 -5
13 -9 14 -9 5z"/>
<path d="M48941 15204 c0 -11 3 -14 6 -6 3 7 2 16 -1 19 -3 4 -6 -2 -5 -13z"/>
<path d="M49021 14934 c0 -11 3 -14 6 -6 3 7 2 16 -1 19 -3 4 -6 -2 -5 -13z"/>
<path d="M49091 14694 c0 -11 3 -14 6 -6 3 7 2 16 -1 19 -3 4 -6 -2 -5 -13z"/>
<path d="M49171 14424 c0 -11 3 -14 6 -6 3 7 2 16 -1 19 -3 4 -6 -2 -5 -13z"/>
<path d="M49221 14254 c0 -11 3 -14 6 -6 3 7 2 16 -1 19 -3 4 -6 -2 -5 -13z"/>
<path d="M49241 14184 c0 -11 3 -14 6 -6 3 7 2 16 -1 19 -3 4 -6 -2 -5 -13z"/>
<path d="M49291 14014 c0 -11 3 -14 6 -6 3 7 2 16 -1 19 -3 4 -6 -2 -5 -13z"/>
<path d="M49371 13744 c0 -11 3 -14 6 -6 3 7 2 16 -1 19 -3 4 -6 -2 -5 -13z"/>
<path d="M49441 13504 c0 -11 3 -14 6 -6 3 7 2 16 -1 19 -3 4 -6 -2 -5 -13z"/>
<path d="M49521 13234 c0 -11 3 -14 6 -6 3 7 2 16 -1 19 -3 4 -6 -2 -5 -13z"/>
<path d="M49571 13064 c0 -11 3 -14 6 -6 3 7 2 16 -1 19 -3 4 -6 -2 -5 -13z"/>
<path d="M49591 12994 c0 -11 3 -14 6 -6 3 7 2 16 -1 19 -3 4 -6 -2 -5 -13z"/>
<path d="M49641 12824 c0 -11 3 -14 6 -6 3 7 2 16 -1 19 -3 4 -6 -2 -5 -13z"/>
<path d="M49721 12554 c0 -11 3 -14 6 -6 3 7 2 16 -1 19 -3 4 -6 -2 -5 -13z"/>
<path d="M49791 12320 c0 -8 4 -24 9 -35 5 -13 9 -14 9 -5 0 8 -4 24 -9 35 -5
13 -9 14 -9 5z"/>
<path d="M49847 12119 c4 -13 8 -18 11 -10 2 7 -1 18 -6 23 -8 8 -9 4 -5 -13z"/>
<path d="M49871 12044 c0 -11 3 -14 6 -6 3 7 2 16 -1 19 -3 4 -6 -2 -5 -13z"/>
<path d="M49921 11874 c0 -11 3 -14 6 -6 3 7 2 16 -1 19 -3 4 -6 -2 -5 -13z"/>
<path d="M50001 11604 c0 -11 3 -14 6 -6 3 7 2 16 -1 19 -3 4 -6 -2 -5 -13z"/>
<path d="M50071 11364 c0 -11 3 -14 6 -6 3 7 2 16 -1 19 -3 4 -6 -2 -5 -13z"/>
<path d="M50151 11094 c0 -11 3 -14 6 -6 3 7 2 16 -1 19 -3 4 -6 -2 -5 -13z"/>
<path d="M50201 10924 c0 -11 3 -14 6 -6 3 7 2 16 -1 19 -3 4 -6 -2 -5 -13z"/>
<path d="M50221 10854 c0 -11 3 -14 6 -6 3 7 2 16 -1 19 -3 4 -6 -2 -5 -13z"/>
<path d="M50271 10684 c0 -11 3 -14 6 -6 3 7 2 16 -1 19 -3 4 -6 -2 -5 -13z"/>
<path d="M50351 10414 c0 -11 3 -14 6 -6 3 7 2 16 -1 19 -3 4 -6 -2 -5 -13z"/>
<path d="M50421 10174 c0 -11 3 -14 6 -6 3 7 2 16 -1 19 -3 4 -6 -2 -5 -13z"/>
<path d="M50501 9904 c0 -11 3 -14 6 -6 3 7 2 16 -1 19 -3 4 -6 -2 -5 -13z"/>
<path d="M50551 9734 c0 -11 3 -14 6 -6 3 7 2 16 -1 19 -3 4 -6 -2 -5 -13z"/>
<path d="M50571 9664 c0 -11 3 -14 6 -6 3 7 2 16 -1 19 -3 4 -6 -2 -5 -13z"/>
<path d="M50621 9494 c0 -11 3 -14 6 -6 3 7 2 16 -1 19 -3 4 -6 -2 -5 -13z"/>
<path d="M50701 9224 c0 -11 3 -14 6 -6 3 7 2 16 -1 19 -3 4 -6 -2 -5 -13z"/>
<path d="M50771 8990 c0 -8 4 -24 9 -35 5 -13 9 -14 9 -5 0 8 -4 24 -9 35 -5
13 -9 14 -9 5z"/>
<path d="M50831 8784 c0 -11 3 -14 6 -6 3 7 2 16 -1 19 -3 4 -6 -2 -5 -13z"/>
<path d="M50851 8714 c0 -11 3 -14 6 -6 3 7 2 16 -1 19 -3 4 -6 -2 -5 -13z"/>
<path d="M50901 8544 c0 -11 3 -14 6 -6 3 7 2 16 -1 19 -3 4 -6 -2 -5 -13z"/>
<path d="M50921 8480 c0 -8 4 -22 9 -30 12 -18 12 -2 0 25 -6 13 -9 15 -9 5z"/>
<path d="M50981 8274 c0 -11 3 -14 6 -6 3 7 2 16 -1 19 -3 4 -6 -2 -5 -13z"/>
<path d="M51051 8034 c0 -11 3 -14 6 -6 3 7 2 16 -1 19 -3 4 -6 -2 -5 -13z"/>
<path d="M37167 5275 c-22 -7 -50 -24 -64 -37 -28 -25 -83 -116 -83 -135 0
-25 19 -12 36 23 24 51 84 88 142 88 97 -1 142 -52 163 -184 12 -82 8 -129
-26 -250 -33 -116 -41 -170 -26 -170 18 0 37 54 64 185 25 119 73 256 129 368
40 81 50 107 38 107 -12 0 -60 -93 -110 -213 l-37 -88 -7 56 c-8 75 -42 172
-72 212 -15 19 -39 36 -62 43 -44 12 -38 12 -85 -5z"/>
<path d="M32020 1085 l0 -65 -50 0 -50 0 0 -65 c0 -58 -2 -65 -20 -65 -19 0
-20 -7 -20 -195 l0 -195 30 0 c28 0 30 -2 30 -40 l0 -40 200 0 200 0 0 40 c0
22 5 40 10 40 6 0 10 28 10 65 l0 65 -180 0 -180 0 0 65 c0 37 4 65 10 65 6 0
10 28 10 65 l0 65 50 0 50 0 0 65 0 65 170 0 170 0 0 65 0 65 -220 0 -220 0 0
-65z"/>
</g>
</svg>
