<?xml version="1.0" standalone="no"?>
<!DOCTYPE svg PUBLIC "-//W3C//DTD SVG 20010904//EN"
 "http://www.w3.org/TR/2001/REC-SVG-20010904/DTD/svg10.dtd">
<svg version="1.0" xmlns="http://www.w3.org/2000/svg"
 width="692.000000pt" height="329.000000pt" viewBox="0 0 692.000000 329.000000"
 preserveAspectRatio="xMidYMid meet">
<metadata>
Created by potrace 1.16, written by Peter Selinger 2001-2019
</metadata>
<g transform="translate(0.000000,329.000000) scale(0.100000,-0.100000)"
fill="#000000" stroke="none">
<path d="M2398 2849 c-10 -5 -18 -14 -18 -20 0 -10 -1866 -2238 -1907 -2276
-26 -24 -30 -64 -9 -82 19 -16 5963 -16 5982 0 18 15 18 63 0 78 -7 6 -33 10
-57 9 -42 -2 -145 56 -1969 1110 -1675 968 -1926 1116 -1932 1140 -13 46 -52
64 -90 41z m1787 -1069 c919 -530 1676 -969 1684 -975 11 -11 9 -23 -13 -78
-14 -35 -28 -90 -32 -121 l-7 -56 -2603 0 c-1432 0 -2604 2 -2604 5 0 7 1830
2188 1848 2202 13 10 20 10 36 0 12 -8 773 -447 1691 -977z"/>
</g>
</svg>
