<?xml version="1.0" standalone="no"?>
<!DOCTYPE svg PUBLIC "-//W3C//DTD SVG 20010904//EN"
 "http://www.w3.org/TR/2001/REC-SVG-20010904/DTD/svg10.dtd">
<svg version="1.0" xmlns="http://www.w3.org/2000/svg"
 width="2717.000000pt" height="1225.000000pt" viewBox="0 0 2717.000000 1225.000000"
 preserveAspectRatio="xMidYMid meet">
<metadata>
Created by potrace 1.16, written by Peter Selinger 2001-2019
</metadata>
<g transform="translate(0.000000,1225.000000) scale(0.100000,-0.100000)"
fill="#000000" stroke="none">
<path d="M21800 11343 c0 -22 2 -25 10 -13 13 20 13 40 0 40 -5 0 -10 -12 -10
-27z"/>
<path d="M21778 11294 c-5 -4 -8 -16 -8 -28 0 -14 3 -17 11 -9 6 6 9 19 7 28
-1 9 -6 13 -10 9z"/>
<path d="M21677 11053 c-11 -10 -8 -43 3 -43 6 0 10 11 10 25 0 26 -2 29 -13
18z"/>
<path d="M21647 10977 c-11 -29 -9 -53 4 -40 6 6 9 21 7 34 -3 21 -4 22 -11 6z"/>
<path d="M21550 10718 c0 -19 2 -20 10 -8 13 19 13 30 0 30 -5 0 -10 -10 -10
-22z"/>
<path d="M21527 10674 c-4 -4 -7 -17 -7 -28 1 -19 1 -20 11 -3 11 19 8 43 -4
31z"/>
<path d="M21397 10363 c-11 -10 -8 -43 3 -43 6 0 10 11 10 25 0 26 -2 29 -13
18z"/>
<path d="M21300 10094 c0 -8 5 -12 10 -9 6 3 10 10 10 16 0 5 -4 9 -10 9 -5 0
-10 -7 -10 -16z"/>
<path d="M21257 10025 c-40 -50 -33 -89 12 -65 25 13 33 37 23 72 l-7 28 -28
-35z"/>
<path d="M21156 9795 c-17 -26 -22 -115 -6 -115 15 0 50 76 50 110 0 37 -21
40 -44 5z"/>
<path d="M21002 9400 c-24 -32 -29 -65 -10 -76 18 -11 48 34 48 72 0 42 -10
43 -38 4z"/>
<path d="M20912 9174 c-12 -8 -24 -30 -27 -52 -4 -20 -10 -49 -15 -64 -11 -33
5 -47 28 -25 8 9 22 33 30 54 31 84 26 116 -16 87z"/>
<path d="M20770 8785 c1 -26 2 -28 11 -12 8 14 8 22 0 30 -8 8 -11 3 -11 -18z"/>
<path d="M20647 8487 c-11 -29 -9 -43 4 -30 6 6 9 19 7 29 -3 18 -4 18 -11 1z"/>
<path d="M20617 8423 c-10 -9 -9 -23 2 -23 5 0 11 7 15 15 5 15 -5 20 -17 8z"/>
<path d="M20528 8194 c-5 -4 -8 -19 -8 -33 1 -23 2 -24 11 -8 11 19 9 53 -3
41z"/>
<path d="M20490 8090 c0 -11 2 -20 4 -20 2 0 6 9 9 20 3 11 1 20 -4 20 -5 0
-9 -9 -9 -20z"/>
<path d="M20358 7830 l-48 -46 0 -79 c0 -63 -4 -86 -20 -110 -25 -37 -26 -74
-2 -91 16 -12 17 -96 14 -1576 -3 -1551 -3 -1563 -24 -1591 -11 -16 -18 -30
-16 -31 13 -10 79 -36 90 -36 7 0 23 7 34 14 l21 15 5 1738 c3 956 2 1761 -1
1788 l-6 50 -47 -45z"/>
<path d="M20237 7478 c-7 -27 2 -45 14 -27 11 18 11 49 0 49 -5 0 -11 -10 -14
-22z"/>
<path d="M20148 7254 c-5 -4 -8 -16 -8 -28 0 -14 3 -17 11 -9 6 6 9 19 7 28
-1 9 -6 13 -10 9z"/>
<path d="M20117 7174 c-4 -4 -7 -14 -7 -23 0 -11 3 -12 11 -4 6 6 10 16 7 23
-2 6 -7 8 -11 4z"/>
<path d="M20022 6920 c0 -14 2 -19 5 -12 2 6 2 18 0 25 -3 6 -5 1 -5 -13z"/>
<path d="M19998 6884 c-5 -4 -8 -19 -8 -33 1 -23 2 -24 11 -8 11 19 9 53 -3
41z"/>
<path d="M19890 6615 c0 -8 5 -15 10 -15 6 0 10 7 10 15 0 8 -4 15 -10 15 -5
0 -10 -7 -10 -15z"/>
<path d="M19868 6554 c-5 -4 -8 -16 -8 -28 0 -14 3 -17 11 -9 6 6 9 19 7 28
-1 9 -6 13 -10 9z"/>
<path d="M19766 6295 c-3 -8 -1 -15 4 -15 6 0 10 7 10 15 0 8 -2 15 -4 15 -2
0 -6 -7 -10 -15z"/>
<path d="M19741 6233 c0 -25 1 -26 9 -8 12 27 12 35 0 35 -5 0 -10 -12 -9 -27z"/>
<path d="M19617 5943 c-11 -10 -8 -43 3 -43 6 0 10 11 10 25 0 26 -2 29 -13
18z"/>
<path d="M19492 5610 c0 -14 2 -19 5 -12 2 6 2 18 0 25 -3 6 -5 1 -5 -13z"/>
<path d="M25260 5380 c-11 -7 -5 -10 23 -10 20 0 37 5 37 10 0 13 -40 13 -60
0z"/>
<path d="M25190 5350 c0 -5 7 -7 15 -4 8 4 15 8 15 10 0 2 -7 4 -15 4 -8 0
-15 -4 -15 -10z"/>
<path d="M19368 5324 c-5 -4 -8 -16 -8 -28 0 -14 3 -17 11 -9 6 6 9 19 7 28
-1 9 -6 13 -10 9z"/>
<path d="M24851 5291 c-7 -5 -9 -11 -5 -14 14 -8 64 4 58 14 -7 11 -35 11 -53
0z"/>
<path d="M19336 5241 c-4 -7 -5 -15 -2 -18 9 -9 19 4 14 18 -4 11 -6 11 -12 0z"/>
<path d="M24560 5231 c-17 -5 -21 -9 -12 -15 16 -10 74 3 66 15 -6 10 -18 10
-54 0z"/>
<path d="M24278 5163 c6 -2 18 -2 25 0 6 3 1 5 -13 5 -14 0 -19 -2 -12 -5z"/>
<path d="M23940 5100 c-12 -8 -9 -10 13 -10 16 0 26 4 22 10 -8 12 -16 12 -35
0z"/>
<path d="M23845 5070 c-3 -6 5 -10 19 -10 14 0 28 5 31 10 3 6 -5 10 -19 10
-14 0 -28 -4 -31 -10z"/>
<path d="M19236 4994 c-6 -24 -2 -43 8 -33 11 10 17 59 8 59 -5 0 -13 -12 -16
-26z"/>
<path d="M23533 5003 c9 -2 25 -2 35 0 9 3 1 5 -18 5 -19 0 -27 -2 -17 -5z"/>
<path d="M23210 4940 c0 -12 47 -12 75 0 15 6 8 9 -27 9 -27 1 -48 -3 -48 -9z"/>
<path d="M19210 4925 c0 -8 2 -15 4 -15 2 0 6 7 10 15 3 8 1 15 -4 15 -6 0
-10 -7 -10 -15z"/>
<path d="M22935 4880 c-4 -6 7 -10 24 -10 17 0 31 5 31 10 0 6 -11 10 -24 10
-14 0 -28 -4 -31 -10z"/>
<path d="M22840 4849 c0 -5 5 -7 10 -4 6 3 10 8 10 11 0 2 -4 4 -10 4 -5 0
-10 -5 -10 -11z"/>
<path d="M22628 4813 c7 -3 16 -2 19 1 4 3 -2 6 -13 5 -11 0 -14 -3 -6 -6z"/>
<path d="M22515 4790 c-4 -6 7 -10 24 -10 17 0 31 5 31 10 0 6 -11 10 -24 10
-14 0 -28 -4 -31 -10z"/>
<path d="M22233 4733 c-61 -6 -54 -19 7 -15 27 2 50 8 50 13 0 5 -3 8 -7 7 -5
-1 -27 -3 -50 -5z"/>
<path d="M19117 4697 c-11 -29 -9 -43 4 -30 6 6 9 19 7 29 -3 18 -4 18 -11 1z"/>
<path d="M21885 4660 c-8 -13 45 -13 65 0 11 7 6 10 -22 10 -20 0 -40 -4 -43
-10z"/>
<path d="M19086 4622 c-4 -13 -5 -26 -2 -29 10 -11 18 4 14 29 l-4 23 -8 -23z"/>
<path d="M21615 4600 c-4 -6 5 -10 19 -10 14 0 26 5 26 10 0 6 -9 10 -19 10
-11 0 -23 -4 -26 -10z"/>
<path d="M21181 4511 c-20 -13 2 -22 38 -15 17 4 28 10 25 15 -7 11 -45 11
-63 0z"/>
<path d="M20898 4443 c12 -2 32 -2 45 0 12 2 2 4 -23 4 -25 0 -35 -2 -22 -4z"/>
<path d="M18988 4375 c-6 -28 6 -34 16 -9 8 22 7 34 -3 34 -5 0 -11 -11 -13
-25z"/>
<path d="M20578 4373 c6 -2 18 -2 25 0 6 3 1 5 -13 5 -14 0 -19 -2 -12 -5z"/>
<path d="M18962 4300 c0 -14 2 -19 5 -12 2 6 2 18 0 25 -3 6 -5 1 -5 -13z"/>
<path d="M20185 4290 c-4 -6 5 -10 19 -10 14 0 26 5 26 10 0 6 -9 10 -19 10
-11 0 -23 -4 -26 -10z"/>
<path d="M19840 4220 c0 -12 47 -12 75 0 15 6 8 9 -27 9 -27 1 -48 -3 -48 -9z"/>
<path d="M19555 4160 c-8 -13 55 -13 75 0 11 7 4 10 -27 10 -23 0 -45 -4 -48
-10z"/>
<path d="M19260 4100 c-11 -7 -7 -10 18 -10 17 0 32 5 32 10 0 13 -30 13 -50
0z"/>
<path d="M18847 4040 c-17 -26 -25 -50 -22 -61 6 -19 7 -19 32 1 14 11 32 20
39 20 18 0 18 14 0 30 -8 6 -16 21 -18 32 -2 17 -8 13 -31 -22z"/>
<path d="M19180 4070 c0 -5 4 -10 9 -10 6 0 13 5 16 10 3 6 -1 10 -9 10 -9 0
-16 -4 -16 -10z"/>
<path d="M18940 4030 c0 -5 6 -10 14 -10 8 0 18 5 21 10 3 6 -3 10 -14 10 -12
0 -21 -4 -21 -10z"/>
<path d="M18530 3942 c0 -4 16 -6 35 -4 19 2 35 6 35 8 0 2 -16 4 -35 4 -19 0
-35 -4 -35 -8z"/>
<path d="M18235 3880 c-4 -6 8 -10 29 -10 19 0 38 5 41 10 4 6 -8 10 -29 10
-19 0 -38 -4 -41 -10z"/>
<path d="M17950 3820 c-12 -8 -9 -10 13 -10 16 0 26 4 22 10 -8 12 -16 12 -35
0z"/>
<path d="M17840 3790 c0 -5 7 -10 16 -10 8 0 12 5 9 10 -3 6 -10 10 -16 10 -5
0 -9 -4 -9 -10z"/>
<path d="M18740 3753 c0 -22 2 -25 10 -13 13 20 13 40 0 40 -5 0 -10 -12 -10
-27z"/>
<path d="M17525 3730 c-15 -7 -10 -9 23 -9 26 -1 41 3 37 9 -7 12 -32 12 -60
0z"/>
<path d="M18706 3684 c-8 -22 -7 -34 3 -34 12 0 21 39 11 45 -4 3 -11 -2 -14
-11z"/>
<path d="M17248 3663 c12 -2 30 -2 40 0 9 3 -1 5 -23 4 -22 0 -30 -2 -17 -4z"/>
<path d="M16905 3600 c-16 -7 -13 -9 18 -9 20 -1 37 4 37 9 0 12 -27 12 -55 0z"/>
<path d="M16840 3569 c0 -5 5 -7 10 -4 6 3 10 8 10 11 0 2 -4 4 -10 4 -5 0
-10 -5 -10 -11z"/>
<path d="M16620 3540 c-12 -8 -9 -10 13 -10 16 0 26 4 22 10 -8 12 -16 12 -35
0z"/>
<path d="M16525 3510 c-19 -8 -19 -9 3 -9 12 -1 22 4 22 9 0 6 -1 10 -2 9 -2
0 -12 -4 -23 -9z"/>
<path d="M18618 3454 c-5 -4 -8 -16 -8 -28 0 -14 3 -17 11 -9 6 6 9 19 7 28
-1 9 -6 13 -10 9z"/>
<path d="M16180 3440 c0 -12 37 -12 65 0 15 7 10 9 -22 9 -24 1 -43 -3 -43 -9z"/>
<path d="M15895 3380 c-4 -6 8 -10 29 -10 19 0 38 5 41 10 4 6 -8 10 -29 10
-19 0 -38 -4 -41 -10z"/>
<path d="M18587 3384 c-4 -4 -7 -14 -7 -23 0 -11 3 -12 11 -4 6 6 10 16 7 23
-2 6 -7 8 -11 4z"/>
<path d="M15598 3313 c7 -3 16 -2 19 1 4 3 -2 6 -13 5 -11 0 -14 -3 -6 -6z"/>
<path d="M15505 3290 c-3 -5 1 -10 9 -10 8 0 18 5 21 10 3 6 -1 10 -9 10 -8 0
-18 -4 -21 -10z"/>
<path d="M15280 3250 c0 -5 6 -10 14 -10 8 0 18 5 21 10 3 6 -3 10 -14 10 -12
0 -21 -4 -21 -10z"/>
<path d="M15200 3230 c-24 -8 -24 -8 7 -9 17 -1 35 4 38 9 7 11 -9 11 -45 0z"/>
<path d="M14850 3160 c0 -13 50 -13 70 0 11 7 4 10 -27 10 -24 0 -43 -4 -43
-10z"/>
<path d="M18491 3124 c0 -11 3 -14 6 -6 3 7 2 16 -1 19 -3 4 -6 -2 -5 -13z"/>
<path d="M14565 3100 c-4 -6 8 -10 29 -10 19 0 38 5 41 10 4 6 -8 10 -29 10
-19 0 -38 -4 -41 -10z"/>
<path d="M18462 3055 c0 -16 2 -22 5 -12 2 9 2 23 0 30 -3 6 -5 -1 -5 -18z"/>
<path d="M14288 3033 c7 -3 16 -2 19 1 4 3 -2 6 -13 5 -11 0 -14 -3 -6 -6z"/>
<path d="M14175 3010 c-3 -5 1 -10 9 -10 9 0 16 5 16 10 0 6 -4 10 -9 10 -6 0
-13 -4 -16 -10z"/>
<path d="M13865 2951 c-20 -4 -26 -9 -17 -14 15 -10 72 1 72 14 0 10 -10 10
-55 0z"/>
<path d="M13535 2880 c-7 -11 25 -11 70 0 27 7 25 8 -17 9 -26 0 -50 -3 -53
-9z"/>
<path d="M13240 2820 c-11 -7 -4 -10 28 -10 23 0 42 5 42 10 0 13 -50 13 -70
0z"/>
<path d="M18360 2810 c0 -5 5 -10 10 -10 6 0 10 5 10 10 0 6 -4 10 -10 10 -5
0 -10 -4 -10 -10z"/>
<path d="M12958 2753 c7 -3 16 -2 19 1 4 3 -2 6 -13 5 -11 0 -14 -3 -6 -6z"/>
<path d="M18337 2753 c-4 -3 -7 -13 -7 -22 1 -13 3 -13 11 2 11 19 8 33 -4 20z"/>
<path d="M12843 2723 c9 -2 23 -2 30 0 6 3 -1 5 -18 5 -16 0 -22 -2 -12 -5z"/>
<path d="M12588 2677 c-47 -10 -66 -27 -30 -27 30 0 92 21 92 30 0 6 -3 9 -7
9 -5 -1 -29 -6 -55 -12z"/>
<path d="M12255 2600 c-4 -6 7 -10 24 -10 17 0 31 5 31 10 0 6 -11 10 -24 10
-14 0 -28 -4 -31 -10z"/>
<path d="M11835 2510 c-4 -6 5 -10 19 -10 14 0 26 5 26 10 0 6 -9 10 -19 10
-11 0 -23 -4 -26 -10z"/>
<path d="M11528 2442 c12 -8 72 -4 72 4 0 2 -19 4 -42 4 -26 0 -38 -4 -30 -8z"/>
<path d="M18210 2430 c0 -11 2 -20 4 -20 2 0 6 9 9 20 3 11 1 20 -4 20 -5 0
-9 -9 -9 -20z"/>
<path d="M11210 2380 c-11 -7 -8 -9 15 -9 17 1 41 5 55 9 22 7 20 8 -15 9 -22
0 -47 -4 -55 -9z"/>
<path d="M10920 2320 c-11 -7 -5 -10 23 -10 23 0 36 4 32 10 -8 13 -35 13 -55
0z"/>
<path d="M10850 2289 c0 -5 5 -7 10 -4 6 3 10 8 10 11 0 2 -4 4 -10 4 -5 0
-10 -5 -10 -11z"/>
<path d="M19028 2248 c-20 -5 -51 -25 -69 -43 -52 -53 -68 -105 -68 -227 -1
-116 15 -173 60 -215 29 -27 90 -53 121 -53 44 1 106 37 134 80 55 83 30 216
-49 257 -45 23 -107 21 -152 -6 -43 -25 -58 -16 -45 28 27 89 49 111 112 111
37 0 57 -6 82 -25 61 -47 96 -21 55 40 -18 26 -37 39 -73 50 -55 17 -57 17
-108 3z m79 -258 c7 0 24 -12 38 -27 49 -54 26 -143 -44 -173 -55 -22 -120 13
-141 75 -10 30 -9 41 8 73 20 39 69 65 107 57 11 -3 25 -5 32 -5z"/>
<path d="M19438 2248 c-67 -18 -113 -100 -89 -158 6 -14 21 -38 33 -53 l23
-28 -32 -25 c-81 -63 -59 -203 41 -252 53 -27 88 -27 142 -3 48 22 80 59 95
112 10 32 9 46 -5 83 -9 24 -28 52 -42 60 -31 21 -30 33 3 68 58 60 23 162
-65 193 -51 17 -52 17 -104 3z m116 -93 c21 -32 20 -47 -5 -79 -22 -28 -73
-36 -109 -16 -27 14 -35 65 -16 95 14 21 24 25 65 25 41 0 51 -4 65 -25z m-15
-190 c34 -17 41 -33 41 -90 0 -73 -62 -111 -133 -81 -41 17 -57 42 -57 88 1
75 80 119 149 83z"/>
<path d="M19794 2241 c-28 -12 -54 -55 -54 -89 0 -32 43 -86 77 -96 33 -11 92
21 110 60 29 60 -6 122 -72 130 -22 2 -49 0 -61 -5z m96 -43 c24 -27 25 -41 3
-79 -34 -56 -123 -28 -123 39 0 29 37 62 70 62 17 0 38 -9 50 -22z"/>
<path d="M10506 2220 c7 -7 19 -7 35 -1 23 9 22 10 -10 10 -24 1 -32 -2 -25
-9z"/>
<path d="M10190 2160 c0 -13 60 -13 80 0 11 7 2 10 -32 10 -27 0 -48 -4 -48
-10z"/>
<path d="M18070 2114 c-20 -46 -26 -94 -12 -94 12 1 73 113 68 127 -11 27 -37
12 -56 -33z"/>
<path d="M9910 2100 c-24 -8 -24 -8 5 -9 17 0 37 4 45 9 12 8 11 10 -5 9 -11
-1 -31 -5 -45 -9z"/>
<path d="M9595 2040 c-17 -7 -14 -9 13 -9 20 -1 31 3 27 9 -7 12 -13 12 -40 0z"/>
<path d="M9510 2010 c0 -5 9 -10 20 -10 11 0 20 5 20 10 0 6 -9 10 -20 10 -11
0 -20 -4 -20 -10z"/>
<path d="M9176 1940 c6 -6 21 -6 39 -1 30 9 30 9 -9 10 -26 1 -37 -2 -30 -9z"/>
<path d="M17970 1863 c-12 -27 -28 -61 -36 -76 -16 -34 -19 -90 -3 -85 13 4
79 154 79 179 0 37 -19 28 -40 -18z"/>
<path d="M8865 1880 c-8 -13 55 -13 75 0 11 7 4 10 -27 10 -23 0 -45 -4 -48
-10z"/>
<path d="M8585 1820 c-4 -6 6 -10 24 -10 16 0 33 5 36 10 4 6 -6 10 -24 10
-16 0 -33 -4 -36 -10z"/>
<path d="M8273 1753 c9 -2 23 -2 30 0 6 3 -1 5 -18 5 -16 0 -22 -2 -12 -5z"/>
<path d="M8175 1730 c-3 -6 5 -10 19 -10 14 0 28 5 31 10 3 6 -5 10 -19 10
-14 0 -28 -4 -31 -10z"/>
<path d="M7844 1662 c5 -8 76 -4 76 4 0 2 -18 4 -41 4 -22 0 -38 -4 -35 -8z"/>
<path d="M7515 1595 c-16 -8 -46 -14 -66 -15 -20 0 -49 -4 -65 -9 -16 -5 -55
-14 -87 -21 -49 -10 -56 -14 -42 -24 12 -8 15 -23 13 -51 -3 -35 0 -40 20 -43
15 -2 33 8 56 32 30 32 39 36 84 36 40 0 57 -6 81 -26 57 -48 37 -102 -75
-199 -87 -77 -194 -187 -194 -201 0 -6 8 -18 18 -27 16 -14 44 -17 179 -17
l161 0 17 27 c17 25 17 27 -1 40 -12 9 -52 13 -130 13 -62 0 -115 4 -119 9 -3
5 16 27 41 48 210 172 247 257 158 361 -19 22 -34 45 -34 51 0 6 18 11 39 11
22 0 43 5 46 10 9 15 -65 11 -100 -5z"/>
<path d="M17855 1570 c-29 -52 -65 -143 -65 -162 0 -37 26 -15 49 40 12 31 27
66 33 78 5 11 8 34 6 50 l-3 29 -20 -35z"/>
<path d="M7011 1538 c-40 -43 -94 -73 -149 -80 -29 -4 -29 -23 -1 -24 12 -1
26 -9 31 -18 11 -20 36 -21 57 -2 9 8 25 16 36 18 19 3 20 -3 23 -152 2 -121
-1 -160 -12 -175 -12 -17 -11 -22 7 -47 26 -35 56 -35 81 -1 15 21 17 29 8 44
-8 13 -12 88 -12 232 0 261 -5 276 -69 205z"/>
<path d="M7746 1560 c-39 -25 -46 -38 -46 -86 0 -43 10 -61 50 -88 37 -24 65
-20 104 18 57 53 46 125 -24 161 -36 19 -48 18 -84 -5z m80 -31 c46 -28 48
-75 4 -107 -35 -27 -48 -27 -77 -3 -35 29 -32 91 5 113 34 22 28 22 68 -3z"/>
<path d="M18711 1534 c0 -11 3 -14 6 -6 3 7 2 16 -1 19 -3 4 -6 -2 -5 -13z"/>
<path d="M18741 1444 c0 -11 3 -14 6 -6 3 7 2 16 -1 19 -3 4 -6 -2 -5 -13z"/>
<path d="M6530 1380 c0 -5 14 -7 33 -3 45 8 47 13 4 13 -20 0 -37 -4 -37 -10z"/>
<path d="M6153 1310 c-18 -11 -33 -23 -33 -26 0 -10 154 7 168 18 24 20 11 28
-45 28 -40 0 -68 -6 -90 -20z"/>
<path d="M17721 1246 c-12 -18 -21 -38 -21 -43 0 -11 -35 -79 -50 -98 -6 -8
-9 -19 -5 -25 4 -7 197 -10 597 -10 l590 0 -6 28 c-4 15 -11 43 -15 62 l-9 35
-1 -30 c-1 -16 -5 -36 -9 -42 -6 -10 -131 -13 -536 -13 -291 -1 -533 3 -538 8
-4 4 3 36 17 70 14 34 25 68 25 77 0 25 -17 17 -39 -19z"/>
<path d="M5847 1248 c-58 -20 -68 -38 -21 -38 21 0 92 15 172 36 6 2 12 8 12
14 0 16 -100 9 -163 -12z"/>
<path d="M5575 1193 c-33 -8 -70 -16 -83 -19 -13 -3 -22 -10 -19 -17 6 -17 89
-10 167 15 51 17 60 23 45 29 -27 10 -40 9 -110 -8z"/>
<path d="M5275 1131 c-11 -4 -42 -12 -70 -16 -62 -9 -91 -23 -77 -37 12 -12
1158 -11 1180 1 10 6 9 12 -7 32 -16 19 -22 22 -32 12 -16 -15 -799 -19 -827
-4 -25 13 -144 22 -167 12z"/>
</g>
</svg>
