<?xml version="1.0" standalone="no"?>
<!DOCTYPE svg PUBLIC "-//W3C//DTD SVG 20010904//EN"
 "http://www.w3.org/TR/2001/REC-SVG-20010904/DTD/svg10.dtd">
<svg version="1.0" xmlns="http://www.w3.org/2000/svg"
 width="1263.000000pt" height="767.000000pt" viewBox="0 0 1263.000000 767.000000"
 preserveAspectRatio="xMidYMid meet">
<metadata>
Created by potrace 1.16, written by Peter Selinger 2001-2019
</metadata>
<g transform="translate(0.000000,767.000000) scale(0.100000,-0.100000)"
fill="#000000" stroke="none">
<path d="M11862 7212 c-39 -12 -93 -63 -113 -106 -54 -119 23 -222 140 -188
25 8 41 19 44 33 4 16 2 19 -11 13 -9 -4 -36 -9 -59 -12 -55 -5 -83 21 -83 79
0 103 94 180 170 139 14 -7 20 -6 24 7 4 9 3 20 -2 25 -13 13 -81 19 -110 10z"/>
<path d="M11503 6812 c-10 -10 -22 -26 -28 -34 -7 -11 -1464 -393 -4668 -1222
-4173 -1081 -4660 -1205 -4673 -1191 -24 24 -61 19 -81 -11 -16 -24 -16 -29
-1 -54 16 -28 6 -59 -560 -1701 -526 -1524 -579 -1673 -602 -1681 -29 -11 -40
-25 -40 -55 0 -53 65 -71 99 -27 l20 26 5250 -4 5250 -3 21 -23 c24 -26 62
-29 84 -6 22 22 20 54 -6 81 l-21 23 -5 2895 c-4 2651 -3 2895 11 2895 17 0
37 29 37 54 0 20 -35 56 -55 56 -8 0 -23 -8 -32 -18z m12 -92 c13 0 15 -301
15 -2330 l0 -2330 -595 0 -595 0 0 -595 0 -595 -4687 0 -4688 1 -16 22 c-15
21 11 101 561 1697 544 1576 579 1675 604 1683 15 5 29 19 32 33 4 15 16 27
33 31 14 3 2114 547 4666 1208 3716 963 4642 1200 4648 1189 4 -8 15 -14 22
-14z m5 -5241 l0 -551 -22 -24 -23 -24 -552 0 -553 0 0 575 0 575 575 0 575 0
0 -551z"/>
<path d="M6314 6026 c-48 -21 -60 -78 -24 -111 19 -17 19 -18 -2 -35 -31 -24
-30 -81 2 -115 32 -34 91 -35 125 0 31 30 34 86 7 113 -18 18 -18 19 0 42 24
30 23 54 -4 84 -29 32 -64 39 -104 22z m76 -41 c27 -33 -15 -81 -57 -64 -25 9
-31 47 -11 67 16 16 53 15 68 -3z m-6 -121 c32 -31 10 -94 -33 -94 -25 0 -43
24 -43 55 0 49 44 72 76 39z"/>
<path d="M6700 6027 c-28 -14 -51 -53 -43 -73 8 -21 16 -17 35 16 21 37 60 40
82 8 26 -37 19 -57 -49 -127 -89 -92 -87 -101 20 -101 69 0 85 3 85 15 0 12
-14 15 -63 15 l-64 0 64 63 c54 55 63 69 63 100 0 66 -73 114 -130 84z"/>
<path d="M6880 5950 c0 -72 2 -80 19 -80 10 0 24 7 31 15 28 34 64 4 63 -53
-2 -59 -53 -82 -94 -41 -17 17 -23 19 -30 8 -5 -8 -9 -17 -9 -20 0 -16 53 -39
89 -39 32 0 44 6 65 31 58 69 7 177 -74 156 -17 -4 -20 0 -20 29 l0 34 55 0
c48 0 55 2 55 20 0 18 -7 20 -75 20 l-75 0 0 -80z"/>
<path d="M7090 5844 c0 -87 1 -94 20 -94 18 0 20 7 20 61 0 69 12 99 41 99 25
0 39 -36 39 -106 0 -39 4 -54 14 -54 9 0 15 20 19 66 6 75 25 106 55 88 13 -9
18 -28 20 -83 3 -63 5 -71 22 -71 18 0 20 7 20 76 0 96 -9 114 -58 114 -21 0
-43 -5 -50 -12 -8 -8 -15 -8 -24 0 -8 6 -42 11 -76 10 l-62 -1 0 -93z"/>
<path d="M6502 5740 c-1 -57 11 -65 27 -19 16 48 14 69 -8 69 -16 0 -19 -8
-19 -50z"/>
<path d="M1725 4748 c-7 -24 -55 -251 -55 -265 0 -10 20 -13 79 -13 65 0 84 4
112 23 49 33 79 91 79 155 0 46 -4 58 -29 83 -27 27 -35 29 -106 29 -52 0 -77
-4 -80 -12z m150 -43 c66 -66 -9 -205 -111 -205 -24 0 -44 3 -44 8 0 4 10 55
22 115 l23 107 43 0 c32 0 49 -6 67 -25z"/>
<path d="M11710 3880 c0 -72 2 -80 19 -80 10 0 24 7 31 15 28 34 64 4 63 -53
-2 -59 -53 -82 -94 -41 -17 17 -23 19 -30 8 -5 -8 -9 -17 -9 -20 0 -16 53 -39
89 -39 32 0 44 6 65 31 58 69 7 177 -74 156 -17 -4 -20 0 -20 29 l0 34 55 0
c48 0 55 2 55 20 0 18 -7 20 -75 20 l-75 0 0 -80z"/>
<path d="M11920 3774 c0 -87 1 -94 20 -94 18 0 20 7 20 61 0 69 12 99 41 99
25 0 39 -36 39 -106 0 -39 4 -54 14 -54 9 0 15 20 19 66 6 75 25 106 55 88 13
-9 18 -28 20 -83 3 -63 5 -71 22 -71 18 0 20 7 20 76 0 96 -9 114 -58 114 -21
0 -43 -5 -50 -12 -8 -8 -15 -8 -24 0 -8 6 -42 11 -76 10 l-62 -1 0 -93z"/>
<path d="M492 3065 c-35 -15 -51 -40 -35 -56 6 -6 16 -2 28 11 22 24 73 27 82
4 9 -24 -13 -62 -39 -66 -32 -4 -37 -38 -5 -38 50 0 74 -61 37 -95 -21 -19
-63 -14 -91 11 -15 13 -17 13 -22 0 -9 -24 40 -56 85 -56 76 0 119 89 67 141
-19 19 -19 22 -5 38 9 10 16 31 16 48 0 54 -59 84 -118 58z"/>
<path d="M916 3065 c-11 -8 -30 -15 -43 -15 -14 0 -23 -6 -23 -15 0 -10 10
-15 30 -15 l30 0 0 -100 0 -100 -25 0 c-16 0 -25 -6 -25 -15 0 -12 14 -15 70
-15 56 0 70 3 70 15 0 9 -9 15 -25 15 l-25 0 0 130 c0 72 -3 130 -7 130 -5 0
-17 -7 -27 -15z"/>
<path d="M1060 2884 c0 -87 1 -94 20 -94 18 0 20 7 20 61 0 69 12 99 41 99 25
0 39 -36 39 -106 0 -39 4 -54 14 -54 9 0 15 20 19 66 6 75 25 106 55 88 13 -9
18 -28 20 -83 3 -63 5 -71 22 -71 18 0 20 7 20 76 0 96 -9 114 -58 114 -21 0
-43 -5 -50 -12 -8 -8 -15 -8 -24 0 -8 6 -42 11 -76 10 l-62 -1 0 -93z"/>
<path d="M672 2780 c-1 -57 11 -65 27 -19 16 48 14 69 -8 69 -16 0 -19 -8 -19
-50z"/>
<path d="M6025 731 c-40 -17 -59 -49 -59 -100 0 -85 51 -125 115 -91 23 13 24
8 4 -30 -17 -34 -58 -49 -80 -30 -12 10 -16 9 -21 -3 -9 -25 5 -37 44 -37 75
0 112 52 112 155 0 76 -19 121 -56 135 -29 12 -32 12 -59 1z m63 -56 c16 -35
15 -66 -4 -93 -33 -47 -74 -21 -74 48 0 25 5 51 12 58 21 21 54 14 66 -13z"/>
<path d="M575 583 c-96 -165 -91 -153 -66 -153 13 0 28 14 42 40 22 39 23 40
81 40 l58 0 6 -40 c6 -34 10 -40 31 -40 21 0 24 3 19 28 -3 15 -12 70 -21 122
-23 140 -23 140 -48 140 -18 0 -37 -26 -102 -137z m104 -15 c1 -26 -2 -28 -39
-28 -22 0 -40 3 -40 6 0 3 15 32 33 64 l32 59 7 -37 c4 -20 7 -49 7 -64z"/>
<path d="M11775 708 c-6 -20 -55 -257 -55 -268 0 -6 33 -10 79 -10 65 0 84 4
112 23 44 29 51 77 18 113 -12 13 -17 24 -11 24 22 0 52 40 52 69 0 45 -31 61
-118 61 -49 0 -74 -4 -77 -12z m136 -28 c49 -27 -2 -80 -77 -80 -36 0 -36 1
-30 31 3 17 6 38 6 45 0 17 71 19 101 4z m-16 -133 c24 -19 14 -60 -20 -75
-14 -7 -44 -12 -66 -12 l-41 0 7 43 c4 23 9 45 12 50 7 12 88 8 108 -6z"/>
<path d="M6190 544 c0 -87 1 -94 20 -94 18 0 20 7 20 61 0 69 12 99 41 99 25
0 39 -36 39 -106 0 -39 4 -54 14 -54 9 0 15 20 19 66 6 75 25 106 55 88 13 -9
18 -28 20 -83 3 -63 5 -71 22 -71 18 0 20 7 20 76 0 96 -9 114 -58 114 -21 0
-43 -5 -50 -12 -8 -8 -15 -8 -24 0 -8 6 -42 11 -76 10 l-62 -1 0 -93z"/>
</g>
</svg>
