<?xml version="1.0" standalone="no"?>
<!DOCTYPE svg PUBLIC "-//W3C//DTD SVG 20010904//EN"
 "http://www.w3.org/TR/2001/REC-SVG-20010904/DTD/svg10.dtd">
<svg version="1.0" xmlns="http://www.w3.org/2000/svg"
 width="2592.000000pt" height="2579.000000pt" viewBox="0 0 2592.000000 2579.000000"
 preserveAspectRatio="xMidYMid meet">
<metadata>
Created by potrace 1.16, written by Peter Selinger 2001-2019
</metadata>
<g transform="translate(0.000000,2579.000000) scale(0.100000,-0.100000)"
fill="#000000" stroke="none">
<path d="M12480 25363 c0 -10 -14 -49 -30 -88 -17 -38 -30 -71 -30 -72 0 -2
11 -3 25 -3 l25 0 0 -493 0 -494 -107 -6 c-60 -4 -147 -10 -195 -13 l-88 -7 0
78 c0 70 -2 76 -17 70 -10 -4 -30 -10 -45 -13 -16 -2 -28 -11 -28 -19 0 -11 7
-14 25 -11 24 5 25 3 25 -48 l0 -54 -52 -1 c-202 -4 -696 -47 -1028 -89 -4882
-626 -8885 -4257 -9989 -9060 -174 -758 -265 -1481 -302 -2395 -10 -243 -10
-344 -1 -470 7 -88 12 -188 12 -222 l0 -63 -121 0 c-77 0 -118 -4 -114 -10 4
-6 55 -10 120 -10 l113 0 6 -72 c3 -40 14 -202 26 -360 81 -1124 357 -2323
783 -3399 1509 -3813 4898 -6585 8920 -7293 474 -84 846 -128 1322 -156 99 -6
208 -13 243 -16 l62 -6 0 -44 c0 -40 -2 -44 -25 -44 -16 0 -25 -6 -25 -15 0
-12 15 -15 71 -15 52 0 70 3 67 13 -3 6 -14 13 -26 15 -19 3 -22 10 -22 49 l0
45 118 -8 c364 -27 1181 16 1806 96 2671 342 5146 1590 7012 3538 1905 1988
3050 4549 3255 7280 l23 302 44 0 c30 0 42 4 40 13 -3 6 -14 13 -26 15 -21 3
-22 8 -22 129 0 112 -2 124 -16 119 -15 -6 -16 0 -10 46 4 29 9 101 13 161 l6
107 493 0 494 0 0 -29 0 -29 73 29 c39 15 81 31 92 34 14 5 0 13 -54 31 -41
14 -82 29 -93 35 -16 8 -18 6 -18 -21 l0 -30 -494 0 -494 0 -5 98 c-4 53 -11
196 -16 317 -53 1203 -256 2308 -621 3380 -1313 3861 -4543 6788 -8503 7706
-762 177 -1457 266 -2424 310 l-253 12 0 493 0 494 29 0 29 0 -29 68 c-16 37
-29 75 -29 84 0 23 -20 34 -20 11z m-440 -1228 c0 -41 -2 -45 -25 -45 -16 0
-25 -6 -25 -15 0 -12 15 -15 71 -15 52 0 70 3 67 13 -3 6 -14 13 -26 15 -19 3
-22 10 -22 48 l0 44 83 0 c45 0 133 -3 195 -7 l112 -6 0 -1159 0 -1158 -75 0
c-68 0 -75 -2 -75 -20 0 -18 7 -20 75 -20 l75 0 0 -1160 0 -1160 -75 0 c-68 0
-75 -2 -75 -20 0 -18 7 -20 75 -20 l75 0 0 -1160 0 -1160 -75 0 c-73 0 -75 -1
-75 -25 0 -24 2 -25 75 -25 l75 0 0 -1160 0 -1160 -75 0 c-68 0 -75 -2 -75
-20 0 -18 7 -20 75 -20 l75 0 0 -1159 0 -1158 -132 -7 c-73 -4 -135 -9 -137
-12 -10 -10 11 -13 137 -20 l132 -7 0 -128 c0 -80 4 -130 11 -134 6 -4 12 -5
14 -3 2 1 7 62 11 134 l7 131 111 7 c61 3 582 6 1159 6 l1047 0 0 -80 c0 -73
2 -80 20 -80 18 0 20 7 20 80 l0 80 1160 0 1160 0 0 -80 c0 -73 2 -80 20 -80
18 0 20 7 20 80 l0 80 1160 0 1160 0 0 -80 c0 -79 0 -80 25 -80 25 0 25 1 25
80 l0 80 1160 0 1160 0 0 -80 c0 -73 2 -80 20 -80 18 0 20 7 20 80 l0 80 1158
0 1159 0 6 -122 c11 -204 11 -208 -18 -208 -16 0 -25 -6 -25 -16 0 -12 7 -15
26 -11 19 3 24 1 20 -10 -3 -8 -6 -55 -6 -104 0 -82 -1 -89 -20 -89 -11 0 -20
-7 -20 -15 0 -9 9 -15 21 -15 18 0 20 -4 15 -32 -3 -18 -15 -152 -26 -298
-285 -3669 -2281 -6998 -5400 -9005 -1456 -937 -3117 -1542 -4846 -1765 -487
-63 -1126 -106 -1381 -93 l-123 6 0 1159 0 1158 80 0 c73 0 80 2 80 20 0 18
-7 20 -80 20 l-80 0 0 1160 0 1160 80 0 c79 0 80 0 80 25 0 25 -1 25 -80 25
l-80 0 0 1155 0 1155 80 0 c79 0 80 0 80 25 0 25 -1 25 -80 25 l-80 0 0 1160
0 1160 80 0 c73 0 80 2 80 20 0 18 -7 20 -80 20 l-80 0 0 845 c0 744 -2 845
-15 845 -13 0 -15 -101 -15 -845 l0 -845 -75 0 c-68 0 -75 -2 -75 -20 0 -18 7
-20 75 -20 l75 0 0 -1160 0 -1160 -75 0 c-73 0 -75 -1 -75 -25 0 -24 2 -25 75
-25 l75 0 0 -1155 0 -1155 -75 0 c-73 0 -75 -1 -75 -25 0 -24 2 -25 75 -25
l75 0 0 -1160 0 -1160 -75 0 c-68 0 -75 -2 -75 -20 0 -18 7 -20 75 -20 l75 0
0 -1158 0 -1159 -112 -6 c-62 -4 -150 -7 -195 -7 l-83 0 0 76 c0 69 -2 75 -17
69 -10 -4 -30 -10 -45 -13 -16 -2 -28 -11 -28 -19 0 -11 7 -14 25 -11 24 5 25
3 25 -43 l0 -49 -82 0 c-46 0 -159 7 -253 15 -93 8 -226 19 -295 25 -251 22
-702 83 -997 135 -1903 340 -3690 1141 -5212 2338 -723 569 -1425 1271 -1993
1994 -1191 1514 -1994 3302 -2332 5193 -117 652 -199 1515 -181 1913 l7 167
1159 0 1159 0 0 -80 c0 -73 2 -80 20 -80 18 0 20 7 20 80 l0 80 1160 0 1160 0
0 -80 c0 -73 2 -80 20 -80 18 0 20 7 20 80 l0 80 1160 0 1160 0 0 -80 c0 -79
0 -80 25 -80 25 0 25 1 25 80 l0 80 1155 0 1155 0 0 -80 c0 -79 0 -80 25 -80
25 0 25 1 25 80 l0 80 875 0 c577 0 875 3 875 10 0 7 -298 10 -875 10 l-875 0
0 80 c0 79 0 80 -25 80 -25 0 -25 -1 -25 -80 l0 -80 -1155 0 -1155 0 0 80 c0
79 0 80 -25 80 -25 0 -25 -1 -25 -80 l0 -80 -1160 0 -1160 0 0 80 c0 73 -2 80
-20 80 -18 0 -20 -7 -20 -80 l0 -80 -1160 0 -1160 0 0 80 c0 73 -2 80 -20 80
-18 0 -20 -7 -20 -80 l0 -80 -1159 0 -1158 0 -7 136 c-20 387 62 1285 175
1924 861 4844 4672 8667 9509 9541 459 83 1080 154 1595 182 33 2 61 4 63 5 1
1 2 -18 2 -43z m1345 10 c2535 -194 4915 -1188 6834 -2854 2201 -1912 3616
-4557 3976 -7436 59 -473 100 -1114 88 -1357 l-6 -108 -1158 0 -1159 0 0 80
c0 73 -2 80 -20 80 -18 0 -20 -7 -20 -80 l0 -80 -1160 0 -1160 0 0 80 c0 79 0
80 -25 80 -25 0 -25 -1 -25 -80 l0 -80 -1160 0 -1160 0 0 80 c0 73 -2 80 -20
80 -18 0 -20 -7 -20 -80 l0 -80 -1160 0 -1160 0 0 80 c0 73 -2 80 -20 80 -18
0 -20 -7 -20 -81 l0 -80 -1154 3 c-635 2 -1158 7 -1163 11 -4 5 -9 528 -11
1163 l-3 1154 80 0 c74 0 81 2 81 20 0 18 -7 20 -80 20 l-80 0 0 1160 0 1160
80 0 c79 0 80 0 80 25 0 25 -1 25 -80 25 l-80 0 0 1160 0 1160 80 0 c73 0 80
2 80 20 0 18 -7 20 -80 20 l-80 0 0 1160 0 1160 80 0 c73 0 80 2 80 20 0 18
-7 20 -80 20 l-80 0 0 1160 0 1159 83 4 c153 7 490 -4 802 -28z"/>
<path d="M11680 21945 c-22 -23 -25 -37 -28 -108 -3 -91 8 -123 50 -146 37
-21 78 -5 101 39 25 49 20 168 -9 207 -30 40 -81 43 -114 8z m101 -46 c11 -38
9 -111 -4 -149 -10 -29 -17 -35 -42 -35 -39 0 -55 32 -55 112 0 68 14 110 39
116 23 6 55 -16 62 -44z"/>
<path d="M11999 21952 c-30 -25 -31 -80 -1 -100 l22 -14 -25 -20 c-41 -32 -33
-98 16 -123 42 -22 67 -18 100 14 36 36 37 73 5 106 -23 23 -23 24 -5 41 25
22 24 69 -1 94 -25 25 -80 26 -111 2z m82 -12 c22 -12 26 -59 7 -78 -17 -17
-48 -15 -70 5 -23 21 -23 38 2 63 23 23 33 24 61 10z m9 -135 c16 -20 16 -61
0 -80 -8 -10 -25 -15 -44 -13 -62 6 -60 108 3 108 16 0 34 -7 41 -15z"/>
<path d="M11870 21711 c0 -15 6 -21 21 -21 14 0 19 5 17 17 -5 26 -38 29 -38
4z"/>
<path d="M7394 21072 c-283 -101 -300 -582 -25 -719 26 -13 59 -18 119 -18
l83 0 37 -57 37 -58 58 0 58 0 -22 33 c-13 17 -40 55 -60 83 l-38 51 35 34
c19 19 49 63 67 98 28 57 32 77 35 167 5 116 -10 176 -60 256 -75 119 -207
172 -324 130z m154 -76 c42 -22 89 -76 114 -131 20 -43 23 -66 23 -160 -1
-116 -14 -161 -66 -225 l-20 -25 -22 29 c-53 70 -50 67 -100 64 l-47 -3 45
-67 45 -68 -25 -6 c-68 -17 -178 70 -209 164 -46 140 -16 312 68 391 53 50
138 66 194 37z"/>
<path d="M7930 20710 l0 -360 45 0 45 0 0 360 0 360 -45 0 -45 0 0 -360z"/>
<path d="M8220 20710 l0 -360 45 0 45 0 0 360 0 360 -45 0 -45 0 0 -360z"/>
<path d="M11680 19585 c-22 -23 -25 -37 -28 -108 -3 -91 8 -123 50 -146 37
-21 78 -5 101 39 25 49 20 168 -9 207 -30 40 -81 43 -114 8z m101 -46 c11 -38
9 -111 -4 -149 -10 -29 -17 -35 -42 -35 -39 0 -55 32 -55 112 0 68 14 110 39
116 23 6 55 -16 62 -44z"/>
<path d="M12016 19585 c-34 -31 -46 -64 -46 -126 0 -117 68 -174 137 -115 24
21 28 31 28 79 0 85 -53 124 -112 82 -21 -15 -21 -15 -12 17 12 45 46 71 81
64 21 -4 28 -2 28 9 0 26 -73 19 -104 -10z m68 -101 c19 -19 22 -104 4 -122
-16 -16 -53 -15 -66 1 -6 6 -13 29 -17 49 -6 31 -3 41 19 62 29 30 39 32 60
10z"/>
<path d="M11870 19351 c0 -15 6 -21 21 -21 14 0 19 5 17 17 -5 26 -38 29 -38
4z"/>
<path d="M5250 17105 l0 -1205 2515 0 2515 0 0 1205 0 1205 -2515 0 -2515 0 0
-1205z m5000 0 l0 -1175 -2485 0 -2485 0 0 1175 0 1175 2485 0 2485 0 0 -1175z"/>
<path d="M6716 18112 c-51 -64 -93 -148 -118 -241 -30 -112 -30 -353 1 -466
26 -98 60 -170 112 -235 36 -45 43 -50 80 -50 l40 0 -34 43 c-86 105 -126 235
-134 427 -9 218 31 387 121 508 20 28 36 52 36 56 0 3 -15 6 -32 6 -27 0 -40
-9 -72 -48z"/>
<path d="M7580 18154 c0 -4 14 -22 30 -41 95 -108 150 -325 136 -540 -11 -172
-54 -305 -132 -407 l-35 -46 39 0 c36 0 43 5 81 53 99 130 136 272 128 501 -7
211 -44 329 -138 439 -34 39 -46 47 -75 47 -19 0 -34 -3 -34 -6z"/>
<path d="M9626 18070 c-42 -13 -91 -65 -117 -124 -32 -71 -40 -322 -14 -412
23 -82 58 -132 108 -155 114 -51 223 6 264 139 14 44 18 91 17 207 0 131 -3
157 -23 207 -29 74 -55 106 -105 129 -44 20 -84 23 -130 9z m122 -93 c41 -38
55 -113 50 -276 -3 -131 -6 -151 -28 -196 -40 -81 -102 -97 -155 -40 -38 42
-50 106 -50 270 0 138 2 154 24 199 37 76 104 94 159 43z"/>
<path d="M5840 18005 l0 -45 45 0 45 0 0 45 0 45 -45 0 -45 0 0 -45z"/>
<path d="M5514 17830 c-50 -16 -77 -53 -82 -115 -4 -52 -3 -56 30 -89 24 -24
53 -39 94 -50 94 -26 109 -36 109 -76 0 -26 -6 -37 -25 -48 -33 -17 -111 -9
-163 17 -23 11 -42 19 -43 18 0 -1 -4 -18 -7 -38 -5 -34 -3 -37 31 -54 47 -22
158 -31 204 -16 57 19 81 52 86 121 4 59 4 61 -34 99 -31 31 -51 41 -99 51
-75 15 -105 33 -105 65 0 52 74 69 164 39 26 -9 48 -15 50 -13 2 2 6 18 9 35
5 27 2 33 -21 44 -34 16 -158 22 -198 10z"/>
<path d="M6240 17828 c-19 -5 -42 -16 -51 -24 -21 -19 -29 -18 -29 6 0 17 -7
20 -45 20 l-45 0 0 -225 0 -225 45 0 45 0 0 145 c0 193 18 237 97 237 28 0 43
-7 60 -27 22 -25 23 -34 23 -191 l0 -164 46 0 46 0 -4 183 c-4 191 -11 224
-52 251 -30 19 -95 26 -136 14z"/>
<path d="M7128 17830 c-153 -46 -254 -251 -188 -381 33 -63 70 -81 161 -76 64
3 86 9 135 37 34 19 60 28 62 22 2 -6 12 -22 23 -36 40 -50 149 -23 149 37 0
25 -24 21 -35 -5 -15 -34 -53 -36 -65 -3 -18 49 -11 83 29 143 67 97 111 222
79 222 -9 0 -20 -18 -27 -42 -7 -24 -29 -74 -49 -113 l-37 -70 -5 75 c-7 99
-32 148 -90 178 -45 22 -94 27 -142 12z m103 -30 c40 -22 53 -67 53 -200 l1
-125 -54 -32 c-140 -84 -237 -54 -234 71 2 66 35 172 68 216 47 64 119 94 166
70z"/>
<path d="M5840 17605 l0 -225 45 0 45 0 0 225 0 225 -45 0 -45 0 0 -225z"/>
<path d="M8182 17468 c-7 -7 -12 -24 -12 -38 0 -33 17 -50 50 -50 33 0 50 17
50 50 0 33 -17 50 -50 50 -14 0 -31 -5 -38 -12z"/>
<path d="M8632 17468 c-7 -7 -12 -24 -12 -38 0 -33 17 -50 50 -50 33 0 50 17
50 50 0 33 -17 50 -50 50 -14 0 -31 -5 -38 -12z"/>
<path d="M9092 17468 c-7 -7 -12 -24 -12 -38 0 -33 17 -50 50 -50 33 0 50 17
50 50 0 33 -17 50 -50 50 -14 0 -31 -5 -38 -12z"/>
<path d="M6916 17042 c-51 -64 -93 -148 -118 -241 -30 -112 -30 -353 1 -466
26 -98 60 -170 112 -235 36 -45 43 -50 80 -50 l40 0 -34 43 c-86 105 -126 235
-134 427 -9 218 31 387 121 508 20 28 36 52 36 56 0 3 -15 6 -32 6 -27 0 -40
-9 -72 -48z"/>
<path d="M7770 17084 c0 -4 14 -22 30 -41 95 -108 150 -325 136 -540 -11 -172
-54 -305 -132 -407 l-35 -46 39 0 c36 0 43 5 81 53 99 130 136 272 128 501 -7
211 -44 329 -138 439 -34 39 -46 47 -75 47 -19 0 -34 -3 -34 -6z"/>
<path d="M9816 17000 c-42 -13 -91 -65 -117 -124 -32 -71 -40 -322 -14 -412
23 -82 58 -132 108 -155 114 -51 223 6 264 139 14 44 18 91 17 207 0 131 -3
157 -23 207 -29 74 -55 106 -105 129 -44 20 -84 23 -130 9z m122 -93 c41 -38
55 -113 50 -276 -3 -131 -6 -151 -28 -196 -40 -81 -102 -97 -155 -40 -38 42
-50 106 -50 270 0 138 2 154 24 199 37 76 104 94 159 43z"/>
<path d="M5554 16745 c-63 -31 -100 -82 -116 -156 -23 -111 22 -219 112 -267
37 -19 56 -23 110 -20 38 2 82 12 105 23 36 18 40 23 37 54 -1 19 -4 36 -5 38
-2 1 -22 -7 -45 -18 -129 -64 -232 -5 -232 133 0 62 23 113 63 142 36 26 118
27 166 2 37 -20 51 -12 51 31 0 32 -51 55 -130 60 -55 4 -73 1 -116 -22z"/>
<path d="M5979 16747 c-144 -76 -168 -287 -45 -394 133 -118 334 -31 353 151
19 185 -156 323 -308 243z m150 -65 c48 -26 71 -74 71 -145 0 -91 -45 -155
-117 -163 -84 -11 -151 77 -140 185 7 63 29 99 78 123 43 23 66 23 108 0z"/>
<path d="M6434 16760 c-50 -16 -77 -53 -82 -115 -4 -52 -3 -56 30 -89 24 -24
53 -39 94 -50 94 -26 109 -36 109 -76 0 -26 -6 -37 -25 -48 -33 -17 -111 -9
-163 17 -23 11 -42 19 -43 18 0 -1 -4 -18 -7 -38 -5 -34 -3 -37 31 -54 47 -22
158 -31 204 -16 57 19 81 52 86 121 4 59 4 61 -34 99 -31 31 -51 41 -99 51
-75 15 -105 33 -105 65 0 52 74 69 164 39 26 -9 48 -15 50 -13 2 2 6 18 9 35
5 27 2 33 -21 44 -34 16 -158 22 -198 10z"/>
<path d="M7318 16760 c-153 -46 -254 -251 -188 -381 33 -63 70 -81 161 -76 64
3 86 9 135 37 34 19 60 28 62 22 2 -6 12 -22 23 -36 40 -50 149 -23 149 37 0
25 -24 21 -35 -5 -15 -34 -53 -36 -65 -3 -18 49 -11 83 29 143 67 97 111 222
79 222 -9 0 -20 -18 -27 -42 -7 -24 -29 -74 -49 -113 l-37 -70 -5 75 c-7 99
-32 148 -90 178 -45 22 -94 27 -142 12z m103 -30 c40 -22 53 -67 53 -200 l1
-125 -54 -32 c-140 -84 -237 -54 -234 71 2 66 35 172 68 216 47 64 119 94 166
70z"/>
<path d="M8372 16398 c-7 -7 -12 -24 -12 -38 0 -33 17 -50 50 -50 33 0 50 17
50 50 0 33 -17 50 -50 50 -14 0 -31 -5 -38 -12z"/>
<path d="M8832 16398 c-7 -7 -12 -24 -12 -38 0 -33 17 -50 50 -50 33 0 50 17
50 50 0 33 -17 50 -50 50 -14 0 -31 -5 -38 -12z"/>
<path d="M9282 16398 c-7 -7 -12 -24 -12 -38 0 -33 17 -50 50 -50 33 0 50 17
50 50 0 33 -17 50 -50 50 -14 0 -31 -5 -38 -12z"/>
<path d="M11680 17225 c-22 -23 -25 -37 -28 -108 -3 -91 8 -123 50 -146 37
-21 78 -5 101 39 25 49 20 168 -9 207 -30 40 -81 43 -114 8z m101 -46 c11 -38
9 -111 -4 -149 -10 -29 -17 -35 -42 -35 -39 0 -55 32 -55 112 0 68 14 110 39
116 23 6 55 -16 62 -44z"/>
<path d="M12012 17152 c-29 -49 -52 -94 -52 -100 0 -8 19 -12 55 -12 l55 0 0
-35 c0 -28 4 -35 20 -35 16 0 20 7 20 35 0 28 4 35 20 35 11 0 20 5 20 11 0 6
-9 13 -20 16 -18 5 -20 14 -20 89 0 81 -1 84 -23 84 -18 0 -33 -18 -75 -88z
m58 -22 l0 -60 -36 0 -35 0 33 60 c18 33 34 60 35 60 2 0 3 -27 3 -60z"/>
<path d="M11870 16991 c0 -15 6 -21 21 -21 25 0 22 33 -4 38 -12 2 -17 -3 -17
-17z"/>
<path d="M11680 14865 c-22 -23 -25 -37 -28 -108 -3 -91 8 -123 50 -146 37
-21 78 -5 101 39 25 49 20 168 -9 207 -30 40 -81 43 -114 8z m101 -46 c11 -38
9 -111 -4 -149 -10 -29 -17 -35 -42 -35 -39 0 -55 32 -55 112 0 68 14 110 39
116 23 6 55 -16 62 -44z"/>
<path d="M11992 14867 c-22 -23 -30 -57 -14 -57 5 0 14 11 20 25 15 32 75 36
92 6 23 -43 12 -71 -55 -140 -36 -37 -65 -73 -65 -79 0 -8 27 -12 85 -12 69 0
85 3 85 15 0 12 -14 15 -67 15 l-67 0 64 65 c55 56 64 70 64 101 0 72 -94 112
-142 61z"/>
<path d="M11870 14631 c0 -15 6 -21 21 -21 14 0 19 5 17 17 -5 26 -38 29 -38
4z"/>
<path d="M12000 12495 c-22 -23 -25 -37 -28 -108 -3 -91 8 -123 50 -146 37
-21 78 -5 101 39 25 49 20 168 -9 207 -30 40 -81 43 -114 8z m101 -46 c11 -38
9 -111 -4 -149 -10 -29 -17 -35 -42 -35 -39 0 -55 32 -55 112 0 68 14 110 39
116 23 6 55 -16 62 -44z"/>
<path d="M830 12050 c-8 -5 -25 -10 -37 -10 -14 0 -23 -6 -23 -16 0 -12 7 -15
25 -12 l25 5 0 -103 0 -104 -25 0 c-16 0 -25 -6 -25 -15 0 -12 15 -15 71 -15
52 0 70 3 67 13 -3 6 -14 13 -26 15 -21 3 -22 8 -22 128 0 68 -3 124 -7 124
-5 0 -15 -5 -23 -10z"/>
<path d="M2990 12035 c-22 -23 -25 -37 -28 -108 -3 -91 8 -123 50 -146 37 -21
78 -5 101 39 25 49 20 168 -9 207 -30 40 -81 43 -114 8z m101 -46 c11 -38 9
-111 -4 -149 -10 -29 -17 -35 -42 -35 -39 0 -55 32 -55 112 0 68 14 110 39
116 23 6 55 -16 62 -44z"/>
<path d="M3309 12042 c-30 -25 -31 -80 -1 -100 l22 -14 -25 -20 c-41 -32 -33
-98 16 -123 42 -22 67 -18 100 14 36 36 37 73 5 106 -23 23 -23 24 -5 41 25
22 24 69 -1 94 -25 25 -80 26 -111 2z m82 -12 c22 -12 26 -59 7 -78 -17 -17
-48 -15 -70 5 -23 21 -23 38 2 63 23 23 33 24 61 10z m9 -135 c16 -20 16 -61
0 -80 -8 -10 -25 -15 -44 -13 -62 6 -60 108 3 108 16 0 34 -7 41 -15z"/>
<path d="M5350 12035 c-22 -23 -25 -37 -28 -108 -3 -91 8 -123 50 -146 37 -21
78 -5 101 39 25 49 20 168 -9 207 -30 40 -81 43 -114 8z m101 -46 c11 -38 9
-111 -4 -149 -10 -29 -17 -35 -42 -35 -39 0 -55 32 -55 112 0 68 14 110 39
116 23 6 55 -16 62 -44z"/>
<path d="M5686 12035 c-34 -31 -46 -64 -46 -126 0 -117 68 -174 137 -115 24
21 28 31 28 79 0 85 -53 124 -112 82 -21 -15 -21 -15 -12 17 12 45 46 71 81
64 21 -4 28 -2 28 9 0 26 -73 19 -104 -10z m68 -101 c19 -19 22 -104 4 -122
-16 -16 -53 -15 -66 1 -6 6 -13 29 -17 49 -6 31 -3 41 19 62 29 30 39 32 60
10z"/>
<path d="M7710 12035 c-22 -23 -25 -37 -28 -108 -3 -91 8 -123 50 -146 37 -21
78 -5 101 39 25 49 20 168 -9 207 -30 40 -81 43 -114 8z m101 -46 c11 -38 9
-111 -4 -149 -10 -29 -17 -35 -42 -35 -39 0 -55 32 -55 112 0 68 14 110 39
116 23 6 55 -16 62 -44z"/>
<path d="M10070 12035 c-22 -23 -25 -37 -28 -108 -3 -91 8 -123 50 -146 37
-21 78 -5 101 39 25 49 20 168 -9 207 -30 40 -81 43 -114 8z m101 -46 c11 -38
9 -111 -4 -149 -10 -29 -17 -35 -42 -35 -39 0 -55 32 -55 112 0 68 14 110 39
116 23 6 55 -16 62 -44z"/>
<path d="M10382 12037 c-22 -23 -30 -57 -14 -57 5 0 14 11 20 25 15 32 75 36
92 6 23 -43 12 -71 -55 -140 -36 -37 -65 -73 -65 -79 0 -8 27 -12 85 -12 69 0
85 3 85 15 0 12 -14 15 -67 15 l-67 0 64 65 c55 56 64 70 64 101 0 72 -94 112
-142 61z"/>
<path d="M12430 12035 c-22 -23 -25 -37 -28 -108 -3 -91 8 -123 50 -146 37
-21 78 -5 101 39 25 49 20 168 -9 207 -30 40 -81 43 -114 8z m101 -46 c11 -38
9 -111 -4 -149 -10 -29 -17 -35 -42 -35 -39 0 -55 32 -55 112 0 68 14 110 39
116 23 6 55 -16 62 -44z"/>
<path d="M14640 12035 c-22 -23 -25 -37 -28 -108 -3 -91 8 -123 50 -146 37
-21 78 -5 101 39 25 49 20 168 -9 207 -30 40 -81 43 -114 8z m101 -46 c11 -38
9 -111 -4 -149 -10 -29 -17 -35 -42 -35 -39 0 -55 32 -55 112 0 68 14 110 39
116 23 6 55 -16 62 -44z"/>
<path d="M14952 12037 c-22 -23 -30 -57 -14 -57 5 0 14 11 20 25 15 32 75 36
92 6 23 -43 12 -71 -55 -140 -36 -37 -65 -73 -65 -79 0 -8 27 -12 85 -12 69 0
85 3 85 15 0 12 -14 15 -67 15 l-67 0 64 65 c55 56 64 70 64 101 0 72 -94 112
-142 61z"/>
<path d="M17000 12035 c-22 -23 -25 -37 -28 -108 -3 -91 8 -123 50 -146 37
-21 78 -5 101 39 25 49 20 168 -9 207 -30 40 -81 43 -114 8z m101 -46 c11 -38
9 -111 -4 -149 -10 -29 -17 -35 -42 -35 -39 0 -55 32 -55 112 0 68 14 110 39
116 23 6 55 -16 62 -44z"/>
<path d="M19360 12035 c-22 -23 -25 -37 -28 -108 -3 -91 8 -123 50 -146 37
-21 78 -5 101 39 25 49 20 168 -9 207 -30 40 -81 43 -114 8z m101 -46 c11 -38
9 -111 -4 -149 -10 -29 -17 -35 -42 -35 -39 0 -55 32 -55 112 0 68 14 110 39
116 23 6 55 -16 62 -44z"/>
<path d="M19696 12035 c-34 -31 -46 -64 -46 -126 0 -117 68 -174 137 -115 24
21 28 31 28 79 0 85 -53 124 -112 82 -21 -15 -21 -15 -12 17 12 45 46 71 81
64 21 -4 28 -2 28 9 0 26 -73 19 -104 -10z m68 -101 c19 -19 22 -104 4 -122
-16 -16 -53 -15 -66 1 -6 6 -13 29 -17 49 -6 31 -3 41 19 62 29 30 39 32 60
10z"/>
<path d="M21720 12035 c-22 -23 -25 -37 -28 -108 -3 -91 8 -123 50 -146 37
-21 78 -5 101 39 25 49 20 168 -9 207 -30 40 -81 43 -114 8z m101 -46 c11 -38
9 -111 -4 -149 -10 -29 -17 -35 -42 -35 -39 0 -55 32 -55 112 0 68 14 110 39
116 23 6 55 -16 62 -44z"/>
<path d="M22039 12042 c-30 -25 -31 -80 -1 -100 l22 -14 -25 -20 c-41 -32 -33
-98 16 -123 42 -22 67 -18 100 14 36 36 37 73 5 106 -23 23 -23 24 -5 41 25
22 24 69 -1 94 -25 25 -80 26 -111 2z m82 -12 c22 -12 26 -59 7 -78 -17 -17
-48 -15 -70 5 -23 21 -23 38 2 63 23 23 33 24 61 10z m9 -135 c16 -20 16 -61
0 -80 -8 -10 -25 -15 -44 -13 -62 6 -60 108 3 108 16 0 34 -7 41 -15z"/>
<path d="M8042 11962 c-29 -49 -52 -94 -52 -100 0 -8 19 -12 55 -12 l55 0 0
-35 c0 -28 4 -35 20 -35 16 0 20 7 20 35 0 28 4 35 20 35 11 0 20 5 20 11 0 6
-9 13 -20 16 -18 5 -20 14 -20 89 0 81 -1 84 -23 84 -18 0 -33 -18 -75 -88z
m58 -22 l0 -60 -36 0 -35 0 33 60 c18 33 34 60 35 60 2 0 3 -27 3 -60z"/>
<path d="M17332 11962 c-29 -49 -52 -94 -52 -100 0 -8 19 -12 55 -12 l55 0 0
-35 c0 -28 4 -35 20 -35 16 0 20 7 20 35 0 28 4 35 20 35 11 0 20 5 20 11 0 6
-9 13 -20 16 -18 5 -20 14 -20 89 0 81 -1 84 -23 84 -18 0 -33 -18 -75 -88z
m58 -22 l0 -60 -36 0 -35 0 33 60 c18 33 34 60 35 60 2 0 3 -27 3 -60z"/>
<path d="M2645 11880 c4 -6 57 -10 125 -10 68 0 121 4 125 10 4 6 -40 10 -125
10 -85 0 -129 -4 -125 -10z"/>
<path d="M5005 11880 c4 -6 57 -10 125 -10 68 0 121 4 125 10 4 6 -40 10 -125
10 -85 0 -129 -4 -125 -10z"/>
<path d="M7375 11880 c4 -6 57 -10 125 -10 68 0 121 4 125 10 4 6 -40 10 -125
10 -85 0 -129 -4 -125 -10z"/>
<path d="M9735 11880 c4 -6 57 -10 125 -10 68 0 121 4 125 10 4 6 -40 10 -125
10 -85 0 -129 -4 -125 -10z"/>
<path d="M3180 11801 c0 -15 6 -21 21 -21 14 0 19 5 17 17 -5 26 -38 29 -38 4z"/>
<path d="M5550 11801 c0 -15 6 -21 21 -21 14 0 19 5 17 17 -5 26 -38 29 -38 4z"/>
<path d="M7910 11801 c0 -15 6 -21 21 -21 14 0 19 5 17 17 -5 26 -38 29 -38 4z"/>
<path d="M10270 11801 c0 -15 6 -21 21 -21 25 0 22 33 -4 38 -12 2 -17 -3 -17
-17z"/>
<path d="M14830 11801 c0 -15 6 -21 21 -21 14 0 19 5 17 17 -5 26 -38 29 -38
4z"/>
<path d="M17190 11801 c0 -15 6 -21 21 -21 14 0 19 5 17 17 -5 26 -38 29 -38
4z"/>
<path d="M19560 11801 c0 -15 6 -21 21 -21 14 0 19 5 17 17 -5 26 -38 29 -38
4z"/>
<path d="M21920 11801 c0 -15 6 -21 21 -21 25 0 22 33 -4 38 -12 2 -17 -3 -17
-17z"/>
<path d="M11680 10155 c-22 -23 -25 -37 -28 -108 -3 -91 8 -123 50 -146 37
-21 78 -5 101 39 25 49 20 168 -9 207 -30 40 -81 43 -114 8z m101 -46 c11 -38
9 -111 -4 -149 -10 -29 -17 -35 -42 -35 -39 0 -55 32 -55 112 0 68 14 110 39
116 23 6 55 -16 62 -44z"/>
<path d="M11992 10157 c-22 -23 -30 -57 -14 -57 5 0 14 11 20 25 15 32 75 36
92 6 23 -43 12 -71 -55 -140 -36 -37 -65 -73 -65 -79 0 -8 27 -12 85 -12 69 0
85 3 85 15 0 12 -14 15 -67 15 l-67 0 64 65 c55 56 64 70 64 101 0 72 -94 112
-142 61z"/>
<path d="M11335 10000 c4 -6 57 -10 125 -10 68 0 121 4 125 10 4 6 -40 10
-125 10 -85 0 -129 -4 -125 -10z"/>
<path d="M11870 9921 c0 -15 6 -21 21 -21 14 0 19 5 17 17 -5 26 -38 29 -38 4z"/>
<path d="M5250 7655 l0 -1205 2515 0 2515 0 0 1205 0 1205 -2515 0 -2515 0 0
-1205z m5000 0 l0 -1175 -2485 0 -2485 0 0 1175 0 1175 2485 0 2485 0 0 -1175z"/>
<path d="M6716 8662 c-51 -64 -93 -148 -118 -241 -30 -112 -30 -353 1 -466 26
-98 60 -170 112 -235 36 -45 43 -50 80 -50 l40 0 -34 43 c-86 105 -126 235
-134 427 -9 218 31 387 121 508 20 28 36 52 36 56 0 3 -15 6 -32 6 -27 0 -40
-9 -72 -48z"/>
<path d="M7580 8704 c0 -4 14 -22 30 -41 95 -108 150 -325 136 -540 -11 -172
-54 -305 -132 -407 l-35 -46 39 0 c36 0 43 5 81 53 99 130 136 272 128 501 -7
211 -44 329 -138 439 -34 39 -46 47 -75 47 -19 0 -34 -3 -34 -6z"/>
<path d="M9626 8620 c-42 -13 -91 -65 -117 -124 -32 -71 -40 -322 -14 -412 23
-82 58 -132 108 -155 114 -51 223 6 264 139 14 44 18 91 17 207 0 131 -3 157
-23 207 -29 74 -55 106 -105 129 -44 20 -84 23 -130 9z m122 -93 c41 -38 55
-113 50 -276 -3 -131 -6 -151 -28 -196 -40 -81 -102 -97 -155 -40 -38 42 -50
106 -50 270 0 138 2 154 24 199 37 76 104 94 159 43z"/>
<path d="M5840 8555 l0 -45 45 0 45 0 0 45 0 45 -45 0 -45 0 0 -45z"/>
<path d="M5514 8380 c-50 -16 -77 -53 -82 -115 -4 -52 -3 -56 30 -89 24 -24
53 -39 94 -50 94 -26 109 -36 109 -76 0 -26 -6 -37 -25 -48 -33 -17 -111 -9
-163 17 -23 11 -42 19 -43 18 0 -1 -4 -18 -7 -38 -5 -34 -3 -37 31 -54 47 -22
158 -31 204 -16 57 19 81 52 86 121 4 59 4 61 -34 99 -31 31 -51 41 -99 51
-75 15 -105 33 -105 65 0 52 74 69 164 39 26 -9 48 -15 50 -13 2 2 6 18 9 35
5 27 2 33 -21 44 -34 16 -158 22 -198 10z"/>
<path d="M6240 8378 c-19 -5 -42 -16 -51 -24 -21 -19 -29 -18 -29 6 0 17 -7
20 -45 20 l-45 0 0 -225 0 -225 45 0 45 0 0 145 c0 193 18 237 97 237 28 0 43
-7 60 -27 22 -25 23 -34 23 -191 l0 -164 46 0 46 0 -4 183 c-4 191 -11 224
-52 251 -30 19 -95 26 -136 14z"/>
<path d="M7128 8380 c-153 -46 -254 -251 -188 -381 33 -63 70 -81 161 -76 64
3 86 9 135 37 34 19 60 28 62 22 2 -6 12 -22 23 -36 40 -50 149 -23 149 37 0
25 -24 21 -35 -5 -15 -34 -53 -36 -65 -3 -18 49 -11 83 29 143 67 97 111 222
79 222 -9 0 -20 -18 -27 -42 -7 -24 -29 -74 -49 -113 l-37 -70 -5 75 c-7 99
-32 148 -90 178 -45 22 -94 27 -142 12z m103 -30 c40 -22 53 -67 53 -200 l1
-125 -54 -32 c-140 -84 -237 -54 -234 71 2 66 35 172 68 216 47 64 119 94 166
70z"/>
<path d="M5840 8155 l0 -225 45 0 45 0 0 225 0 225 -45 0 -45 0 0 -225z"/>
<path d="M8182 8018 c-7 -7 -12 -24 -12 -38 0 -14 5 -31 12 -38 7 -7 24 -12
38 -12 14 0 31 5 38 12 7 7 12 24 12 38 0 14 -5 31 -12 38 -7 7 -24 12 -38 12
-14 0 -31 -5 -38 -12z"/>
<path d="M8632 8018 c-7 -7 -12 -24 -12 -38 0 -14 5 -31 12 -38 7 -7 24 -12
38 -12 14 0 31 5 38 12 7 7 12 24 12 38 0 14 -5 31 -12 38 -7 7 -24 12 -38 12
-14 0 -31 -5 -38 -12z"/>
<path d="M9092 8018 c-7 -7 -12 -24 -12 -38 0 -14 5 -31 12 -38 7 -7 24 -12
38 -12 14 0 31 5 38 12 7 7 12 24 12 38 0 14 -5 31 -12 38 -7 7 -24 12 -38 12
-14 0 -31 -5 -38 -12z"/>
<path d="M6916 7592 c-51 -64 -93 -148 -118 -241 -30 -112 -30 -353 1 -466 26
-98 60 -170 112 -235 36 -45 43 -50 80 -50 l40 0 -34 43 c-86 105 -126 235
-134 427 -9 218 31 387 121 508 20 28 36 52 36 56 0 3 -15 6 -32 6 -27 0 -40
-9 -72 -48z"/>
<path d="M7770 7634 c0 -4 14 -22 30 -41 95 -108 150 -325 136 -540 -11 -172
-54 -305 -132 -407 l-35 -46 39 0 c36 0 43 5 81 53 99 130 136 272 128 501 -7
211 -44 329 -138 439 -34 39 -46 47 -75 47 -19 0 -34 -3 -34 -6z"/>
<path d="M9816 7550 c-42 -13 -91 -65 -117 -124 -32 -71 -40 -322 -14 -412 23
-82 58 -132 108 -155 114 -51 223 6 264 139 14 44 18 91 17 207 0 131 -3 157
-23 207 -29 74 -55 106 -105 129 -44 20 -84 23 -130 9z m122 -93 c41 -38 55
-113 50 -276 -3 -131 -6 -151 -28 -196 -40 -81 -102 -97 -155 -40 -38 42 -50
106 -50 270 0 138 2 154 24 199 37 76 104 94 159 43z"/>
<path d="M5554 7295 c-63 -31 -100 -82 -116 -156 -23 -111 22 -219 112 -267
37 -19 56 -23 110 -20 38 2 82 12 105 23 36 18 40 23 37 54 -1 19 -4 36 -5 38
-2 1 -22 -7 -45 -18 -129 -64 -232 -5 -232 133 0 62 23 113 63 142 36 26 118
27 166 2 37 -20 51 -12 51 31 0 32 -51 55 -130 60 -55 4 -73 1 -116 -22z"/>
<path d="M5979 7297 c-144 -76 -168 -287 -45 -394 133 -118 334 -31 353 151
19 185 -156 323 -308 243z m150 -65 c48 -26 71 -74 71 -145 0 -91 -45 -155
-117 -163 -84 -11 -151 77 -140 185 7 63 29 99 78 123 43 23 66 23 108 0z"/>
<path d="M6434 7310 c-50 -16 -77 -53 -82 -115 -4 -52 -3 -56 30 -89 24 -24
53 -39 94 -50 94 -26 109 -36 109 -76 0 -26 -6 -37 -25 -48 -33 -17 -111 -9
-163 17 -23 11 -42 19 -43 18 0 -1 -4 -18 -7 -38 -5 -34 -3 -37 31 -54 47 -22
158 -31 204 -16 57 19 81 52 86 121 4 59 4 61 -34 99 -31 31 -51 41 -99 51
-75 15 -105 33 -105 65 0 52 74 69 164 39 26 -9 48 -15 50 -13 2 2 6 18 9 35
5 27 2 33 -21 44 -34 16 -158 22 -198 10z"/>
<path d="M7318 7310 c-153 -46 -254 -251 -188 -381 33 -63 70 -81 161 -76 64
3 86 9 135 37 34 19 60 28 62 22 2 -6 12 -22 23 -36 40 -50 149 -23 149 37 0
25 -24 21 -35 -5 -15 -34 -53 -36 -65 -3 -18 49 -11 83 29 143 67 97 111 222
79 222 -9 0 -20 -18 -27 -42 -7 -24 -29 -74 -49 -113 l-37 -70 -5 75 c-7 99
-32 148 -90 178 -45 22 -94 27 -142 12z m103 -30 c40 -22 53 -67 53 -200 l1
-125 -54 -32 c-140 -84 -237 -54 -234 71 2 66 35 172 68 216 47 64 119 94 166
70z"/>
<path d="M8372 6948 c-7 -7 -12 -24 -12 -38 0 -14 5 -31 12 -38 7 -7 24 -12
38 -12 14 0 31 5 38 12 7 7 12 24 12 38 0 14 -5 31 -12 38 -7 7 -24 12 -38 12
-14 0 -31 -5 -38 -12z"/>
<path d="M8832 6948 c-7 -7 -12 -24 -12 -38 0 -14 5 -31 12 -38 7 -7 24 -12
38 -12 14 0 31 5 38 12 7 7 12 24 12 38 0 14 -5 31 -12 38 -7 7 -24 12 -38 12
-14 0 -31 -5 -38 -12z"/>
<path d="M9282 6948 c-7 -7 -12 -24 -12 -38 0 -14 5 -31 12 -38 7 -7 24 -12
38 -12 14 0 31 5 38 12 7 7 12 24 12 38 0 14 -5 31 -12 38 -7 7 -24 12 -38 12
-14 0 -31 -5 -38 -12z"/>
<path d="M14700 7655 l0 -1205 2515 0 2515 0 0 1205 0 1205 -2515 0 -2515 0 0
-1205z m5000 0 l0 -1175 -2485 0 -2485 0 0 1175 0 1175 2485 0 2485 0 0 -1175z"/>
<path d="M16166 8662 c-51 -64 -93 -148 -118 -241 -30 -112 -30 -353 1 -466
26 -98 60 -170 112 -235 36 -45 43 -50 80 -50 l40 0 -34 43 c-86 105 -126 235
-134 427 -9 218 31 387 121 508 20 28 36 52 36 56 0 3 -15 6 -32 6 -27 0 -40
-9 -72 -48z"/>
<path d="M17030 8704 c0 -4 14 -22 30 -41 95 -108 150 -325 136 -540 -11 -172
-54 -305 -132 -407 l-35 -46 39 0 c36 0 43 5 81 53 99 130 136 272 128 501 -7
211 -44 329 -138 439 -34 39 -46 47 -75 47 -19 0 -34 -3 -34 -6z"/>
<path d="M19076 8620 c-42 -13 -91 -65 -117 -124 -32 -71 -40 -322 -14 -412
23 -82 58 -132 108 -155 114 -51 223 6 264 139 14 44 18 91 17 207 0 131 -3
157 -23 207 -29 74 -55 106 -105 129 -44 20 -84 23 -130 9z m122 -93 c41 -38
55 -113 50 -276 -3 -131 -6 -151 -28 -196 -40 -81 -102 -97 -155 -40 -38 42
-50 106 -50 270 0 138 2 154 24 199 37 76 104 94 159 43z"/>
<path d="M15290 8555 l0 -45 45 0 45 0 0 45 0 45 -45 0 -45 0 0 -45z"/>
<path d="M14964 8380 c-50 -16 -77 -53 -82 -115 -4 -52 -3 -56 30 -89 24 -24
53 -39 94 -50 94 -26 109 -36 109 -76 0 -26 -6 -37 -25 -48 -33 -17 -111 -9
-163 17 -23 11 -42 19 -43 18 0 -1 -4 -18 -7 -38 -5 -34 -3 -37 31 -54 47 -22
158 -31 204 -16 57 19 81 52 86 121 4 59 4 61 -34 99 -31 31 -51 41 -99 51
-75 15 -105 33 -105 65 0 52 74 69 164 39 26 -9 48 -15 50 -13 2 2 6 18 9 35
5 27 2 33 -21 44 -34 16 -158 22 -198 10z"/>
<path d="M15690 8378 c-19 -5 -42 -16 -51 -24 -21 -19 -29 -18 -29 6 0 17 -7
20 -45 20 l-45 0 0 -225 0 -225 45 0 45 0 0 145 c0 193 18 237 97 237 28 0 43
-7 60 -27 22 -25 23 -34 23 -191 l0 -164 46 0 46 0 -4 183 c-4 191 -11 224
-52 251 -30 19 -95 26 -136 14z"/>
<path d="M16578 8380 c-153 -46 -254 -251 -188 -381 33 -63 70 -81 161 -76 64
3 86 9 135 37 34 19 60 28 62 22 2 -6 12 -22 23 -36 40 -50 149 -23 149 37 0
25 -24 21 -35 -5 -15 -34 -53 -36 -65 -3 -18 49 -11 83 29 143 67 97 111 222
79 222 -9 0 -20 -18 -27 -42 -7 -24 -29 -74 -49 -113 l-37 -70 -5 75 c-7 99
-32 148 -90 178 -45 22 -94 27 -142 12z m103 -30 c40 -22 53 -67 53 -200 l1
-125 -54 -32 c-140 -84 -237 -54 -234 71 2 66 35 172 68 216 47 64 119 94 166
70z"/>
<path d="M15290 8155 l0 -225 45 0 45 0 0 225 0 225 -45 0 -45 0 0 -225z"/>
<path d="M17632 8018 c-7 -7 -12 -24 -12 -38 0 -33 17 -50 50 -50 33 0 50 17
50 50 0 33 -17 50 -50 50 -14 0 -31 -5 -38 -12z"/>
<path d="M18082 8018 c-7 -7 -12 -24 -12 -38 0 -33 17 -50 50 -50 33 0 50 17
50 50 0 33 -17 50 -50 50 -14 0 -31 -5 -38 -12z"/>
<path d="M18542 8018 c-7 -7 -12 -24 -12 -38 0 -33 17 -50 50 -50 33 0 50 17
50 50 0 33 -17 50 -50 50 -14 0 -31 -5 -38 -12z"/>
<path d="M16366 7592 c-51 -64 -93 -148 -118 -241 -30 -112 -30 -353 1 -466
26 -98 60 -170 112 -235 36 -45 43 -50 80 -50 l40 0 -34 43 c-86 105 -126 235
-134 427 -9 218 31 387 121 508 20 28 36 52 36 56 0 3 -15 6 -32 6 -27 0 -40
-9 -72 -48z"/>
<path d="M17220 7634 c0 -4 14 -22 30 -41 95 -108 150 -325 136 -540 -11 -172
-54 -305 -132 -407 l-35 -46 39 0 c36 0 43 5 81 53 99 130 136 272 128 501 -7
211 -44 329 -138 439 -34 39 -46 47 -75 47 -19 0 -34 -3 -34 -6z"/>
<path d="M19266 7550 c-42 -13 -91 -65 -117 -124 -32 -71 -40 -322 -14 -412
23 -82 58 -132 108 -155 114 -51 223 6 264 139 14 44 18 91 17 207 0 131 -3
157 -23 207 -29 74 -55 106 -105 129 -44 20 -84 23 -130 9z m122 -93 c41 -38
55 -113 50 -276 -3 -131 -6 -151 -28 -196 -40 -81 -102 -97 -155 -40 -38 42
-50 106 -50 270 0 138 2 154 24 199 37 76 104 94 159 43z"/>
<path d="M15004 7295 c-63 -31 -100 -82 -116 -156 -23 -111 22 -219 112 -267
37 -19 56 -23 110 -20 38 2 82 12 105 23 36 18 40 23 37 54 -1 19 -4 36 -5 38
-2 1 -22 -7 -45 -18 -129 -64 -232 -5 -232 133 0 62 23 113 63 142 36 26 118
27 166 2 37 -20 51 -12 51 31 0 32 -51 55 -130 60 -55 4 -73 1 -116 -22z"/>
<path d="M15429 7297 c-144 -76 -168 -287 -45 -394 133 -118 334 -31 353 151
19 185 -156 323 -308 243z m150 -65 c48 -26 71 -74 71 -145 0 -91 -45 -155
-117 -163 -84 -11 -151 77 -140 185 7 63 29 99 78 123 43 23 66 23 108 0z"/>
<path d="M15884 7310 c-50 -16 -77 -53 -82 -115 -4 -52 -3 -56 30 -89 24 -24
53 -39 94 -50 94 -26 109 -36 109 -76 0 -26 -6 -37 -25 -48 -33 -17 -111 -9
-163 17 -23 11 -42 19 -43 18 0 -1 -4 -18 -7 -38 -5 -34 -3 -37 31 -54 47 -22
158 -31 204 -16 57 19 81 52 86 121 4 59 4 61 -34 99 -31 31 -51 41 -99 51
-75 15 -105 33 -105 65 0 52 74 69 164 39 26 -9 48 -15 50 -13 2 2 6 18 9 35
5 27 2 33 -21 44 -34 16 -158 22 -198 10z"/>
<path d="M16768 7310 c-153 -46 -254 -251 -188 -381 33 -63 70 -81 161 -76 64
3 86 9 135 37 34 19 60 28 62 22 2 -6 12 -22 23 -36 40 -50 149 -23 149 37 0
25 -24 21 -35 -5 -15 -34 -53 -36 -65 -3 -18 49 -11 83 29 143 67 97 111 222
79 222 -9 0 -20 -18 -27 -42 -7 -24 -29 -74 -49 -113 l-37 -70 -5 75 c-7 99
-32 148 -90 178 -45 22 -94 27 -142 12z m103 -30 c40 -22 53 -67 53 -200 l1
-125 -54 -32 c-140 -84 -237 -54 -234 71 2 66 35 172 68 216 47 64 119 94 166
70z"/>
<path d="M17822 6948 c-7 -7 -12 -24 -12 -38 0 -33 17 -50 50 -50 33 0 50 17
50 50 0 33 -17 50 -50 50 -14 0 -31 -5 -38 -12z"/>
<path d="M18282 6948 c-7 -7 -12 -24 -12 -38 0 -33 17 -50 50 -50 33 0 50 17
50 50 0 33 -17 50 -50 50 -14 0 -31 -5 -38 -12z"/>
<path d="M18732 6948 c-7 -7 -12 -24 -12 -38 0 -33 17 -50 50 -50 33 0 50 17
50 50 0 33 -17 50 -50 50 -14 0 -31 -5 -38 -12z"/>
<path d="M11680 7795 c-22 -23 -25 -37 -28 -108 -3 -91 8 -123 50 -146 37 -21
78 -5 101 39 25 49 20 168 -9 207 -30 40 -81 43 -114 8z m101 -46 c11 -38 9
-111 -4 -149 -10 -29 -17 -35 -42 -35 -39 0 -55 32 -55 112 0 68 14 110 39
116 23 6 55 -16 62 -44z"/>
<path d="M12012 7722 c-29 -49 -52 -94 -52 -100 0 -8 19 -12 55 -12 l55 0 0
-35 c0 -28 4 -35 20 -35 16 0 20 7 20 35 0 28 4 35 20 35 11 0 20 5 20 11 0 6
-9 13 -20 16 -18 5 -20 14 -20 89 0 81 -1 84 -23 84 -18 0 -33 -18 -75 -88z
m58 -22 l0 -60 -36 0 -35 0 33 60 c18 33 34 60 35 60 2 0 3 -27 3 -60z"/>
<path d="M11335 7640 c4 -6 57 -10 125 -10 68 0 121 4 125 10 4 6 -40 10 -125
10 -85 0 -129 -4 -125 -10z"/>
<path d="M11870 7561 c0 -15 6 -21 21 -21 14 0 19 5 17 17 -5 26 -38 29 -38 4z"/>
<path d="M11680 5435 c-22 -23 -25 -37 -28 -108 -3 -91 8 -123 50 -146 37 -21
78 -5 101 39 25 49 20 168 -9 207 -30 40 -81 43 -114 8z m101 -46 c11 -38 9
-111 -4 -149 -10 -29 -17 -35 -42 -35 -39 0 -55 32 -55 112 0 68 14 110 39
116 23 6 55 -16 62 -44z"/>
<path d="M12016 5435 c-34 -31 -46 -64 -46 -126 0 -117 68 -174 137 -115 24
21 28 31 28 79 0 85 -53 124 -112 82 -21 -15 -21 -15 -12 17 12 45 46 71 81
64 21 -4 28 -2 28 9 0 26 -73 19 -104 -10z m68 -101 c19 -19 22 -104 4 -122
-16 -16 -53 -15 -66 1 -6 6 -13 29 -17 49 -6 31 -3 41 19 62 29 30 39 32 60
10z"/>
<path d="M11335 5280 c4 -6 57 -10 125 -10 68 0 121 4 125 10 4 6 -40 10 -125
10 -85 0 -129 -4 -125 -10z"/>
<path d="M11870 5201 c0 -15 6 -21 21 -21 14 0 19 5 17 17 -5 26 -38 29 -38 4z"/>
<path d="M7254 4532 c-283 -101 -300 -582 -25 -719 26 -13 59 -18 119 -18 l83
0 37 -57 37 -58 58 0 58 0 -22 33 c-13 17 -40 55 -60 83 l-38 51 35 34 c19 19
49 63 67 98 28 57 32 77 35 167 5 116 -10 176 -60 256 -75 119 -207 172 -324
130z m154 -76 c42 -22 89 -76 114 -131 20 -43 23 -66 23 -160 -1 -116 -14
-161 -66 -225 l-20 -25 -22 29 c-53 70 -50 67 -100 64 l-47 -3 45 -67 45 -68
-25 -6 c-68 -17 -178 70 -209 164 -46 140 -16 312 68 391 53 50 138 66 194 37z"/>
<path d="M16674 4532 c-283 -101 -300 -582 -25 -719 26 -13 59 -18 119 -18
l83 0 37 -57 37 -58 58 0 58 0 -22 33 c-13 17 -40 55 -60 83 l-38 51 35 34
c19 19 49 63 67 98 28 57 32 77 35 167 5 116 -10 176 -60 256 -75 119 -207
172 -324 130z m154 -76 c42 -22 89 -76 114 -131 20 -43 23 -66 23 -160 -1
-116 -14 -161 -66 -225 l-20 -25 -22 29 c-53 70 -50 67 -100 64 l-47 -3 45
-67 45 -68 -25 -6 c-68 -17 -178 70 -209 164 -46 140 -16 312 68 391 53 50
138 66 194 37z"/>
<path d="M7780 4170 l0 -360 45 0 45 0 0 360 0 360 -45 0 -45 0 0 -360z"/>
<path d="M8080 4170 l0 -360 45 0 45 0 0 360 0 360 -45 0 -45 0 0 -360z"/>
<path d="M8370 4170 l0 -360 45 0 45 0 0 360 0 360 -45 0 -45 0 0 -360z"/>
<path d="M17200 4170 l0 -360 45 0 45 0 0 360 0 360 -45 0 -45 0 0 -360z"/>
<path d="M17390 4526 c0 -2 54 -152 121 -332 67 -181 126 -342 131 -357 10
-26 13 -28 61 -25 l52 3 127 345 c70 190 127 351 127 358 1 8 -14 12 -41 12
l-43 0 -104 -293 c-56 -160 -105 -299 -108 -307 -2 -8 -36 73 -74 180 -38 107
-87 246 -110 308 l-41 112 -49 0 c-27 0 -49 -2 -49 -4z"/>
<path d="M11680 3065 c-22 -23 -25 -37 -28 -108 -3 -91 8 -123 50 -146 37 -21
78 -5 101 39 25 49 20 168 -9 207 -30 40 -81 43 -114 8z m101 -46 c11 -38 9
-111 -4 -149 -10 -29 -17 -35 -42 -35 -39 0 -55 32 -55 112 0 68 14 110 39
116 23 6 55 -16 62 -44z"/>
<path d="M11999 3072 c-30 -25 -31 -80 -1 -100 l22 -14 -25 -20 c-41 -32 -33
-98 16 -123 42 -22 67 -18 100 14 36 36 37 73 5 106 -23 23 -23 24 -5 41 25
22 24 69 -1 94 -25 25 -80 26 -111 2z m82 -12 c22 -12 26 -59 7 -78 -17 -17
-48 -15 -70 5 -23 21 -23 38 2 63 23 23 33 24 61 10z m9 -135 c16 -20 16 -61
0 -80 -8 -10 -25 -15 -44 -13 -62 6 -60 108 3 108 16 0 34 -7 41 -15z"/>
<path d="M11335 2910 c4 -6 57 -10 125 -10 68 0 121 4 125 10 4 6 -40 10 -125
10 -85 0 -129 -4 -125 -10z"/>
<path d="M11870 2831 c0 -15 6 -21 21 -21 25 0 22 33 -4 38 -12 2 -17 -3 -17
-17z"/>
<path d="M16994 21072 c-283 -101 -300 -582 -25 -719 26 -13 59 -18 119 -18
l83 0 37 -57 37 -58 58 0 58 0 -22 33 c-13 17 -40 55 -60 83 l-38 51 35 34
c19 19 49 63 67 98 28 57 32 77 35 167 5 116 -10 176 -60 256 -75 119 -207
172 -324 130z m154 -76 c42 -22 89 -76 114 -131 20 -43 23 -66 23 -160 -1
-116 -14 -161 -66 -225 l-20 -25 -22 29 c-53 70 -50 67 -100 64 l-47 -3 45
-67 45 -68 -25 -6 c-68 -17 -178 70 -209 164 -46 140 -16 312 68 391 53 50
138 66 194 37z"/>
<path d="M17530 20710 l0 -360 45 0 45 0 0 360 0 360 -45 0 -45 0 0 -360z"/>
<path d="M14700 17105 l0 -1205 2515 0 2515 0 0 1205 0 1205 -2515 0 -2515 0
0 -1205z m5000 0 l0 -1175 -2485 0 -2485 0 0 1175 0 1175 2485 0 2485 0 0
-1175z"/>
<path d="M16166 18112 c-51 -64 -93 -148 -118 -241 -30 -112 -30 -353 1 -466
26 -98 60 -170 112 -235 36 -45 43 -50 80 -50 l40 0 -34 43 c-86 105 -126 235
-134 427 -9 218 31 387 121 508 20 28 36 52 36 56 0 3 -15 6 -32 6 -27 0 -40
-9 -72 -48z"/>
<path d="M17030 18154 c0 -4 14 -22 30 -41 95 -108 150 -325 136 -540 -11
-172 -54 -305 -132 -407 l-35 -46 39 0 c36 0 43 5 81 53 99 130 136 272 128
501 -7 211 -44 329 -138 439 -34 39 -46 47 -75 47 -19 0 -34 -3 -34 -6z"/>
<path d="M19076 18070 c-42 -13 -91 -65 -117 -124 -32 -71 -40 -322 -14 -412
23 -82 58 -132 108 -155 114 -51 223 6 264 139 14 44 18 91 17 207 0 131 -3
157 -23 207 -29 74 -55 106 -105 129 -44 20 -84 23 -130 9z m122 -93 c41 -38
55 -113 50 -276 -3 -131 -6 -151 -28 -196 -40 -81 -102 -97 -155 -40 -38 42
-50 106 -50 270 0 138 2 154 24 199 37 76 104 94 159 43z"/>
<path d="M15290 18005 l0 -45 45 0 45 0 0 45 0 45 -45 0 -45 0 0 -45z"/>
<path d="M14964 17830 c-50 -16 -77 -53 -82 -115 -4 -52 -3 -56 30 -89 24 -24
53 -39 94 -50 94 -26 109 -36 109 -76 0 -26 -6 -37 -25 -48 -33 -17 -111 -9
-163 17 -23 11 -42 19 -43 18 0 -1 -4 -18 -7 -38 -5 -34 -3 -37 31 -54 47 -22
158 -31 204 -16 57 19 81 52 86 121 4 59 4 61 -34 99 -31 31 -51 41 -99 51
-75 15 -105 33 -105 65 0 52 74 69 164 39 26 -9 48 -15 50 -13 2 2 6 18 9 35
5 27 2 33 -21 44 -34 16 -158 22 -198 10z"/>
<path d="M15690 17828 c-19 -5 -42 -16 -51 -24 -21 -19 -29 -18 -29 6 0 17 -7
20 -45 20 l-45 0 0 -225 0 -225 45 0 45 0 0 145 c0 193 18 237 97 237 28 0 43
-7 60 -27 22 -25 23 -34 23 -191 l0 -164 46 0 46 0 -4 183 c-4 191 -11 224
-52 251 -30 19 -95 26 -136 14z"/>
<path d="M16578 17830 c-153 -46 -254 -251 -188 -381 33 -63 70 -81 161 -76
64 3 86 9 135 37 34 19 60 28 62 22 2 -6 12 -22 23 -36 40 -50 149 -23 149 37
0 25 -24 21 -35 -5 -15 -34 -53 -36 -65 -3 -18 49 -11 83 29 143 67 97 111
222 79 222 -9 0 -20 -18 -27 -42 -7 -24 -29 -74 -49 -113 l-37 -70 -5 75 c-7
99 -32 148 -90 178 -45 22 -94 27 -142 12z m103 -30 c40 -22 53 -67 53 -200
l1 -125 -54 -32 c-140 -84 -237 -54 -234 71 2 66 35 172 68 216 47 64 119 94
166 70z"/>
<path d="M15290 17605 l0 -225 45 0 45 0 0 225 0 225 -45 0 -45 0 0 -225z"/>
<path d="M17632 17468 c-7 -7 -12 -24 -12 -38 0 -14 5 -31 12 -38 7 -7 24 -12
38 -12 14 0 31 5 38 12 7 7 12 24 12 38 0 14 -5 31 -12 38 -7 7 -24 12 -38 12
-14 0 -31 -5 -38 -12z"/>
<path d="M18082 17468 c-7 -7 -12 -24 -12 -38 0 -14 5 -31 12 -38 7 -7 24 -12
38 -12 14 0 31 5 38 12 7 7 12 24 12 38 0 14 -5 31 -12 38 -7 7 -24 12 -38 12
-14 0 -31 -5 -38 -12z"/>
<path d="M18542 17468 c-7 -7 -12 -24 -12 -38 0 -14 5 -31 12 -38 7 -7 24 -12
38 -12 14 0 31 5 38 12 7 7 12 24 12 38 0 14 -5 31 -12 38 -7 7 -24 12 -38 12
-14 0 -31 -5 -38 -12z"/>
<path d="M16366 17042 c-51 -64 -93 -148 -118 -241 -30 -112 -30 -353 1 -466
26 -98 60 -170 112 -235 36 -45 43 -50 80 -50 l40 0 -34 43 c-86 105 -126 235
-134 427 -9 218 31 387 121 508 20 28 36 52 36 56 0 3 -15 6 -32 6 -27 0 -40
-9 -72 -48z"/>
<path d="M17220 17084 c0 -4 14 -22 30 -41 95 -108 150 -325 136 -540 -11
-172 -54 -305 -132 -407 l-35 -46 39 0 c36 0 43 5 81 53 99 130 136 272 128
501 -7 211 -44 329 -138 439 -34 39 -46 47 -75 47 -19 0 -34 -3 -34 -6z"/>
<path d="M19266 17000 c-42 -13 -91 -65 -117 -124 -32 -71 -40 -322 -14 -412
23 -82 58 -132 108 -155 114 -51 223 6 264 139 14 44 18 91 17 207 0 131 -3
157 -23 207 -29 74 -55 106 -105 129 -44 20 -84 23 -130 9z m122 -93 c41 -38
55 -113 50 -276 -3 -131 -6 -151 -28 -196 -40 -81 -102 -97 -155 -40 -38 42
-50 106 -50 270 0 138 2 154 24 199 37 76 104 94 159 43z"/>
<path d="M15004 16745 c-63 -31 -100 -82 -116 -156 -23 -111 22 -219 112 -267
37 -19 56 -23 110 -20 38 2 82 12 105 23 36 18 40 23 37 54 -1 19 -4 36 -5 38
-2 1 -22 -7 -45 -18 -129 -64 -232 -5 -232 133 0 62 23 113 63 142 36 26 118
27 166 2 37 -20 51 -12 51 31 0 32 -51 55 -130 60 -55 4 -73 1 -116 -22z"/>
<path d="M15429 16747 c-144 -76 -168 -287 -45 -394 133 -118 334 -31 353 151
19 185 -156 323 -308 243z m150 -65 c48 -26 71 -74 71 -145 0 -91 -45 -155
-117 -163 -84 -11 -151 77 -140 185 7 63 29 99 78 123 43 23 66 23 108 0z"/>
<path d="M15884 16760 c-50 -16 -77 -53 -82 -115 -4 -52 -3 -56 30 -89 24 -24
53 -39 94 -50 94 -26 109 -36 109 -76 0 -26 -6 -37 -25 -48 -33 -17 -111 -9
-163 17 -23 11 -42 19 -43 18 0 -1 -4 -18 -7 -38 -5 -34 -3 -37 31 -54 47 -22
158 -31 204 -16 57 19 81 52 86 121 4 59 4 61 -34 99 -31 31 -51 41 -99 51
-75 15 -105 33 -105 65 0 52 74 69 164 39 26 -9 48 -15 50 -13 2 2 6 18 9 35
5 27 2 33 -21 44 -34 16 -158 22 -198 10z"/>
<path d="M16768 16760 c-153 -46 -254 -251 -188 -381 33 -63 70 -81 161 -76
64 3 86 9 135 37 34 19 60 28 62 22 2 -6 12 -22 23 -36 40 -50 149 -23 149 37
0 25 -24 21 -35 -5 -15 -34 -53 -36 -65 -3 -18 49 -11 83 29 143 67 97 111
222 79 222 -9 0 -20 -18 -27 -42 -7 -24 -29 -74 -49 -113 l-37 -70 -5 75 c-7
99 -32 148 -90 178 -45 22 -94 27 -142 12z m103 -30 c40 -22 53 -67 53 -200
l1 -125 -54 -32 c-140 -84 -237 -54 -234 71 2 66 35 172 68 216 47 64 119 94
166 70z"/>
<path d="M17822 16398 c-7 -7 -12 -24 -12 -38 0 -14 5 -31 12 -38 7 -7 24 -12
38 -12 14 0 31 5 38 12 7 7 12 24 12 38 0 14 -5 31 -12 38 -7 7 -24 12 -38 12
-14 0 -31 -5 -38 -12z"/>
<path d="M18282 16398 c-7 -7 -12 -24 -12 -38 0 -14 5 -31 12 -38 7 -7 24 -12
38 -12 14 0 31 5 38 12 7 7 12 24 12 38 0 14 -5 31 -12 38 -7 7 -24 12 -38 12
-14 0 -31 -5 -38 -12z"/>
<path d="M18732 16398 c-7 -7 -12 -24 -12 -38 0 -14 5 -31 12 -38 7 -7 24 -12
38 -12 14 0 31 5 38 12 7 7 12 24 12 38 0 14 -5 31 -12 38 -7 7 -24 12 -38 12
-14 0 -31 -5 -38 -12z"/>
<path d="M11665 550 c4 -6 57 -10 125 -10 68 0 121 4 125 10 4 6 -40 10 -125
10 -85 0 -129 -4 -125 -10z"/>
</g>
</svg>
