<?xml version="1.0" standalone="no"?>
<!DOCTYPE svg PUBLIC "-//W3C//DTD SVG 20010904//EN"
 "http://www.w3.org/TR/2001/REC-SVG-20010904/DTD/svg10.dtd">
<svg version="1.0" xmlns="http://www.w3.org/2000/svg"
 width="2713.000000pt" height="1425.000000pt" viewBox="0 0 2713.000000 1425.000000"
 preserveAspectRatio="xMidYMid meet">
<metadata>
Created by potrace 1.16, written by Peter Selinger 2001-2019
</metadata>
<g transform="translate(0.000000,1425.000000) scale(0.100000,-0.100000)"
fill="#000000" stroke="none">
<path d="M420 7110 l0 -6690 13150 0 13150 0 0 6690 0 6690 -13150 0 -13150 0
0 -6690z m8735 5514 c583 -141 1064 -260 1068 -264 11 -10 -35 -157 -95 -304
-87 -213 -222 -443 -354 -602 -141 -170 -357 -366 -529 -481 -240 -159 -543
-281 -860 -345 -157 -31 -165 -32 -435 -32 l-275 1 -175 36 c-196 40 -391 103
-555 180 -142 66 -157 76 -150 96 4 9 261 454 573 989 445 765 573 977 597
991 27 15 36 16 80 5 28 -7 527 -128 1110 -270z m7830 -1904 c7472 -1817 6586
-1601 6580 -1610 -15 -24 -47 -291 -52 -436 -7 -211 8 -408 48 -603 17 -79 28
-145 26 -148 -4 -4 -20099 -5920 -20126 -5925 -8 -2 -26 32 -50 97 -186 500
-496 897 -926 1185 -44 30 -84 57 -89 61 -7 6 4338 7483 4369 7517 9 10 38 0
141 -49 368 -176 796 -261 1183 -237 389 25 823 163 1127 359 198 128 410 314
561 494 185 220 355 536 444 827 l32 105 136 -33 c75 -18 3043 -740 6596
-1604z m7745 -1880 c591 -144 1076 -263 1078 -265 2 -2 -5 -6 -15 -9 -613
-185 -2168 -635 -2174 -629 -17 17 -68 304 -80 446 -14 179 -6 400 22 577 26
167 23 160 62 150 18 -5 516 -127 1107 -270z m-22257 -5572 c183 -123 388
-308 528 -478 114 -137 243 -348 322 -525 44 -98 110 -275 105 -280 -11 -10
-2208 -650 -2208 -643 0 10 1151 1988 1157 1988 2 0 45 -28 96 -62z"/>
<path d="M9026 10444 c-102 -32 -206 -175 -206 -282 0 -46 36 -119 71 -145 58
-42 167 -31 256 25 35 23 48 27 52 17 9 -27 60 -69 84 -69 29 0 87 44 87 66 0
21 -9 17 -37 -16 -43 -52 -73 -30 -73 53 0 35 8 57 40 105 43 64 94 187 84
203 -8 14 -24 1 -24 -21 0 -10 -21 -60 -47 -111 l-48 -94 -6 70 c-6 81 -14
110 -41 148 -39 55 -115 75 -192 51z m123 -33 c30 -30 41 -85 41 -205 0 -122
3 -117 -83 -162 -64 -33 -138 -42 -171 -20 -39 25 -52 83 -37 164 21 114 59
182 126 223 40 25 99 25 124 0z"/>
<path d="M22972 8959 c-52 -26 -94 -75 -132 -154 -29 -61 -206 -742 -195 -753
12 -12 24 19 55 144 l32 131 38 -41 c38 -40 40 -41 107 -41 106 1 198 59 249
156 38 74 25 198 -26 244 -19 17 -18 18 29 64 111 108 75 252 -65 267 -38 4
-59 0 -92 -17z m147 -36 c20 -23 23 -34 18 -79 -6 -59 -28 -106 -63 -139 -22
-20 -30 -22 -66 -13 -46 10 -91 3 -107 -16 -21 -25 13 -38 86 -35 l68 4 18
-35 c26 -49 17 -146 -20 -220 -83 -165 -293 -171 -295 -8 -1 61 68 339 103
414 67 142 191 203 258 127z m-136 -260 c-13 -2 -33 -2 -45 0 -13 2 -3 4 22 4
25 0 35 -2 23 -4z"/>
<path d="M3377 3445 c-22 -7 -50 -24 -64 -37 -28 -25 -83 -116 -83 -135 0 -25
19 -12 36 23 24 51 84 88 142 88 97 -1 142 -52 163 -184 12 -82 8 -129 -26
-250 -33 -116 -41 -170 -26 -170 18 0 37 54 64 185 25 119 73 256 129 368 40
81 50 107 38 107 -12 0 -60 -93 -110 -213 l-37 -88 -7 56 c-8 75 -42 172 -72
212 -15 19 -39 36 -62 43 -44 12 -38 12 -85 -5z"/>
</g>
</svg>
