<?xml version="1.0" standalone="no"?>
<!DOCTYPE svg PUBLIC "-//W3C//DTD SVG 20010904//EN"
 "http://www.w3.org/TR/2001/REC-SVG-20010904/DTD/svg10.dtd">
<svg version="1.0" xmlns="http://www.w3.org/2000/svg"
 width="5142.000000pt" height="1221.000000pt" viewBox="0 0 5142.000000 1221.000000"
 preserveAspectRatio="xMidYMid meet">
<metadata>
Created by potrace 1.16, written by Peter Selinger 2001-2019
</metadata>
<g transform="translate(0.000000,1221.000000) scale(0.100000,-0.100000)"
fill="#000000" stroke="none">
<path d="M20770 10570 l0 -1200 2515 0 2515 0 0 1200 0 1200 -2515 0 -2515 0
0 -1200z m5010 0 l0 -1180 -2490 0 -2490 0 0 1180 0 1180 2490 0 2490 0 0
-1180z"/>
<path d="M22731 11567 c-101 -133 -136 -271 -129 -501 4 -127 9 -164 31 -231
43 -132 125 -245 179 -245 l28 0 -44 64 c-90 132 -121 265 -113 496 6 208 36
313 120 423 l37 47 -35 0 c-30 0 -40 -7 -74 -53z"/>
<path d="M23655 11556 c78 -117 115 -262 115 -451 0 -191 -39 -340 -120 -453
l-40 -57 27 -3 c22 -3 36 5 66 39 46 51 101 162 124 249 25 93 25 368 -1 460
-40 146 -129 280 -186 280 l-28 0 43 -64z"/>
<path d="M21692 11458 c-7 -7 -12 -21 -12 -33 0 -12 5 -26 12 -33 7 -7 21 -12
33 -12 12 0 26 5 33 12 7 7 12 21 12 33 0 12 -5 26 -12 33 -7 7 -21 12 -33 12
-12 0 -26 -5 -33 -12z"/>
<path d="M21139 11300 c-63 -11 -106 -35 -124 -70 -19 -37 -19 -53 0 -90 20
-39 73 -65 165 -80 116 -19 150 -39 150 -85 0 -41 -43 -65 -119 -65 -80 0
-105 15 -131 76 -15 35 -24 44 -44 44 -30 0 -36 -15 -36 -100 0 -45 5 -71 14
-79 16 -13 42 -6 50 15 5 13 9 13 35 0 78 -41 203 -26 258 29 27 27 33 41 33
78 0 83 -45 116 -197 147 -108 22 -142 44 -122 81 14 27 50 39 117 39 67 0 98
-17 107 -60 5 -25 11 -30 36 -30 l29 0 0 74 c0 79 -14 101 -44 70 -11 -10 -21
-12 -33 -6 -29 15 -94 20 -144 12z"/>
<path d="M23142 11291 c-146 -51 -242 -243 -180 -360 13 -25 35 -54 50 -64 58
-43 178 -29 265 30 24 16 39 21 41 14 2 -7 15 -25 29 -41 33 -40 79 -41 116
-2 25 26 35 52 21 52 -3 0 -17 -13 -31 -30 -43 -52 -73 -30 -73 53 0 35 8 57
40 105 43 64 94 187 84 203 -8 14 -24 1 -24 -21 0 -10 -21 -60 -47 -111 l-48
-94 -6 75 c-3 41 -10 84 -14 95 -38 94 -124 131 -223 96z m127 -30 c30 -30 41
-85 41 -206 l0 -111 -53 -32 c-66 -40 -150 -59 -190 -43 -40 16 -61 70 -52
139 14 116 64 213 129 253 41 25 100 25 125 0z"/>
<path d="M21568 11289 c-10 -5 -18 -16 -18 -24 0 -22 34 -35 94 -35 l56 0 0
-160 0 -160 -69 0 c-76 0 -105 -16 -81 -45 10 -12 43 -15 180 -15 137 0 170 3
180 15 23 28 -5 45 -76 45 l-64 0 0 189 c0 163 -2 190 -16 195 -26 10 -168 6
-186 -5z"/>
<path d="M22016 11284 c-9 -8 -16 -17 -16 -19 0 -14 37 -35 61 -35 l29 0 0
-160 0 -160 -34 0 c-42 0 -65 -23 -46 -45 11 -13 34 -15 119 -13 106 3 106 3
106 28 0 22 -5 25 -37 28 l-38 3 0 118 c0 106 2 121 23 152 27 40 60 59 103
59 57 0 64 -19 64 -183 l0 -146 -37 -3 c-33 -3 -38 -6 -38 -28 0 -25 0 -25
106 -28 85 -2 108 0 119 13 19 22 -4 45 -46 45 l-34 0 0 145 c0 167 -10 204
-61 230 -44 23 -129 16 -169 -14 -24 -17 -30 -18 -30 -7 0 9 -9 20 -19 26 -30
16 -107 12 -125 -6z"/>
<path d="M22731 10487 c-101 -133 -136 -271 -129 -501 4 -127 9 -164 31 -231
43 -132 125 -245 179 -245 l28 0 -44 64 c-90 132 -121 265 -113 496 6 208 36
313 120 423 l37 47 -35 0 c-30 0 -40 -7 -74 -53z"/>
<path d="M23655 10476 c78 -117 115 -262 115 -451 0 -191 -39 -340 -120 -453
l-40 -57 27 -3 c22 -3 36 5 66 39 46 51 101 162 124 249 25 93 25 368 -1 460
-40 146 -129 280 -186 280 l-28 0 43 -64z"/>
<path d="M21190 10221 c-111 -23 -180 -111 -180 -228 1 -101 59 -186 149 -218
78 -27 146 -12 204 46 46 46 48 82 5 87 -16 2 -28 -1 -28 -7 0 -5 -12 -23 -26
-40 -23 -27 -32 -31 -78 -31 -94 0 -158 65 -158 160 0 105 62 170 164 170 53
0 59 -2 68 -25 6 -17 17 -25 34 -25 51 0 61 59 16 91 -29 20 -118 31 -170 20z"/>
<path d="M21671 10215 c-112 -35 -176 -171 -140 -300 15 -55 91 -129 147 -145
67 -18 131 2 186 57 118 117 68 342 -87 388 -59 17 -50 17 -106 0z m119 -72
c42 -24 70 -82 70 -142 0 -101 -55 -171 -134 -171 -53 0 -91 27 -117 84 -51
113 10 246 113 246 22 0 53 -7 68 -17z"/>
<path d="M22199 10220 c-63 -11 -106 -35 -124 -70 -19 -37 -19 -53 0 -90 20
-39 73 -65 165 -80 116 -19 150 -39 150 -85 0 -41 -43 -65 -119 -65 -80 0
-105 15 -131 76 -15 35 -24 44 -44 44 -30 0 -36 -15 -36 -100 0 -45 5 -71 14
-79 16 -13 42 -6 50 15 5 13 9 13 35 0 78 -41 203 -26 258 29 27 27 33 41 33
78 0 83 -45 116 -197 147 -108 22 -142 44 -122 81 14 27 50 39 117 39 67 0 98
-17 107 -60 5 -25 11 -30 36 -30 l29 0 0 74 c0 79 -14 101 -44 70 -11 -10 -21
-12 -33 -6 -29 15 -94 20 -144 12z"/>
<path d="M23142 10211 c-146 -51 -242 -243 -180 -360 13 -25 35 -54 50 -64 58
-43 178 -29 265 30 24 16 39 21 41 14 2 -7 15 -25 29 -41 33 -40 79 -41 116
-2 25 26 35 52 21 52 -3 0 -17 -13 -31 -30 -43 -52 -73 -30 -73 53 0 35 8 57
40 105 43 64 94 187 84 203 -8 14 -24 1 -24 -21 0 -10 -21 -60 -47 -111 l-48
-94 -6 75 c-3 41 -10 84 -14 95 -38 94 -124 131 -223 96z m127 -30 c30 -30 41
-85 41 -206 l0 -111 -53 -32 c-66 -40 -150 -59 -190 -43 -40 16 -61 70 -52
139 14 116 64 213 129 253 41 25 100 25 125 0z"/>
<path d="M12120 10680 l0 -360 45 0 45 0 0 360 0 360 -45 0 -45 0 0 -360z"/>
<path d="M38830 10670 l0 -360 45 0 c34 0 45 4 45 15 0 13 7 12 42 -6 57 -29
133 -23 181 14 126 96 107 366 -30 423 -39 17 -101 10 -155 -18 l-38 -18 0
155 0 155 -45 0 -45 0 0 -360z m263 -7 c73 -66 57 -237 -27 -277 -49 -23 -89
-20 -120 9 -25 23 -26 28 -26 138 0 99 2 116 19 131 41 38 111 37 154 -1z"/>
<path d="M40855 10938 l-65 -93 36 -3 c23 -2 40 2 47 12 7 8 40 51 75 95 l63
81 -45 0 -45 0 -66 -92z"/>
<path d="M41580 10670 l0 -360 45 0 45 0 0 360 0 360 -45 0 -45 0 0 -360z"/>
<path d="M48879 10979 c-28 -18 -65 -32 -97 -36 -52 -6 -52 -6 -52 -41 l0 -35
43 7 c23 4 52 9 65 13 l22 5 0 -261 0 -261 -60 0 -60 0 0 -30 0 -30 165 0 165
0 0 30 0 30 -60 0 -60 0 0 320 c0 250 -3 320 -12 319 -7 0 -34 -14 -59 -30z"/>
<path d="M50799 10979 c-28 -18 -65 -32 -97 -36 -52 -6 -52 -6 -52 -41 l0 -35
43 7 c23 4 52 9 65 13 l22 5 0 -261 0 -261 -60 0 -60 0 0 -30 0 -30 165 0 165
0 0 30 0 30 -60 0 -60 0 0 320 c0 250 -3 320 -12 319 -7 0 -34 -14 -59 -30z"/>
<path d="M44620 10935 l0 -45 45 0 45 0 0 45 0 45 -45 0 -45 0 0 -45z"/>
<path d="M46510 10820 l0 -60 -45 0 c-45 0 -45 0 -45 -35 0 -34 1 -35 39 -35
l39 0 4 -164 c3 -149 5 -167 24 -193 20 -26 27 -28 85 -27 83 1 128 23 121 59
-6 34 -16 38 -51 20 -40 -20 -68 -19 -81 4 -5 11 -10 83 -10 160 l0 141 65 0
65 0 0 35 0 35 -65 0 -65 0 0 60 0 60 -40 0 -40 0 0 -60z"/>
<path d="M49990 10820 l0 -60 -45 0 c-45 0 -45 0 -45 -35 0 -34 1 -35 39 -35
l39 0 4 -164 c3 -149 5 -167 24 -193 20 -26 27 -28 85 -27 83 1 128 23 121 59
-6 34 -16 38 -51 20 -40 -20 -68 -19 -81 4 -5 11 -10 83 -10 160 l0 141 65 0
65 0 0 35 0 35 -65 0 -65 0 0 60 0 60 -40 0 -40 0 0 -60z"/>
<path d="M19560 10700 l0 -120 -2865 0 c-1903 0 -2865 -3 -2865 -10 0 -7 962
-10 2865 -10 l2865 0 0 -120 c0 -66 2 -120 4 -120 1 0 45 20 97 44 119 55 341
138 464 173 52 15 95 29 95 32 0 3 -43 18 -95 33 -140 41 -337 114 -454 169
-57 27 -106 49 -107 49 -2 0 -4 -54 -4 -120z"/>
<path d="M34450 10699 l0 -119 -4050 0 c-2693 0 -4050 -3 -4050 -10 0 -7 1357
-10 4050 -10 l4050 0 0 -119 0 -120 96 45 c145 67 506 194 552 194 33 0 -6 17
-98 44 -125 36 -342 118 -457 171 l-93 44 0 -120z"/>
<path d="M10010 10768 c-19 -5 -42 -16 -51 -24 -21 -19 -29 -18 -29 6 0 17 -7
20 -45 20 l-45 0 0 -225 0 -225 45 0 45 0 0 145 c0 193 18 237 97 237 28 0 43
-7 60 -27 22 -25 23 -34 23 -191 l0 -164 46 0 46 0 -4 183 c-4 191 -11 224
-52 251 -30 19 -95 26 -136 14z"/>
<path d="M10738 10764 c-56 -17 -62 -25 -54 -68 l6 -33 47 23 c65 33 125 32
152 -2 21 -27 38 -90 27 -101 -3 -4 -36 -10 -71 -14 -75 -9 -142 -36 -173 -70
-42 -44 -19 -149 39 -180 29 -15 135 -7 177 15 28 14 32 15 32 1 0 -11 11 -15
40 -15 l40 0 0 171 c0 158 -2 174 -22 210 -40 71 -133 96 -240 63z m182 -279
c0 -70 -35 -105 -104 -105 -42 0 -88 35 -84 63 4 28 57 58 121 67 29 4 55 8
60 9 4 0 7 -15 7 -34z"/>
<path d="M11300 10768 c-19 -5 -42 -16 -51 -24 -21 -19 -29 -18 -29 6 0 17 -7
20 -45 20 l-45 0 0 -225 0 -225 45 0 45 0 0 145 c0 193 18 237 97 237 28 0 43
-7 60 -27 22 -25 23 -34 23 -191 l0 -164 46 0 46 0 -4 183 c-4 191 -11 224
-52 251 -30 19 -95 26 -136 14z"/>
<path d="M11724 10769 c-42 -12 -90 -68 -104 -120 -9 -34 -8 -51 4 -90 12 -35
13 -55 6 -74 -13 -33 -13 -91 0 -114 7 -14 5 -23 -10 -36 -52 -47 -45 -135 13
-179 46 -33 91 -46 166 -46 91 0 139 16 183 60 32 32 38 44 38 80 0 95 -59
135 -215 146 -55 3 -106 11 -112 17 -7 5 -13 21 -13 34 0 20 3 24 18 17 9 -4
42 -9 72 -11 42 -3 63 1 88 17 65 40 94 125 68 199 l-14 43 59 -4 59 -3 0 32
c0 17 -4 34 -9 38 -6 3 -41 -1 -79 -9 -60 -12 -75 -12 -108 -1 -45 16 -66 17
-110 4z m93 -74 c30 -21 44 -75 32 -120 -18 -64 -80 -85 -124 -40 -20 19 -25
34 -25 75 0 41 5 56 25 75 28 29 61 32 92 10z m104 -412 c67 -66 -74 -141
-190 -100 -19 7 -43 24 -54 38 -16 23 -17 30 -7 50 20 37 29 40 132 37 84 -3
100 -6 119 -25z"/>
<path d="M12428 10760 c-46 -25 -92 -80 -107 -129 -27 -92 0 -212 60 -268 61
-55 164 -69 250 -32 47 20 49 23 49 60 0 22 -2 39 -5 39 -2 0 -23 -10 -46 -22
-95 -49 -182 -28 -219 55 -36 79 -40 77 131 77 l152 0 -7 53 c-10 77 -43 138
-91 164 -50 28 -117 29 -167 3z m130 -66 c19 -13 52 -63 52 -79 0 -3 -47 -5
-105 -5 -71 0 -105 4 -105 11 0 6 17 29 39 50 43 43 80 50 119 23z"/>
<path d="M13278 10770 c-153 -46 -254 -251 -188 -381 33 -63 70 -81 161 -76
64 3 86 9 135 37 34 19 60 28 62 22 2 -6 12 -22 23 -36 40 -50 149 -23 149 37
0 25 -24 21 -35 -5 -15 -34 -53 -36 -65 -3 -18 49 -11 83 29 143 67 97 111
222 79 222 -9 0 -20 -18 -27 -42 -7 -24 -29 -74 -49 -113 l-37 -70 -5 75 c-7
99 -32 148 -90 178 -45 22 -94 27 -142 12z m103 -30 c40 -22 53 -67 53 -200
l1 -125 -54 -32 c-140 -84 -237 -54 -234 71 2 66 35 172 68 216 47 64 119 94
166 70z"/>
<path d="M9342 10564 l3 -206 29 -25 c27 -23 36 -25 97 -21 44 4 80 13 103 26
35 21 36 21 36 2 0 -17 7 -20 45 -20 l45 0 0 225 0 225 -44 0 -45 0 -3 -171
-3 -171 -28 -24 c-21 -18 -40 -24 -76 -24 -26 0 -52 5 -59 12 -8 8 -12 66 -12
195 l0 183 -46 0 -45 0 3 -206z"/>
<path d="M36420 10758 c-19 -5 -42 -16 -51 -24 -21 -19 -29 -18 -29 6 0 17 -7
20 -45 20 l-45 0 0 -225 0 -225 45 0 45 0 0 145 c0 193 18 237 97 237 28 0 43
-7 60 -27 22 -25 23 -34 23 -191 l0 -164 46 0 46 0 -4 183 c-4 191 -11 224
-52 251 -30 19 -95 26 -136 14z"/>
<path d="M37240 10758 c-19 -5 -42 -16 -51 -24 -21 -19 -29 -18 -29 6 0 17 -7
20 -45 20 l-45 0 0 -225 0 -225 45 0 45 0 0 145 c0 193 18 237 97 237 28 0 43
-7 60 -27 22 -25 23 -34 23 -191 l0 -164 46 0 46 0 -4 183 c-4 191 -11 224
-52 251 -30 19 -95 26 -136 14z"/>
<path d="M37649 10747 c-144 -76 -168 -287 -45 -394 133 -118 334 -31 353 151
19 185 -156 323 -308 243z m150 -65 c48 -26 71 -74 71 -145 0 -91 -45 -155
-117 -163 -84 -11 -151 77 -140 185 7 63 29 99 78 123 43 23 66 23 108 0z"/>
<path d="M38230 10759 c-19 -6 -42 -17 -51 -25 -21 -19 -29 -18 -29 6 0 17 -7
20 -45 20 l-45 0 0 -225 0 -225 44 0 45 0 3 159 c3 143 5 162 24 188 24 32 57
43 99 31 52 -14 55 -27 55 -210 l0 -168 45 0 45 0 0 153 c0 134 2 156 20 185
34 56 102 63 140 14 18 -22 20 -40 20 -188 l0 -164 46 0 46 0 -4 183 c-4 199
-12 230 -63 257 -44 24 -128 17 -175 -14 -22 -14 -40 -32 -40 -39 0 -6 -9 2
-19 20 -11 17 -28 34 -38 37 -43 12 -90 14 -123 5z"/>
<path d="M39505 10761 c-39 -10 -74 -28 -102 -54 l-23 -20 0 36 c0 36 -1 37
-40 37 l-40 0 0 -225 0 -225 45 0 45 0 0 130 c0 144 7 169 60 213 17 15 46 29
65 33 33 6 35 9 35 45 0 22 -3 39 -7 38 -5 -1 -21 -4 -38 -8z"/>
<path d="M39708 10750 c-46 -25 -92 -80 -107 -129 -27 -92 0 -212 60 -268 61
-55 164 -69 250 -32 47 20 49 23 49 60 0 22 -2 39 -5 39 -2 0 -23 -10 -46 -22
-95 -49 -182 -28 -219 55 -36 79 -40 77 131 77 l152 0 -7 53 c-10 77 -43 138
-91 164 -50 28 -117 29 -167 3z m130 -66 c19 -13 52 -63 52 -79 0 -3 -47 -5
-105 -5 -71 0 -105 4 -105 11 0 6 17 29 39 50 43 43 80 50 119 23z"/>
<path d="M40595 10761 c-39 -10 -74 -28 -102 -54 l-23 -20 0 36 c0 36 -1 37
-40 37 l-40 0 0 -225 0 -225 45 0 45 0 0 130 c0 144 7 169 60 213 17 15 46 29
65 33 33 6 35 9 35 45 0 22 -3 39 -7 38 -5 -1 -21 -4 -38 -8z"/>
<path d="M40798 10750 c-46 -25 -92 -80 -107 -129 -27 -92 0 -212 60 -268 61
-55 164 -69 250 -32 47 20 49 23 49 60 0 22 -2 39 -5 39 -2 0 -23 -10 -46 -22
-95 -49 -182 -28 -219 55 -36 79 -40 77 131 77 l152 0 -7 53 c-10 77 -43 138
-91 164 -50 28 -117 29 -167 3z m130 -66 c19 -13 52 -63 52 -79 0 -3 -47 -5
-105 -5 -71 0 -105 4 -105 11 0 6 17 29 39 50 43 43 80 50 119 23z"/>
<path d="M41228 10750 c-46 -25 -92 -80 -107 -129 -27 -92 0 -212 60 -268 61
-55 164 -69 250 -32 47 20 49 23 49 60 0 22 -2 39 -5 39 -2 0 -23 -10 -46 -22
-95 -49 -182 -28 -219 55 -36 79 -40 77 131 77 l152 0 -7 53 c-10 77 -43 138
-91 164 -50 28 -117 29 -167 3z m130 -66 c19 -13 52 -63 52 -79 0 -3 -47 -5
-105 -5 -71 0 -105 4 -105 11 0 6 17 29 39 50 43 43 80 50 119 23z"/>
<path d="M42214 10745 c-63 -31 -100 -82 -116 -156 -23 -111 22 -219 112 -267
37 -19 56 -23 110 -20 38 2 82 12 105 23 36 18 40 23 37 54 -1 19 -4 36 -5 38
-2 1 -22 -7 -45 -18 -129 -64 -232 -5 -232 133 0 62 23 113 63 142 36 26 118
27 166 2 37 -20 51 -12 51 31 0 32 -51 55 -130 60 -55 4 -73 1 -116 -22z"/>
<path d="M42649 10747 c-144 -76 -168 -287 -45 -394 133 -118 334 -31 353 151
19 185 -156 323 -308 243z m150 -65 c48 -26 71 -74 71 -145 0 -91 -45 -155
-117 -163 -84 -11 -151 77 -140 185 7 63 29 99 78 123 43 23 66 23 108 0z"/>
<path d="M43220 10759 c-19 -6 -42 -17 -51 -25 -21 -19 -29 -18 -29 6 0 17 -7
20 -45 20 l-45 0 0 -225 0 -225 44 0 45 0 3 159 c3 143 5 162 24 188 24 32 57
43 99 31 52 -14 55 -27 55 -210 l0 -168 45 0 45 0 0 153 c0 134 2 156 20 185
34 56 102 63 140 14 18 -22 20 -40 20 -188 l0 -164 46 0 46 0 -4 183 c-4 199
-12 230 -63 257 -44 24 -128 17 -175 -14 -22 -14 -40 -32 -40 -39 0 -6 -9 2
-19 20 -11 17 -28 34 -38 37 -43 12 -90 14 -123 5z"/>
<path d="M44007 10759 c-21 -5 -51 -16 -67 -24 -29 -15 -30 -14 -30 5 0 17 -6
20 -45 20 l-45 0 0 -330 0 -330 45 0 45 0 0 120 0 120 42 -21 c57 -29 133 -23
181 14 126 96 107 366 -30 423 -36 16 -42 16 -96 3z m52 -84 c37 -19 71 -89
71 -146 0 -117 -121 -202 -194 -134 -25 23 -26 27 -26 140 l0 115 33 20 c38
24 78 25 116 5z"/>
<path d="M44495 10761 c-39 -10 -74 -28 -102 -54 l-23 -20 0 36 c0 36 -1 37
-40 37 l-40 0 0 -225 0 -225 45 0 45 0 0 130 c0 144 7 169 60 213 17 15 46 29
65 33 33 6 35 9 35 45 0 22 -3 39 -7 38 -5 -1 -21 -4 -38 -8z"/>
<path d="M44904 10760 c-50 -16 -77 -53 -82 -115 -4 -52 -3 -56 30 -89 24 -24
53 -39 94 -50 94 -26 109 -36 109 -76 0 -26 -6 -37 -25 -48 -33 -17 -111 -9
-163 17 -23 11 -42 19 -43 18 0 -1 -4 -18 -7 -38 -5 -34 -3 -37 31 -54 47 -22
158 -31 204 -16 57 19 81 52 86 121 4 59 4 61 -34 99 -31 31 -51 41 -99 51
-75 15 -105 33 -105 65 0 52 74 69 164 39 26 -9 48 -15 50 -13 2 2 6 18 9 35
5 27 2 33 -21 44 -34 16 -158 22 -198 10z"/>
<path d="M45628 10750 c-46 -25 -92 -80 -107 -129 -27 -92 0 -212 60 -268 61
-55 164 -69 250 -32 47 20 49 23 49 60 0 22 -2 39 -5 39 -2 0 -23 -10 -46 -22
-95 -49 -182 -28 -219 55 -36 79 -40 77 131 77 l152 0 -7 53 c-10 77 -43 138
-91 164 -50 28 -117 29 -167 3z m130 -66 c19 -13 52 -63 52 -79 0 -3 -47 -5
-105 -5 -71 0 -105 4 -105 11 0 6 17 29 39 50 43 43 80 50 119 23z"/>
<path d="M46150 10758 c-19 -5 -42 -16 -51 -24 -21 -19 -29 -18 -29 6 0 17 -7
20 -45 20 l-45 0 0 -225 0 -225 45 0 45 0 0 145 c0 193 18 237 97 237 28 0 43
-7 60 -27 22 -25 23 -34 23 -191 l0 -164 46 0 46 0 -4 183 c-4 191 -11 224
-52 251 -30 19 -95 26 -136 14z"/>
<path d="M47035 10761 c-39 -10 -74 -28 -102 -54 l-23 -20 0 36 c0 36 -1 37
-40 37 l-40 0 0 -225 0 -225 45 0 45 0 0 130 c0 144 7 169 60 213 17 15 46 29
65 33 33 6 35 9 35 45 0 22 -3 39 -7 38 -5 -1 -21 -4 -38 -8z"/>
<path d="M47238 10750 c-46 -25 -92 -80 -107 -129 -27 -92 0 -212 60 -268 61
-55 164 -69 250 -32 47 20 49 23 49 60 0 22 -2 39 -5 39 -2 0 -23 -10 -46 -22
-95 -49 -182 -28 -219 55 -36 79 -40 77 131 77 l152 0 -7 53 c-10 77 -43 138
-91 164 -50 28 -117 29 -167 3z m130 -66 c19 -13 52 -63 52 -79 0 -3 -47 -5
-105 -5 -71 0 -105 4 -105 11 0 6 17 29 39 50 43 43 80 50 119 23z"/>
<path d="M49608 10750 c-46 -25 -92 -80 -107 -129 -27 -92 0 -212 60 -268 61
-55 164 -69 250 -32 47 20 49 23 49 60 0 22 -2 39 -5 39 -2 0 -23 -10 -46 -22
-95 -49 -182 -28 -219 55 -36 79 -40 77 131 77 l152 0 -7 53 c-10 77 -43 138
-91 164 -50 28 -117 29 -167 3z m130 -66 c19 -13 52 -63 52 -79 0 -3 -47 -5
-105 -5 -71 0 -105 4 -105 11 0 6 17 29 39 50 43 43 80 50 119 23z"/>
<path d="M35752 10554 l3 -206 29 -25 c27 -23 36 -25 97 -21 44 4 80 13 103
26 35 21 36 21 36 2 0 -17 7 -20 45 -20 l45 0 0 225 0 225 -44 0 -45 0 -3
-171 -3 -171 -28 -24 c-21 -18 -40 -24 -76 -24 -26 0 -52 5 -59 12 -8 8 -12
66 -12 195 l0 183 -46 0 -45 0 3 -206z"/>
<path d="M44620 10535 l0 -225 45 0 45 0 0 225 0 225 -45 0 -45 0 0 -225z"/>
<path d="M47933 10574 c-3 -9 0 -20 8 -25 16 -10 588 -13 613 -3 9 3 16 15 16
25 0 18 -13 19 -315 19 -280 0 -316 -2 -322 -16z"/>
<path d="M20770 5845 l0 -665 2515 0 2515 0 0 665 0 665 -2515 0 -2515 0 0
-665z m5010 0 l0 -645 -2490 0 -2490 0 0 645 0 645 2490 0 2490 0 0 -645z"/>
<path d="M24331 6307 c-101 -133 -136 -271 -129 -501 4 -127 9 -164 31 -231
43 -132 125 -245 179 -245 l28 0 -44 64 c-90 132 -121 265 -113 496 6 208 36
313 120 423 l37 47 -35 0 c-30 0 -40 -7 -74 -53z"/>
<path d="M25045 6296 c78 -117 115 -262 115 -451 0 -191 -39 -340 -120 -453
l-40 -57 27 -3 c22 -3 36 5 66 39 46 51 101 162 124 249 25 93 25 368 -1 460
-40 146 -129 280 -186 280 l-28 0 43 -64z"/>
<path d="M23282 6198 c-28 -28 -7 -78 33 -78 27 0 45 18 45 45 0 27 -18 45
-45 45 -12 0 -26 -5 -33 -12z"/>
<path d="M21093 6041 c-70 -12 -108 -68 -68 -101 20 -17 61 -5 68 20 4 17 13
20 65 20 50 0 66 -4 91 -26 22 -18 31 -35 31 -55 0 -26 -3 -29 -35 -29 -89 0
-190 -37 -235 -85 -39 -41 -35 -103 8 -148 57 -59 146 -70 240 -31 29 12 38
12 62 -1 38 -20 114 -20 130 0 18 22 -4 45 -44 45 -17 0 -36 4 -43 8 -7 5 -13
55 -15 149 l-3 142 -34 35 c-49 50 -131 72 -218 57z m187 -289 c0 -79 -18 -95
-110 -100 -63 -4 -71 -2 -94 21 -14 15 -26 35 -26 45 0 45 90 90 183 91 l47 1
0 -58z"/>
<path d="M22250 6041 c-111 -23 -180 -111 -180 -228 1 -101 59 -186 149 -218
78 -27 146 -12 204 46 46 46 48 82 5 87 -16 2 -28 -1 -28 -7 0 -5 -12 -23 -26
-40 -23 -27 -32 -31 -78 -31 -94 0 -158 65 -158 160 0 105 62 170 164 170 53
0 59 -2 68 -25 6 -17 17 -25 34 -25 51 0 61 59 16 91 -29 20 -118 31 -170 20z"/>
<path d="M22729 6040 c-63 -11 -106 -35 -124 -70 -19 -37 -19 -53 0 -90 20
-39 73 -65 165 -80 116 -19 150 -39 150 -85 0 -41 -43 -65 -119 -65 -80 0
-105 15 -131 76 -15 35 -24 44 -44 44 -30 0 -36 -15 -36 -100 0 -45 5 -71 14
-79 16 -13 42 -6 50 15 5 13 9 13 35 0 78 -41 203 -26 258 29 27 27 33 41 33
78 0 83 -45 116 -197 147 -108 22 -142 44 -122 81 14 27 50 39 117 39 67 0 98
-17 107 -60 5 -25 11 -30 36 -30 l29 0 0 74 c0 79 -14 101 -44 70 -11 -10 -21
-12 -33 -6 -29 15 -94 20 -144 12z"/>
<path d="M21513 6033 c-18 -7 -16 -50 3 -57 9 -3 33 -6 55 -6 l39 0 0 -159 0
-160 -52 -3 c-49 -3 -53 -5 -53 -28 l0 -25 160 0 160 0 0 25 c0 24 -3 25 -74
28 l-74 3 5 98 c6 122 32 177 101 210 55 27 81 27 99 -1 11 -16 20 -20 41 -14
22 5 27 12 27 36 0 39 -32 60 -93 60 -50 0 -89 -15 -144 -57 l-33 -24 0 34 c0
23 -6 37 -16 41 -18 7 -133 7 -151 -1z"/>
<path d="M23158 6029 c-10 -5 -18 -16 -18 -24 0 -22 34 -35 94 -35 l56 0 0
-160 0 -160 -69 0 c-76 0 -105 -16 -81 -45 10 -12 43 -15 180 -15 137 0 170 3
180 15 23 28 -5 45 -76 45 l-64 0 0 189 c0 163 -2 190 -16 195 -26 10 -168 6
-186 -5z"/>
<path d="M23616 6024 c-9 -8 -16 -17 -16 -19 0 -14 37 -35 61 -35 l29 0 0
-160 0 -160 -34 0 c-42 0 -65 -23 -46 -45 11 -13 34 -15 119 -13 106 3 106 3
106 28 0 22 -5 25 -37 28 l-38 3 0 118 c0 106 2 121 23 152 27 40 60 59 103
59 57 0 64 -19 64 -183 l0 -146 -37 -3 c-33 -3 -38 -6 -38 -28 0 -25 0 -25
106 -28 85 -2 108 0 119 13 19 22 -4 45 -46 45 l-34 0 0 145 c0 167 -10 204
-61 230 -44 23 -129 16 -169 -14 -24 -17 -30 -18 -30 -7 0 9 -9 20 -19 26 -30
16 -107 12 -125 -6z"/>
<path d="M24670 6035 c0 -2 -20 -100 -45 -216 -25 -117 -45 -216 -45 -221 0
-4 17 -8 38 -8 l37 0 24 112 c13 62 30 130 38 150 19 49 71 94 125 109 47 13
68 33 68 61 0 12 -7 18 -22 18 -30 -1 -107 -36 -135 -62 l-21 -20 5 41 6 41
-37 0 c-20 0 -36 -2 -36 -5z"/>
<path d="M47525 6325 c-130 -46 -151 -225 -35 -301 102 -68 239 -9 265 113 16
77 -43 170 -120 192 -50 14 -61 13 -110 -4z m125 -51 c38 -23 60 -64 60 -114
0 -36 -6 -48 -39 -81 -33 -33 -45 -39 -81 -39 -76 0 -130 52 -130 125 0 97
106 158 190 109z"/>
<path d="M50385 6325 c-130 -46 -151 -225 -35 -301 102 -68 239 -9 265 113 16
77 -43 170 -120 192 -50 14 -61 13 -110 -4z m125 -51 c38 -23 60 -64 60 -114
0 -36 -6 -48 -39 -81 -33 -33 -45 -39 -81 -39 -76 0 -130 52 -130 125 0 97
106 158 190 109z"/>
<path d="M38900 5930 l0 -360 45 0 45 0 0 360 0 360 -45 0 -45 0 0 -360z"/>
<path d="M46584 6259 c-39 -11 -102 -73 -125 -124 -22 -47 -26 -172 -7 -226
45 -132 139 -170 256 -103 39 23 42 23 42 6 0 -38 -33 -114 -64 -147 -43 -45
-92 -54 -146 -26 l-39 20 -16 -22 c-24 -34 -18 -46 28 -67 148 -68 295 50 328
261 19 126 -8 294 -60 367 -40 57 -123 83 -197 61z m123 -95 c31 -34 46 -97
41 -176 -4 -79 -26 -116 -81 -136 -45 -18 -81 -3 -114 47 -19 28 -23 47 -23
115 0 96 19 142 71 169 41 21 76 15 106 -19z"/>
<path d="M47076 6260 c-42 -13 -91 -65 -117 -124 -32 -71 -40 -322 -14 -412
23 -82 58 -132 108 -155 114 -51 223 6 264 139 14 44 18 91 17 207 0 131 -3
157 -23 207 -29 74 -55 106 -105 129 -44 20 -84 23 -130 9z m122 -93 c41 -38
55 -113 50 -276 -3 -131 -6 -151 -28 -196 -40 -81 -102 -97 -155 -40 -38 42
-50 106 -50 270 0 138 2 154 24 199 37 76 104 94 159 43z"/>
<path d="M49444 6259 c-39 -11 -102 -73 -125 -124 -22 -47 -26 -172 -7 -226
45 -132 139 -170 256 -103 39 23 42 23 42 6 0 -38 -33 -114 -64 -147 -43 -45
-92 -54 -146 -26 l-39 20 -16 -22 c-24 -34 -18 -46 28 -67 148 -68 295 50 328
261 19 126 -8 294 -60 367 -40 57 -123 83 -197 61z m123 -95 c31 -34 46 -97
41 -176 -4 -79 -26 -116 -81 -136 -45 -18 -81 -3 -114 47 -19 28 -23 47 -23
115 0 96 19 142 71 169 41 21 76 15 106 -19z"/>
<path d="M49926 6260 c-42 -13 -91 -65 -117 -124 -32 -71 -40 -322 -14 -412
23 -82 58 -132 108 -155 114 -51 223 6 264 139 14 44 18 91 17 207 0 131 -3
157 -23 207 -29 74 -55 106 -105 129 -44 20 -84 23 -130 9z m122 -93 c41 -38
55 -113 50 -276 -3 -131 -6 -151 -28 -196 -40 -81 -102 -97 -155 -40 -38 42
-50 106 -50 270 0 138 2 154 24 199 37 76 104 94 159 43z"/>
<path d="M42380 6195 l0 -45 45 0 45 0 0 45 0 45 -45 0 -45 0 0 -45z"/>
<path d="M44260 6080 l0 -60 -45 0 c-45 0 -45 0 -45 -35 0 -34 1 -35 39 -35
l39 0 4 -164 c3 -149 5 -167 24 -193 20 -26 27 -28 85 -27 83 1 128 23 121 59
-6 34 -16 38 -51 20 -40 -20 -68 -19 -81 4 -5 11 -10 83 -10 160 l0 141 65 0
65 0 0 35 0 35 -65 0 -65 0 0 60 0 60 -40 0 -40 0 0 -60z"/>
<path d="M48680 6080 l0 -60 -45 0 c-45 0 -45 0 -45 -35 0 -34 1 -35 39 -35
l39 0 4 -164 c3 -149 5 -167 24 -193 20 -26 27 -28 85 -27 83 1 128 23 121 59
-6 34 -16 38 -51 20 -40 -20 -68 -19 -81 4 -5 11 -10 83 -10 160 l0 141 65 0
65 0 0 35 0 35 -65 0 -65 0 0 60 0 60 -40 0 -40 0 0 -60z"/>
<path d="M34450 5970 l0 -120 -4052 -3 -4053 -2 4053 -3 4052 -2 0 -121 c0
-93 3 -120 13 -116 193 86 306 131 459 181 l187 62 -122 38 c-156 48 -328 113
-441 165 -49 22 -90 41 -92 41 -2 0 -4 -54 -4 -120z"/>
<path d="M36800 6018 c-19 -5 -42 -16 -51 -24 -21 -19 -29 -18 -29 6 0 17 -7
20 -45 20 l-45 0 0 -225 0 -225 45 0 45 0 0 145 c0 193 18 237 97 237 28 0 43
-7 60 -27 22 -25 23 -34 23 -191 l0 -164 46 0 46 0 -4 183 c-4 191 -11 224
-52 251 -30 19 -95 26 -136 14z"/>
<path d="M37518 6014 c-56 -17 -62 -25 -54 -68 l6 -33 47 23 c65 33 125 32
152 -2 21 -27 38 -90 27 -101 -3 -4 -36 -10 -71 -14 -75 -9 -142 -36 -173 -70
-42 -44 -19 -149 39 -180 29 -15 135 -7 177 15 28 14 32 15 32 1 0 -11 11 -15
40 -15 l40 0 0 171 c0 158 -2 174 -22 210 -40 71 -133 96 -240 63z m182 -279
c0 -70 -35 -105 -104 -105 -42 0 -88 35 -84 63 4 28 57 58 121 67 29 4 55 8
60 9 4 0 7 -15 7 -34z"/>
<path d="M38090 6018 c-19 -5 -42 -16 -51 -24 -21 -19 -29 -18 -29 6 0 17 -7
20 -45 20 l-45 0 0 -225 0 -225 45 0 45 0 0 145 c0 193 18 237 97 237 28 0 43
-7 60 -27 22 -25 23 -34 23 -191 l0 -164 46 0 46 0 -4 183 c-4 191 -11 224
-52 251 -30 19 -95 26 -136 14z"/>
<path d="M38514 6019 c-42 -12 -90 -68 -104 -120 -9 -34 -8 -51 4 -90 12 -35
13 -55 6 -74 -13 -33 -13 -91 0 -114 7 -14 5 -23 -10 -36 -52 -47 -45 -135 13
-179 46 -33 91 -46 166 -46 91 0 139 16 183 60 32 32 38 44 38 80 0 95 -59
135 -215 146 -55 3 -106 11 -112 17 -7 5 -13 21 -13 34 0 20 3 24 18 17 9 -4
42 -9 72 -11 42 -3 63 1 88 17 65 40 94 125 68 199 l-14 43 59 -4 59 -3 0 32
c0 17 -4 34 -9 38 -6 3 -41 -1 -79 -9 -60 -12 -75 -12 -108 -1 -45 16 -66 17
-110 4z m93 -74 c30 -21 44 -75 32 -120 -18 -64 -80 -85 -124 -40 -20 19 -25
34 -25 75 0 41 5 56 25 75 28 29 61 32 92 10z m104 -412 c67 -66 -74 -141
-190 -100 -19 7 -43 24 -54 38 -16 23 -17 30 -7 50 20 37 29 40 132 37 84 -3
100 -6 119 -25z"/>
<path d="M39208 6010 c-46 -25 -92 -80 -107 -129 -27 -92 0 -212 60 -268 61
-55 164 -69 250 -32 47 20 49 23 49 60 0 22 -2 39 -5 39 -2 0 -23 -10 -46 -22
-95 -49 -182 -28 -219 55 -36 79 -40 77 131 77 l152 0 -7 53 c-10 77 -43 138
-91 164 -50 28 -117 29 -167 3z m130 -66 c19 -13 52 -63 52 -79 0 -3 -47 -5
-105 -5 -71 0 -105 4 -105 11 0 6 17 29 39 50 43 43 80 50 119 23z"/>
<path d="M39974 6005 c-63 -31 -100 -82 -116 -156 -23 -111 22 -219 112 -267
37 -19 56 -23 110 -20 38 2 82 12 105 23 36 18 40 23 37 54 -1 19 -4 36 -5 38
-2 1 -22 -7 -45 -18 -129 -64 -232 -5 -232 133 0 62 23 113 63 142 36 26 118
27 166 2 37 -20 51 -12 51 31 0 32 -51 55 -130 60 -55 4 -73 1 -116 -22z"/>
<path d="M40399 6007 c-144 -76 -168 -287 -45 -394 133 -118 334 -31 353 151
19 185 -156 323 -308 243z m150 -65 c48 -26 71 -74 71 -145 0 -91 -45 -155
-117 -163 -84 -11 -151 77 -140 185 7 63 29 99 78 123 43 23 66 23 108 0z"/>
<path d="M40970 6019 c-19 -6 -42 -17 -51 -25 -21 -19 -29 -18 -29 6 0 17 -7
20 -45 20 l-45 0 0 -225 0 -225 44 0 45 0 3 159 c3 143 5 162 24 188 24 32 57
43 99 31 52 -14 55 -27 55 -210 l0 -168 45 0 45 0 0 153 c0 134 2 156 20 185
34 56 102 63 140 14 18 -22 20 -40 20 -188 l0 -164 46 0 46 0 -4 183 c-4 199
-12 230 -63 257 -44 24 -128 17 -175 -14 -22 -14 -40 -32 -40 -39 0 -6 -9 2
-19 20 -11 17 -28 34 -38 37 -43 12 -90 14 -123 5z"/>
<path d="M41757 6019 c-21 -5 -51 -16 -67 -24 -29 -15 -30 -14 -30 5 0 17 -6
20 -45 20 l-45 0 0 -330 0 -330 45 0 45 0 0 120 0 120 42 -21 c57 -29 133 -23
181 14 126 96 107 366 -30 423 -36 16 -42 16 -96 3z m52 -84 c37 -19 71 -89
71 -146 0 -117 -121 -202 -194 -134 -25 23 -26 27 -26 140 l0 115 33 20 c38
24 78 25 116 5z"/>
<path d="M42255 6021 c-39 -10 -74 -28 -102 -54 l-23 -20 0 36 c0 36 -1 37
-40 37 l-40 0 0 -225 0 -225 45 0 45 0 0 130 c0 144 7 169 60 213 17 15 46 29
65 33 33 6 35 9 35 45 0 22 -3 39 -7 38 -5 -1 -21 -4 -38 -8z"/>
<path d="M42654 6020 c-50 -16 -77 -53 -82 -115 -4 -52 -3 -56 30 -89 24 -24
53 -39 94 -50 94 -26 109 -36 109 -76 0 -26 -6 -37 -25 -48 -33 -17 -111 -9
-163 17 -23 11 -42 19 -43 18 0 -1 -4 -18 -7 -38 -5 -34 -3 -37 31 -54 47 -22
158 -31 204 -16 57 19 81 52 86 121 4 59 4 61 -34 99 -31 31 -51 41 -99 51
-75 15 -105 33 -105 65 0 52 74 69 164 39 26 -9 48 -15 50 -13 2 2 6 18 9 35
5 27 2 33 -21 44 -34 16 -158 22 -198 10z"/>
<path d="M43378 6010 c-46 -25 -92 -80 -107 -129 -27 -92 0 -212 60 -268 61
-55 164 -69 250 -32 47 20 49 23 49 60 0 22 -2 39 -5 39 -2 0 -23 -10 -46 -22
-95 -49 -182 -28 -219 55 -36 79 -40 77 131 77 l152 0 -7 53 c-10 77 -43 138
-91 164 -50 28 -117 29 -167 3z m130 -66 c19 -13 52 -63 52 -79 0 -3 -47 -5
-105 -5 -71 0 -105 4 -105 11 0 6 17 29 39 50 43 43 80 50 119 23z"/>
<path d="M43900 6018 c-19 -5 -42 -16 -51 -24 -21 -19 -29 -18 -29 6 0 17 -7
20 -45 20 l-45 0 0 -225 0 -225 45 0 45 0 0 145 c0 193 18 237 97 237 28 0 43
-7 60 -27 22 -25 23 -34 23 -191 l0 -164 46 0 46 0 -4 183 c-4 191 -11 224
-52 251 -30 19 -95 26 -136 14z"/>
<path d="M44785 6021 c-39 -10 -74 -28 -102 -54 l-23 -20 0 36 c0 36 -1 37
-40 37 l-40 0 0 -225 0 -225 45 0 45 0 0 130 c0 144 7 169 60 213 17 15 46 29
65 33 33 6 35 9 35 45 0 22 -3 39 -7 38 -5 -1 -21 -4 -38 -8z"/>
<path d="M44988 6010 c-46 -25 -92 -80 -107 -129 -27 -92 0 -212 60 -268 61
-55 164 -69 250 -32 47 20 49 23 49 60 0 22 -2 39 -5 39 -2 0 -23 -10 -46 -22
-95 -49 -182 -28 -219 55 -36 79 -40 77 131 77 l152 0 -7 53 c-10 77 -43 138
-91 164 -50 28 -117 29 -167 3z m130 -66 c19 -13 52 -63 52 -79 0 -3 -47 -5
-105 -5 -71 0 -105 4 -105 11 0 6 17 29 39 50 43 43 80 50 119 23z"/>
<path d="M48298 6010 c-46 -25 -92 -80 -107 -129 -27 -92 0 -212 60 -268 61
-55 164 -69 250 -32 47 20 49 23 49 60 0 22 -2 39 -5 39 -2 0 -23 -10 -46 -22
-95 -49 -182 -28 -219 55 -36 79 -40 77 131 77 l152 0 -7 53 c-10 77 -43 138
-91 164 -50 28 -117 29 -167 3z m130 -66 c19 -13 52 -63 52 -79 0 -3 -47 -5
-105 -5 -71 0 -105 4 -105 11 0 6 17 29 39 50 43 43 80 50 119 23z"/>
<path d="M36132 5814 l3 -206 29 -25 c27 -23 36 -25 97 -21 44 4 80 13 103 26
35 21 36 21 36 2 0 -17 7 -20 45 -20 l45 0 0 225 0 225 -44 0 -45 0 -3 -171
-3 -171 -28 -24 c-21 -18 -40 -24 -76 -24 -26 0 -52 5 -59 12 -8 8 -12 66 -12
195 l0 183 -46 0 -45 0 3 -206z"/>
<path d="M42380 5795 l0 -225 45 0 45 0 0 225 0 225 -45 0 -45 0 0 -225z"/>
<path d="M19520 5847 c0 -2 18 -51 39 -108 30 -78 37 -106 28 -113 -7 -4
-1304 -486 -2882 -1071 -1578 -584 -2870 -1066 -2872 -1071 -2 -5 1291 -488
2873 -1074 1581 -586 2880 -1067 2884 -1070 5 -3 -9 -55 -31 -114 -22 -60 -38
-110 -37 -112 2 -1 44 2 93 8 51 6 201 8 350 5 l259 -5 -29 22 c-99 71 -296
236 -392 330 -107 103 -113 107 -121 85 -5 -13 -21 -58 -36 -99 -15 -42 -31
-81 -35 -88 -6 -10 -729 254 -2862 1044 -1570 581 -2857 1060 -2862 1063 -4 4
1261 477 2810 1051 1550 573 2839 1051 2864 1061 l46 18 38 -102 c20 -56 41
-106 46 -111 5 -6 23 7 45 32 51 60 278 257 389 339 52 37 94 72 94 76 1 5
-32 5 -71 1 -102 -10 -425 -10 -535 -1 -51 5 -93 7 -93 4z"/>
<path d="M45683 5834 c-3 -9 0 -20 8 -25 16 -10 588 -13 613 -3 9 3 16 15 16
25 0 18 -13 19 -315 19 -280 0 -316 -2 -322 -16z"/>
<path d="M2205 3848 l-65 -93 36 -3 c23 -2 40 2 47 12 7 8 40 51 75 95 l63 81
-45 0 -45 0 -66 -92z"/>
<path d="M2930 3580 l0 -360 45 0 45 0 0 360 0 360 -45 0 -45 0 0 -360z"/>
<path d="M10989 3889 c-28 -18 -65 -32 -97 -36 -52 -6 -52 -6 -52 -41 l0 -35
43 7 c23 4 52 9 65 13 l22 5 0 -261 0 -261 -60 0 -60 0 0 -30 0 -30 165 0 165
0 0 30 0 30 -60 0 -60 0 0 320 c0 250 -3 320 -12 319 -7 0 -34 -14 -59 -30z"/>
<path d="M12909 3889 c-28 -18 -65 -32 -97 -36 -52 -6 -52 -6 -52 -41 l0 -35
43 7 c23 4 52 9 65 13 l22 5 0 -261 0 -261 -60 0 -60 0 0 -30 0 -30 165 0 165
0 0 30 0 30 -60 0 -60 0 0 320 c0 250 -3 320 -12 319 -7 0 -34 -14 -59 -30z"/>
<path d="M6740 3845 l0 -45 45 0 45 0 0 45 0 45 -45 0 -45 0 0 -45z"/>
<path d="M8620 3730 l0 -60 -45 0 c-45 0 -45 0 -45 -35 0 -34 1 -35 39 -35
l39 0 4 -164 c3 -149 5 -167 24 -193 20 -26 27 -28 85 -27 83 1 128 23 121 59
-6 34 -16 38 -51 20 -40 -20 -68 -19 -81 4 -5 11 -10 83 -10 160 l0 141 65 0
65 0 0 35 0 35 -65 0 -65 0 0 60 0 60 -40 0 -40 0 0 -60z"/>
<path d="M12100 3730 l0 -60 -45 0 c-45 0 -45 0 -45 -35 0 -34 1 -35 39 -35
l39 0 4 -164 c3 -149 5 -167 24 -193 20 -26 27 -28 85 -27 83 1 128 23 121 59
-6 34 -16 38 -51 20 -40 -20 -68 -19 -81 4 -5 11 -10 83 -10 160 l0 141 65 0
65 0 0 35 0 35 -65 0 -65 0 0 60 0 60 -40 0 -40 0 0 -60z"/>
<path d="M1080 3668 c-19 -5 -42 -16 -51 -24 -21 -19 -29 -18 -29 6 0 17 -7
20 -45 20 l-45 0 0 -225 0 -225 45 0 45 0 0 145 c0 193 18 237 97 237 28 0 43
-7 60 -27 22 -25 23 -34 23 -191 l0 -164 46 0 46 0 -4 183 c-4 191 -11 224
-52 251 -30 19 -95 26 -136 14z"/>
<path d="M1945 3671 c-39 -10 -74 -28 -102 -54 l-23 -20 0 36 c0 36 -1 37 -40
37 l-40 0 0 -225 0 -225 45 0 45 0 0 130 c0 144 7 169 60 213 17 15 46 29 65
33 33 6 35 9 35 45 0 22 -3 39 -7 38 -5 -1 -21 -4 -38 -8z"/>
<path d="M2148 3660 c-46 -25 -92 -80 -107 -129 -27 -92 0 -212 60 -268 61
-55 164 -69 250 -32 47 20 49 23 49 60 0 22 -2 39 -5 39 -2 0 -23 -10 -46 -22
-95 -49 -182 -28 -219 55 -36 79 -40 77 131 77 l152 0 -7 53 c-10 77 -43 138
-91 164 -50 28 -117 29 -167 3z m130 -66 c19 -13 52 -63 52 -79 0 -3 -47 -5
-105 -5 -71 0 -105 4 -105 11 0 6 17 29 39 50 43 43 80 50 119 23z"/>
<path d="M2578 3660 c-46 -25 -92 -80 -107 -129 -27 -92 0 -212 60 -268 61
-55 164 -69 250 -32 47 20 49 23 49 60 0 22 -2 39 -5 39 -2 0 -23 -10 -46 -22
-95 -49 -182 -28 -219 55 -36 79 -40 77 131 77 l152 0 -7 53 c-10 77 -43 138
-91 164 -50 28 -117 29 -167 3z m130 -66 c19 -13 52 -63 52 -79 0 -3 -47 -5
-105 -5 -71 0 -105 4 -105 11 0 6 17 29 39 50 43 43 80 50 119 23z"/>
<path d="M3773 3670 c-17 -4 -52 -19 -78 -35 l-47 -27 7 31 c7 31 6 31 -34 31
-34 0 -42 -4 -47 -24 -3 -12 -24 -113 -48 -222 l-42 -199 39 -3 c22 -2 41 -2
43 0 1 2 14 57 28 121 14 65 32 130 40 146 23 43 82 90 132 103 24 7 46 19 48
28 3 8 7 25 11 38 7 24 2 25 -52 12z"/>
<path d="M4334 3655 c-63 -31 -100 -82 -116 -156 -23 -111 22 -219 112 -267
37 -19 56 -23 110 -20 38 2 82 12 105 23 36 18 40 23 37 54 -1 19 -4 36 -5 38
-2 1 -22 -7 -45 -18 -129 -64 -232 -5 -232 133 0 62 23 113 63 142 36 26 118
27 166 2 37 -20 51 -12 51 31 0 32 -51 55 -130 60 -55 4 -73 1 -116 -22z"/>
<path d="M4759 3657 c-144 -76 -168 -287 -45 -394 133 -118 334 -31 353 151
19 185 -156 323 -308 243z m150 -65 c48 -26 71 -74 71 -145 0 -91 -45 -155
-117 -163 -84 -11 -151 77 -140 185 7 63 29 99 78 123 43 23 66 23 108 0z"/>
<path d="M5330 3669 c-19 -6 -42 -17 -51 -25 -21 -19 -29 -18 -29 6 0 17 -7
20 -45 20 l-45 0 0 -225 0 -225 44 0 45 0 3 159 c3 143 5 162 24 188 24 32 57
43 99 31 52 -14 55 -27 55 -210 l0 -168 45 0 45 0 0 153 c0 134 2 156 20 185
34 56 102 63 140 14 18 -22 20 -40 20 -188 l0 -164 46 0 46 0 -4 183 c-4 199
-12 230 -63 257 -44 24 -128 17 -175 -14 -22 -14 -40 -32 -40 -39 0 -6 -9 2
-19 20 -11 17 -28 34 -38 37 -43 12 -90 14 -123 5z"/>
<path d="M6117 3669 c-21 -5 -51 -16 -67 -24 -29 -15 -30 -14 -30 5 0 17 -6
20 -45 20 l-45 0 0 -330 0 -330 45 0 45 0 0 120 0 120 42 -21 c57 -29 133 -23
181 14 126 96 107 366 -30 423 -36 16 -42 16 -96 3z m52 -84 c37 -19 71 -89
71 -146 0 -117 -121 -202 -194 -134 -25 23 -26 27 -26 140 l0 115 33 20 c38
24 78 25 116 5z"/>
<path d="M6615 3671 c-39 -10 -74 -28 -102 -54 l-23 -20 0 36 c0 36 -1 37 -40
37 l-40 0 0 -225 0 -225 45 0 45 0 0 130 c0 144 7 169 60 213 17 15 46 29 65
33 33 6 35 9 35 45 0 22 -3 39 -7 38 -5 -1 -21 -4 -38 -8z"/>
<path d="M7014 3670 c-50 -16 -77 -53 -82 -115 -4 -52 -3 -56 30 -89 24 -24
53 -39 94 -50 94 -26 109 -36 109 -76 0 -26 -6 -37 -25 -48 -33 -17 -111 -9
-163 17 -23 11 -42 19 -43 18 0 -1 -4 -18 -7 -38 -5 -34 -3 -37 31 -54 47 -22
158 -31 204 -16 57 19 81 52 86 121 4 59 4 61 -34 99 -31 31 -51 41 -99 51
-75 15 -105 33 -105 65 0 52 74 69 164 39 26 -9 48 -15 50 -13 2 2 6 18 9 35
5 27 2 33 -21 44 -34 16 -158 22 -198 10z"/>
<path d="M7738 3660 c-46 -25 -92 -80 -107 -129 -27 -92 0 -212 60 -268 61
-55 164 -69 250 -32 47 20 49 23 49 60 0 22 -2 39 -5 39 -2 0 -23 -10 -46 -22
-95 -49 -182 -28 -219 55 -36 79 -40 77 131 77 l152 0 -7 53 c-10 77 -43 138
-91 164 -50 28 -117 29 -167 3z m130 -66 c19 -13 52 -63 52 -79 0 -3 -47 -5
-105 -5 -71 0 -105 4 -105 11 0 6 17 29 39 50 43 43 80 50 119 23z"/>
<path d="M8260 3668 c-19 -5 -42 -16 -51 -24 -21 -19 -29 -18 -29 6 0 17 -7
20 -45 20 l-45 0 0 -225 0 -225 45 0 45 0 0 145 c0 193 18 237 97 237 28 0 43
-7 60 -27 22 -25 23 -34 23 -191 l0 -164 46 0 46 0 -4 183 c-4 191 -11 224
-52 251 -30 19 -95 26 -136 14z"/>
<path d="M9145 3671 c-39 -10 -74 -28 -102 -54 l-23 -20 0 36 c0 36 -1 37 -40
37 l-40 0 0 -225 0 -225 45 0 45 0 0 130 c0 144 7 169 60 213 17 15 46 29 65
33 33 6 35 9 35 45 0 22 -3 39 -7 38 -5 -1 -21 -4 -38 -8z"/>
<path d="M9348 3660 c-46 -25 -92 -80 -107 -129 -27 -92 0 -212 60 -268 61
-55 164 -69 250 -32 47 20 49 23 49 60 0 22 -2 39 -5 39 -2 0 -23 -10 -46 -22
-95 -49 -182 -28 -219 55 -36 79 -40 77 131 77 l152 0 -7 53 c-10 77 -43 138
-91 164 -50 28 -117 29 -167 3z m130 -66 c19 -13 52 -63 52 -79 0 -3 -47 -5
-105 -5 -71 0 -105 4 -105 11 0 6 17 29 39 50 43 43 80 50 119 23z"/>
<path d="M11718 3660 c-46 -25 -92 -80 -107 -129 -27 -92 0 -212 60 -268 61
-55 164 -69 250 -32 47 20 49 23 49 60 0 22 -2 39 -5 39 -2 0 -23 -10 -46 -22
-95 -49 -182 -28 -219 55 -36 79 -40 77 131 77 l152 0 -7 53 c-10 77 -43 138
-91 164 -50 28 -117 29 -167 3z m130 -66 c19 -13 52 -63 52 -79 0 -3 -47 -5
-105 -5 -71 0 -105 4 -105 11 0 6 17 29 39 50 43 43 80 50 119 23z"/>
<path d="M412 3464 l3 -206 29 -25 c27 -23 36 -25 97 -21 44 4 80 13 103 26
35 21 36 21 36 2 0 -17 7 -20 45 -20 l45 0 0 225 0 225 -44 0 -45 0 -3 -171
-3 -171 -28 -24 c-21 -18 -40 -24 -76 -24 -26 0 -52 5 -59 12 -8 8 -12 66 -12
195 l0 183 -46 0 -45 0 3 -206z"/>
<path d="M6740 3445 l0 -225 45 0 45 0 0 225 0 225 -45 0 -45 0 0 -225z"/>
<path d="M10043 3484 c-3 -9 0 -20 8 -25 16 -10 588 -13 613 -3 9 3 16 15 16
25 0 18 -13 19 -315 19 -280 0 -316 -2 -322 -16z"/>
<path d="M20770 1120 l0 -670 2515 0 2515 0 0 670 0 670 -2515 0 -2515 0 0
-670z m5010 0 l0 -640 -2490 0 -2490 0 0 640 0 640 2490 0 2490 0 0 -640z"/>
<path d="M24331 1577 c-101 -133 -136 -271 -129 -501 4 -127 9 -164 31 -231
43 -132 125 -245 179 -245 l28 0 -44 64 c-90 132 -121 265 -113 496 6 208 36
313 120 423 l37 47 -35 0 c-30 0 -40 -7 -74 -53z"/>
<path d="M25045 1566 c78 -117 115 -262 115 -451 0 -191 -39 -340 -120 -453
l-40 -57 27 -3 c22 -3 36 5 66 39 46 51 101 162 124 249 25 93 25 368 -1 460
-40 146 -129 280 -186 280 l-28 0 43 -64z"/>
<path d="M21093 1311 c-70 -12 -108 -68 -68 -101 20 -17 61 -5 68 20 4 17 13
20 65 20 50 0 66 -4 91 -26 22 -18 31 -35 31 -55 0 -26 -3 -29 -35 -29 -89 0
-190 -37 -235 -85 -39 -41 -35 -103 8 -148 57 -59 146 -70 240 -31 29 12 38
12 62 -1 38 -20 114 -20 130 0 18 22 -4 45 -44 45 -17 0 -36 4 -43 8 -7 5 -13
55 -15 149 l-3 142 -34 35 c-49 50 -131 72 -218 57z m187 -289 c0 -79 -18 -95
-110 -100 -63 -4 -71 -2 -94 21 -14 15 -26 35 -26 45 0 45 90 90 183 91 l47 1
0 -58z"/>
<path d="M22250 1311 c-111 -23 -180 -111 -180 -228 1 -101 59 -186 149 -218
78 -27 146 -12 204 46 46 46 48 82 5 87 -16 2 -28 -1 -28 -7 0 -5 -12 -23 -26
-40 -23 -27 -32 -31 -78 -31 -94 0 -158 65 -158 160 0 105 62 170 164 170 53
0 59 -2 68 -25 6 -17 17 -25 34 -25 51 0 61 59 16 91 -29 20 -118 31 -170 20z"/>
<path d="M22780 1311 c-111 -23 -180 -111 -180 -228 1 -101 59 -186 149 -218
78 -27 146 -12 204 46 46 46 48 82 5 87 -16 2 -28 -1 -28 -7 0 -5 -12 -23 -26
-40 -23 -27 -32 -31 -78 -31 -94 0 -158 65 -158 160 0 105 62 170 164 170 53
0 59 -2 68 -25 6 -17 17 -25 34 -25 51 0 61 59 16 91 -29 20 -118 31 -170 20z"/>
<path d="M23261 1305 c-112 -35 -176 -171 -140 -300 15 -55 91 -129 147 -145
67 -18 131 2 186 57 118 117 68 342 -87 388 -59 17 -50 17 -106 0z m119 -72
c42 -24 70 -82 70 -142 0 -101 -55 -171 -134 -171 -53 0 -91 27 -117 84 -51
113 10 246 113 246 22 0 53 -7 68 -17z"/>
<path d="M23799 1310 c-63 -11 -106 -35 -124 -70 -19 -37 -19 -53 0 -90 20
-39 73 -65 165 -80 116 -19 150 -39 150 -85 0 -41 -43 -65 -119 -65 -80 0
-105 15 -131 76 -15 35 -24 44 -44 44 -30 0 -36 -15 -36 -100 0 -45 5 -71 14
-79 16 -13 42 -6 50 15 5 13 9 13 35 0 78 -41 203 -26 258 29 27 27 33 41 33
78 0 83 -45 116 -197 147 -108 22 -142 44 -122 81 14 27 50 39 117 39 67 0 98
-17 107 -60 5 -25 11 -30 36 -30 l29 0 0 74 c0 79 -14 101 -44 70 -11 -10 -21
-12 -33 -6 -29 15 -94 20 -144 12z"/>
<path d="M21513 1303 c-18 -7 -16 -50 3 -57 9 -3 33 -6 55 -6 l39 0 0 -159 0
-160 -52 -3 c-49 -3 -53 -5 -53 -28 l0 -25 160 0 160 0 0 25 c0 24 -3 25 -74
28 l-74 3 5 98 c6 122 32 177 101 210 55 27 81 27 99 -1 11 -16 20 -20 41 -14
22 5 27 12 27 36 0 39 -32 60 -93 60 -50 0 -89 -15 -144 -57 l-33 -24 0 34 c0
23 -6 37 -16 41 -18 7 -133 7 -151 -1z"/>
<path d="M24670 1305 c0 -2 -20 -100 -45 -216 -25 -117 -45 -216 -45 -221 0
-4 17 -8 38 -8 l37 0 24 112 c13 62 30 130 38 150 19 49 71 94 125 109 47 13
68 33 68 61 0 12 -7 18 -22 18 -30 -1 -107 -36 -135 -62 l-21 -20 5 41 6 41
-37 0 c-20 0 -36 -2 -36 -5z"/>
<path d="M46645 1595 c-130 -46 -151 -225 -35 -301 102 -68 239 -9 265 113 16
77 -43 170 -120 192 -50 14 -61 13 -110 -4z m125 -51 c38 -23 60 -64 60 -114
0 -36 -6 -48 -39 -81 -33 -33 -45 -39 -81 -39 -76 0 -130 52 -130 125 0 97
106 158 190 109z"/>
<path d="M49975 1595 c-130 -46 -151 -225 -35 -301 102 -68 239 -9 265 113 16
77 -43 170 -120 192 -50 14 -61 13 -110 -4z m125 -51 c38 -23 60 -64 60 -114
0 -36 -6 -48 -39 -81 -33 -33 -45 -39 -81 -39 -76 0 -130 52 -130 125 0 97
106 158 190 109z"/>
<path d="M39300 1210 l0 -360 45 0 45 0 0 360 0 360 -45 0 -45 0 0 -360z"/>
<path d="M46186 1540 c-42 -13 -91 -65 -117 -124 -32 -71 -40 -322 -14 -412
23 -82 58 -132 108 -155 114 -51 223 6 264 139 14 44 18 91 17 207 0 131 -3
157 -23 207 -29 74 -55 106 -105 129 -44 20 -84 23 -130 9z m122 -93 c41 -38
55 -113 50 -276 -3 -131 -6 -151 -28 -196 -40 -81 -102 -97 -155 -40 -38 42
-50 106 -50 270 0 138 2 154 24 199 37 76 104 94 159 43z"/>
<path d="M48599 1519 c-28 -18 -65 -32 -97 -36 -52 -6 -52 -6 -52 -41 l0 -35
43 7 c23 4 52 9 65 13 l22 5 0 -261 0 -261 -60 0 -60 0 0 -30 0 -30 165 0 165
0 0 30 0 30 -60 0 -60 0 0 320 c0 250 -3 320 -12 319 -7 0 -34 -14 -59 -30z"/>
<path d="M49026 1536 c-142 -53 -169 -221 -49 -302 l31 -21 -35 -18 c-79 -43
-108 -165 -60 -256 66 -125 235 -145 331 -39 81 90 70 221 -25 290 l-40 29 31
16 c67 34 92 139 51 215 -41 78 -149 118 -235 86z m108 -70 c45 -19 66 -52 66
-102 0 -112 -144 -154 -201 -60 -36 59 -15 136 44 161 41 18 50 18 91 1z m38
-325 c68 -76 35 -214 -56 -237 -40 -10 -97 16 -119 54 -24 41 -25 117 -3 160
35 68 127 80 178 23z"/>
<path d="M49526 1540 c-42 -13 -91 -65 -117 -124 -32 -71 -40 -322 -14 -412
23 -82 58 -132 108 -155 114 -51 223 6 264 139 14 44 18 91 17 207 0 131 -3
157 -23 207 -29 74 -55 106 -105 129 -44 20 -84 23 -130 9z m122 -93 c41 -38
55 -113 50 -276 -3 -131 -6 -151 -28 -196 -40 -81 -102 -97 -155 -40 -38 42
-50 106 -50 270 0 138 2 154 24 199 37 76 104 94 159 43z"/>
<path d="M42780 1475 l0 -45 45 0 45 0 0 45 0 45 -45 0 -45 0 0 -45z"/>
<path d="M44660 1360 l0 -60 -45 0 c-45 0 -45 0 -45 -35 0 -34 1 -35 39 -35
l39 0 4 -164 c3 -149 5 -167 24 -193 20 -26 27 -28 85 -27 83 1 128 23 121 59
-6 34 -16 38 -51 20 -40 -20 -68 -19 -81 4 -5 11 -10 83 -10 160 l0 141 65 0
65 0 0 35 0 35 -65 0 -65 0 0 60 0 60 -40 0 -40 0 0 -60z"/>
<path d="M47790 1360 l0 -60 -45 0 c-45 0 -45 0 -45 -35 0 -34 1 -35 39 -35
l39 0 4 -164 c3 -149 5 -167 24 -193 20 -26 27 -28 85 -27 83 1 128 23 121 59
-6 34 -16 38 -51 20 -40 -20 -68 -19 -81 4 -5 11 -10 83 -10 160 l0 141 65 0
65 0 0 35 0 35 -65 0 -65 0 0 60 0 60 -40 0 -40 0 0 -60z"/>
<path d="M34450 1249 l0 -119 -4050 0 c-2693 0 -4050 -3 -4050 -10 0 -7 1357
-10 4050 -10 l4050 0 0 -120 0 -120 58 29 c89 45 324 135 457 176 66 20 127
39 135 41 8 3 -34 20 -95 38 -154 45 -300 99 -437 161 l-118 53 0 -119z"/>
<path d="M37200 1298 c-19 -5 -42 -16 -51 -24 -21 -19 -29 -18 -29 6 0 17 -7
20 -45 20 l-45 0 0 -225 0 -225 45 0 45 0 0 145 c0 193 18 237 97 237 28 0 43
-7 60 -27 22 -25 23 -34 23 -191 l0 -164 46 0 46 0 -4 183 c-4 191 -11 224
-52 251 -30 19 -95 26 -136 14z"/>
<path d="M37918 1294 c-56 -17 -62 -25 -54 -68 l6 -33 47 23 c65 33 125 32
152 -2 21 -27 38 -90 27 -101 -3 -4 -36 -10 -71 -14 -75 -9 -142 -36 -173 -70
-42 -44 -19 -149 39 -180 29 -15 135 -7 177 15 28 14 32 15 32 1 0 -11 11 -15
40 -15 l40 0 0 171 c0 158 -2 174 -22 210 -40 71 -133 96 -240 63z m182 -279
c0 -70 -35 -105 -104 -105 -42 0 -88 35 -84 63 4 28 57 58 121 67 29 4 55 8
60 9 4 0 7 -15 7 -34z"/>
<path d="M38490 1298 c-19 -5 -42 -16 -51 -24 -21 -19 -29 -18 -29 6 0 17 -7
20 -45 20 l-45 0 0 -225 0 -225 45 0 45 0 0 145 c0 193 18 237 97 237 28 0 43
-7 60 -27 22 -25 23 -34 23 -191 l0 -164 46 0 46 0 -4 183 c-4 191 -11 224
-52 251 -30 19 -95 26 -136 14z"/>
<path d="M38914 1299 c-42 -12 -90 -68 -104 -120 -9 -34 -8 -51 4 -90 12 -35
13 -55 6 -74 -13 -33 -13 -91 0 -114 7 -14 5 -23 -10 -36 -52 -47 -45 -135 13
-179 46 -33 91 -46 166 -46 91 0 139 16 183 60 32 32 38 44 38 80 0 95 -59
135 -215 146 -55 3 -106 11 -112 17 -7 5 -13 21 -13 34 0 20 3 24 18 17 9 -4
42 -9 72 -11 42 -3 63 1 88 17 65 40 94 125 68 199 l-14 43 59 -4 59 -3 0 32
c0 17 -4 34 -9 38 -6 3 -41 -1 -79 -9 -60 -12 -75 -12 -108 -1 -45 16 -66 17
-110 4z m93 -74 c30 -21 44 -75 32 -120 -18 -64 -80 -85 -124 -40 -20 19 -25
34 -25 75 0 41 5 56 25 75 28 29 61 32 92 10z m104 -412 c67 -66 -74 -141
-190 -100 -19 7 -43 24 -54 38 -16 23 -17 30 -7 50 20 37 29 40 132 37 84 -3
100 -6 119 -25z"/>
<path d="M39608 1290 c-46 -25 -92 -80 -107 -129 -27 -92 0 -212 60 -268 61
-55 164 -69 250 -32 47 20 49 23 49 60 0 22 -2 39 -5 39 -2 0 -23 -10 -46 -22
-95 -49 -182 -28 -219 55 -36 79 -40 77 131 77 l152 0 -7 53 c-10 77 -43 138
-91 164 -50 28 -117 29 -167 3z m130 -66 c19 -13 52 -63 52 -79 0 -3 -47 -5
-105 -5 -71 0 -105 4 -105 11 0 6 17 29 39 50 43 43 80 50 119 23z"/>
<path d="M40374 1285 c-63 -31 -100 -82 -116 -156 -23 -111 22 -219 112 -267
37 -19 56 -23 110 -20 38 2 82 12 105 23 36 18 40 23 37 54 -1 19 -4 36 -5 38
-2 1 -22 -7 -45 -18 -129 -64 -232 -5 -232 133 0 62 23 113 63 142 36 26 118
27 166 2 37 -20 51 -12 51 31 0 32 -51 55 -130 60 -55 4 -73 1 -116 -22z"/>
<path d="M40799 1287 c-144 -76 -168 -287 -45 -394 133 -118 334 -31 353 151
19 185 -156 323 -308 243z m150 -65 c48 -26 71 -74 71 -145 0 -91 -45 -155
-117 -163 -84 -11 -151 77 -140 185 7 63 29 99 78 123 43 23 66 23 108 0z"/>
<path d="M41370 1299 c-19 -6 -42 -17 -51 -25 -21 -19 -29 -18 -29 6 0 17 -7
20 -45 20 l-45 0 0 -225 0 -225 44 0 45 0 3 159 c3 143 5 162 24 188 24 32 57
43 99 31 52 -14 55 -27 55 -210 l0 -168 45 0 45 0 0 153 c0 134 2 156 20 185
34 56 102 63 140 14 18 -22 20 -40 20 -188 l0 -164 46 0 46 0 -4 183 c-4 199
-12 230 -63 257 -44 24 -128 17 -175 -14 -22 -14 -40 -32 -40 -39 0 -6 -9 2
-19 20 -11 17 -28 34 -38 37 -43 12 -90 14 -123 5z"/>
<path d="M42157 1299 c-21 -5 -51 -16 -67 -24 -29 -15 -30 -14 -30 5 0 17 -6
20 -45 20 l-45 0 0 -330 0 -330 45 0 45 0 0 120 0 120 42 -21 c57 -29 133 -23
181 14 126 96 107 366 -30 423 -36 16 -42 16 -96 3z m52 -84 c37 -19 71 -89
71 -146 0 -117 -121 -202 -194 -134 -25 23 -26 27 -26 140 l0 115 33 20 c38
24 78 25 116 5z"/>
<path d="M42655 1301 c-39 -10 -74 -28 -102 -54 l-23 -20 0 36 c0 36 -1 37
-40 37 l-40 0 0 -225 0 -225 45 0 45 0 0 130 c0 144 7 169 60 213 17 15 46 29
65 33 33 6 35 9 35 45 0 22 -3 39 -7 38 -5 -1 -21 -4 -38 -8z"/>
<path d="M43054 1300 c-50 -16 -77 -53 -82 -115 -4 -52 -3 -56 30 -89 24 -24
53 -39 94 -50 94 -26 109 -36 109 -76 0 -26 -6 -37 -25 -48 -33 -17 -111 -9
-163 17 -23 11 -42 19 -43 18 0 -1 -4 -18 -7 -38 -5 -34 -3 -37 31 -54 47 -22
158 -31 204 -16 57 19 81 52 86 121 4 59 4 61 -34 99 -31 31 -51 41 -99 51
-75 15 -105 33 -105 65 0 52 74 69 164 39 26 -9 48 -15 50 -13 2 2 6 18 9 35
5 27 2 33 -21 44 -34 16 -158 22 -198 10z"/>
<path d="M43778 1290 c-46 -25 -92 -80 -107 -129 -27 -92 0 -212 60 -268 61
-55 164 -69 250 -32 47 20 49 23 49 60 0 22 -2 39 -5 39 -2 0 -23 -10 -46 -22
-95 -49 -182 -28 -219 55 -36 79 -40 77 131 77 l152 0 -7 53 c-10 77 -43 138
-91 164 -50 28 -117 29 -167 3z m130 -66 c19 -13 52 -63 52 -79 0 -3 -47 -5
-105 -5 -71 0 -105 4 -105 11 0 6 17 29 39 50 43 43 80 50 119 23z"/>
<path d="M44300 1298 c-19 -5 -42 -16 -51 -24 -21 -19 -29 -18 -29 6 0 17 -7
20 -45 20 l-45 0 0 -225 0 -225 45 0 45 0 0 145 c0 193 18 237 97 237 28 0 43
-7 60 -27 22 -25 23 -34 23 -191 l0 -164 46 0 46 0 -4 183 c-4 191 -11 224
-52 251 -30 19 -95 26 -136 14z"/>
<path d="M45195 1301 c-39 -10 -74 -28 -102 -54 l-23 -20 0 36 c0 36 -1 37
-40 37 l-40 0 0 -225 0 -225 45 0 45 0 0 130 c0 144 7 169 60 213 17 15 46 29
65 33 33 6 35 9 35 45 0 22 -3 39 -7 38 -5 -1 -21 -4 -38 -8z"/>
<path d="M45398 1290 c-46 -25 -92 -80 -107 -129 -27 -92 0 -212 60 -268 61
-55 164 -69 250 -32 47 20 49 23 49 60 0 22 -2 39 -5 39 -2 0 -23 -10 -46 -22
-95 -49 -182 -28 -219 55 -36 79 -40 77 131 77 l152 0 -7 53 c-10 77 -43 138
-91 164 -50 28 -117 29 -167 3z m130 -66 c19 -13 52 -63 52 -79 0 -3 -47 -5
-105 -5 -71 0 -105 4 -105 11 0 6 17 29 39 50 43 43 80 50 119 23z"/>
<path d="M47408 1290 c-46 -25 -92 -80 -107 -129 -27 -92 0 -212 60 -268 61
-55 164 -69 250 -32 47 20 49 23 49 60 0 22 -2 39 -5 39 -2 0 -23 -10 -46 -22
-95 -49 -182 -28 -219 55 -36 79 -40 77 131 77 l152 0 -7 53 c-10 77 -43 138
-91 164 -50 28 -117 29 -167 3z m130 -66 c19 -13 52 -63 52 -79 0 -3 -47 -5
-105 -5 -71 0 -105 4 -105 11 0 6 17 29 39 50 43 43 80 50 119 23z"/>
<path d="M36532 1094 l3 -206 29 -25 c27 -23 36 -25 97 -21 44 4 80 13 103 26
35 21 36 21 36 2 0 -17 7 -20 45 -20 l45 0 0 225 0 225 -44 0 -45 0 -3 -171
-3 -171 -28 -24 c-21 -18 -40 -24 -76 -24 -26 0 -52 5 -59 12 -8 8 -12 66 -12
195 l0 183 -46 0 -45 0 3 -206z"/>
<path d="M42780 1075 l0 -225 45 0 45 0 0 225 0 225 -45 0 -45 0 0 -225z"/>
</g>
</svg>
