<?xml version="1.0" standalone="no"?>
<!DOCTYPE svg PUBLIC "-//W3C//DTD SVG 20010904//EN"
 "http://www.w3.org/TR/2001/REC-SVG-20010904/DTD/svg10.dtd">
<svg version="1.0" xmlns="http://www.w3.org/2000/svg"
 width="1988.000000pt" height="2075.000000pt" viewBox="0 0 1988.000000 2075.000000"
 preserveAspectRatio="xMidYMid meet">
<metadata>
Created by potrace 1.16, written by Peter Selinger 2001-2019
</metadata>
<g transform="translate(0.000000,2075.000000) scale(0.100000,-0.100000)"
fill="#000000" stroke="none">
<path d="M15254 20278 c-65 -77 -96 -223 -75 -350 21 -125 76 -218 130 -218
l24 0 -21 23 c-11 12 -33 49 -49 82 -26 56 -28 68 -28 195 0 127 2 139 28 195
16 33 38 70 49 82 l21 23 -25 0 c-17 0 -36 -11 -54 -32z"/>
<path d="M15803 20262 c48 -70 62 -129 62 -257 0 -124 -16 -186 -66 -254 l-29
-41 23 0 c31 0 60 32 94 105 24 52 28 75 31 171 5 130 -10 194 -60 270 -25 36
-40 50 -61 52 l-28 3 34 -49z"/>
<path d="M14400 20170 c0 -36 -2 -40 -25 -40 -18 0 -25 -5 -25 -20 0 -15 7
-20 25 -20 l25 0 0 -101 c0 -115 8 -139 49 -139 46 0 92 20 89 39 -3 12 -13
15 -46 13 l-42 -4 0 96 0 96 40 0 c33 0 40 3 40 20 0 17 -7 20 -40 20 l-40 0
0 40 c0 36 -2 40 -25 40 -22 0 -25 -4 -25 -40z"/>
<path d="M14628 20129 c-20 -8 -28 -18 -28 -35 0 -26 3 -28 28 -15 9 4 29 11
44 15 34 8 68 -22 68 -58 0 -21 -6 -24 -52 -29 -69 -9 -102 -33 -106 -80 -2
-26 3 -42 19 -58 19 -19 28 -21 73 -14 28 4 66 6 84 6 l32 -2 0 110 c0 100 -2
112 -23 136 -26 31 -93 42 -139 24z m110 -186 c-4 -36 -45 -57 -82 -43 -14 5
-26 16 -26 24 0 22 40 46 78 46 30 0 33 -2 30 -27z"/>
<path d="M14957 20121 c-29 -15 -37 -16 -37 -5 0 8 -10 14 -25 14 l-25 0 0
-135 0 -135 30 0 30 0 0 98 c0 83 3 102 18 115 22 20 53 22 70 5 8 -8 12 -48
12 -115 l0 -103 31 0 31 0 -4 115 c-3 99 -6 117 -23 134 -31 29 -67 33 -108
12z"/>
<path d="M15505 20123 c-38 -9 -87 -56 -107 -101 -55 -123 37 -213 157 -152
39 20 39 20 60 0 28 -26 60 -25 80 2 19 27 0 39 -19 13 -7 -10 -18 -15 -24
-11 -20 12 -13 59 14 99 20 30 54 107 54 123 0 2 -5 4 -10 4 -6 0 -15 -12 -21
-27 -6 -15 -18 -44 -27 -63 l-17 -35 -7 50 c-11 78 -61 115 -133 98z m65 -33
c17 -17 20 -33 20 -99 l0 -79 -43 -21 c-52 -25 -80 -27 -101 -5 -42 41 5 188
69 215 29 12 33 11 55 -11z"/>
<path d="M17462 19883 c-7 -3 -23 -21 -37 -41 -18 -27 -22 -40 -14 -54 15 -28
44 -22 78 17 35 41 37 48 15 69 -16 17 -21 18 -42 9z"/>
<path d="M17356 19759 c-52 -41 -59 -99 -12 -99 28 0 76 49 76 78 0 34 -33 45
-64 21z"/>
<path d="M17255 19639 c-27 -24 -35 -39 -33 -58 5 -40 48 -41 82 -1 31 37 33
65 6 80 -16 8 -26 4 -55 -21z"/>
<path d="M17158 19523 c-50 -55 -42 -90 19 -84 20 2 64 76 57 94 -9 26 -47 20
-76 -10z"/>
<path d="M15131 19517 c-7 -13 -27 -32 -44 -43 -24 -14 -28 -19 -15 -22 9 -2
28 4 42 14 l26 16 0 -1116 0 -1116 -20 0 c-49 0 -108 -50 -135 -112 -20 -49
-19 -84 4 -135 17 -36 17 -43 5 -54 -20 -16 -17 -56 5 -68 14 -8 25 -6 45 10
20 15 34 18 61 13 l35 -6 -1 -6477 c-1 -6259 -2 -6469 -19 -6281 -24 268 -93
754 -140 997 -22 111 -40 204 -40 207 0 3 27 6 60 6 33 0 60 4 60 10 0 6 -28
10 -63 10 l-64 0 -13 73 c-28 163 -187 772 -277 1062 -100 322 -290 847 -387
1068 -31 70 -56 130 -56 132 0 3 25 5 55 5 42 0 55 3 55 15 0 12 -14 15 -63
15 l-63 0 -49 113 c-93 214 -368 752 -525 1027 -192 335 -454 743 -658 1024
l-152 210 0 58 c0 32 -4 58 -10 58 -5 0 -10 -19 -10 -42 l-1 -43 -18 25 c-97
129 -460 565 -599 720 -233 259 -619 648 -870 877 -153 140 -202 189 -196 202
18 44 16 110 -5 154 -11 24 -21 50 -21 59 0 19 -6 21 -92 38 -67 14 -68 13
-127 -17 -55 -29 -61 -30 -75 -14 -13 14 -12 28 10 126 14 61 27 126 31 146
l5 36 112 5 c82 4 124 11 157 25 137 61 206 209 147 315 -41 73 -70 83 -254
86 l-161 4 -6 -24 c-3 -12 -24 -111 -47 -218 -50 -236 -48 -230 -66 -230 -8 0
-14 -4 -14 -10 0 -5 6 -10 13 -10 11 0 10 -15 -4 -81 -9 -44 -19 -83 -22 -85
-2 -2 -53 34 -112 81 l-108 85 56 0 c83 0 70 17 -16 22 l-73 3 -240 171 c-586
418 -1282 821 -1914 1108 l-185 84 -3 71 c-2 54 -6 71 -17 71 -12 0 -15 -14
-15 -61 0 -54 -2 -61 -17 -56 -10 4 -142 56 -293 117 -538 218 -1146 409
-1709 539 -144 34 -273 64 -287 67 -22 6 -24 11 -24 70 0 50 -3 64 -15 64 -12
0 -15 -13 -15 -60 0 -41 -4 -60 -12 -60 -7 0 -125 20 -263 45 -317 58 -792
119 -1099 142 -131 9 -233 19 -227 21 6 2 11 8 11 13 0 12 -137 12 -142 -1 -2
-6 -28 -6 -73 1 -38 5 -110 9 -160 7 -49 -2 -154 1 -232 6 l-143 9 0 493 0
494 30 0 c31 0 37 8 21 25 -5 6 -21 44 -35 85 -24 72 -25 74 -35 47 -6 -16
-11 -32 -11 -37 0 -5 -11 -34 -24 -65 l-25 -55 30 0 29 0 0 -494 0 -493 -152
-7 c-84 -4 -181 -9 -216 -12 l-62 -6 0 101 c0 102 -7 120 -37 90 -7 -7 -29
-15 -50 -18 -26 -4 -39 -12 -41 -25 -4 -17 0 -18 37 -12 l41 6 0 -67 0 -68
-61 3 c-34 2 -64 0 -68 -5 -3 -6 -139 -20 -301 -32 -360 -27 -820 -85 -1155
-146 -137 -25 -256 -45 -262 -45 -9 0 -13 19 -13 60 0 47 -3 60 -15 60 -12 0
-15 -14 -15 -62 0 -35 4 -68 8 -74 5 -8 84 3 272 37 428 78 1067 153 1508 176
l102 6 0 -72 0 -71 -35 0 c-28 0 -35 -4 -35 -20 0 -19 7 -20 96 -20 86 0 95 2
92 18 -2 11 -14 18 -36 20 l-32 3 0 69 c0 53 4 69 16 74 20 8 140 8 292 -1
l122 -6 0 -1159 0 -1158 -80 0 c-73 0 -80 -2 -80 -20 0 -18 7 -20 80 -20 l80
0 0 -165 c0 -152 -2 -167 -20 -185 -11 -11 -20 -27 -20 -35 0 -8 9 -23 20 -32
20 -17 20 -30 20 -960 l0 -943 -80 0 c-79 0 -80 0 -80 -25 0 -25 1 -25 80 -25
l80 0 0 -1155 0 -1155 -80 0 c-79 0 -80 0 -80 -25 0 -25 1 -25 80 -25 l80 0 0
-1160 0 -1160 -80 0 c-73 0 -80 -2 -80 -20 0 -18 7 -20 80 -20 l81 0 -3 -1140
c-3 -1124 -3 -1140 -23 -1159 -17 -18 -39 -21 -166 -27 l-146 -7 -8 49 c-14
98 -53 146 -119 146 -66 0 -104 -48 -121 -154 l-6 -38 -869 0 -870 0 0 58 c0
107 -12 192 -26 192 -11 0 -14 -41 -14 -215 0 -208 1 -215 20 -215 18 0 20 7
20 80 l0 80 869 0 869 0 7 -42 c16 -103 56 -158 116 -158 71 0 114 52 126 151
l6 52 146 -7 c118 -5 149 -10 163 -24 13 -13 18 -45 24 -149 6 -121 5 -133
-10 -133 -31 0 -65 -32 -83 -78 -21 -56 -24 -188 -4 -244 36 -105 159 -118
207 -21 15 30 19 60 19 138 0 118 -20 170 -74 195 l-33 15 7 130 c5 110 9 133
26 150 19 20 35 20 1159 23 l1140 3 0 -81 c0 -73 2 -80 20 -80 18 0 20 7 20
80 l0 80 1160 0 1160 0 0 -80 c0 -79 0 -80 25 -80 25 0 25 1 25 80 l0 80 1160
0 1160 0 0 -80 c0 -73 2 -80 20 -80 18 0 20 7 20 80 l0 80 215 0 c202 0 216
-1 235 -20 11 -11 27 -20 35 -20 8 0 23 9 32 20 17 20 30 20 910 20 l893 0 0
-80 c0 -73 2 -80 20 -80 18 0 20 7 20 80 l0 80 1143 0 1142 -1 17 -24 c15 -19
18 -49 20 -167 l3 -143 -35 -5 c-24 -3 -36 -11 -38 -24 -4 -17 0 -18 36 -12
l40 6 -5 -138 c-2 -75 -6 -143 -8 -149 -3 -7 -16 -13 -30 -13 -18 0 -25 -5
-25 -20 0 -15 7 -20 26 -20 25 0 26 -2 20 -47 -3 -27 -13 -138 -21 -248 -21
-276 -85 -768 -143 -1087 -40 -220 -46 -268 -34 -273 7 -3 43 -5 78 -5 50 0
64 3 64 15 0 12 -14 15 -65 15 -36 0 -65 4 -65 8 0 5 21 123 46 263 57 317
117 787 138 1069 9 118 18 233 19 255 2 22 4 -332 5 -787 1 -544 5 -828 12
-828 7 0 10 282 10 825 l0 825 51 0 c43 0 50 3 47 17 -2 12 -14 19 -36 21
l-32 3 0 180 c0 159 -2 179 -16 179 -15 0 -16 13 -10 132 7 116 10 135 29 155
l22 23 1063 0 1062 0 0 -31 c0 -21 4 -29 13 -26 84 37 135 57 150 57 33 0 17
16 -29 28 -25 7 -64 21 -87 32 -22 11 -42 20 -44 20 -2 0 -3 -13 -3 -30 l0
-30 -1063 0 c-1001 0 -1065 1 -1079 18 -36 40 -38 397 -38 7230 l0 6642 22 0
c12 0 40 11 64 25 80 47 106 151 60 238 l-24 45 21 6 c32 8 74 73 60 94 -17
28 -41 25 -73 -10 -22 -23 -30 -41 -28 -59 l4 -26 -30 18 c-17 11 -41 19 -53
19 l-23 0 0 1120 0 1121 29 -22 c16 -11 37 -19 47 -17 16 3 13 7 -13 21 -18
10 -40 29 -49 42 -20 31 -27 31 -43 2z m-10906 -4753 c2156 -163 4194 -898
5948 -2147 l237 -169 0 -54 c0 -40 4 -54 14 -54 10 0 16 13 18 40 l3 40 110
-86 c61 -47 111 -94 113 -105 2 -12 12 -19 25 -19 12 0 37 -13 56 -29 l34 -28
-18 -46 c-19 -50 -15 -104 11 -145 11 -16 12 -27 4 -42 -6 -10 -9 -25 -8 -32
2 -7 -7 -14 -20 -16 -27 -4 -74 -64 -70 -89 2 -12 -4 -19 -19 -21 -29 -4 -73
-57 -73 -88 0 -16 -6 -24 -18 -24 -27 0 -74 -54 -74 -84 0 -19 -6 -26 -19 -26
-24 0 -69 -48 -76 -82 -3 -16 -12 -28 -20 -28 -21 0 -73 -61 -73 -85 0 -14
-10 -24 -30 -32 -32 -12 -71 -68 -63 -89 3 -8 -1 -14 -11 -14 -27 0 -80 -55
-81 -86 -1 -20 -7 -28 -22 -29 -29 -2 -72 -54 -73 -87 0 -23 -5 -28 -24 -28
-25 0 -79 -66 -74 -91 2 -8 -7 -15 -20 -17 -24 -4 -72 -66 -72 -94 0 -11 -8
-18 -19 -18 -25 0 -71 -55 -71 -86 0 -16 -6 -24 -18 -24 -27 0 -74 -54 -74
-84 0 -18 -6 -26 -18 -26 -26 0 -83 -68 -77 -91 4 -14 0 -19 -14 -19 -26 0
-79 -58 -79 -86 0 -15 -8 -24 -24 -28 -28 -7 -69 -59 -71 -89 -1 -12 -10 -22
-21 -23 -28 -4 -77 -62 -71 -85 5 -17 -1 -19 -44 -19 -37 0 -49 -4 -49 -15 0
-8 7 -15 17 -15 15 0 15 -1 0 -18 -10 -10 -17 -31 -17 -45 0 -20 -5 -27 -19
-27 -26 0 -83 -67 -76 -90 4 -13 -1 -19 -24 -23 -30 -6 -71 -59 -71 -91 0 -9
-8 -16 -19 -16 -24 0 -71 -59 -71 -88 0 -15 -6 -22 -18 -22 -27 0 -75 -54 -75
-84 1 -18 -5 -26 -16 -26 -26 0 -75 -57 -77 -87 0 -19 -6 -27 -21 -28 -29 -2
-72 -54 -73 -88 0 -16 -5 -27 -12 -26 -7 1 -18 1 -25 0 -16 -1 -56 -60 -58
-85 -1 -13 -10 -22 -23 -24 -27 -4 -72 -61 -72 -90 0 -15 -6 -22 -18 -22 -27
0 -72 -52 -72 -83 0 -19 -5 -27 -18 -27 -27 0 -74 -54 -74 -84 0 -19 -6 -26
-19 -26 -24 0 -69 -48 -76 -82 -3 -16 -12 -28 -20 -28 -8 0 -25 -11 -38 -25
-17 -16 -25 -20 -25 -10 0 8 -7 15 -15 15 -11 0 -15 -12 -15 -44 0 -35 -5 -47
-25 -60 -26 -17 -57 -68 -53 -87 2 -6 -6 -13 -16 -15 -30 -4 -70 -51 -72 -81
0 -19 -7 -29 -20 -31 -32 -6 -74 -53 -74 -84 0 -23 -4 -28 -24 -28 -25 0 -79
-66 -74 -91 2 -8 -7 -15 -20 -17 -27 -4 -72 -61 -72 -90 0 -15 -6 -22 -19 -22
-25 0 -71 -55 -71 -86 0 -16 -6 -24 -18 -24 -26 0 -74 -53 -76 -83 -1 -19 -8
-27 -26 -31 -28 -6 -70 -61 -70 -92 0 -11 -7 -21 -17 -22 -80 -9 -103 -15
-103 -28 0 -8 8 -14 19 -14 15 0 17 -5 12 -32 -4 -19 -13 -32 -24 -34 -34 -5
-81 -65 -75 -96 2 -7 -7 -14 -19 -16 -29 -4 -73 -57 -73 -88 0 -16 -6 -24 -17
-24 -27 0 -73 -51 -73 -81 0 -21 -6 -28 -27 -32 -30 -7 -79 -69 -68 -86 3 -6
-6 -16 -22 -22 -35 -13 -72 -57 -73 -86 0 -14 -6 -23 -16 -23 -24 0 -74 -58
-74 -86 0 -17 -6 -24 -18 -24 -26 0 -73 -52 -76 -86 -2 -19 -9 -28 -19 -26
-21 3 -77 -64 -77 -93 0 -17 -4 -23 -15 -19 -19 8 -73 -52 -77 -85 -2 -18 -10
-27 -25 -29 -26 -4 -66 -55 -68 -86 -1 -13 -10 -22 -23 -24 -27 -4 -72 -61
-72 -90 0 -14 -6 -22 -17 -22 -28 0 -73 -51 -73 -82 0 -21 -5 -28 -19 -28 -26
0 -84 -68 -78 -91 4 -14 0 -19 -13 -19 -26 0 -80 -60 -80 -87 0 -14 -6 -23
-16 -23 -23 0 -74 -58 -74 -84 0 -15 -9 -25 -30 -33 -31 -12 -73 -70 -65 -90
2 -7 0 -15 -5 -18 -6 -4 -10 22 -10 64 0 56 -3 71 -15 71 -12 0 -15 -15 -15
-71 0 -61 -3 -75 -25 -101 -14 -16 -25 -40 -25 -54 0 -16 -6 -24 -17 -24 -27
0 -73 -51 -73 -81 0 -21 -6 -28 -27 -32 -30 -6 -76 -64 -71 -88 2 -8 -7 -15
-20 -17 -27 -4 -72 -61 -72 -90 0 -15 -6 -22 -18 -22 -10 0 -29 -11 -42 -25
-16 -17 -34 -25 -57 -25 -18 0 -33 -4 -33 -10 0 -5 14 -10 30 -10 23 0 30 -4
30 -20 0 -13 -7 -20 -19 -20 -26 0 -84 -68 -78 -91 4 -14 0 -19 -13 -19 -28 0
-80 -60 -80 -92 0 -20 -4 -26 -15 -22 -19 8 -73 -52 -77 -84 -2 -15 -10 -26
-21 -28 -10 -1 -25 -8 -33 -15 -20 -16 -45 -65 -42 -81 2 -7 -7 -14 -19 -16
-29 -4 -73 -57 -73 -88 0 -16 -6 -24 -17 -24 -28 0 -73 -51 -73 -82 0 -21 -5
-28 -20 -28 -25 0 -69 -47 -77 -82 -3 -16 -12 -28 -20 -28 -21 0 -73 -61 -73
-85 0 -14 -10 -24 -30 -32 -32 -12 -71 -68 -63 -89 3 -8 -1 -14 -11 -14 -28 0
-80 -55 -82 -86 -1 -18 -6 -28 -14 -26 -23 5 -80 -59 -80 -90 0 -23 -4 -28
-23 -28 -26 0 -65 -45 -70 -82 -3 -14 -12 -24 -25 -26 -25 -4 -65 -55 -67 -86
-1 -13 -10 -22 -23 -24 -28 -4 -72 -57 -72 -88 0 -16 -6 -24 -18 -24 -27 0
-75 -54 -74 -84 0 -18 -6 -26 -18 -26 -26 0 -83 -68 -77 -91 4 -14 0 -19 -14
-19 -26 0 -79 -58 -79 -86 0 -15 -8 -24 -24 -28 -28 -7 -69 -59 -71 -89 -1
-12 -10 -21 -21 -23 -26 -4 -75 -64 -72 -89 2 -13 -4 -21 -17 -23 -33 -6 -75
-53 -75 -84 0 -21 -5 -28 -19 -28 -15 0 -19 11 -24 68 -4 37 -7 544 -7 1128
l0 1061 122 6 c67 4 124 9 126 12 12 11 -11 15 -126 22 l-122 6 0 1159 0 1158
58 0 c101 0 192 12 192 25 0 13 -91 25 -192 25 l-58 0 0 1155 0 1155 58 0
c101 0 192 12 192 25 0 13 -91 25 -192 25 l-58 0 0 945 0 945 64 0 c84 0 111
23 86 71 -9 16 -22 19 -80 19 l-70 0 0 168 0 169 122 6 c115 7 138 11 126 22
-2 3 -59 8 -126 12 l-122 6 0 1158 0 1158 83 4 c155 7 462 -4 792 -29z m6836
-1904 c40 -7 61 -18 83 -41 25 -28 28 -38 24 -81 -4 -34 -14 -59 -35 -85 -46
-58 -93 -77 -200 -81 -51 -3 -93 -2 -93 1 0 4 14 70 30 147 17 77 30 143 30
145 0 9 106 5 161 -5z m138 -1082 c232 -209 654 -632 890 -893 179 -198 504
-587 625 -747 l28 -38 -31 0 c-21 0 -31 -5 -31 -15 0 -11 12 -15 43 -15 l42
-1 156 -217 c467 -648 902 -1418 1226 -2167 594 -1372 913 -2798 973 -4343 10
-265 9 -284 -7 -307 l-18 -24 -1141 -1 -1141 0 -6 122 c-7 115 -11 138 -22
126 -3 -2 -8 -59 -12 -126 l-6 -122 -894 0 -893 0 0 44 c0 43 -18 76 -41 76
-34 0 -49 -22 -49 -70 l0 -50 -220 0 -220 0 0 58 c0 107 -12 192 -26 192 -11
0 -14 -26 -14 -125 l0 -125 -1160 0 -1160 0 0 58 c0 101 -12 192 -25 192 -13
0 -25 -91 -25 -192 l0 -58 -1160 0 -1160 0 0 125 c0 69 -4 125 -8 125 -5 0
-19 59 -31 131 -40 245 -131 515 -242 725 -108 203 -283 439 -437 587 -43 41
-64 67 -54 67 25 0 122 48 122 60 0 14 -12 13 -61 -10 -24 -11 -58 -20 -75
-20 -28 0 -30 2 -26 30 3 19 10 30 20 30 27 0 72 51 72 82 0 23 4 28 24 28 25
0 79 66 74 91 -2 8 7 15 20 17 27 4 72 61 72 90 0 15 6 22 19 22 25 0 71 55
71 86 0 17 6 24 19 24 26 0 84 68 78 91 -4 14 0 19 13 19 28 0 80 60 80 92 0
20 4 26 15 22 19 -8 73 52 77 84 2 15 10 26 21 28 10 1 25 8 33 15 20 16 45
65 42 81 -2 6 5 14 15 16 15 3 17 -5 17 -67 0 -56 3 -71 15 -71 12 0 15 14 15
70 0 44 -4 70 -11 70 -6 0 1 14 15 31 14 17 26 41 26 55 0 16 6 24 17 24 27 0
73 51 73 81 0 21 6 28 28 32 29 7 78 69 67 86 -3 6 6 16 22 22 35 13 72 57 73
87 0 13 6 22 16 22 25 0 74 56 74 84 0 18 5 26 18 26 27 0 76 56 78 88 1 18 6
26 16 24 22 -4 78 64 78 94 0 20 4 25 16 20 20 -8 72 49 76 83 2 18 10 27 25
29 26 4 66 55 68 86 1 13 10 22 23 24 27 4 72 61 72 90 0 14 6 22 17 22 28 0
73 51 73 82 0 21 5 28 19 28 26 0 84 68 78 91 -4 14 0 19 14 19 26 0 79 58 79
86 0 15 8 24 24 28 28 7 62 50 67 85 3 15 12 25 24 27 26 4 76 64 73 88 -2 12
4 20 17 22 28 4 75 60 75 89 0 17 6 25 17 25 28 0 73 51 73 82 0 21 5 28 20
28 25 0 69 47 77 83 3 17 12 27 24 27 22 0 69 59 69 88 0 15 6 22 19 22 11 0
31 14 45 31 25 30 30 41 27 67 -1 6 6 12 17 12 26 0 76 56 78 87 0 19 6 27 21
28 29 2 72 54 73 88 0 16 4 26 9 23 5 -4 16 -3 24 0 20 7 69 78 65 94 -2 7 8
16 21 19 29 8 64 51 66 83 1 15 9 24 23 26 28 4 72 57 72 88 0 16 6 24 18 24
27 0 75 54 75 84 0 19 5 26 18 26 24 0 69 48 76 83 3 15 12 27 20 27 21 0 73
61 73 85 0 14 10 24 30 32 32 12 71 68 63 89 -3 8 1 14 11 14 28 0 80 55 82
86 1 18 6 28 14 26 23 -5 80 59 80 90 0 23 4 28 23 28 26 0 65 45 70 82 3 15
12 24 26 26 23 4 71 66 71 94 0 11 8 18 19 18 25 0 71 55 71 86 0 16 6 24 18
24 27 0 75 54 75 84 0 18 5 26 17 26 23 0 80 65 80 90 0 11 7 20 16 20 22 0
74 60 74 86 0 15 8 24 24 28 28 7 69 59 71 89 1 12 10 22 21 23 23 3 74 58 74
79 0 8 4 15 10 15 21 0 79 75 80 103 0 19 5 27 18 27 24 0 73 52 75 80 1 15
11 26 29 32 29 10 68 63 68 92 0 9 7 16 16 16 24 0 74 58 74 86 0 17 6 24 18
24 27 0 75 54 75 84 0 18 5 26 16 26 26 0 75 57 77 87 0 19 6 27 22 28 25 2
65 48 72 84 3 15 11 27 18 27 6 1 16 2 21 3 15 2 54 62 56 85 1 13 10 22 23
24 27 4 72 61 72 90 0 15 6 22 19 22 25 0 71 55 71 86 0 16 6 24 18 24 27 0
75 54 75 84 0 19 5 26 18 26 10 0 30 12 44 27 14 15 25 22 25 15 0 -6 7 -12
15 -12 11 0 15 11 15 35 0 27 8 44 35 71 19 19 35 45 35 57 0 16 9 26 29 34
32 12 64 53 66 86 1 11 9 21 20 23 29 4 69 51 71 81 0 19 7 29 20 31 32 6 74
53 74 83 0 33 25 40 120 32 52 -3 72 0 100 15 19 11 37 20 39 21 2 0 69 -58
150 -131z m-6322 -7075 c-3 -32 -8 -68 -12 -80 -5 -15 -3 -23 4 -23 17 0 41
63 41 105 l0 36 60 -53 c138 -121 330 -377 443 -588 157 -295 267 -701 267
-985 l0 -105 -1058 0 c-583 0 -1093 3 -1135 6 -73 7 -75 7 -73 32 2 16 10 26
22 28 27 4 74 60 74 89 0 17 6 25 17 25 27 0 73 51 73 81 0 21 6 28 28 32 29
7 78 69 67 86 -3 6 6 16 22 22 35 13 72 57 73 87 0 13 6 22 16 22 24 0 74 58
74 86 0 17 6 24 18 24 26 0 74 53 76 84 0 16 7 26 17 26 24 0 73 58 75 87 0
19 6 27 22 28 25 2 65 48 72 84 3 17 13 27 27 29 26 4 66 55 68 86 1 13 10 22
23 24 27 4 72 61 72 90 0 14 6 22 17 22 28 0 73 51 73 82 0 21 5 28 19 28 28
0 83 67 76 91 -5 14 -2 19 14 19 26 0 81 59 81 88 0 13 6 22 16 22 23 0 74 58
74 84 0 15 9 25 29 33 32 12 64 53 66 86 1 11 9 21 19 23 10 1 20 5 24 8 17
18 24 0 19 -51z m-1968 -1557 c15 -16 24 -41 28 -80 l6 -56 -77 0 -76 0 0 28
c0 72 37 132 80 132 9 0 27 -11 39 -24z m31 -196 c0 -84 -43 -140 -94 -120
-32 12 -44 35 -52 104 l-7 56 77 0 76 0 0 -40z m408 -312 c6 9 14 6 32 -13 22
-23 25 -37 28 -124 5 -111 -7 -164 -43 -187 -27 -18 -68 -6 -85 26 -15 29 -24
155 -16 215 9 55 51 109 67 84 7 -11 11 -11 17 -1z"/>
<path d="M5690 14400 c0 -56 3 -70 15 -70 12 0 15 14 15 70 0 56 -3 70 -15 70
-12 0 -15 -14 -15 -70z"/>
<path d="M5690 14150 c0 -56 3 -70 15 -70 12 0 15 14 15 70 0 56 -3 70 -15 70
-12 0 -15 -14 -15 -70z"/>
<path d="M5690 13900 c0 -56 3 -70 15 -70 12 0 15 14 15 70 0 56 -3 70 -15 70
-12 0 -15 -14 -15 -70z"/>
<path d="M5690 13650 c0 -56 3 -70 15 -70 12 0 15 14 15 70 0 56 -3 70 -15 70
-12 0 -15 -14 -15 -70z"/>
<path d="M8050 13650 c0 -56 3 -70 15 -70 12 0 15 14 15 70 0 56 -3 70 -15 70
-12 0 -15 -14 -15 -70z"/>
<path d="M5690 13400 c0 -56 3 -70 15 -70 12 0 15 14 15 70 0 56 -3 70 -15 70
-12 0 -15 -14 -15 -70z"/>
<path d="M8050 13400 c0 -56 3 -70 15 -70 12 0 15 14 15 70 0 56 -3 70 -15 70
-12 0 -15 -14 -15 -70z"/>
<path d="M5690 13155 c0 -51 3 -65 15 -65 12 0 15 14 15 65 0 51 -3 65 -15 65
-12 0 -15 -14 -15 -65z"/>
<path d="M8050 13155 c0 -51 3 -65 15 -65 12 0 15 14 15 65 0 51 -3 65 -15 65
-12 0 -15 -14 -15 -65z"/>
<path d="M5690 12905 c0 -51 3 -65 15 -65 12 0 15 14 15 65 0 51 -3 65 -15 65
-12 0 -15 -14 -15 -65z"/>
<path d="M8050 12905 c0 -51 3 -65 15 -65 12 0 15 14 15 65 0 51 -3 65 -15 65
-12 0 -15 -14 -15 -65z"/>
<path d="M5690 12655 c0 -51 3 -65 15 -65 12 0 15 14 15 65 0 51 -3 65 -15 65
-12 0 -15 -14 -15 -65z"/>
<path d="M8050 12655 c0 -51 3 -65 15 -65 12 0 15 14 15 65 0 51 -3 65 -15 65
-12 0 -15 -14 -15 -65z"/>
<path d="M5690 12406 c0 -52 3 -66 15 -66 11 0 15 12 15 50 l0 50 60 0 c33 0
60 4 60 10 0 6 -24 10 -52 10 -29 0 -63 3 -75 6 -22 6 -23 4 -23 -60z"/>
<path d="M8003 12463 c-67 -5 -69 -23 -3 -23 l50 0 0 -50 c0 -38 4 -50 15 -50
12 0 15 14 15 65 0 46 -4 64 -12 63 -7 -1 -37 -3 -65 -5z"/>
<path d="M3710 12450 c0 -6 30 -10 70 -10 40 0 70 4 70 10 0 6 -30 10 -70 10
-40 0 -70 -4 -70 -10z"/>
<path d="M3960 12450 c0 -6 30 -10 70 -10 40 0 70 4 70 10 0 6 -30 10 -70 10
-40 0 -70 -4 -70 -10z"/>
<path d="M4210 12450 c0 -6 30 -10 70 -10 40 0 70 4 70 10 0 6 -30 10 -70 10
-40 0 -70 -4 -70 -10z"/>
<path d="M4460 12450 c0 -6 28 -10 65 -10 37 0 65 4 65 10 0 6 -28 10 -65 10
-37 0 -65 -4 -65 -10z"/>
<path d="M4710 12450 c0 -6 28 -10 65 -10 37 0 65 4 65 10 0 6 -28 10 -65 10
-37 0 -65 -4 -65 -10z"/>
<path d="M4960 12450 c0 -6 28 -10 65 -10 37 0 65 4 65 10 0 6 -28 10 -65 10
-37 0 -65 -4 -65 -10z"/>
<path d="M5210 12450 c0 -6 28 -10 65 -10 37 0 65 4 65 10 0 6 -28 10 -65 10
-37 0 -65 -4 -65 -10z"/>
<path d="M5460 12450 c0 -6 28 -10 65 -10 37 0 65 4 65 10 0 6 -28 10 -65 10
-37 0 -65 -4 -65 -10z"/>
<path d="M5950 12450 c0 -6 30 -10 70 -10 40 0 70 4 70 10 0 6 -30 10 -70 10
-40 0 -70 -4 -70 -10z"/>
<path d="M6200 12450 c0 -6 30 -10 70 -10 40 0 70 4 70 10 0 6 -30 10 -70 10
-40 0 -70 -4 -70 -10z"/>
<path d="M6450 12450 c0 -6 30 -10 70 -10 40 0 70 4 70 10 0 6 -30 10 -70 10
-40 0 -70 -4 -70 -10z"/>
<path d="M6700 12450 c0 -6 30 -10 70 -10 40 0 70 4 70 10 0 6 -30 10 -70 10
-40 0 -70 -4 -70 -10z"/>
<path d="M6950 12450 c0 -6 30 -10 70 -10 40 0 70 4 70 10 0 6 -30 10 -70 10
-40 0 -70 -4 -70 -10z"/>
<path d="M7200 12450 c0 -6 28 -10 65 -10 37 0 65 4 65 10 0 6 -28 10 -65 10
-37 0 -65 -4 -65 -10z"/>
<path d="M7450 12450 c0 -6 28 -10 65 -10 37 0 65 4 65 10 0 6 -28 10 -65 10
-37 0 -65 -4 -65 -10z"/>
<path d="M7700 12450 c0 -6 28 -10 65 -10 37 0 65 4 65 10 0 6 -28 10 -65 10
-37 0 -65 -4 -65 -10z"/>
<path d="M8200 12450 c0 -6 28 -10 65 -10 37 0 65 4 65 10 0 6 -28 10 -65 10
-37 0 -65 -4 -65 -10z"/>
<path d="M8450 12450 c0 -6 28 -10 65 -10 37 0 65 4 65 10 0 6 -28 10 -65 10
-37 0 -65 -4 -65 -10z"/>
<path d="M8690 12450 c0 -6 30 -10 70 -10 40 0 70 4 70 10 0 6 -30 10 -70 10
-40 0 -70 -4 -70 -10z"/>
<path d="M8940 12450 c0 -6 30 -10 70 -10 40 0 70 4 70 10 0 6 -30 10 -70 10
-40 0 -70 -4 -70 -10z"/>
<path d="M9190 12450 c0 -6 30 -10 70 -10 40 0 70 4 70 10 0 6 -30 10 -70 10
-40 0 -70 -4 -70 -10z"/>
<path d="M9440 12450 c0 -6 30 -10 70 -10 40 0 70 4 70 10 0 6 -30 10 -70 10
-40 0 -70 -4 -70 -10z"/>
<path d="M9690 12450 c0 -6 28 -10 65 -10 37 0 65 4 65 10 0 6 -28 10 -65 10
-37 0 -65 -4 -65 -10z"/>
<path d="M9940 12450 c0 -6 28 -10 65 -10 37 0 65 4 65 10 0 6 -28 10 -65 10
-37 0 -65 -4 -65 -10z"/>
<path d="M10190 12450 c0 -6 28 -10 65 -10 37 0 65 4 65 10 0 6 -28 10 -65 10
-37 0 -65 -4 -65 -10z"/>
<path d="M5690 12155 l0 -65 -68 0 c-70 0 -92 -10 -92 -41 0 -37 28 -49 110
-49 58 0 83 4 94 16 20 20 20 48 1 64 -10 9 -15 32 -15 76 0 50 -3 64 -15 64
-12 0 -15 -14 -15 -65z"/>
<path d="M8050 12156 c0 -44 -5 -67 -15 -76 -19 -16 -19 -44 1 -64 11 -12 36
-16 94 -16 82 0 110 12 110 49 0 31 -22 41 -92 41 l-68 0 0 65 c0 51 -3 65
-15 65 -12 0 -15 -14 -15 -64z"/>
<path d="M10410 12155 l0 -65 -65 0 c-53 0 -66 -3 -75 -19 -14 -27 -13 -37 6
-55 18 -19 153 -23 185 -6 25 14 25 56 -1 72 -17 11 -20 24 -20 75 0 49 -3 63
-15 63 -12 0 -15 -14 -15 -65z"/>
<path d="M3552 12078 c-18 -18 -14 -56 7 -68 32 -17 167 -13 185 6 19 18 20
28 6 55 -9 17 -22 19 -98 19 -55 0 -92 -4 -100 -12z"/>
<path d="M3802 12078 c-7 -7 -12 -21 -12 -33 0 -37 20 -45 105 -45 69 0 85 3
100 20 15 17 16 24 7 45 -11 24 -15 25 -100 25 -55 0 -92 -4 -100 -12z"/>
<path d="M4052 12078 c-15 -15 -16 -50 0 -66 7 -7 44 -12 94 -12 91 0 108 9
102 57 l-3 28 -90 3 c-62 2 -94 -1 -103 -10z"/>
<path d="M4297 12083 c-12 -12 -7 -60 7 -72 9 -8 44 -11 96 -9 91 3 108 14 96
61 -6 27 -7 27 -100 27 -51 0 -96 -3 -99 -7z"/>
<path d="M4538 12065 c-9 -21 -8 -28 7 -45 15 -17 31 -20 100 -20 85 0 105 8
105 45 0 37 -19 45 -112 45 -85 0 -89 -1 -100 -25z"/>
<path d="M4790 12071 c-14 -27 -13 -37 6 -55 11 -12 36 -16 98 -16 86 0 106 8
106 45 0 37 -19 45 -112 45 -76 0 -89 -2 -98 -19z"/>
<path d="M5040 12071 c-26 -50 2 -71 96 -71 86 0 114 11 114 43 0 39 -18 47
-112 47 -76 0 -89 -2 -98 -19z"/>
<path d="M5290 12071 c-14 -27 -13 -37 6 -55 11 -12 36 -16 94 -16 82 0 110
12 110 49 0 33 -22 41 -112 41 -76 0 -89 -2 -98 -19z"/>
<path d="M5792 12078 c-17 -17 -15 -44 4 -62 11 -12 36 -16 94 -16 58 0 83 4
94 16 19 18 20 28 6 55 -9 17 -22 19 -98 19 -55 0 -92 -4 -100 -12z"/>
<path d="M6042 12078 c-18 -18 -14 -56 7 -68 32 -17 167 -13 185 6 19 18 20
28 6 55 -9 17 -22 19 -98 19 -55 0 -92 -4 -100 -12z"/>
<path d="M6292 12078 c-7 -7 -12 -21 -12 -33 0 -37 20 -45 105 -45 69 0 85 3
100 20 15 17 16 24 7 45 -11 24 -15 25 -100 25 -55 0 -92 -4 -100 -12z"/>
<path d="M6542 12078 c-15 -15 -16 -50 0 -66 7 -7 44 -12 94 -12 91 0 108 9
102 57 l-3 28 -90 3 c-62 2 -94 -1 -103 -10z"/>
<path d="M6787 12084 c-11 -12 -8 -59 5 -72 7 -7 44 -12 94 -12 91 0 108 9
102 57 l-3 28 -95 3 c-53 1 -99 0 -103 -4z"/>
<path d="M7037 12083 c-11 -11 -8 -58 5 -71 7 -7 43 -12 93 -12 85 0 105 8
105 45 0 37 -19 45 -110 45 -48 0 -90 -3 -93 -7z"/>
<path d="M7278 12065 c-9 -21 -8 -28 7 -45 15 -17 31 -20 100 -20 85 0 105 8
105 45 0 37 -19 45 -112 45 -85 0 -89 -1 -100 -25z"/>
<path d="M7530 12071 c-26 -50 2 -71 96 -71 86 0 114 11 114 43 0 39 -18 47
-112 47 -76 0 -89 -2 -98 -19z"/>
<path d="M7780 12071 c-14 -27 -13 -37 6 -55 11 -12 36 -16 94 -16 82 0 110
12 110 49 0 33 -22 41 -112 41 -76 0 -89 -2 -98 -19z"/>
<path d="M8282 12078 c-17 -17 -15 -44 4 -62 11 -12 36 -16 94 -16 82 0 110
12 110 49 0 33 -22 41 -110 41 -54 0 -91 -5 -98 -12z"/>
<path d="M8532 12078 c-17 -17 -15 -44 4 -62 11 -12 36 -16 94 -16 58 0 83 4
94 16 19 18 20 28 6 55 -9 17 -22 19 -98 19 -55 0 -92 -4 -100 -12z"/>
<path d="M8782 12078 c-18 -18 -14 -56 7 -68 32 -17 167 -13 185 6 19 18 20
28 6 55 -9 17 -22 19 -98 19 -55 0 -92 -4 -100 -12z"/>
<path d="M9032 12078 c-7 -7 -12 -21 -12 -33 0 -37 20 -45 105 -45 69 0 85 3
100 20 15 17 16 24 7 45 -11 24 -15 25 -100 25 -55 0 -92 -4 -100 -12z"/>
<path d="M9282 12078 c-15 -15 -16 -50 0 -66 7 -7 44 -12 94 -12 91 0 108 9
102 57 l-3 28 -90 3 c-62 2 -94 -1 -103 -10z"/>
<path d="M9527 12084 c-11 -12 -8 -59 5 -72 7 -7 44 -12 94 -12 91 0 108 9
102 57 l-3 28 -95 3 c-53 1 -99 0 -103 -4z"/>
<path d="M9777 12083 c-11 -11 -8 -58 5 -71 7 -7 43 -12 93 -12 85 0 105 8
105 45 0 37 -19 45 -110 45 -48 0 -90 -3 -93 -7z"/>
<path d="M10018 12065 c-9 -21 -8 -28 7 -45 15 -17 31 -20 100 -20 85 0 105 8
105 45 0 37 -19 45 -112 45 -85 0 -89 -1 -100 -25z"/>
<path d="M10520 12071 c-14 -27 -13 -37 6 -55 11 -12 36 -16 94 -16 82 0 110
12 110 49 0 33 -22 41 -112 41 -76 0 -89 -2 -98 -19z"/>
<path d="M5690 11905 c0 -51 3 -65 15 -65 12 0 15 14 15 65 0 51 -3 65 -15 65
-12 0 -15 -14 -15 -65z"/>
<path d="M8050 11905 c0 -51 3 -65 15 -65 12 0 15 14 15 65 0 51 -3 65 -15 65
-12 0 -15 -14 -15 -65z"/>
<path d="M10410 11905 c0 -51 3 -65 15 -65 12 0 15 14 15 65 0 51 -3 65 -15
65 -12 0 -15 -14 -15 -65z"/>
<path d="M5690 11660 c0 -56 3 -70 15 -70 12 0 15 14 15 70 0 56 -3 70 -15 70
-12 0 -15 -14 -15 -70z"/>
<path d="M8050 11660 c0 -56 3 -70 15 -70 12 0 15 14 15 70 0 56 -3 70 -15 70
-12 0 -15 -14 -15 -70z"/>
<path d="M10410 11660 c0 -56 3 -70 15 -70 12 0 15 14 15 70 0 56 -3 70 -15
70 -12 0 -15 -14 -15 -70z"/>
<path d="M5690 11410 c0 -56 3 -70 15 -70 12 0 15 14 15 70 0 56 -3 70 -15 70
-12 0 -15 -14 -15 -70z"/>
<path d="M8050 11410 c0 -56 3 -70 15 -70 12 0 15 14 15 70 0 56 -3 70 -15 70
-12 0 -15 -14 -15 -70z"/>
<path d="M5690 11160 c0 -56 3 -70 15 -70 12 0 15 14 15 70 0 56 -3 70 -15 70
-12 0 -15 -14 -15 -70z"/>
<path d="M8050 11160 c0 -56 3 -70 15 -70 12 0 15 14 15 70 0 56 -3 70 -15 70
-12 0 -15 -14 -15 -70z"/>
<path d="M5690 10910 c0 -56 3 -70 15 -70 12 0 15 14 15 70 0 56 -3 70 -15 70
-12 0 -15 -14 -15 -70z"/>
<path d="M8050 10910 c0 -56 3 -70 15 -70 12 0 15 14 15 70 0 56 -3 70 -15 70
-12 0 -15 -14 -15 -70z"/>
<path d="M5690 10660 c0 -56 3 -70 15 -70 12 0 15 14 15 70 0 56 -3 70 -15 70
-12 0 -15 -14 -15 -70z"/>
<path d="M8050 10660 c0 -56 3 -70 15 -70 12 0 15 14 15 70 0 56 -3 70 -15 70
-12 0 -15 -14 -15 -70z"/>
<path d="M5690 10415 c0 -51 3 -65 15 -65 12 0 15 14 15 65 0 51 -3 65 -15 65
-12 0 -15 -14 -15 -65z"/>
<path d="M8050 10415 c0 -51 3 -65 15 -65 12 0 15 14 15 65 0 51 -3 65 -15 65
-12 0 -15 -14 -15 -65z"/>
<path d="M5690 10165 c0 -37 4 -65 10 -65 6 0 10 -7 10 -15 0 -12 14 -15 65
-15 51 0 65 3 65 15 0 12 -13 15 -60 15 l-60 0 0 65 c0 51 -3 65 -15 65 -12 0
-15 -14 -15 -65z"/>
<path d="M8050 10165 l0 -65 -50 0 c-38 0 -50 -4 -50 -15 0 -12 14 -15 65 -15
l65 0 0 80 c0 64 -3 80 -15 80 -12 0 -15 -14 -15 -65z"/>
<path d="M3710 10085 c0 -12 14 -15 70 -15 56 0 70 3 70 15 0 12 -14 15 -70
15 -56 0 -70 -3 -70 -15z"/>
<path d="M3960 10085 c0 -12 14 -15 70 -15 56 0 70 3 70 15 0 12 -14 15 -70
15 -56 0 -70 -3 -70 -15z"/>
<path d="M4210 10085 c0 -12 14 -15 70 -15 56 0 70 3 70 15 0 12 -14 15 -70
15 -56 0 -70 -3 -70 -15z"/>
<path d="M4460 10085 c0 -12 14 -15 65 -15 51 0 65 3 65 15 0 12 -14 15 -65
15 -51 0 -65 -3 -65 -15z"/>
<path d="M4710 10085 c0 -12 14 -15 65 -15 51 0 65 3 65 15 0 12 -14 15 -65
15 -51 0 -65 -3 -65 -15z"/>
<path d="M4960 10085 c0 -12 14 -15 65 -15 51 0 65 3 65 15 0 12 -14 15 -65
15 -51 0 -65 -3 -65 -15z"/>
<path d="M5210 10085 c0 -12 14 -15 65 -15 51 0 65 3 65 15 0 12 -14 15 -65
15 -51 0 -65 -3 -65 -15z"/>
<path d="M5460 10085 c0 -12 14 -15 65 -15 51 0 65 3 65 15 0 12 -14 15 -65
15 -51 0 -65 -3 -65 -15z"/>
<path d="M5950 10085 c0 -12 14 -15 70 -15 56 0 70 3 70 15 0 12 -14 15 -70
15 -56 0 -70 -3 -70 -15z"/>
<path d="M6200 10085 c0 -12 14 -15 70 -15 56 0 70 3 70 15 0 12 -14 15 -70
15 -56 0 -70 -3 -70 -15z"/>
<path d="M6450 10085 c0 -12 14 -15 70 -15 56 0 70 3 70 15 0 12 -14 15 -70
15 -56 0 -70 -3 -70 -15z"/>
<path d="M6700 10085 c0 -12 14 -15 70 -15 56 0 70 3 70 15 0 12 -14 15 -70
15 -56 0 -70 -3 -70 -15z"/>
<path d="M6950 10085 c0 -12 14 -15 70 -15 56 0 70 3 70 15 0 12 -14 15 -70
15 -56 0 -70 -3 -70 -15z"/>
<path d="M7200 10085 c0 -12 14 -15 65 -15 51 0 65 3 65 15 0 12 -14 15 -65
15 -51 0 -65 -3 -65 -15z"/>
<path d="M7450 10085 c0 -12 14 -15 65 -15 51 0 65 3 65 15 0 12 -14 15 -65
15 -51 0 -65 -3 -65 -15z"/>
<path d="M7700 10085 c0 -12 14 -15 65 -15 51 0 65 3 65 15 0 12 -14 15 -65
15 -51 0 -65 -3 -65 -15z"/>
<path d="M8200 10085 c0 -12 14 -15 65 -15 51 0 65 3 65 15 0 12 -14 15 -65
15 -51 0 -65 -3 -65 -15z"/>
<path d="M8450 10085 c0 -12 14 -15 65 -15 51 0 65 3 65 15 0 12 -14 15 -65
15 -51 0 -65 -3 -65 -15z"/>
<path d="M8690 10085 c0 -12 14 -15 70 -15 56 0 70 3 70 15 0 12 -14 15 -70
15 -56 0 -70 -3 -70 -15z"/>
<path d="M8940 10085 c0 -12 14 -15 70 -15 56 0 70 3 70 15 0 12 -14 15 -70
15 -56 0 -70 -3 -70 -15z"/>
<path d="M5690 9915 c0 -51 3 -65 15 -65 12 0 15 14 15 65 0 51 -3 65 -15 65
-12 0 -15 -14 -15 -65z"/>
<path d="M8050 9915 c0 -51 3 -65 15 -65 12 0 15 14 15 65 0 51 -3 65 -15 65
-12 0 -15 -14 -15 -65z"/>
<path d="M5690 9665 c0 -51 3 -65 15 -65 12 0 15 14 15 65 0 51 -3 65 -15 65
-12 0 -15 -14 -15 -65z"/>
<path d="M8050 9665 c0 -51 3 -65 15 -65 12 0 15 14 15 65 0 51 -3 65 -15 65
-12 0 -15 -14 -15 -65z"/>
<path d="M5690 9415 c0 -51 3 -65 15 -65 12 0 15 14 15 65 0 51 -3 65 -15 65
-12 0 -15 -14 -15 -65z"/>
<path d="M8050 9415 c0 -51 3 -65 15 -65 12 0 15 14 15 65 0 51 -3 65 -15 65
-12 0 -15 -14 -15 -65z"/>
<path d="M5690 9165 c0 -51 3 -65 15 -65 12 0 15 14 15 65 0 51 -3 65 -15 65
-12 0 -15 -14 -15 -65z"/>
<path d="M8050 9165 c0 -51 3 -65 15 -65 12 0 15 14 15 65 0 51 -3 65 -15 65
-12 0 -15 -14 -15 -65z"/>
<path d="M5690 8920 c0 -56 3 -70 15 -70 12 0 15 14 15 70 0 56 -3 70 -15 70
-12 0 -15 -14 -15 -70z"/>
<path d="M8050 8920 c0 -56 3 -70 15 -70 12 0 15 14 15 70 0 56 -3 70 -15 70
-12 0 -15 -14 -15 -70z"/>
<path d="M5690 8670 c0 -56 3 -70 15 -70 12 0 15 14 15 70 0 56 -3 70 -15 70
-12 0 -15 -14 -15 -70z"/>
<path d="M5690 8420 c0 -56 3 -70 15 -70 12 0 15 14 15 70 0 56 -3 70 -15 70
-12 0 -15 -14 -15 -70z"/>
<path d="M5690 8170 c0 -56 3 -70 15 -70 12 0 15 14 15 70 0 56 -3 70 -15 70
-12 0 -15 -14 -15 -70z"/>
<path d="M5690 7925 c0 -51 3 -65 15 -65 12 0 15 14 15 65 0 51 -3 65 -15 65
-12 0 -15 -14 -15 -65z"/>
<path d="M3710 7725 c0 -12 14 -15 70 -15 56 0 70 3 70 15 0 12 -14 15 -70 15
-56 0 -70 -3 -70 -15z"/>
<path d="M3960 7725 c0 -12 14 -15 70 -15 56 0 70 3 70 15 0 12 -14 15 -70 15
-56 0 -70 -3 -70 -15z"/>
<path d="M4210 7725 c0 -12 14 -15 70 -15 56 0 70 3 70 15 0 12 -14 15 -70 15
-56 0 -70 -3 -70 -15z"/>
<path d="M4460 7725 c0 -12 14 -15 65 -15 51 0 65 3 65 15 0 12 -14 15 -65 15
-51 0 -65 -3 -65 -15z"/>
<path d="M4710 7725 c0 -12 14 -15 65 -15 51 0 65 3 65 15 0 12 -14 15 -65 15
-51 0 -65 -3 -65 -15z"/>
<path d="M4960 7725 c0 -12 14 -15 65 -15 51 0 65 3 65 15 0 12 -14 15 -65 15
-51 0 -65 -3 -65 -15z"/>
<path d="M5210 7725 c0 -12 14 -15 65 -15 51 0 65 3 65 15 0 12 -14 15 -65 15
-51 0 -65 -3 -65 -15z"/>
<path d="M5460 7725 c0 -12 14 -15 65 -15 51 0 65 3 65 15 0 12 -14 15 -65 15
-51 0 -65 -3 -65 -15z"/>
<path d="M5690 7675 c0 -51 3 -65 15 -65 11 0 15 12 15 50 l0 50 60 0 c47 0
60 3 60 15 0 12 -15 15 -75 15 l-75 0 0 -65z"/>
<path d="M5950 7725 c0 -12 14 -15 70 -15 56 0 70 3 70 15 0 12 -14 15 -70 15
-56 0 -70 -3 -70 -15z"/>
<path d="M6200 7725 c0 -12 14 -15 70 -15 56 0 70 3 70 15 0 12 -14 15 -70 15
-56 0 -70 -3 -70 -15z"/>
<path d="M6450 7725 c0 -12 14 -15 70 -15 56 0 70 3 70 15 0 12 -14 15 -70 15
-56 0 -70 -3 -70 -15z"/>
<path d="M6700 7725 c0 -12 14 -15 70 -15 56 0 70 3 70 15 0 12 -14 15 -70 15
-56 0 -70 -3 -70 -15z"/>
<path d="M6950 7725 c0 -12 14 -15 70 -15 56 0 70 3 70 15 0 12 -14 15 -70 15
-56 0 -70 -3 -70 -15z"/>
<path d="M5690 7425 c0 -51 3 -65 15 -65 12 0 15 14 15 65 0 51 -3 65 -15 65
-12 0 -15 -14 -15 -65z"/>
<path d="M5690 7175 c0 -51 3 -65 15 -65 12 0 15 14 15 65 0 51 -3 65 -15 65
-12 0 -15 -14 -15 -65z"/>
<path d="M5690 6925 c0 -51 3 -65 15 -65 12 0 15 14 15 65 0 51 -3 65 -15 65
-12 0 -15 -14 -15 -65z"/>
<path d="M5690 6675 c0 -51 3 -65 15 -65 12 0 15 14 15 65 0 51 -3 65 -15 65
-12 0 -15 -14 -15 -65z"/>
<path d="M5690 6430 c0 -56 3 -70 15 -70 12 0 15 14 15 70 0 56 -3 70 -15 70
-12 0 -15 -14 -15 -70z"/>
<path d="M5690 6180 c0 -56 3 -70 15 -70 12 0 15 14 15 70 0 56 -3 70 -15 70
-12 0 -15 -14 -15 -70z"/>
<path d="M3710 5360 c0 -6 30 -10 70 -10 40 0 70 4 70 10 0 6 -30 10 -70 10
-40 0 -70 -4 -70 -10z"/>
<path d="M3960 5360 c0 -6 30 -10 70 -10 40 0 70 4 70 10 0 6 -30 10 -70 10
-40 0 -70 -4 -70 -10z"/>
<path d="M4210 5360 c0 -6 30 -10 70 -10 40 0 70 4 70 10 0 6 -30 10 -70 10
-40 0 -70 -4 -70 -10z"/>
<path d="M4460 5360 c0 -6 28 -10 65 -10 37 0 65 4 65 10 0 6 -28 10 -65 10
-37 0 -65 -4 -65 -10z"/>
<path d="M4710 5360 c0 -6 28 -10 65 -10 37 0 65 4 65 10 0 6 -28 10 -65 10
-37 0 -65 -4 -65 -10z"/>
<path d="M4960 5360 c0 -6 28 -10 65 -10 37 0 65 4 65 10 0 6 -28 10 -65 10
-37 0 -65 -4 -65 -10z"/>
<path d="M10897 11833 c-4 -3 -7 -48 -7 -99 0 -93 0 -94 27 -100 47 -12 58 5
61 96 2 52 -1 87 -9 96 -12 14 -60 19 -72 7z"/>
<path d="M10908 11589 c-15 -8 -18 -25 -18 -97 0 -93 8 -112 45 -112 37 0 45
20 45 105 0 67 -3 85 -18 98 -21 19 -30 20 -54 6z"/>
<path d="M10908 11339 c-15 -8 -18 -25 -18 -97 0 -94 8 -112 47 -112 32 0 43
28 43 114 0 94 -23 124 -72 95z"/>
<path d="M10410 11160 c0 -56 3 -70 15 -70 12 0 15 14 15 70 0 56 -3 70 -15
70 -12 0 -15 -14 -15 -70z"/>
<path d="M10908 11089 c-15 -8 -18 -25 -18 -97 0 -90 8 -112 41 -112 37 0 49
28 49 110 0 99 -22 129 -72 99z"/>
<path d="M10410 10910 c0 -56 3 -70 15 -70 12 0 15 14 15 70 0 56 -3 70 -15
70 -12 0 -15 -14 -15 -70z"/>
<path d="M10902 10838 c-16 -16 -16 -180 0 -196 17 -17 44 -15 62 4 12 11 16
36 16 94 0 58 -4 83 -16 94 -18 19 -45 21 -62 4z"/>
<path d="M10410 10660 c0 -56 3 -70 15 -70 12 0 15 14 15 70 0 56 -3 70 -15
70 -12 0 -15 -14 -15 -70z"/>
<path d="M10902 10588 c-16 -16 -16 -180 0 -196 17 -17 44 -15 62 4 12 11 16
36 16 94 0 58 -4 83 -16 94 -18 19 -45 21 -62 4z"/>
<path d="M10410 10415 c0 -51 3 -65 15 -65 12 0 15 14 15 65 0 51 -3 65 -15
65 -12 0 -15 -14 -15 -65z"/>
<path d="M10902 10338 c-8 -8 -12 -45 -12 -100 0 -76 2 -89 19 -98 27 -14 37
-13 55 6 12 11 16 36 16 94 0 58 -4 83 -16 94 -18 19 -45 21 -62 4z"/>
<path d="M10410 10165 c0 -51 3 -65 15 -65 8 0 15 -7 15 -15 0 -12 14 -15 65
-15 51 0 65 3 65 15 0 12 -14 15 -65 15 l-65 0 0 65 c0 51 -3 65 -15 65 -12 0
-15 -14 -15 -65z"/>
<path d="M9440 10085 c0 -12 14 -15 70 -15 56 0 70 3 70 15 0 12 -14 15 -70
15 -56 0 -70 -3 -70 -15z"/>
<path d="M9690 10085 c0 -12 14 -15 65 -15 51 0 65 3 65 15 0 12 -14 15 -65
15 -51 0 -65 -3 -65 -15z"/>
<path d="M9940 10085 c0 -12 14 -15 65 -15 51 0 65 3 65 15 0 12 -14 15 -65
15 -51 0 -65 -3 -65 -15z"/>
<path d="M10190 10085 c0 -12 14 -15 65 -15 51 0 65 3 65 15 0 12 -14 15 -65
15 -51 0 -65 -3 -65 -15z"/>
<path d="M10690 10085 c0 -12 14 -15 65 -15 51 0 65 3 65 15 0 12 -14 15 -65
15 -51 0 -65 -3 -65 -15z"/>
<path d="M10902 10088 c-8 -8 -12 -45 -12 -100 0 -76 2 -89 19 -98 27 -14 37
-13 55 6 12 11 16 36 16 95 l0 79 45 0 c33 0 45 4 45 15 0 12 -15 15 -78 15
-47 0 -83 -5 -90 -12z"/>
<path d="M11180 10085 c0 -12 14 -15 70 -15 56 0 70 3 70 15 0 12 -14 15 -70
15 -56 0 -70 -3 -70 -15z"/>
<path d="M11430 10085 c0 -12 14 -15 70 -15 56 0 70 3 70 15 0 12 -14 15 -70
15 -56 0 -70 -3 -70 -15z"/>
<path d="M11680 10085 c0 -12 14 -15 70 -15 56 0 70 3 70 15 0 12 -14 15 -70
15 -56 0 -70 -3 -70 -15z"/>
<path d="M11930 10085 c0 -12 14 -15 70 -15 56 0 70 3 70 15 0 12 -14 15 -70
15 -56 0 -70 -3 -70 -15z"/>
<path d="M12180 10085 c0 -12 14 -15 70 -15 56 0 70 3 70 15 0 12 -14 15 -70
15 -56 0 -70 -3 -70 -15z"/>
<path d="M12430 10085 c0 -12 14 -15 65 -15 51 0 65 3 65 15 0 12 -14 15 -65
15 -51 0 -65 -3 -65 -15z"/>
<path d="M10410 9915 c0 -51 3 -65 15 -65 12 0 15 14 15 65 0 51 -3 65 -15 65
-12 0 -15 -14 -15 -65z"/>
<path d="M12780 9915 c0 -37 4 -65 10 -65 6 0 10 28 10 65 0 37 -4 65 -10 65
-6 0 -10 -28 -10 -65z"/>
<path d="M10902 9838 c-8 -8 -12 -45 -12 -100 0 -85 1 -89 25 -100 21 -9 28
-8 45 7 17 15 20 31 20 100 0 85 -8 105 -45 105 -12 0 -26 -5 -33 -12z"/>
<path d="M10410 9665 c0 -51 3 -65 15 -65 12 0 15 14 15 65 0 51 -3 65 -15 65
-12 0 -15 -14 -15 -65z"/>
<path d="M12780 9665 c0 -37 4 -65 10 -65 6 0 10 28 10 65 0 37 -4 65 -10 65
-6 0 -10 -28 -10 -65z"/>
<path d="M10902 9592 c-9 -6 -12 -34 -10 -103 l3 -94 28 -3 c48 -6 57 11 57
102 0 50 -5 87 -12 94 -14 14 -47 16 -66 4z"/>
<path d="M10410 9415 c0 -51 3 -65 15 -65 12 0 15 14 15 65 0 51 -3 65 -15 65
-12 0 -15 -14 -15 -65z"/>
<path d="M12780 9415 c0 -37 4 -65 10 -65 6 0 10 28 10 65 0 37 -4 65 -10 65
-6 0 -10 -28 -10 -65z"/>
<path d="M10894 9337 c-3 -8 -4 -54 -2 -103 l3 -89 28 -3 c48 -6 57 11 57 102
0 50 -5 87 -12 94 -16 16 -67 15 -74 -1z"/>
<path d="M10410 9165 c0 -51 3 -65 15 -65 12 0 15 14 15 65 0 51 -3 65 -15 65
-12 0 -15 -14 -15 -65z"/>
<path d="M12780 9165 c0 -37 4 -65 10 -65 6 0 10 28 10 65 0 37 -4 65 -10 65
-6 0 -10 -28 -10 -65z"/>
<path d="M10897 9093 c-4 -3 -7 -45 -7 -93 0 -91 8 -110 45 -110 37 0 45 20
45 105 0 50 -5 86 -12 93 -13 13 -60 16 -71 5z"/>
<path d="M10410 8920 c0 -56 3 -70 15 -70 12 0 15 14 15 70 0 56 -3 70 -15 70
-12 0 -15 -14 -15 -70z"/>
<path d="M12780 8920 c0 -40 4 -70 10 -70 6 0 10 30 10 70 0 40 -4 70 -10 70
-6 0 -10 -30 -10 -70z"/>
<path d="M10908 8849 c-15 -8 -18 -25 -18 -97 0 -94 8 -112 47 -112 32 0 43
28 43 113 0 59 -4 77 -18 90 -21 19 -30 20 -54 6z"/>
<path d="M10410 8670 c0 -56 3 -70 15 -70 12 0 15 14 15 70 0 56 -3 70 -15 70
-12 0 -15 -14 -15 -70z"/>
<path d="M12780 8670 c0 -40 4 -70 10 -70 6 0 10 30 10 70 0 40 -4 70 -10 70
-6 0 -10 -30 -10 -70z"/>
<path d="M10908 8599 c-15 -8 -18 -25 -18 -97 0 -94 8 -112 47 -112 32 0 43
28 43 114 0 94 -23 124 -72 95z"/>
<path d="M8050 8420 c0 -56 3 -70 15 -70 12 0 15 14 15 70 0 56 -3 70 -15 70
-12 0 -15 -14 -15 -70z"/>
<path d="M10410 8420 c0 -56 3 -70 15 -70 12 0 15 14 15 70 0 56 -3 70 -15 70
-12 0 -15 -14 -15 -70z"/>
<path d="M12780 8420 c0 -40 4 -70 10 -70 6 0 10 30 10 70 0 40 -4 70 -10 70
-6 0 -10 -30 -10 -70z"/>
<path d="M10908 8349 c-15 -8 -18 -25 -18 -97 0 -90 8 -112 41 -112 37 0 49
28 49 110 0 99 -22 129 -72 99z"/>
<path d="M8050 8170 c0 -56 3 -70 15 -70 12 0 15 14 15 70 0 56 -3 70 -15 70
-12 0 -15 -14 -15 -70z"/>
<path d="M10410 8170 c0 -56 3 -70 15 -70 12 0 15 14 15 70 0 56 -3 70 -15 70
-12 0 -15 -14 -15 -70z"/>
<path d="M12780 8170 c0 -40 4 -70 10 -70 6 0 10 30 10 70 0 40 -4 70 -10 70
-6 0 -10 -30 -10 -70z"/>
<path d="M10902 8098 c-16 -16 -16 -180 0 -196 17 -17 44 -15 62 4 12 11 16
36 16 94 0 58 -4 83 -16 94 -18 19 -45 21 -62 4z"/>
<path d="M8050 7925 c0 -51 3 -65 15 -65 12 0 15 14 15 65 0 51 -3 65 -15 65
-12 0 -15 -14 -15 -65z"/>
<path d="M10410 7925 c0 -51 3 -65 15 -65 12 0 15 14 15 65 0 51 -3 65 -15 65
-12 0 -15 -14 -15 -65z"/>
<path d="M12780 7925 c0 -37 4 -65 10 -65 6 0 10 28 10 65 0 37 -4 65 -10 65
-6 0 -10 -28 -10 -65z"/>
<path d="M10902 7848 c-18 -18 -16 -182 3 -198 25 -21 65 -4 72 30 5 28 9 30
49 30 32 0 44 4 44 15 0 11 -12 15 -45 15 l-45 0 0 44 c0 63 -43 99 -78 64z"/>
<path d="M7450 7725 c0 -12 14 -15 65 -15 51 0 65 3 65 15 0 12 -14 15 -65 15
-51 0 -65 -3 -65 -15z"/>
<path d="M7700 7725 c0 -12 14 -15 65 -15 51 0 65 3 65 15 0 12 -14 15 -65 15
-51 0 -65 -3 -65 -15z"/>
<path d="M7950 7725 c0 -11 12 -15 50 -15 l50 0 0 -50 c0 -38 4 -50 15 -50 12
0 15 14 15 65 l0 65 -65 0 c-51 0 -65 -3 -65 -15z"/>
<path d="M8200 7725 c0 -12 14 -15 65 -15 51 0 65 3 65 15 0 12 -14 15 -65 15
-51 0 -65 -3 -65 -15z"/>
<path d="M8450 7725 c0 -12 14 -15 65 -15 51 0 65 3 65 15 0 12 -14 15 -65 15
-51 0 -65 -3 -65 -15z"/>
<path d="M8690 7725 c0 -12 14 -15 70 -15 56 0 70 3 70 15 0 12 -14 15 -70 15
-56 0 -70 -3 -70 -15z"/>
<path d="M8940 7725 c0 -12 14 -15 70 -15 56 0 70 3 70 15 0 12 -14 15 -70 15
-56 0 -70 -3 -70 -15z"/>
<path d="M9190 7725 c0 -12 14 -15 70 -15 56 0 70 3 70 15 0 12 -14 15 -70 15
-56 0 -70 -3 -70 -15z"/>
<path d="M9440 7725 c0 -12 14 -15 70 -15 56 0 70 3 70 15 0 12 -14 15 -70 15
-56 0 -70 -3 -70 -15z"/>
<path d="M9690 7725 c0 -12 14 -15 65 -15 51 0 65 3 65 15 0 12 -14 15 -65 15
-51 0 -65 -3 -65 -15z"/>
<path d="M9940 7725 c0 -12 14 -15 65 -15 51 0 65 3 65 15 0 12 -14 15 -65 15
-51 0 -65 -3 -65 -15z"/>
<path d="M10190 7725 c0 -12 14 -15 65 -15 51 0 65 3 65 15 0 12 -14 15 -65
15 -51 0 -65 -3 -65 -15z"/>
<path d="M10410 7675 c0 -51 3 -65 15 -65 11 0 15 12 15 50 l0 50 65 0 c51 0
65 3 65 15 0 12 -16 15 -80 15 l-80 0 0 -65z"/>
<path d="M10690 7725 c0 -12 14 -15 65 -15 51 0 65 3 65 15 0 12 -14 15 -65
15 -51 0 -65 -3 -65 -15z"/>
<path d="M11180 7725 c0 -12 14 -15 70 -15 56 0 70 3 70 15 0 12 -14 15 -70
15 -56 0 -70 -3 -70 -15z"/>
<path d="M11430 7725 c0 -12 14 -15 70 -15 56 0 70 3 70 15 0 12 -14 15 -70
15 -56 0 -70 -3 -70 -15z"/>
<path d="M11680 7725 c0 -12 14 -15 70 -15 56 0 70 3 70 15 0 12 -14 15 -70
15 -56 0 -70 -3 -70 -15z"/>
<path d="M11930 7725 c0 -12 14 -15 70 -15 56 0 70 3 70 15 0 12 -14 15 -70
15 -56 0 -70 -3 -70 -15z"/>
<path d="M12180 7725 c0 -12 14 -15 70 -15 56 0 70 3 70 15 0 12 -14 15 -70
15 -56 0 -70 -3 -70 -15z"/>
<path d="M12430 7725 c0 -12 14 -15 65 -15 51 0 65 3 65 15 0 12 -14 15 -65
15 -51 0 -65 -3 -65 -15z"/>
<path d="M12680 7725 c0 -11 12 -15 50 -15 l50 0 0 -50 c0 -27 5 -50 10 -50 6
0 10 19 10 43 0 23 3 52 6 65 6 21 4 22 -60 22 -52 0 -66 -3 -66 -15z"/>
<path d="M12930 7725 c0 -12 14 -15 65 -15 51 0 65 3 65 15 0 12 -14 15 -65
15 -51 0 -65 -3 -65 -15z"/>
<path d="M13180 7725 c0 -12 14 -15 65 -15 51 0 65 3 65 15 0 12 -14 15 -65
15 -51 0 -65 -3 -65 -15z"/>
<path d="M13430 7725 c0 -12 14 -15 65 -15 51 0 65 3 65 15 0 12 -14 15 -65
15 -51 0 -65 -3 -65 -15z"/>
<path d="M13680 7725 c0 -12 14 -15 65 -15 51 0 65 3 65 15 0 12 -14 15 -65
15 -51 0 -65 -3 -65 -15z"/>
<path d="M13920 7725 c0 -12 14 -15 70 -15 56 0 70 3 70 15 0 12 -14 15 -70
15 -56 0 -70 -3 -70 -15z"/>
<path d="M10902 7598 c-8 -8 -12 -45 -12 -100 0 -76 2 -89 19 -98 27 -14 37
-13 55 6 12 11 16 36 16 94 0 58 -4 83 -16 94 -18 19 -45 21 -62 4z"/>
<path d="M8050 7425 c0 -51 3 -65 15 -65 12 0 15 14 15 65 0 51 -3 65 -15 65
-12 0 -15 -14 -15 -65z"/>
<path d="M10410 7425 c0 -51 3 -65 15 -65 12 0 15 14 15 65 0 51 -3 65 -15 65
-12 0 -15 -14 -15 -65z"/>
<path d="M12780 7425 c0 -37 4 -65 10 -65 6 0 10 28 10 65 0 37 -4 65 -10 65
-6 0 -10 -28 -10 -65z"/>
<path d="M10902 7348 c-8 -8 -12 -45 -12 -100 0 -85 1 -89 25 -100 21 -9 28
-8 45 7 17 15 20 31 20 92 0 41 -5 83 -10 94 -12 21 -50 25 -68 7z"/>
<path d="M8050 7175 c0 -51 3 -65 15 -65 12 0 15 14 15 65 0 51 -3 65 -15 65
-12 0 -15 -14 -15 -65z"/>
<path d="M10410 7175 c0 -51 3 -65 15 -65 12 0 15 14 15 65 0 51 -3 65 -15 65
-12 0 -15 -14 -15 -65z"/>
<path d="M12780 7175 c0 -37 4 -65 10 -65 6 0 10 28 10 65 0 37 -4 65 -10 65
-6 0 -10 -28 -10 -65z"/>
<path d="M10902 7098 c-8 -8 -12 -45 -12 -100 0 -78 2 -88 21 -98 16 -9 26 -8
45 5 22 14 24 22 24 98 0 87 -8 107 -45 107 -12 0 -26 -5 -33 -12z"/>
<path d="M8050 6925 c0 -51 3 -65 15 -65 12 0 15 14 15 65 0 51 -3 65 -15 65
-12 0 -15 -14 -15 -65z"/>
<path d="M10410 6925 c0 -51 3 -65 15 -65 12 0 15 14 15 65 0 51 -3 65 -15 65
-12 0 -15 -14 -15 -65z"/>
<path d="M12780 6925 c0 -37 4 -65 10 -65 6 0 10 28 10 65 0 37 -4 65 -10 65
-6 0 -10 -28 -10 -65z"/>
<path d="M10894 6847 c-3 -8 -4 -54 -2 -103 l3 -89 28 -3 c48 -6 57 11 57 102
0 50 -5 87 -12 94 -16 16 -67 15 -74 -1z"/>
<path d="M8050 6675 c0 -51 3 -65 15 -65 12 0 15 14 15 65 0 51 -3 65 -15 65
-12 0 -15 -14 -15 -65z"/>
<path d="M10410 6675 c0 -51 3 -65 15 -65 12 0 15 14 15 65 0 51 -3 65 -15 65
-12 0 -15 -14 -15 -65z"/>
<path d="M12780 6675 c0 -37 4 -65 10 -65 6 0 10 28 10 65 0 37 -4 65 -10 65
-6 0 -10 -28 -10 -65z"/>
<path d="M10897 6603 c-4 -3 -7 -48 -7 -99 0 -93 0 -94 27 -100 47 -12 58 5
61 96 2 52 -1 87 -9 96 -12 14 -60 19 -72 7z"/>
<path d="M8050 6430 c0 -56 3 -70 15 -70 12 0 15 14 15 70 0 56 -3 70 -15 70
-12 0 -15 -14 -15 -70z"/>
<path d="M10410 6430 c0 -56 3 -70 15 -70 12 0 15 14 15 70 0 56 -3 70 -15 70
-12 0 -15 -14 -15 -70z"/>
<path d="M12780 6430 c0 -40 4 -70 10 -70 6 0 10 30 10 70 0 40 -4 70 -10 70
-6 0 -10 -30 -10 -70z"/>
<path d="M10908 6359 c-15 -8 -18 -25 -18 -97 0 -93 8 -112 45 -112 37 0 45
20 45 105 0 67 -3 85 -18 98 -21 19 -30 20 -54 6z"/>
<path d="M8050 6180 c0 -56 3 -70 15 -70 12 0 15 14 15 70 0 56 -3 70 -15 70
-12 0 -15 -14 -15 -70z"/>
<path d="M10410 6180 c0 -56 3 -70 15 -70 12 0 15 14 15 70 0 56 -3 70 -15 70
-12 0 -15 -14 -15 -70z"/>
<path d="M12780 6180 c0 -40 4 -70 10 -70 6 0 10 30 10 70 0 40 -4 70 -10 70
-6 0 -10 -30 -10 -70z"/>
<path d="M10908 6109 c-15 -8 -18 -25 -18 -97 0 -94 8 -112 47 -112 32 0 43
28 43 114 0 94 -23 124 -72 95z"/>
<path d="M8050 5930 c0 -56 3 -70 15 -70 12 0 15 14 15 70 0 56 -3 70 -15 70
-12 0 -15 -14 -15 -70z"/>
<path d="M10410 5930 c0 -56 3 -70 15 -70 12 0 15 14 15 70 0 56 -3 70 -15 70
-12 0 -15 -14 -15 -70z"/>
<path d="M12780 5930 c0 -40 4 -70 10 -70 6 0 10 30 10 70 0 40 -4 70 -10 70
-6 0 -10 -30 -10 -70z"/>
<path d="M10908 5859 c-15 -8 -18 -25 -18 -97 0 -90 8 -112 41 -112 37 0 49
28 49 110 0 99 -22 129 -72 99z"/>
<path d="M8050 5680 c0 -56 3 -70 15 -70 12 0 15 14 15 70 0 56 -3 70 -15 70
-12 0 -15 -14 -15 -70z"/>
<path d="M10410 5680 c0 -56 3 -70 15 -70 12 0 15 14 15 70 0 56 -3 70 -15 70
-12 0 -15 -14 -15 -70z"/>
<path d="M12780 5680 c0 -40 4 -70 10 -70 6 0 10 30 10 70 0 40 -4 70 -10 70
-6 0 -10 -30 -10 -70z"/>
<path d="M10902 5608 c-16 -16 -16 -180 0 -196 17 -17 44 -15 62 4 12 11 16
36 16 94 0 58 -4 83 -16 94 -18 19 -45 21 -62 4z"/>
<path d="M5690 5431 c0 -54 4 -70 16 -75 26 -10 134 -7 134 4 0 6 -27 10 -60
10 l-60 0 0 65 c0 51 -3 65 -15 65 -12 0 -15 -14 -15 -69z"/>
<path d="M8050 5435 l0 -65 -50 0 c-27 0 -50 -4 -50 -10 0 -6 28 -10 65 -10
l65 0 0 75 c0 60 -3 75 -15 75 -12 0 -15 -14 -15 -65z"/>
<path d="M10410 5431 c0 -63 2 -69 23 -75 36 -10 137 -7 137 4 0 6 -28 10 -65
10 l-65 0 0 65 c0 51 -3 65 -15 65 -12 0 -15 -14 -15 -69z"/>
<path d="M12780 5435 l0 -65 -50 0 c-27 0 -50 -4 -50 -10 0 -6 29 -10 66 -10
56 0 65 2 60 16 -3 9 -6 42 -6 75 0 33 -4 59 -10 59 -6 0 -10 -28 -10 -65z"/>
<path d="M5460 5360 c0 -6 28 -10 65 -10 37 0 65 4 65 10 0 6 -28 10 -65 10
-37 0 -65 -4 -65 -10z"/>
<path d="M5950 5360 c0 -6 30 -10 70 -10 40 0 70 4 70 10 0 6 -30 10 -70 10
-40 0 -70 -4 -70 -10z"/>
<path d="M6200 5360 c0 -6 30 -10 70 -10 40 0 70 4 70 10 0 6 -30 10 -70 10
-40 0 -70 -4 -70 -10z"/>
<path d="M6450 5360 c0 -6 30 -10 70 -10 40 0 70 4 70 10 0 6 -30 10 -70 10
-40 0 -70 -4 -70 -10z"/>
<path d="M6700 5360 c0 -6 30 -10 70 -10 40 0 70 4 70 10 0 6 -30 10 -70 10
-40 0 -70 -4 -70 -10z"/>
<path d="M6950 5360 c0 -6 30 -10 70 -10 40 0 70 4 70 10 0 6 -30 10 -70 10
-40 0 -70 -4 -70 -10z"/>
<path d="M7200 5360 c0 -6 28 -10 65 -10 37 0 65 4 65 10 0 6 -28 10 -65 10
-37 0 -65 -4 -65 -10z"/>
<path d="M7450 5360 c0 -6 28 -10 65 -10 37 0 65 4 65 10 0 6 -28 10 -65 10
-37 0 -65 -4 -65 -10z"/>
<path d="M7700 5360 c0 -6 28 -10 65 -10 37 0 65 4 65 10 0 6 -28 10 -65 10
-37 0 -65 -4 -65 -10z"/>
<path d="M8200 5360 c0 -6 28 -10 65 -10 37 0 65 4 65 10 0 6 -28 10 -65 10
-37 0 -65 -4 -65 -10z"/>
<path d="M8450 5360 c0 -6 28 -10 65 -10 37 0 65 4 65 10 0 6 -28 10 -65 10
-37 0 -65 -4 -65 -10z"/>
<path d="M8690 5360 c0 -6 30 -10 70 -10 40 0 70 4 70 10 0 6 -30 10 -70 10
-40 0 -70 -4 -70 -10z"/>
<path d="M8940 5360 c0 -6 30 -10 70 -10 40 0 70 4 70 10 0 6 -30 10 -70 10
-40 0 -70 -4 -70 -10z"/>
<path d="M9190 5360 c0 -6 30 -10 70 -10 40 0 70 4 70 10 0 6 -30 10 -70 10
-40 0 -70 -4 -70 -10z"/>
<path d="M9440 5360 c0 -6 30 -10 70 -10 40 0 70 4 70 10 0 6 -30 10 -70 10
-40 0 -70 -4 -70 -10z"/>
<path d="M9690 5360 c0 -6 28 -10 65 -10 37 0 65 4 65 10 0 6 -28 10 -65 10
-37 0 -65 -4 -65 -10z"/>
<path d="M9940 5360 c0 -6 28 -10 65 -10 37 0 65 4 65 10 0 6 -28 10 -65 10
-37 0 -65 -4 -65 -10z"/>
<path d="M10190 5360 c0 -6 28 -10 65 -10 37 0 65 4 65 10 0 6 -28 10 -65 10
-37 0 -65 -4 -65 -10z"/>
<path d="M10690 5360 c0 -6 28 -10 65 -10 37 0 65 4 65 10 0 6 -28 10 -65 10
-37 0 -65 -4 -65 -10z"/>
<path d="M10902 5358 c-7 -7 -12 -45 -12 -99 0 -96 11 -116 55 -105 31 8 38
33 33 125 l-3 71 48 0 c26 0 47 5 47 10 0 15 -153 13 -168 -2z"/>
<path d="M11180 5360 c0 -6 30 -10 70 -10 40 0 70 4 70 10 0 6 -30 10 -70 10
-40 0 -70 -4 -70 -10z"/>
<path d="M11430 5360 c0 -6 30 -10 70 -10 40 0 70 4 70 10 0 6 -30 10 -70 10
-40 0 -70 -4 -70 -10z"/>
<path d="M11680 5360 c0 -6 30 -10 70 -10 40 0 70 4 70 10 0 6 -30 10 -70 10
-40 0 -70 -4 -70 -10z"/>
<path d="M11930 5360 c0 -6 30 -10 70 -10 40 0 70 4 70 10 0 6 -30 10 -70 10
-40 0 -70 -4 -70 -10z"/>
<path d="M12180 5360 c0 -6 30 -10 70 -10 40 0 70 4 70 10 0 6 -30 10 -70 10
-40 0 -70 -4 -70 -10z"/>
<path d="M12430 5360 c0 -6 28 -10 65 -10 37 0 65 4 65 10 0 6 -28 10 -65 10
-37 0 -65 -4 -65 -10z"/>
<path d="M12930 5360 c0 -6 28 -10 65 -10 37 0 65 4 65 10 0 6 -28 10 -65 10
-37 0 -65 -4 -65 -10z"/>
<path d="M13180 5360 c0 -6 28 -10 65 -10 37 0 65 4 65 10 0 6 -28 10 -65 10
-37 0 -65 -4 -65 -10z"/>
<path d="M13430 5360 c0 -6 28 -10 65 -10 37 0 65 4 65 10 0 6 -28 10 -65 10
-37 0 -65 -4 -65 -10z"/>
<path d="M13680 5360 c0 -6 28 -10 65 -10 37 0 65 4 65 10 0 6 -28 10 -65 10
-37 0 -65 -4 -65 -10z"/>
<path d="M13920 5360 c0 -6 30 -10 70 -10 40 0 70 4 70 10 0 6 -30 10 -70 10
-40 0 -70 -4 -70 -10z"/>
<path d="M14170 5360 c0 -6 30 -10 70 -10 40 0 70 4 70 10 0 6 -30 10 -70 10
-40 0 -70 -4 -70 -10z"/>
<path d="M14420 5360 c0 -6 30 -10 70 -10 40 0 70 4 70 10 0 6 -30 10 -70 10
-40 0 -70 -4 -70 -10z"/>
<path d="M14670 5360 c0 -6 30 -10 70 -10 40 0 70 4 70 10 0 6 -30 10 -70 10
-40 0 -70 -4 -70 -10z"/>
<path d="M5690 5185 c0 -51 3 -65 15 -65 12 0 15 14 15 65 0 51 -3 65 -15 65
-12 0 -15 -14 -15 -65z"/>
<path d="M8050 5185 c0 -51 3 -65 15 -65 12 0 15 14 15 65 0 51 -3 65 -15 65
-12 0 -15 -14 -15 -65z"/>
<path d="M10410 5185 c0 -51 3 -65 15 -65 12 0 15 14 15 65 0 51 -3 65 -15 65
-12 0 -15 -14 -15 -65z"/>
<path d="M12780 5185 c0 -37 4 -65 10 -65 6 0 10 28 10 65 0 37 -4 65 -10 65
-6 0 -10 -28 -10 -65z"/>
<path d="M10902 5108 c-8 -8 -12 -45 -12 -100 0 -76 2 -89 19 -98 27 -14 37
-13 55 6 12 11 16 36 16 94 0 58 -4 83 -16 94 -18 19 -45 21 -62 4z"/>
<path d="M5690 4935 c0 -51 3 -65 15 -65 12 0 15 14 15 65 0 51 -3 65 -15 65
-12 0 -15 -14 -15 -65z"/>
<path d="M8050 4935 c0 -51 3 -65 15 -65 12 0 15 14 15 65 0 51 -3 65 -15 65
-12 0 -15 -14 -15 -65z"/>
<path d="M10410 4935 c0 -51 3 -65 15 -65 12 0 15 14 15 65 0 51 -3 65 -15 65
-12 0 -15 -14 -15 -65z"/>
<path d="M12780 4935 c0 -37 4 -65 10 -65 6 0 10 28 10 65 0 37 -4 65 -10 65
-6 0 -10 -28 -10 -65z"/>
<path d="M10902 4858 c-8 -8 -12 -45 -12 -100 0 -76 2 -89 19 -98 27 -14 37
-13 55 6 19 18 23 153 6 185 -12 21 -50 25 -68 7z"/>
<path d="M5690 4685 c0 -51 3 -65 15 -65 12 0 15 14 15 65 0 51 -3 65 -15 65
-12 0 -15 -14 -15 -65z"/>
<path d="M8050 4685 c0 -51 3 -65 15 -65 12 0 15 14 15 65 0 51 -3 65 -15 65
-12 0 -15 -14 -15 -65z"/>
<path d="M10410 4685 c0 -51 3 -65 15 -65 12 0 15 14 15 65 0 51 -3 65 -15 65
-12 0 -15 -14 -15 -65z"/>
<path d="M12780 4685 c0 -37 4 -65 10 -65 6 0 10 28 10 65 0 37 -4 65 -10 65
-6 0 -10 -28 -10 -65z"/>
<path d="M10902 4608 c-8 -8 -12 -45 -12 -100 0 -85 1 -89 25 -100 21 -9 28
-8 45 7 17 15 20 31 20 92 0 41 -5 83 -10 94 -12 21 -50 25 -68 7z"/>
<path d="M5690 4435 c0 -51 3 -65 15 -65 12 0 15 14 15 65 0 51 -3 65 -15 65
-12 0 -15 -14 -15 -65z"/>
<path d="M8050 4435 c0 -51 3 -65 15 -65 12 0 15 14 15 65 0 51 -3 65 -15 65
-12 0 -15 -14 -15 -65z"/>
<path d="M10410 4435 c0 -51 3 -65 15 -65 12 0 15 14 15 65 0 51 -3 65 -15 65
-12 0 -15 -14 -15 -65z"/>
<path d="M12780 4435 c0 -37 4 -65 10 -65 6 0 10 28 10 65 0 37 -4 65 -10 65
-6 0 -10 -28 -10 -65z"/>
<path d="M5828 4420 c-112 -34 -208 -164 -208 -283 0 -59 23 -120 54 -146 11
-9 16 -31 16 -67 0 -41 4 -54 15 -54 11 0 15 12 15 44 l0 43 79 5 c65 4 88 10
137 38 34 19 60 28 62 22 2 -6 12 -22 23 -36 40 -50 149 -23 149 37 0 25 -24
21 -35 -5 -15 -34 -53 -36 -65 -3 -18 49 -11 83 29 143 67 97 111 222 79 222
-9 0 -20 -18 -27 -42 -7 -24 -29 -74 -49 -113 l-37 -70 -5 75 c-7 99 -32 148
-90 178 -45 22 -94 27 -142 12z m103 -30 c38 -21 52 -69 57 -196 l5 -121 -31
-22 c-50 -35 -120 -62 -167 -64 -53 -2 -81 20 -96 77 -9 33 -8 42 5 52 11 8
16 27 16 63 0 85 39 156 108 198 40 25 73 29 103 13z"/>
<path d="M10901 4356 c-8 -9 -11 -46 -9 -103 l3 -88 28 -3 c48 -6 57 11 57
102 0 50 -5 87 -12 94 -16 16 -53 15 -67 -2z"/>
<path d="M8050 4185 c0 -51 3 -65 15 -65 12 0 15 14 15 65 0 51 -3 65 -15 65
-12 0 -15 -14 -15 -65z"/>
<path d="M10410 4185 c0 -51 3 -65 15 -65 12 0 15 14 15 65 0 51 -3 65 -15 65
-12 0 -15 -14 -15 -65z"/>
<path d="M12780 4185 c0 -37 4 -65 10 -65 6 0 10 28 10 65 0 37 -4 65 -10 65
-6 0 -10 -28 -10 -65z"/>
<path d="M10894 4107 c-3 -8 -4 -54 -2 -103 l3 -89 28 -3 c48 -6 57 11 57 102
0 50 -5 87 -12 94 -16 16 -67 15 -74 -1z"/>
<path d="M8050 3935 c0 -51 3 -65 15 -65 12 0 15 14 15 65 0 51 -3 65 -15 65
-12 0 -15 -14 -15 -65z"/>
<path d="M10410 3935 c0 -51 3 -65 15 -65 12 0 15 14 15 65 0 51 -3 65 -15 65
-12 0 -15 -14 -15 -65z"/>
<path d="M12780 3935 c0 -37 4 -65 10 -65 6 0 10 28 10 65 0 37 -4 65 -10 65
-6 0 -10 -28 -10 -65z"/>
<path d="M10897 3863 c-4 -3 -7 -48 -7 -99 0 -93 0 -94 27 -100 47 -12 58 5
61 96 2 52 -1 87 -9 96 -12 14 -60 19 -72 7z"/>
<path d="M5690 3690 c0 -56 3 -70 15 -70 12 0 15 14 15 70 0 56 -3 70 -15 70
-12 0 -15 -14 -15 -70z"/>
<path d="M8050 3690 c0 -56 3 -70 15 -70 12 0 15 14 15 70 0 56 -3 70 -15 70
-12 0 -15 -14 -15 -70z"/>
<path d="M10410 3690 c0 -56 3 -70 15 -70 12 0 15 14 15 70 0 56 -3 70 -15 70
-12 0 -15 -14 -15 -70z"/>
<path d="M12780 3690 c0 -40 4 -70 10 -70 6 0 10 30 10 70 0 40 -4 70 -10 70
-6 0 -10 -30 -10 -70z"/>
<path d="M10908 3619 c-15 -8 -18 -25 -18 -97 0 -93 8 -112 45 -112 37 0 45
20 45 105 0 67 -3 85 -18 98 -21 19 -30 20 -54 6z"/>
<path d="M5690 3440 c0 -56 3 -70 15 -70 12 0 15 14 15 70 0 56 -3 70 -15 70
-12 0 -15 -14 -15 -70z"/>
<path d="M8050 3440 c0 -56 3 -70 15 -70 12 0 15 14 15 70 0 56 -3 70 -15 70
-12 0 -15 -14 -15 -70z"/>
<path d="M10410 3440 c0 -56 3 -70 15 -70 12 0 15 14 15 70 0 56 -3 70 -15 70
-12 0 -15 -14 -15 -70z"/>
<path d="M12780 3440 c0 -40 4 -70 10 -70 6 0 10 30 10 70 0 40 -4 70 -10 70
-6 0 -10 -30 -10 -70z"/>
<path d="M10908 3369 c-15 -8 -18 -25 -18 -97 0 -94 8 -112 47 -112 32 0 43
28 43 114 0 94 -23 124 -72 95z"/>
<path d="M3330 2440 c0 -33 4 -60 10 -60 6 0 10 27 10 60 0 33 -4 60 -10 60
-6 0 -10 -27 -10 -60z"/>
<path d="M17056 19403 c-31 -45 -32 -59 -7 -73 26 -13 43 -6 70 31 29 39 25
73 -11 77 -21 3 -32 -4 -52 -35z"/>
<path d="M16965 19295 c-29 -37 -30 -62 -3 -79 30 -18 95 56 83 94 -10 32 -50
25 -80 -15z"/>
<path d="M16878 19193 c-31 -34 -38 -53 -26 -75 13 -26 41 -22 70 10 31 33 38
52 26 75 -13 25 -41 21 -70 -10z"/>
<path d="M16781 19075 c-34 -39 -38 -54 -19 -73 20 -20 45 -14 72 19 29 34 34
74 10 83 -26 10 -31 8 -63 -29z"/>
<path d="M16690 18968 c-38 -41 -38 -81 1 -86 20 -2 32 5 52 32 32 41 34 62 8
76 -27 14 -26 14 -61 -22z"/>
<path d="M16618 18880 c-25 -15 -59 -76 -52 -94 6 -16 41 -21 59 -8 15 10 55
63 55 73 0 9 -29 39 -38 39 -4 0 -15 -5 -24 -10z"/>
<path d="M16495 18736 c-50 -66 1 -107 59 -47 35 37 33 75 -6 79 -20 2 -32 -5
-53 -32z"/>
<path d="M16407 18632 c-32 -33 -35 -67 -8 -81 34 -19 99 49 86 89 -9 29 -47
25 -78 -8z"/>
<path d="M16318 18523 c-36 -38 -41 -76 -12 -87 35 -13 102 62 88 98 -9 25
-48 19 -76 -11z"/>
<path d="M16226 18413 c-33 -35 -41 -60 -26 -78 19 -23 38 -18 71 18 20 21 29
40 27 57 -4 36 -40 38 -72 3z"/>
<path d="M16130 18300 c-33 -35 -39 -74 -14 -84 26 -10 47 1 73 40 19 27 22
40 14 52 -17 28 -42 25 -73 -8z"/>
<path d="M16052 18204 c-34 -23 -56 -72 -41 -90 18 -22 43 -17 71 14 34 37 40
58 22 77 -19 19 -24 19 -52 -1z"/>
<path d="M15941 18075 c-33 -37 -35 -44 -25 -69 10 -26 50 -19 78 15 28 33 33
58 14 77 -19 19 -34 14 -67 -23z"/>
<path d="M15850 17968 c-39 -42 -38 -81 2 -86 20 -2 32 5 52 31 31 40 33 63 7
77 -27 14 -26 14 -61 -22z"/>
<path d="M14366 17919 c-3 -17 -6 -35 -6 -40 0 -5 56 -9 125 -9 l125 0 -6 -27
c-4 -15 -35 -158 -69 -318 l-61 -290 44 -3 c24 -2 46 -1 48 1 2 2 34 146 71
320 l67 317 127 0 127 0 6 31 c3 17 6 35 6 40 0 5 -134 9 -299 9 l-298 0 -7
-31z"/>
<path d="M15746 17842 c-15 -22 -24 -46 -21 -54 10 -25 44 -29 65 -8 56 56 60
100 10 100 -20 0 -34 -10 -54 -38z"/>
<path d="M15656 17737 c-31 -40 -33 -63 -7 -77 27 -14 26 -14 61 23 39 41 38
80 -2 85 -20 2 -32 -5 -52 -31z"/>
<path d="M15565 17629 c-28 -35 -30 -66 -3 -83 30 -18 95 56 83 94 -10 31 -49
25 -80 -11z"/>
<path d="M15478 17523 c-31 -34 -38 -53 -26 -75 12 -25 40 -22 65 5 33 35 43
60 32 80 -14 25 -42 21 -71 -10z"/>
<path d="M15385 17413 c-32 -35 -40 -60 -25 -78 19 -23 39 -18 71 16 32 34 38
73 13 83 -25 10 -32 7 -59 -21z"/>
<path d="M14925 16864 c-45 -46 -53 -85 -19 -98 23 -9 49 9 74 49 18 29 20 38
10 50 -16 20 -45 19 -65 -1z"/>
<path d="M14820 16738 c-32 -35 -37 -57 -18 -76 19 -19 35 -14 68 21 37 38 38
80 3 85 -16 2 -33 -7 -53 -30z"/>
<path d="M14726 16629 c-53 -63 -14 -119 45 -63 35 34 45 60 29 79 -19 23 -46
18 -74 -16z"/>
<path d="M3254 16598 c-65 -77 -96 -223 -75 -350 21 -125 76 -218 130 -218
l24 0 -21 23 c-11 12 -33 49 -49 82 -26 56 -28 68 -28 195 0 127 2 139 28 195
16 33 38 70 49 82 l21 23 -25 0 c-17 0 -36 -11 -54 -32z"/>
<path d="M3803 16582 c48 -70 62 -129 62 -257 0 -124 -16 -186 -66 -254 l-29
-41 23 0 c31 0 60 32 94 105 24 52 28 75 31 171 5 130 -10 194 -60 270 -25 36
-40 50 -61 52 l-28 3 34 -49z"/>
<path d="M2730 16545 c0 -21 5 -25 30 -25 25 0 30 4 30 25 0 21 -5 25 -30 25
-25 0 -30 -4 -30 -25z"/>
<path d="M14638 16523 c-32 -36 -41 -62 -27 -79 18 -22 43 -17 71 14 34 37 40
58 22 77 -22 22 -37 19 -66 -12z"/>
<path d="M2540 16453 c-34 -12 -50 -37 -50 -74 0 -46 28 -76 79 -85 20 -4 42
-11 49 -17 15 -12 16 -44 0 -53 -16 -10 -75 -6 -99 7 -21 11 -38 0 -39 -24 0
-14 68 -37 108 -37 59 0 92 30 92 84 0 53 -20 73 -87 90 -37 9 -49 17 -51 34
-5 32 32 43 86 27 41 -13 42 -13 42 11 0 17 -8 27 -26 34 -27 11 -79 12 -104
3z"/>
<path d="M2957 16441 c-29 -15 -37 -16 -37 -5 0 8 -10 14 -25 14 l-25 0 0
-135 0 -135 30 0 30 0 0 98 c0 83 3 102 18 115 22 20 53 22 70 5 8 -8 12 -48
12 -115 l0 -103 31 0 31 0 -4 115 c-3 99 -6 117 -23 134 -31 29 -67 33 -108
12z"/>
<path d="M2730 16315 l0 -135 25 0 25 0 0 135 0 135 -25 0 -25 0 0 -135z"/>
<path d="M3505 16443 c-38 -9 -87 -56 -107 -101 -55 -123 37 -213 157 -152 39
20 39 20 60 0 28 -26 60 -25 80 2 19 27 0 39 -19 13 -7 -10 -18 -15 -24 -11
-20 12 -13 59 14 99 20 30 54 107 54 123 0 2 -5 4 -10 4 -6 0 -15 -12 -21 -27
-6 -15 -18 -44 -27 -63 l-17 -35 -7 50 c-11 78 -61 115 -133 98z m65 -33 c17
-17 20 -33 20 -99 l0 -79 -43 -21 c-52 -25 -80 -27 -101 -5 -42 41 5 188 69
215 29 12 33 11 55 -11z"/>
<path d="M14541 16405 c-17 -20 -31 -40 -31 -45 0 -50 49 -54 84 -7 29 37 32
57 14 75 -19 19 -34 14 -67 -23z"/>
<path d="M14449 16298 c-38 -42 -37 -82 3 -86 21 -3 32 4 52 35 30 44 31 47
10 67 -22 23 -31 20 -65 -16z"/>
<path d="M14377 16209 c-24 -14 -58 -75 -51 -93 4 -9 18 -16 33 -16 37 0 77
53 72 96 -1 16 -35 23 -54 13z"/>
<path d="M14256 16067 c-31 -40 -33 -63 -6 -77 16 -8 26 -4 55 21 45 40 46 82
3 87 -20 2 -32 -5 -52 -31z"/>
<path d="M14167 15962 c-49 -51 -25 -113 29 -77 35 22 57 61 49 85 -9 29 -46
25 -78 -8z"/>
<path d="M14071 15845 c-35 -41 -37 -48 -15 -69 22 -23 32 -20 65 16 21 21 29
39 27 57 -5 41 -39 39 -77 -4z"/>
<path d="M13979 15738 c-31 -35 -36 -57 -17 -76 19 -19 37 -14 69 20 31 35 36
57 17 76 -19 19 -37 14 -69 -20z"/>
<path d="M13890 15630 c-30 -32 -39 -73 -19 -85 34 -22 114 59 92 93 -17 28
-42 25 -73 -8z"/>
<path d="M13812 15534 c-28 -20 -54 -68 -46 -88 10 -25 48 -19 77 12 30 31 36
76 11 86 -20 8 -16 9 -42 -10z"/>
<path d="M13704 15406 c-43 -43 -44 -79 -3 -84 19 -2 33 5 53 28 31 38 33 65
6 80 -18 10 -26 6 -56 -24z"/>
<path d="M13606 15291 c-34 -35 -33 -74 2 -79 27 -4 48 11 68 49 30 59 -21 81
-70 30z"/>
<path d="M13506 15172 c-27 -39 -27 -66 0 -76 21 -8 38 2 63 35 29 39 25 73
-10 77 -20 2 -31 -5 -53 -36z"/>
<path d="M13416 15067 c-31 -40 -33 -63 -7 -77 27 -14 26 -14 61 23 39 41 38
80 -2 85 -20 2 -32 -5 -52 -31z"/>
<path d="M13326 14959 c-53 -63 -14 -119 45 -63 35 34 45 60 29 79 -19 23 -46
18 -74 -16z"/>
<path d="M13235 14850 c-16 -16 -35 -30 -42 -30 -18 0 -16 -6 9 -35 27 -31 45
-31 81 0 22 20 28 32 25 58 -4 44 -34 47 -73 7z"/>
<path d="M970 14810 c0 -6 30 -10 70 -10 40 0 70 4 70 10 0 6 -30 10 -70 10
-40 0 -70 -4 -70 -10z"/>
<path d="M1220 14810 c0 -6 30 -10 70 -10 40 0 70 4 70 10 0 6 -30 10 -70 10
-40 0 -70 -4 -70 -10z"/>
<path d="M1470 14810 c0 -6 30 -10 70 -10 40 0 70 4 70 10 0 6 -30 10 -70 10
-40 0 -70 -4 -70 -10z"/>
<path d="M1720 14810 c0 -6 28 -10 65 -10 37 0 65 4 65 10 0 6 -28 10 -65 10
-37 0 -65 -4 -65 -10z"/>
<path d="M1970 14810 c0 -6 28 -10 65 -10 37 0 65 4 65 10 0 6 -28 10 -65 10
-37 0 -65 -4 -65 -10z"/>
<path d="M2220 14810 c0 -6 28 -10 65 -10 37 0 65 4 65 10 0 6 -28 10 -65 10
-37 0 -65 -4 -65 -10z"/>
<path d="M2470 14810 c0 -6 28 -10 65 -10 37 0 65 4 65 10 0 6 -28 10 -65 10
-37 0 -65 -4 -65 -10z"/>
<path d="M4210 14810 c0 -6 30 -10 70 -10 40 0 70 4 70 10 0 6 -30 10 -70 10
-40 0 -70 -4 -70 -10z"/>
<path d="M4460 14810 c0 -6 28 -10 65 -10 37 0 65 4 65 10 0 6 -28 10 -65 10
-37 0 -65 -4 -65 -10z"/>
<path d="M4710 14810 c0 -6 28 -10 65 -10 37 0 65 4 65 10 0 6 -28 10 -65 10
-37 0 -65 -4 -65 -10z"/>
<path d="M4960 14810 c0 -6 28 -10 65 -10 37 0 65 4 65 10 0 6 -28 10 -65 10
-37 0 -65 -4 -65 -10z"/>
<path d="M5210 14810 c0 -6 28 -10 65 -10 37 0 65 4 65 10 0 6 -28 10 -65 10
-37 0 -65 -4 -65 -10z"/>
<path d="M5460 14810 c0 -6 28 -10 65 -10 37 0 65 4 65 10 0 6 -28 10 -65 10
-37 0 -65 -4 -65 -10z"/>
<path d="M5710 14810 c0 -6 28 -10 65 -10 37 0 65 4 65 10 0 6 -28 10 -65 10
-37 0 -65 -4 -65 -10z"/>
<path d="M5950 14810 c0 -6 30 -10 70 -10 40 0 70 4 70 10 0 6 -30 10 -70 10
-40 0 -70 -4 -70 -10z"/>
<path d="M6200 14810 c0 -6 30 -10 70 -10 40 0 70 4 70 10 0 6 -30 10 -70 10
-40 0 -70 -4 -70 -10z"/>
<path d="M6450 14810 c0 -6 30 -10 70 -10 40 0 70 4 70 10 0 6 -30 10 -70 10
-40 0 -70 -4 -70 -10z"/>
<path d="M6700 14810 c0 -6 30 -10 70 -10 40 0 70 4 70 10 0 6 -30 10 -70 10
-40 0 -70 -4 -70 -10z"/>
<path d="M6950 14810 c0 -6 30 -10 70 -10 40 0 70 4 70 10 0 6 -30 10 -70 10
-40 0 -70 -4 -70 -10z"/>
<path d="M7200 14810 c0 -6 28 -10 65 -10 37 0 65 4 65 10 0 6 -28 10 -65 10
-37 0 -65 -4 -65 -10z"/>
<path d="M7450 14810 c0 -6 28 -10 65 -10 37 0 65 4 65 10 0 6 -28 10 -65 10
-37 0 -65 -4 -65 -10z"/>
<path d="M7700 14810 c0 -6 28 -10 65 -10 37 0 65 4 65 10 0 6 -28 10 -65 10
-37 0 -65 -4 -65 -10z"/>
<path d="M7950 14810 c0 -6 28 -10 65 -10 37 0 65 4 65 10 0 6 -28 10 -65 10
-37 0 -65 -4 -65 -10z"/>
<path d="M8200 14810 c0 -6 28 -10 65 -10 37 0 65 4 65 10 0 6 -28 10 -65 10
-37 0 -65 -4 -65 -10z"/>
<path d="M8450 14810 c0 -6 28 -10 65 -10 37 0 65 4 65 10 0 6 -28 10 -65 10
-37 0 -65 -4 -65 -10z"/>
<path d="M8690 14810 c0 -6 30 -10 70 -10 40 0 70 4 70 10 0 6 -30 10 -70 10
-40 0 -70 -4 -70 -10z"/>
<path d="M8940 14810 c0 -6 30 -10 70 -10 40 0 70 4 70 10 0 6 -30 10 -70 10
-40 0 -70 -4 -70 -10z"/>
<path d="M9190 14810 c0 -6 30 -10 70 -10 40 0 70 4 70 10 0 6 -30 10 -70 10
-40 0 -70 -4 -70 -10z"/>
<path d="M9440 14810 c0 -6 30 -10 70 -10 40 0 70 4 70 10 0 6 -30 10 -70 10
-40 0 -70 -4 -70 -10z"/>
<path d="M9690 14810 c0 -6 28 -10 65 -10 37 0 65 4 65 10 0 6 -28 10 -65 10
-37 0 -65 -4 -65 -10z"/>
<path d="M9940 14810 c0 -6 28 -10 65 -10 37 0 65 4 65 10 0 6 -28 10 -65 10
-37 0 -65 -4 -65 -10z"/>
<path d="M10190 14810 c0 -6 28 -10 65 -10 37 0 65 4 65 10 0 6 -28 10 -65 10
-37 0 -65 -4 -65 -10z"/>
<path d="M10440 14810 c0 -6 28 -10 65 -10 37 0 65 4 65 10 0 6 -28 10 -65 10
-37 0 -65 -4 -65 -10z"/>
<path d="M10690 14810 c0 -6 28 -10 65 -10 37 0 65 4 65 10 0 6 -28 10 -65 10
-37 0 -65 -4 -65 -10z"/>
<path d="M10940 14810 c0 -6 28 -10 65 -10 37 0 65 4 65 10 0 6 -28 10 -65 10
-37 0 -65 -4 -65 -10z"/>
<path d="M11180 14810 c0 -6 30 -10 70 -10 40 0 70 4 70 10 0 6 -30 10 -70 10
-40 0 -70 -4 -70 -10z"/>
<path d="M11430 14810 c0 -6 30 -10 70 -10 40 0 70 4 70 10 0 6 -30 10 -70 10
-40 0 -70 -4 -70 -10z"/>
<path d="M11680 14810 c0 -6 30 -10 70 -10 40 0 70 4 70 10 0 6 -30 10 -70 10
-40 0 -70 -4 -70 -10z"/>
<path d="M11930 14810 c0 -6 30 -10 70 -10 40 0 70 4 70 10 0 6 -30 10 -70 10
-40 0 -70 -4 -70 -10z"/>
<path d="M12180 14810 c0 -6 30 -10 70 -10 40 0 70 4 70 10 0 6 -30 10 -70 10
-40 0 -70 -4 -70 -10z"/>
<path d="M12430 14810 c0 -6 28 -10 65 -10 37 0 65 4 65 10 0 6 -28 10 -65 10
-37 0 -65 -4 -65 -10z"/>
<path d="M12680 14810 c0 -6 28 -10 65 -10 37 0 65 4 65 10 0 6 -28 10 -65 10
-37 0 -65 -4 -65 -10z"/>
<path d="M12930 14810 c0 -6 28 -10 65 -10 37 0 65 4 65 10 0 6 -28 10 -65 10
-37 0 -65 -4 -65 -10z"/>
<path d="M13430 14810 c0 -6 28 -10 65 -10 37 0 65 4 65 10 0 6 -28 10 -65 10
-37 0 -65 -4 -65 -10z"/>
<path d="M13680 14810 c0 -6 28 -10 65 -10 37 0 65 4 65 10 0 6 -28 10 -65 10
-37 0 -65 -4 -65 -10z"/>
<path d="M13920 14810 c0 -6 30 -10 70 -10 40 0 70 4 70 10 0 6 -30 10 -70 10
-40 0 -70 -4 -70 -10z"/>
<path d="M14170 14810 c0 -6 30 -10 70 -10 40 0 70 4 70 10 0 6 -30 10 -70 10
-40 0 -70 -4 -70 -10z"/>
<path d="M14420 14810 c0 -6 30 -10 70 -10 40 0 70 4 70 10 0 6 -30 10 -70 10
-40 0 -70 -4 -70 -10z"/>
<path d="M14670 14810 c0 -6 30 -10 70 -10 40 0 70 4 70 10 0 6 -30 10 -70 10
-40 0 -70 -4 -70 -10z"/>
<path d="M14920 14810 c0 -6 30 -10 70 -10 40 0 70 4 70 10 0 6 -30 10 -70 10
-40 0 -70 -4 -70 -10z"/>
<path d="M13141 14738 c-32 -34 -35 -45 -25 -72 10 -25 44 -19 75 15 31 33 36
58 17 77 -19 19 -35 14 -67 -20z"/>
<path d="M8050 14645 c0 -51 3 -65 15 -65 12 0 15 14 15 65 0 51 -3 65 -15 65
-12 0 -15 -14 -15 -65z"/>
<path d="M10410 14645 c0 -51 3 -65 15 -65 12 0 15 14 15 65 0 51 -3 65 -15
65 -12 0 -15 -14 -15 -65z"/>
<path d="M12780 14645 c0 -37 4 -65 10 -65 6 0 10 28 10 65 0 37 -4 65 -10 65
-6 0 -10 -28 -10 -65z"/>
<path d="M13049 14628 c-44 -49 -37 -97 14 -84 19 5 67 61 67 78 0 10 -30 38
-41 38 -6 0 -23 -15 -40 -32z"/>
<path d="M12971 14533 c-28 -19 -52 -68 -45 -87 16 -43 104 13 104 66 0 31
-30 42 -59 21z"/>
<path d="M960 14400 c0 -56 3 -70 15 -70 12 0 15 14 15 70 0 56 -3 70 -15 70
-12 0 -15 -14 -15 -70z"/>
<path d="M8050 14400 c0 -56 3 -70 15 -70 12 0 15 14 15 70 0 56 -3 70 -15 70
-12 0 -15 -14 -15 -70z"/>
<path d="M10410 14400 c0 -56 3 -70 15 -70 12 0 15 14 15 70 0 56 -3 70 -15
70 -12 0 -15 -14 -15 -70z"/>
<path d="M12780 14400 c0 -40 4 -70 10 -70 6 0 10 30 10 70 0 40 -4 70 -10 70
-6 0 -10 -30 -10 -70z"/>
<path d="M12856 14400 c-31 -38 -33 -65 -6 -80 18 -10 26 -6 56 24 43 43 44
79 3 84 -19 2 -33 -5 -53 -28z"/>
<path d="M12767 14292 c-33 -34 -36 -78 -7 -87 17 -5 20 -15 20 -66 0 -33 4
-59 10 -59 6 0 10 30 10 69 0 39 5 73 10 76 18 11 40 63 34 79 -10 25 -48 19
-77 -12z"/>
<path d="M960 14150 c0 -56 3 -70 15 -70 12 0 15 14 15 70 0 56 -3 70 -15 70
-12 0 -15 -14 -15 -70z"/>
<path d="M8050 14150 c0 -56 3 -70 15 -70 12 0 15 14 15 70 0 56 -3 70 -15 70
-12 0 -15 -14 -15 -70z"/>
<path d="M10410 14150 c0 -56 3 -70 15 -70 12 0 15 14 15 70 0 56 -3 70 -15
70 -12 0 -15 -14 -15 -70z"/>
<path d="M12686 14194 c-46 -46 -54 -85 -20 -98 33 -13 88 46 82 87 -4 28 -39
34 -62 11z"/>
<path d="M12579 14068 c-32 -36 -37 -59 -14 -78 19 -16 45 -5 74 31 16 21 21
37 17 54 -9 35 -41 32 -77 -7z"/>
<path d="M12489 13960 c-22 -22 -29 -37 -27 -57 5 -43 38 -42 77 2 34 39 38
54 19 73 -19 19 -37 14 -69 -18z"/>
<path d="M960 13900 c0 -56 3 -70 15 -70 12 0 15 14 15 70 0 56 -3 70 -15 70
-12 0 -15 -14 -15 -70z"/>
<path d="M10410 13900 c0 -56 3 -70 15 -70 12 0 15 14 15 70 0 56 -3 70 -15
70 -12 0 -15 -14 -15 -70z"/>
<path d="M12780 13900 c0 -40 4 -70 10 -70 6 0 10 30 10 70 0 40 -4 70 -10 70
-6 0 -10 -30 -10 -70z"/>
<path d="M12391 13845 c-34 -39 -38 -54 -19 -73 19 -19 42 -14 71 16 40 42 33
92 -13 92 -4 0 -22 -16 -39 -35z"/>
<path d="M12301 13736 c-40 -42 -40 -79 1 -84 20 -2 32 5 52 31 31 40 33 63 7
77 -26 13 -23 15 -60 -24z"/>
<path d="M960 13650 c0 -56 3 -70 15 -70 12 0 15 14 15 70 0 56 -3 70 -15 70
-12 0 -15 -14 -15 -70z"/>
<path d="M10410 13650 c0 -56 3 -70 15 -70 12 0 15 14 15 70 0 56 -3 70 -15
70 -12 0 -15 -14 -15 -70z"/>
<path d="M12780 13650 c0 -40 4 -70 10 -70 6 0 10 30 10 70 0 40 -4 70 -10 70
-6 0 -10 -30 -10 -70z"/>
<path d="M12209 13628 c-38 -42 -37 -82 3 -86 21 -3 32 4 52 35 30 44 31 47
10 67 -22 23 -31 20 -65 -16z"/>
<path d="M12106 13503 c-30 -44 -31 -47 -10 -67 22 -22 29 -20 64 17 39 41 38
80 -2 85 -21 3 -32 -4 -52 -35z"/>
<path d="M960 13400 c0 -56 3 -70 15 -70 12 0 15 14 15 70 0 56 -3 70 -15 70
-12 0 -15 -14 -15 -70z"/>
<path d="M10410 13400 c0 -56 3 -70 15 -70 12 0 15 14 15 70 0 56 -3 70 -15
70 -12 0 -15 -14 -15 -70z"/>
<path d="M12780 13400 c0 -40 4 -70 10 -70 6 0 10 30 10 70 0 40 -4 70 -10 70
-6 0 -10 -30 -10 -70z"/>
<path d="M12016 13400 c-32 -38 -33 -65 -4 -81 19 -10 26 -7 55 25 41 45 42
79 2 84 -19 2 -33 -5 -53 -28z"/>
<path d="M11927 13292 c-51 -53 -23 -115 33 -74 36 27 55 69 40 88 -19 22 -43
17 -73 -14z"/>
<path d="M960 13155 c0 -51 3 -65 15 -65 12 0 15 14 15 65 0 51 -3 65 -15 65
-12 0 -15 -14 -15 -65z"/>
<path d="M10410 13155 c0 -51 3 -65 15 -65 12 0 15 14 15 65 0 51 -3 65 -15
65 -12 0 -15 -14 -15 -65z"/>
<path d="M12780 13155 c0 -37 4 -65 10 -65 6 0 10 28 10 65 0 37 -4 65 -10 65
-6 0 -10 -28 -10 -65z"/>
<path d="M11831 13175 c-34 -39 -38 -57 -16 -75 20 -16 51 -4 75 31 49 67 -4
107 -59 44z"/>
<path d="M11739 13068 c-30 -33 -33 -45 -23 -72 10 -26 43 -18 75 16 31 35 36
57 17 76 -19 19 -37 14 -69 -20z"/>
<path d="M11649 12958 c-21 -21 -29 -39 -27 -57 5 -41 39 -39 77 4 35 41 37
48 15 69 -22 23 -32 20 -65 -16z"/>
<path d="M960 12905 c0 -51 3 -65 15 -65 12 0 15 14 15 65 0 51 -3 65 -15 65
-12 0 -15 -14 -15 -65z"/>
<path d="M10410 12905 c0 -51 3 -65 15 -65 12 0 15 14 15 65 0 51 -3 65 -15
65 -12 0 -15 -14 -15 -65z"/>
<path d="M12780 12905 c0 -37 4 -65 10 -65 6 0 10 28 10 65 0 37 -4 65 -10 65
-6 0 -10 -28 -10 -65z"/>
<path d="M11565 12858 c-33 -26 -48 -54 -40 -78 9 -29 47 -25 78 8 52 55 20
115 -38 70z"/>
<path d="M11464 12736 c-43 -43 -44 -79 -3 -84 19 -2 33 5 53 28 31 38 33 65
6 80 -18 10 -26 6 -56 -24z"/>
<path d="M960 12655 c0 -51 3 -65 15 -65 12 0 15 14 15 65 0 51 -3 65 -15 65
-12 0 -15 -14 -15 -65z"/>
<path d="M10410 12655 c0 -51 3 -65 15 -65 12 0 15 14 15 65 0 51 -3 65 -15
65 -12 0 -15 -14 -15 -65z"/>
<path d="M12780 12655 c0 -37 4 -65 10 -65 6 0 10 28 10 65 0 37 -4 65 -10 65
-6 0 -10 -28 -10 -65z"/>
<path d="M2385 12652 c-54 -12 -86 -60 -99 -154 -6 -41 -10 -47 -34 -51 l-27
-4 27 -2 c23 -1 27 -6 33 -43 16 -103 56 -158 116 -158 70 0 114 52 126 149 5
47 8 50 37 54 l31 4 -32 1 c-26 2 -33 6 -33 22 0 43 -22 117 -43 143 -23 29
-69 46 -102 39z m65 -57 c22 -23 25 -37 28 -124 5 -111 -7 -164 -43 -187 -16
-11 -29 -12 -48 -5 -33 13 -44 34 -53 100 -5 40 -4 55 7 62 10 6 10 9 2 9 -31
0 -6 130 30 155 30 21 50 19 77 -10z"/>
<path d="M2836 12649 c-38 -11 -74 -45 -81 -80 -8 -34 17 -85 45 -94 33 -10
12 -25 -38 -27 -34 -1 -38 -2 -16 -5 l31 -4 -19 -39 c-17 -33 -18 -45 -8 -74
17 -53 62 -86 116 -86 37 0 51 6 82 34 33 30 37 40 37 81 0 40 -5 51 -32 75
l-32 29 29 30 c60 60 28 135 -70 164 -8 2 -28 0 -44 -4z m79 -54 c30 -30 31
-54 4 -89 -40 -51 -122 -22 -122 44 0 64 72 92 118 45z m4 -181 c37 -47 23
-116 -26 -135 -78 -30 -135 78 -76 144 25 27 78 22 102 -9z"/>
<path d="M11368 12623 c-50 -55 -42 -90 19 -84 20 2 64 76 57 94 -9 26 -47 20
-76 -10z"/>
<path d="M11293 12534 c-7 -3 -22 -21 -33 -40 -17 -26 -28 -34 -51 -34 -42 0
-36 -17 9 -22 20 -3 45 -8 54 -12 25 -11 80 50 76 84 -3 25 -28 35 -55 24z"/>
<path d="M960 12406 c0 -52 3 -66 15 -66 11 0 15 12 15 50 l0 50 60 0 c33 0
60 4 60 10 0 6 -24 10 -52 10 -29 0 -63 3 -75 6 -22 6 -23 4 -23 -60z"/>
<path d="M12733 12463 c-67 -5 -69 -23 -3 -23 l50 0 0 -50 c0 -27 5 -50 10
-50 6 0 11 23 12 50 0 28 1 55 2 62 1 14 -5 15 -71 11z"/>
<path d="M1220 12450 c0 -6 30 -10 70 -10 40 0 70 4 70 10 0 6 -30 10 -70 10
-40 0 -70 -4 -70 -10z"/>
<path d="M1470 12450 c0 -6 30 -10 70 -10 40 0 70 4 70 10 0 6 -30 10 -70 10
-40 0 -70 -4 -70 -10z"/>
<path d="M1720 12450 c0 -6 28 -10 65 -10 37 0 65 4 65 10 0 6 -28 10 -65 10
-37 0 -65 -4 -65 -10z"/>
<path d="M1970 12450 c0 -6 28 -10 65 -10 37 0 65 4 65 10 0 6 -28 10 -65 10
-37 0 -65 -4 -65 -10z"/>
<path d="M3010 12450 c-43 -7 -42 -7 23 -8 39 -1 67 2 67 8 0 11 -20 11 -90 0z"/>
<path d="M10940 12450 c0 -6 28 -10 65 -10 37 0 65 4 65 10 0 6 -28 10 -65 10
-37 0 -65 -4 -65 -10z"/>
<path d="M11430 12450 c0 -6 30 -10 70 -10 40 0 70 4 70 10 0 6 -30 10 -70 10
-40 0 -70 -4 -70 -10z"/>
<path d="M11680 12450 c0 -6 30 -10 70 -10 40 0 70 4 70 10 0 6 -30 10 -70 10
-40 0 -70 -4 -70 -10z"/>
<path d="M11930 12450 c0 -6 30 -10 70 -10 40 0 70 4 70 10 0 6 -30 10 -70 10
-40 0 -70 -4 -70 -10z"/>
<path d="M12180 12450 c0 -6 30 -10 70 -10 40 0 70 4 70 10 0 6 -30 10 -70 10
-40 0 -70 -4 -70 -10z"/>
<path d="M12430 12450 c0 -6 28 -10 65 -10 37 0 65 4 65 10 0 6 -28 10 -65 10
-37 0 -65 -4 -65 -10z"/>
<path d="M12930 12450 c0 -6 28 -10 65 -10 37 0 65 4 65 10 0 6 -28 10 -65 10
-37 0 -65 -4 -65 -10z"/>
<path d="M13180 12450 c0 -6 28 -10 65 -10 37 0 65 4 65 10 0 6 -28 10 -65 10
-37 0 -65 -4 -65 -10z"/>
<path d="M13430 12450 c0 -6 28 -10 65 -10 37 0 65 4 65 10 0 6 -28 10 -65 10
-37 0 -65 -4 -65 -10z"/>
<path d="M13680 12450 c0 -6 28 -10 65 -10 37 0 65 4 65 10 0 6 -28 10 -65 10
-37 0 -65 -4 -65 -10z"/>
<path d="M13920 12450 c0 -6 30 -10 70 -10 40 0 70 4 70 10 0 6 -30 10 -70 10
-40 0 -70 -4 -70 -10z"/>
<path d="M14170 12450 c0 -6 30 -10 70 -10 40 0 70 4 70 10 0 6 -30 10 -70 10
-40 0 -70 -4 -70 -10z"/>
<path d="M14420 12450 c0 -6 30 -10 70 -10 40 0 70 4 70 10 0 6 -30 10 -70 10
-40 0 -70 -4 -70 -10z"/>
<path d="M14670 12450 c0 -6 30 -10 70 -10 40 0 70 4 70 10 0 6 -30 10 -70 10
-40 0 -70 -4 -70 -10z"/>
<path d="M14920 12450 c0 -6 30 -10 70 -10 40 0 70 4 70 10 0 6 -30 10 -70 10
-40 0 -70 -4 -70 -10z"/>
<path d="M11176 12397 c-29 -38 -32 -59 -11 -77 21 -17 47 -5 73 34 47 70 -12
109 -62 43z"/>
<path d="M11093 12298 c-33 -36 -43 -61 -32 -81 14 -25 42 -21 71 11 32 35 41
61 27 78 -17 20 -43 17 -66 -8z"/>
<path d="M2610 12276 c0 -21 5 -26 26 -26 21 0 25 4 22 23 -2 14 -11 23 -25
25 -19 3 -23 -1 -23 -22z"/>
<path d="M960 12155 c0 -51 3 -65 15 -65 12 0 15 14 15 65 0 51 -3 65 -15 65
-12 0 -15 -14 -15 -65z"/>
<path d="M12780 12155 c0 -37 4 -65 10 -65 6 0 10 28 10 65 0 37 -4 65 -10 65
-6 0 -10 -28 -10 -65z"/>
<path d="M960 11905 c0 -51 3 -65 15 -65 12 0 15 14 15 65 0 51 -3 65 -15 65
-12 0 -15 -14 -15 -65z"/>
<path d="M12780 11905 c0 -37 4 -65 10 -65 6 0 10 28 10 65 0 37 -4 65 -10 65
-6 0 -10 -28 -10 -65z"/>
<path d="M960 11660 c0 -56 3 -70 15 -70 12 0 15 14 15 70 0 56 -3 70 -15 70
-12 0 -15 -14 -15 -70z"/>
<path d="M12780 11660 c0 -40 4 -70 10 -70 6 0 10 30 10 70 0 40 -4 70 -10 70
-6 0 -10 -30 -10 -70z"/>
<path d="M960 11410 c0 -56 3 -70 15 -70 12 0 15 14 15 70 0 56 -3 70 -15 70
-12 0 -15 -14 -15 -70z"/>
<path d="M12780 11410 c0 -40 4 -70 10 -70 6 0 10 30 10 70 0 40 -4 70 -10 70
-6 0 -10 -30 -10 -70z"/>
<path d="M960 11160 c0 -56 3 -70 15 -70 12 0 15 14 15 70 0 56 -3 70 -15 70
-12 0 -15 -14 -15 -70z"/>
<path d="M12780 11160 c0 -40 4 -70 10 -70 6 0 10 30 10 70 0 40 -4 70 -10 70
-6 0 -10 -30 -10 -70z"/>
<path d="M960 10910 c0 -56 3 -70 15 -70 12 0 15 14 15 70 0 56 -3 70 -15 70
-12 0 -15 -14 -15 -70z"/>
<path d="M12780 10910 c0 -40 4 -70 10 -70 6 0 10 30 10 70 0 40 -4 70 -10 70
-6 0 -10 -30 -10 -70z"/>
<path d="M960 10660 c0 -56 3 -70 15 -70 12 0 15 14 15 70 0 56 -3 70 -15 70
-12 0 -15 -14 -15 -70z"/>
<path d="M12780 10660 c0 -40 4 -70 10 -70 6 0 10 30 10 70 0 40 -4 70 -10 70
-6 0 -10 -30 -10 -70z"/>
<path d="M960 10415 c0 -51 3 -65 15 -65 12 0 15 14 15 65 0 51 -3 65 -15 65
-12 0 -15 -14 -15 -65z"/>
<path d="M12780 10415 c0 -37 4 -65 10 -65 6 0 10 28 10 65 0 37 -4 65 -10 65
-6 0 -10 -28 -10 -65z"/>
<path d="M2385 10292 c-54 -12 -86 -60 -99 -154 -6 -41 -10 -47 -34 -51 l-27
-4 27 -2 c23 -1 27 -6 33 -43 16 -103 56 -158 116 -158 70 0 114 52 126 149 5
47 8 50 37 54 l31 4 -32 1 c-26 2 -33 6 -33 22 0 43 -22 117 -43 143 -23 29
-69 46 -102 39z m65 -57 c22 -23 25 -37 28 -124 5 -111 -7 -164 -43 -187 -16
-11 -29 -12 -48 -5 -33 13 -44 34 -53 100 -5 40 -4 55 7 62 10 6 10 9 2 9 -31
0 -6 130 30 155 30 21 50 19 77 -10z"/>
<path d="M2872 10289 c-18 -4 -45 -17 -59 -30 -31 -29 -62 -94 -63 -131 0 -15
-8 -32 -17 -37 -10 -6 -13 -11 -6 -11 6 0 14 -15 18 -32 24 -127 55 -168 127
-168 33 0 46 6 74 35 35 37 52 103 39 145 -7 22 -6 23 54 16 52 -6 61 -5 61 9
0 13 -10 15 -65 9 -53 -6 -65 -4 -65 8 0 8 -11 25 -25 38 -29 27 -81 29 -120
4 -24 -16 -25 -16 -25 7 0 31 33 85 61 99 12 7 39 10 61 7 32 -4 39 -2 36 11
-4 20 -44 30 -86 21z m23 -165 c25 -10 45 -58 45 -109 0 -38 -5 -52 -30 -77
-19 -18 -36 -28 -46 -24 -9 3 -20 6 -25 6 -17 0 -39 60 -39 110 0 45 2 50 23
51 20 0 20 1 3 8 -18 7 -18 8 5 24 25 18 38 20 64 11z"/>
<path d="M960 10173 c0 -101 2 -103 81 -103 55 0 69 3 69 15 0 12 -13 15 -60
15 l-60 0 0 65 c0 51 -3 65 -15 65 -12 0 -15 -13 -15 -57z"/>
<path d="M1220 10085 c0 -12 14 -15 70 -15 56 0 70 3 70 15 0 12 -14 15 -70
15 -56 0 -70 -3 -70 -15z"/>
<path d="M1470 10085 c0 -12 14 -15 70 -15 56 0 70 3 70 15 0 12 -14 15 -70
15 -56 0 -70 -3 -70 -15z"/>
<path d="M1720 10085 c0 -12 14 -15 65 -15 51 0 65 3 65 15 0 12 -14 15 -65
15 -51 0 -65 -3 -65 -15z"/>
<path d="M1970 10085 c0 -12 14 -15 65 -15 51 0 65 3 65 15 0 12 -14 15 -65
15 -51 0 -65 -3 -65 -15z"/>
<path d="M12930 10085 c0 -12 14 -15 65 -15 51 0 65 3 65 15 0 12 -14 15 -65
15 -51 0 -65 -3 -65 -15z"/>
<path d="M13180 10085 c0 -12 14 -15 65 -15 51 0 65 3 65 15 0 12 -14 15 -65
15 -51 0 -65 -3 -65 -15z"/>
<path d="M13430 10085 c0 -12 14 -15 65 -15 51 0 65 3 65 15 0 12 -14 15 -65
15 -51 0 -65 -3 -65 -15z"/>
<path d="M13680 10085 c0 -12 14 -15 65 -15 51 0 65 3 65 15 0 12 -14 15 -65
15 -51 0 -65 -3 -65 -15z"/>
<path d="M13920 10085 c0 -12 14 -15 70 -15 56 0 70 3 70 15 0 12 -14 15 -70
15 -56 0 -70 -3 -70 -15z"/>
<path d="M14170 10085 c0 -12 14 -15 70 -15 56 0 70 3 70 15 0 12 -14 15 -70
15 -56 0 -70 -3 -70 -15z"/>
<path d="M14420 10085 c0 -12 14 -15 70 -15 56 0 70 3 70 15 0 12 -14 15 -70
15 -56 0 -70 -3 -70 -15z"/>
<path d="M14670 10085 c0 -12 14 -15 70 -15 56 0 70 3 70 15 0 12 -14 15 -70
15 -56 0 -70 -3 -70 -15z"/>
<path d="M14920 10085 c0 -12 14 -15 70 -15 56 0 70 3 70 15 0 12 -14 15 -70
15 -56 0 -70 -3 -70 -15z"/>
<path d="M960 9915 c0 -51 3 -65 15 -65 12 0 15 14 15 65 0 51 -3 65 -15 65
-12 0 -15 -14 -15 -65z"/>
<path d="M2610 9916 c0 -21 5 -26 26 -26 21 0 25 4 22 23 -2 14 -11 23 -25 25
-19 3 -23 -1 -23 -22z"/>
<path d="M960 9665 c0 -51 3 -65 15 -65 12 0 15 14 15 65 0 51 -3 65 -15 65
-12 0 -15 -14 -15 -65z"/>
<path d="M960 9415 c0 -51 3 -65 15 -65 12 0 15 14 15 65 0 51 -3 65 -15 65
-12 0 -15 -14 -15 -65z"/>
<path d="M960 9165 c0 -51 3 -65 15 -65 12 0 15 14 15 65 0 51 -3 65 -15 65
-12 0 -15 -14 -15 -65z"/>
<path d="M960 8920 c0 -56 3 -70 15 -70 12 0 15 14 15 70 0 56 -3 70 -15 70
-12 0 -15 -14 -15 -70z"/>
<path d="M960 8670 c0 -56 3 -70 15 -70 12 0 15 14 15 70 0 56 -3 70 -15 70
-12 0 -15 -14 -15 -70z"/>
<path d="M960 8420 c0 -56 3 -70 15 -70 12 0 15 14 15 70 0 56 -3 70 -15 70
-12 0 -15 -14 -15 -70z"/>
<path d="M960 8170 c0 -56 3 -70 15 -70 12 0 15 14 15 70 0 56 -3 70 -15 70
-12 0 -15 -14 -15 -70z"/>
<path d="M960 7925 c0 -51 3 -65 15 -65 12 0 15 14 15 65 0 51 -3 65 -15 65
-12 0 -15 -14 -15 -65z"/>
<path d="M2385 7932 c-54 -12 -86 -60 -99 -154 -6 -41 -10 -47 -34 -51 l-27
-4 27 -2 c23 -1 27 -6 33 -43 16 -103 56 -158 116 -158 70 0 114 52 126 149 5
47 8 50 37 54 l31 4 -32 1 c-26 2 -33 6 -33 22 0 43 -22 117 -43 143 -23 29
-69 46 -102 39z m65 -57 c22 -23 25 -37 28 -124 5 -111 -7 -164 -43 -187 -16
-11 -29 -12 -48 -5 -33 13 -44 34 -53 100 -5 40 -4 55 7 62 10 6 10 9 2 9 -31
0 -6 130 30 155 30 21 50 19 77 -10z"/>
<path d="M2828 7828 c-44 -77 -58 -94 -83 -99 -23 -5 -25 -7 -7 -8 26 -1 27
-9 6 -39 -28 -41 -13 -52 71 -52 l75 0 0 -50 c0 -47 2 -50 25 -50 23 0 25 3
25 49 0 47 2 50 28 53 16 2 27 9 27 18 0 9 -11 16 -27 18 l-28 3 0 125 0 124
-29 0 c-26 0 -34 -9 -83 -92z m62 -63 l0 -95 -50 0 c-27 0 -50 3 -50 6 0 17
23 44 38 45 10 0 12 3 5 5 -8 4 -3 25 20 70 17 35 33 64 34 64 2 0 3 -43 3
-95z"/>
<path d="M960 7675 c0 -51 3 -65 15 -65 11 0 15 12 15 50 l0 50 60 0 c47 0 60
3 60 15 0 12 -15 15 -75 15 l-75 0 0 -65z"/>
<path d="M1220 7725 c0 -12 14 -15 70 -15 56 0 70 3 70 15 0 12 -14 15 -70 15
-56 0 -70 -3 -70 -15z"/>
<path d="M1470 7725 c0 -12 14 -15 70 -15 56 0 70 3 70 15 0 12 -14 15 -70 15
-56 0 -70 -3 -70 -15z"/>
<path d="M1720 7725 c0 -12 14 -15 65 -15 51 0 65 3 65 15 0 12 -14 15 -65 15
-51 0 -65 -3 -65 -15z"/>
<path d="M1970 7725 c0 -12 14 -15 65 -15 51 0 65 3 65 15 0 12 -14 15 -65 15
-51 0 -65 -3 -65 -15z"/>
<path d="M3010 7730 c-35 -5 -38 -7 -15 -9 17 0 47 -4 68 -7 30 -5 37 -4 37
10 0 17 -12 18 -90 6z"/>
<path d="M14420 7725 c0 -12 14 -15 70 -15 56 0 70 3 70 15 0 12 -14 15 -70
15 -56 0 -70 -3 -70 -15z"/>
<path d="M14670 7725 c0 -12 14 -15 70 -15 56 0 70 3 70 15 0 12 -14 15 -70
15 -56 0 -70 -3 -70 -15z"/>
<path d="M14920 7725 c0 -12 14 -15 70 -15 56 0 70 3 70 15 0 12 -14 15 -70
15 -56 0 -70 -3 -70 -15z"/>
<path d="M2610 7556 c0 -21 5 -26 26 -26 21 0 25 4 22 23 -2 14 -11 23 -25 25
-19 3 -23 -1 -23 -22z"/>
<path d="M960 7425 c0 -51 3 -65 15 -65 12 0 15 14 15 65 0 51 -3 65 -15 65
-12 0 -15 -14 -15 -65z"/>
<path d="M960 7175 c0 -51 3 -65 15 -65 12 0 15 14 15 65 0 51 -3 65 -15 65
-12 0 -15 -14 -15 -65z"/>
<path d="M960 6925 c0 -51 3 -65 15 -65 12 0 15 14 15 65 0 51 -3 65 -15 65
-12 0 -15 -14 -15 -65z"/>
<path d="M960 6675 c0 -51 3 -65 15 -65 12 0 15 14 15 65 0 51 -3 65 -15 65
-12 0 -15 -14 -15 -65z"/>
<path d="M960 6430 c0 -56 3 -70 15 -70 12 0 15 14 15 70 0 56 -3 70 -15 70
-12 0 -15 -14 -15 -70z"/>
<path d="M960 6180 c0 -56 3 -70 15 -70 12 0 15 14 15 70 0 56 -3 70 -15 70
-12 0 -15 -14 -15 -70z"/>
<path d="M960 5930 c0 -56 3 -70 15 -70 12 0 15 14 15 70 0 56 -3 70 -15 70
-12 0 -15 -14 -15 -70z"/>
<path d="M960 5680 c0 -56 3 -70 15 -70 12 0 15 14 15 70 0 56 -3 70 -15 70
-12 0 -15 -14 -15 -70z"/>
<path d="M2385 5572 c-54 -12 -86 -60 -99 -154 -6 -41 -10 -47 -34 -51 l-27
-4 27 -2 c23 -1 27 -6 33 -43 16 -103 56 -158 116 -158 70 0 114 52 126 149 5
47 8 50 37 54 l31 4 -32 1 c-26 2 -33 6 -33 22 0 43 -22 117 -43 143 -23 29
-69 46 -102 39z m65 -57 c22 -23 25 -37 28 -124 5 -111 -7 -164 -43 -187 -16
-11 -29 -12 -48 -5 -33 13 -44 34 -53 100 -5 40 -4 55 7 62 10 6 10 9 2 9 -31
0 -6 130 30 155 30 21 50 19 77 -10z"/>
<path d="M2823 5568 c-35 -9 -73 -54 -73 -86 0 -35 16 -33 33 4 21 43 59 60
99 43 36 -15 48 -37 48 -87 0 -46 -28 -88 -119 -177 -90 -88 -86 -95 54 -95
108 0 115 1 115 20 0 19 -7 20 -92 20 l-92 0 93 95 93 95 -4 56 c-4 42 -11 61
-30 80 -30 30 -81 44 -125 32z"/>
<path d="M962 5428 l3 -73 73 -3 c45 -2 72 1 72 8 0 6 -25 10 -60 10 l-60 0 0
65 c0 52 -3 65 -15 65 -13 0 -15 -13 -13 -72z"/>
<path d="M1220 5360 c0 -6 30 -10 70 -10 40 0 70 4 70 10 0 6 -30 10 -70 10
-40 0 -70 -4 -70 -10z"/>
<path d="M1470 5360 c0 -6 30 -10 70 -10 40 0 70 4 70 10 0 6 -30 10 -70 10
-40 0 -70 -4 -70 -10z"/>
<path d="M1720 5360 c0 -6 28 -10 65 -10 37 0 65 4 65 10 0 6 -28 10 -65 10
-37 0 -65 -4 -65 -10z"/>
<path d="M1970 5360 c0 -6 28 -10 65 -10 37 0 65 4 65 10 0 6 -28 10 -65 10
-37 0 -65 -4 -65 -10z"/>
<path d="M2748 5363 c17 -2 47 -2 65 0 17 2 3 4 -33 4 -36 0 -50 -2 -32 -4z"/>
<path d="M2971 5366 c11 -10 129 -16 129 -6 0 6 -27 10 -67 10 -36 0 -64 -2
-62 -4z"/>
<path d="M960 5185 c0 -51 3 -65 15 -65 12 0 15 14 15 65 0 51 -3 65 -15 65
-12 0 -15 -14 -15 -65z"/>
<path d="M2610 5196 c0 -21 5 -26 26 -26 21 0 25 4 22 23 -2 14 -11 23 -25 25
-19 3 -23 -1 -23 -22z"/>
<path d="M960 4935 c0 -51 3 -65 15 -65 12 0 15 14 15 65 0 51 -3 65 -15 65
-12 0 -15 -14 -15 -65z"/>
<path d="M960 4685 c0 -51 3 -65 15 -65 12 0 15 14 15 65 0 51 -3 65 -15 65
-12 0 -15 -14 -15 -65z"/>
<path d="M960 4435 c0 -51 3 -65 15 -65 12 0 15 14 15 65 0 51 -3 65 -15 65
-12 0 -15 -14 -15 -65z"/>
<path d="M960 4185 c0 -51 3 -65 15 -65 12 0 15 14 15 65 0 51 -3 65 -15 65
-12 0 -15 -14 -15 -65z"/>
<path d="M960 3935 c0 -51 3 -65 15 -65 12 0 15 14 15 65 0 51 -3 65 -15 65
-12 0 -15 -14 -15 -65z"/>
<path d="M960 3690 c0 -56 3 -70 15 -70 12 0 15 14 15 70 0 56 -3 70 -15 70
-12 0 -15 -14 -15 -70z"/>
<path d="M960 3440 c0 -56 3 -70 15 -70 12 0 15 14 15 70 0 56 -3 70 -15 70
-12 0 -15 -14 -15 -70z"/>
<path d="M18794 3268 c-65 -77 -96 -223 -75 -350 21 -125 76 -218 130 -218
l24 0 -21 23 c-11 12 -33 49 -49 82 -26 56 -28 68 -28 195 0 127 2 139 28 195
16 33 38 70 49 82 l21 23 -25 0 c-17 0 -36 -11 -54 -32z"/>
<path d="M19333 3252 c48 -70 62 -129 62 -257 0 -124 -16 -186 -66 -254 l-29
-41 23 0 c31 0 60 32 94 105 24 52 28 75 31 171 5 130 -10 194 -60 270 -25 36
-40 50 -61 52 l-28 3 34 -49z"/>
<path d="M17983 3115 c-45 -19 -73 -69 -73 -130 0 -112 92 -174 195 -131 36
15 40 22 29 50 -5 14 -8 14 -27 1 -12 -8 -41 -15 -64 -15 -38 0 -46 4 -63 33
-24 38 -25 78 -5 117 21 41 77 51 138 25 14 -6 17 -2 17 18 0 43 -82 61 -147
32z"/>
<path d="M18244 3116 c-59 -26 -93 -106 -75 -174 33 -120 188 -137 242 -25 36
74 14 152 -54 193 -37 23 -70 25 -113 6z m105 -60 c51 -54 18 -158 -51 -164
-47 -4 -78 33 -78 93 0 85 76 127 129 71z"/>
<path d="M18510 3123 c-34 -12 -50 -37 -50 -74 0 -46 28 -76 79 -85 20 -4 42
-11 49 -17 15 -12 16 -44 0 -53 -16 -10 -75 -6 -99 7 -21 11 -38 0 -39 -24 0
-14 68 -37 108 -37 59 0 92 30 92 84 0 53 -20 73 -87 90 -37 9 -49 17 -51 34
-5 32 32 43 86 27 41 -13 42 -13 42 11 0 17 -8 27 -26 34 -27 11 -79 12 -104
3z"/>
<path d="M19035 3113 c-38 -9 -87 -56 -107 -101 -55 -123 37 -213 157 -152 39
20 39 20 60 0 28 -26 60 -25 80 2 19 27 0 39 -19 13 -7 -10 -18 -15 -24 -11
-20 12 -13 59 14 99 20 30 54 107 54 123 0 2 -5 4 -10 4 -6 0 -15 -12 -21 -27
-6 -15 -18 -44 -27 -63 l-17 -35 -7 50 c-11 78 -61 115 -133 98z m65 -33 c17
-17 20 -33 20 -99 l0 -79 -43 -21 c-52 -25 -80 -27 -101 -5 -42 41 5 188 69
215 29 12 33 11 55 -11z"/>
<path d="M963 2722 c6 -35 4 -38 -24 -51 -48 -21 -73 -86 -73 -191 0 -101 14
-150 55 -185 55 -45 132 -26 164 42 37 78 29 241 -16 304 -11 16 -35 33 -52
37 -30 8 -32 11 -29 45 3 30 0 37 -13 37 -15 0 -17 -6 -12 -38z m67 -97 c22
-23 25 -37 28 -124 5 -111 -7 -164 -43 -187 -16 -11 -29 -12 -48 -5 -43 16
-52 46 -52 166 0 91 3 116 18 139 11 16 24 25 33 22 8 -3 14 -1 14 4 0 18 26
10 50 -15z"/>
<path d="M973 2440 c0 -36 2 -50 4 -32 2 17 2 47 0 65 -2 17 -4 3 -4 -33z"/>
<path d="M5694 2723 c3 -21 6 -51 6 -67 0 -46 7 -27 14 42 6 54 5 62 -10 62
-14 0 -16 -7 -10 -37z"/>
<path d="M8054 2723 c3 -21 6 -51 6 -67 0 -46 7 -27 14 42 6 54 5 62 -10 62
-14 0 -16 -7 -10 -37z"/>
<path d="M10414 2723 c3 -21 6 -51 6 -67 0 -46 7 -27 14 42 6 54 5 62 -10 62
-14 0 -16 -7 -10 -37z"/>
<path d="M12780 2695 c0 -37 4 -65 10 -65 6 0 10 28 10 65 0 37 -4 65 -10 65
-6 0 -10 -28 -10 -65z"/>
<path d="M1393 2678 c-35 -9 -73 -54 -73 -86 0 -35 16 -33 33 4 21 43 59 60
99 43 36 -15 48 -37 48 -87 0 -46 -28 -88 -119 -177 -90 -88 -86 -95 54 -95
108 0 115 1 115 20 0 19 -7 20 -92 20 l-92 0 93 95 93 95 -4 56 c-4 42 -11 61
-30 80 -30 30 -81 44 -125 32z"/>
<path d="M5455 2682 c-66 -14 -100 -85 -99 -207 0 -96 15 -146 55 -180 55 -45
132 -26 164 42 38 80 28 249 -18 306 -23 29 -68 46 -102 39z m65 -57 c22 -23
25 -37 28 -124 5 -111 -7 -164 -43 -187 -27 -18 -68 -6 -85 26 -15 29 -24 155
-16 215 8 51 42 95 74 95 10 0 29 -11 42 -25z"/>
<path d="M5883 2678 c-35 -9 -73 -54 -73 -86 0 -35 16 -33 33 4 21 43 59 60
99 43 36 -15 48 -37 48 -87 0 -46 -28 -88 -119 -177 -90 -88 -86 -95 54 -95
108 0 115 1 115 20 0 19 -7 20 -92 20 l-92 0 93 95 93 95 -4 56 c-4 42 -11 61
-30 80 -30 30 -81 44 -125 32z"/>
<path d="M7815 2682 c-66 -14 -100 -85 -99 -207 0 -96 15 -146 55 -180 55 -45
132 -26 164 42 38 80 28 249 -18 306 -23 29 -68 46 -102 39z m65 -57 c22 -23
25 -37 28 -124 5 -111 -7 -164 -43 -187 -27 -18 -68 -6 -85 26 -15 29 -24 155
-16 215 8 51 42 95 74 95 10 0 29 -11 42 -25z"/>
<path d="M10175 2682 c-66 -14 -100 -85 -99 -207 0 -96 15 -146 55 -180 55
-45 132 -26 164 42 38 80 28 249 -18 306 -23 29 -68 46 -102 39z m65 -57 c22
-23 25 -37 28 -124 5 -111 -7 -164 -43 -187 -27 -18 -68 -6 -85 26 -15 29 -24
155 -16 215 8 51 42 95 74 95 10 0 29 -11 42 -25z"/>
<path d="M10662 2679 c-72 -15 -124 -99 -125 -203 -3 -130 44 -206 125 -206
81 0 135 98 108 195 -23 81 -91 111 -155 69 -24 -16 -25 -16 -25 7 0 31 33 85
61 99 12 7 39 10 61 7 32 -4 39 -2 36 11 -4 20 -44 30 -86 21z m23 -165 c25
-10 45 -58 45 -109 0 -38 -5 -52 -30 -77 -19 -18 -36 -28 -46 -24 -9 3 -20 6
-25 6 -17 0 -39 60 -39 110 0 41 5 56 25 75 25 26 41 30 70 19z"/>
<path d="M12545 2682 c-66 -14 -100 -85 -99 -207 0 -96 15 -146 55 -180 55
-45 132 -26 164 42 38 80 28 249 -18 306 -23 29 -68 46 -102 39z m65 -57 c22
-23 25 -37 28 -124 5 -111 -7 -164 -43 -187 -27 -18 -68 -6 -85 26 -15 29 -24
155 -16 215 8 51 42 95 74 95 10 0 29 -11 42 -25z"/>
<path d="M12986 2679 c-38 -11 -74 -45 -81 -80 -8 -35 17 -85 46 -94 21 -7 21
-8 -9 -31 -42 -34 -57 -82 -39 -126 21 -51 61 -78 113 -78 36 0 51 6 82 34 33
30 37 40 37 81 0 40 -5 51 -32 75 l-32 29 29 30 c60 60 28 135 -70 164 -8 2
-28 0 -44 -4z m79 -54 c30 -30 31 -54 4 -89 -40 -51 -122 -22 -122 44 0 64 72
92 118 45z m4 -181 c37 -47 23 -116 -26 -135 -78 -30 -135 78 -76 144 25 27
78 22 102 -9z"/>
<path d="M8236 2538 c-42 -72 -75 -137 -72 -145 4 -9 27 -13 81 -13 l75 0 0
-50 c0 -47 2 -50 25 -50 23 0 25 3 25 49 0 47 2 50 28 53 16 2 27 9 27 18 0 9
-11 16 -27 18 l-28 3 0 125 0 124 -29 0 c-27 0 -35 -11 -105 -132z m84 -23 l0
-95 -51 0 c-28 0 -49 4 -47 8 9 21 93 182 96 182 1 0 2 -43 2 -95z"/>
<path d="M5703 2440 c0 -36 2 -50 4 -32 2 17 2 47 0 65 -2 17 -4 3 -4 -33z"/>
<path d="M8063 2440 c0 -36 2 -50 4 -32 2 17 2 47 0 65 -2 17 -4 3 -4 -33z"/>
<path d="M10423 2440 c0 -36 2 -50 4 -32 2 17 2 47 0 65 -2 17 -4 3 -4 -33z"/>
<path d="M12780 2440 c0 -33 4 -60 10 -60 6 0 10 27 10 60 0 33 -4 60 -10 60
-6 0 -10 -27 -10 -60z"/>
<path d="M420 2430 c0 -6 67 -10 180 -10 113 0 180 4 180 10 0 6 -67 10 -180
10 -113 0 -180 -4 -180 -10z"/>
<path d="M1190 2306 c0 -21 5 -26 26 -26 21 0 25 4 22 23 -2 14 -11 23 -25 25
-19 3 -23 -1 -23 -22z"/>
<path d="M5680 2306 c0 -21 5 -26 26 -26 21 0 25 4 22 23 -2 14 -11 23 -25 25
-19 3 -23 -1 -23 -22z"/>
<path d="M8040 2306 c0 -21 5 -26 26 -26 21 0 25 4 22 23 -2 14 -11 23 -25 25
-19 3 -23 -1 -23 -22z"/>
<path d="M10410 2306 c0 -21 5 -26 26 -26 21 0 25 4 22 23 -2 14 -11 23 -25
25 -19 3 -23 -1 -23 -22z"/>
<path d="M12770 2306 c0 -21 5 -26 26 -26 21 0 25 4 22 23 -2 14 -11 23 -25
25 -19 3 -23 -1 -23 -22z"/>
<path d="M970 2229 c0 -13 -3 -41 -6 -61 -6 -32 -4 -38 10 -38 15 0 17 7 10
58 -7 61 -14 81 -14 41z"/>
<path d="M3330 1455 l0 -795 -80 0 c-73 0 -80 -2 -80 -20 0 -19 7 -20 215 -20
174 0 215 3 215 14 0 14 -85 26 -192 26 l-58 0 0 795 c0 523 -3 795 -10 795
-7 0 -10 -272 -10 -795z"/>
<path d="M5696 2235 c-3 -9 -6 -37 -6 -61 0 -32 4 -44 15 -44 11 0 15 12 15
48 0 53 -13 85 -24 57z"/>
<path d="M8056 2235 c-3 -9 -6 -37 -6 -61 0 -32 4 -44 15 -44 11 0 15 12 15
48 0 53 -13 85 -24 57z"/>
<path d="M10416 2235 c-3 -9 -6 -37 -6 -61 0 -32 4 -44 15 -44 11 0 15 12 15
48 0 53 -13 85 -24 57z"/>
<path d="M12780 2190 c0 -33 4 -60 10 -60 6 0 10 27 10 60 0 33 -4 60 -10 60
-6 0 -10 -27 -10 -60z"/>
<path d="M960 1945 c0 -51 3 -65 15 -65 12 0 15 14 15 65 0 51 -3 65 -15 65
-12 0 -15 -14 -15 -65z"/>
<path d="M5690 1945 c0 -51 3 -65 15 -65 12 0 15 14 15 65 0 51 -3 65 -15 65
-12 0 -15 -14 -15 -65z"/>
<path d="M8050 1945 c0 -51 3 -65 15 -65 12 0 15 14 15 65 0 51 -3 65 -15 65
-12 0 -15 -14 -15 -65z"/>
<path d="M10410 1945 c0 -51 3 -65 15 -65 12 0 15 14 15 65 0 51 -3 65 -15 65
-12 0 -15 -14 -15 -65z"/>
<path d="M12780 1945 c0 -37 4 -65 10 -65 6 0 10 28 10 65 0 37 -4 65 -10 65
-6 0 -10 -28 -10 -65z"/>
<path d="M960 1695 c0 -51 3 -65 15 -65 12 0 15 14 15 65 0 51 -3 65 -15 65
-12 0 -15 -14 -15 -65z"/>
<path d="M5690 1695 c0 -51 3 -65 15 -65 12 0 15 14 15 65 0 51 -3 65 -15 65
-12 0 -15 -14 -15 -65z"/>
<path d="M8050 1695 c0 -51 3 -65 15 -65 12 0 15 14 15 65 0 51 -3 65 -15 65
-12 0 -15 -14 -15 -65z"/>
<path d="M10410 1695 c0 -51 3 -65 15 -65 12 0 15 14 15 65 0 51 -3 65 -15 65
-12 0 -15 -14 -15 -65z"/>
<path d="M12780 1695 c0 -37 4 -65 10 -65 6 0 10 28 10 65 0 37 -4 65 -10 65
-6 0 -10 -28 -10 -65z"/>
<path d="M960 1445 c0 -51 3 -65 15 -65 12 0 15 14 15 65 0 51 -3 65 -15 65
-12 0 -15 -14 -15 -65z"/>
<path d="M5690 1445 c0 -51 3 -65 15 -65 12 0 15 14 15 65 0 51 -3 65 -15 65
-12 0 -15 -14 -15 -65z"/>
<path d="M8050 1445 c0 -51 3 -65 15 -65 12 0 15 14 15 65 0 51 -3 65 -15 65
-12 0 -15 -14 -15 -65z"/>
<path d="M10410 1445 c0 -51 3 -65 15 -65 12 0 15 14 15 65 0 51 -3 65 -15 65
-12 0 -15 -14 -15 -65z"/>
<path d="M12780 1445 c0 -37 4 -65 10 -65 6 0 10 28 10 65 0 37 -4 65 -10 65
-6 0 -10 -28 -10 -65z"/>
<path d="M960 1195 c0 -51 3 -65 15 -65 12 0 15 14 15 65 0 51 -3 65 -15 65
-12 0 -15 -14 -15 -65z"/>
<path d="M5690 1195 c0 -51 3 -65 15 -65 12 0 15 14 15 65 0 51 -3 65 -15 65
-12 0 -15 -14 -15 -65z"/>
<path d="M8050 1195 c0 -51 3 -65 15 -65 12 0 15 14 15 65 0 51 -3 65 -15 65
-12 0 -15 -14 -15 -65z"/>
<path d="M10410 1195 c0 -51 3 -65 15 -65 12 0 15 14 15 65 0 51 -3 65 -15 65
-12 0 -15 -14 -15 -65z"/>
<path d="M12780 1195 c0 -37 4 -65 10 -65 6 0 10 28 10 65 0 37 -4 65 -10 65
-6 0 -10 -28 -10 -65z"/>
<path d="M960 950 c0 -56 3 -70 15 -70 12 0 15 14 15 70 0 56 -3 70 -15 70
-12 0 -15 -14 -15 -70z"/>
<path d="M5690 950 c0 -56 3 -70 15 -70 12 0 15 14 15 70 0 56 -3 70 -15 70
-12 0 -15 -14 -15 -70z"/>
<path d="M8050 950 c0 -56 3 -70 15 -70 12 0 15 14 15 70 0 56 -3 70 -15 70
-12 0 -15 -14 -15 -70z"/>
<path d="M10410 950 c0 -56 3 -70 15 -70 12 0 15 14 15 70 0 56 -3 70 -15 70
-12 0 -15 -14 -15 -70z"/>
<path d="M12780 950 c0 -40 4 -70 10 -70 6 0 10 30 10 70 0 40 -4 70 -10 70
-6 0 -10 -30 -10 -70z"/>
<path d="M2385 872 c-58 -13 -89 -64 -101 -171 -6 -57 -8 -61 -33 -62 -25 -1
-25 -2 4 -8 22 -4 31 -13 33 -31 14 -112 90 -168 171 -125 31 15 55 59 66 117
6 32 11 37 39 41 l31 4 -32 1 c-31 2 -33 5 -33 37 0 57 -19 129 -43 158 -23
29 -69 46 -102 39z m65 -57 c22 -23 25 -37 28 -124 5 -111 -7 -164 -43 -187
-26 -17 -68 -6 -83 23 -18 35 -24 95 -10 104 10 7 10 9 1 9 -16 0 -17 79 -3
132 11 38 42 68 70 68 9 0 27 -11 40 -25z"/>
<path d="M2823 868 c-35 -9 -73 -54 -73 -86 0 -35 16 -33 33 4 21 43 59 60 99
43 36 -15 48 -37 48 -87 0 -46 -28 -88 -119 -177 -90 -88 -86 -95 54 -95 108
0 115 1 115 20 0 19 -7 20 -92 20 l-92 0 93 95 93 95 -4 56 c-4 42 -11 61 -30
80 -30 30 -81 44 -125 32z"/>
<path d="M962 698 l3 -73 73 -3 c59 -2 72 0 72 13 0 12 -13 15 -60 15 l-60 0
0 60 c0 47 -3 60 -15 60 -13 0 -15 -13 -13 -72z"/>
<path d="M5690 701 c0 -80 1 -81 91 -81 46 0 59 3 59 15 0 12 -13 15 -60 15
l-60 0 0 60 c0 47 -3 60 -15 60 -12 0 -15 -14 -15 -69z"/>
<path d="M8050 710 l0 -60 -50 0 c-38 0 -50 -4 -50 -15 0 -12 14 -15 65 -15
l65 0 0 75 c0 60 -3 75 -15 75 -12 0 -15 -13 -15 -60z"/>
<path d="M10410 701 c0 -79 2 -81 103 -81 44 0 57 3 57 15 0 12 -14 15 -65 15
l-65 0 0 60 c0 47 -3 60 -15 60 -12 0 -15 -14 -15 -69z"/>
<path d="M12780 710 l0 -60 -50 0 c-38 0 -50 -4 -50 -15 0 -12 14 -15 66 -15
64 0 66 1 60 23 -3 12 -6 46 -6 75 0 28 -4 52 -10 52 -6 0 -10 -27 -10 -60z"/>
<path d="M1220 635 c0 -12 14 -15 70 -15 56 0 70 3 70 15 0 12 -14 15 -70 15
-56 0 -70 -3 -70 -15z"/>
<path d="M1470 635 c0 -12 14 -15 70 -15 56 0 70 3 70 15 0 12 -14 15 -70 15
-56 0 -70 -3 -70 -15z"/>
<path d="M1720 637 c0 -12 12 -14 65 -9 45 3 65 1 65 -7 0 -8 52 -11 180 -11
113 0 180 4 180 10 0 11 -35 13 -270 15 -85 0 -170 4 -187 9 -26 6 -33 4 -33
-7z"/>
<path d="M3010 640 c-35 -5 -38 -7 -15 -9 17 0 47 -4 68 -7 30 -5 37 -4 37 10
0 17 -12 18 -90 6z"/>
<path d="M3710 635 c0 -12 14 -15 70 -15 56 0 70 3 70 15 0 12 -14 15 -70 15
-56 0 -70 -3 -70 -15z"/>
<path d="M3960 635 c0 -12 14 -15 70 -15 56 0 70 3 70 15 0 12 -14 15 -70 15
-56 0 -70 -3 -70 -15z"/>
<path d="M4210 635 c0 -12 14 -15 70 -15 56 0 70 3 70 15 0 12 -14 15 -70 15
-56 0 -70 -3 -70 -15z"/>
<path d="M4460 635 c0 -12 14 -15 65 -15 51 0 65 3 65 15 0 12 -14 15 -65 15
-51 0 -65 -3 -65 -15z"/>
<path d="M4710 635 c0 -12 14 -15 65 -15 51 0 65 3 65 15 0 12 -14 15 -65 15
-51 0 -65 -3 -65 -15z"/>
<path d="M4960 635 c0 -12 14 -15 65 -15 51 0 65 3 65 15 0 12 -14 15 -65 15
-51 0 -65 -3 -65 -15z"/>
<path d="M5210 635 c0 -12 14 -15 65 -15 51 0 65 3 65 15 0 12 -14 15 -65 15
-51 0 -65 -3 -65 -15z"/>
<path d="M5460 635 c0 -12 14 -15 65 -15 51 0 65 3 65 15 0 12 -14 15 -65 15
-51 0 -65 -3 -65 -15z"/>
<path d="M5950 635 c0 -12 14 -15 70 -15 56 0 70 3 70 15 0 12 -14 15 -70 15
-56 0 -70 -3 -70 -15z"/>
<path d="M6200 635 c0 -12 14 -15 70 -15 56 0 70 3 70 15 0 12 -14 15 -70 15
-56 0 -70 -3 -70 -15z"/>
<path d="M6450 635 c0 -12 14 -15 70 -15 56 0 70 3 70 15 0 12 -14 15 -70 15
-56 0 -70 -3 -70 -15z"/>
<path d="M6700 635 c0 -12 14 -15 70 -15 56 0 70 3 70 15 0 12 -14 15 -70 15
-56 0 -70 -3 -70 -15z"/>
<path d="M6950 635 c0 -12 14 -15 70 -15 56 0 70 3 70 15 0 12 -14 15 -70 15
-56 0 -70 -3 -70 -15z"/>
<path d="M7200 635 c0 -12 14 -15 65 -15 51 0 65 3 65 15 0 12 -14 15 -65 15
-51 0 -65 -3 -65 -15z"/>
<path d="M7450 635 c0 -12 14 -15 65 -15 51 0 65 3 65 15 0 12 -14 15 -65 15
-51 0 -65 -3 -65 -15z"/>
<path d="M7700 635 c0 -12 14 -15 65 -15 51 0 65 3 65 15 0 12 -14 15 -65 15
-51 0 -65 -3 -65 -15z"/>
<path d="M8200 635 c0 -12 14 -15 65 -15 51 0 65 3 65 15 0 12 -14 15 -65 15
-51 0 -65 -3 -65 -15z"/>
<path d="M8450 635 c0 -12 14 -15 65 -15 51 0 65 3 65 15 0 12 -14 15 -65 15
-51 0 -65 -3 -65 -15z"/>
<path d="M8690 635 c0 -12 14 -15 70 -15 56 0 70 3 70 15 0 12 -14 15 -70 15
-56 0 -70 -3 -70 -15z"/>
<path d="M8940 635 c0 -12 14 -15 70 -15 56 0 70 3 70 15 0 12 -14 15 -70 15
-56 0 -70 -3 -70 -15z"/>
<path d="M9190 635 c0 -12 14 -15 70 -15 56 0 70 3 70 15 0 12 -14 15 -70 15
-56 0 -70 -3 -70 -15z"/>
<path d="M9440 635 c0 -12 14 -15 70 -15 56 0 70 3 70 15 0 12 -14 15 -70 15
-56 0 -70 -3 -70 -15z"/>
<path d="M9690 635 c0 -12 14 -15 65 -15 51 0 65 3 65 15 0 12 -14 15 -65 15
-51 0 -65 -3 -65 -15z"/>
<path d="M9940 635 c0 -12 14 -15 65 -15 51 0 65 3 65 15 0 12 -14 15 -65 15
-51 0 -65 -3 -65 -15z"/>
<path d="M10190 635 c0 -12 14 -15 65 -15 51 0 65 3 65 15 0 12 -14 15 -65 15
-51 0 -65 -3 -65 -15z"/>
<path d="M10690 635 c0 -12 14 -15 65 -15 51 0 65 3 65 15 0 12 -14 15 -65 15
-51 0 -65 -3 -65 -15z"/>
<path d="M10940 635 c0 -12 14 -15 65 -15 51 0 65 3 65 15 0 12 -14 15 -65 15
-51 0 -65 -3 -65 -15z"/>
<path d="M11180 635 c0 -12 14 -15 70 -15 56 0 70 3 70 15 0 12 -14 15 -70 15
-56 0 -70 -3 -70 -15z"/>
<path d="M11430 635 c0 -12 14 -15 70 -15 56 0 70 3 70 15 0 12 -14 15 -70 15
-56 0 -70 -3 -70 -15z"/>
<path d="M11680 635 c0 -12 14 -15 70 -15 56 0 70 3 70 15 0 12 -14 15 -70 15
-56 0 -70 -3 -70 -15z"/>
<path d="M11930 635 c0 -12 14 -15 70 -15 56 0 70 3 70 15 0 12 -14 15 -70 15
-56 0 -70 -3 -70 -15z"/>
<path d="M12180 635 c0 -12 14 -15 70 -15 56 0 70 3 70 15 0 12 -14 15 -70 15
-56 0 -70 -3 -70 -15z"/>
<path d="M12430 635 c0 -12 14 -15 65 -15 51 0 65 3 65 15 0 12 -14 15 -65 15
-51 0 -65 -3 -65 -15z"/>
<path d="M12930 635 c0 -12 14 -15 65 -15 51 0 65 3 65 15 0 12 -14 15 -65 15
-51 0 -65 -3 -65 -15z"/>
<path d="M13180 635 c0 -12 14 -15 65 -15 51 0 65 3 65 15 0 12 -14 15 -65 15
-51 0 -65 -3 -65 -15z"/>
<path d="M13430 635 c0 -12 14 -15 65 -15 51 0 65 3 65 15 0 12 -14 15 -65 15
-51 0 -65 -3 -65 -15z"/>
<path d="M13680 635 c0 -12 14 -15 65 -15 51 0 65 3 65 15 0 12 -14 15 -65 15
-51 0 -65 -3 -65 -15z"/>
<path d="M13920 635 c0 -12 14 -15 70 -15 56 0 70 3 70 15 0 12 -14 15 -70 15
-56 0 -70 -3 -70 -15z"/>
<path d="M14170 635 c0 -12 14 -15 70 -15 56 0 70 3 70 15 0 12 -14 15 -70 15
-56 0 -70 -3 -70 -15z"/>
<path d="M14420 635 c0 -12 14 -15 70 -15 56 0 70 3 70 15 0 12 -14 15 -70 15
-56 0 -70 -3 -70 -15z"/>
<path d="M14670 635 c0 -12 14 -15 70 -15 56 0 70 3 70 15 0 12 -14 15 -70 15
-56 0 -70 -3 -70 -15z"/>
<path d="M2748 633 c17 -2 47 -2 65 0 17 2 3 4 -33 4 -36 0 -50 -2 -32 -4z"/>
<path d="M2610 496 c0 -21 5 -26 26 -26 21 0 25 4 22 23 -2 14 -11 23 -25 25
-19 3 -23 -1 -23 -22z"/>
</g>
</svg>
