<?xml version="1.0" standalone="no"?>
<!DOCTYPE svg PUBLIC "-//W3C//DTD SVG 20010904//EN"
 "http://www.w3.org/TR/2001/REC-SVG-20010904/DTD/svg10.dtd">
<svg version="1.0" xmlns="http://www.w3.org/2000/svg"
 width="2592.000000pt" height="2688.000000pt" viewBox="0 0 2592.000000 2688.000000"
 preserveAspectRatio="xMidYMid meet">
<metadata>
Created by potrace 1.16, written by Peter Selinger 2001-2019
</metadata>
<g transform="translate(0.000000,2688.000000) scale(0.100000,-0.100000)"
fill="#000000" stroke="none">
<path d="M12466 26393 c-10 -32 -25 -70 -32 -85 -14 -27 -14 -28 11 -28 l25 0
0 -495 0 -495 -74 0 c-41 0 -76 -4 -78 -9 -1 -5 -56 -11 -120 -13 l-118 -4 0
74 c0 67 -2 73 -17 67 -10 -4 -30 -10 -45 -13 -16 -2 -28 -11 -28 -19 0 -11 7
-14 25 -11 24 5 25 3 25 -48 l0 -54 -82 0 c-145 0 -703 -48 -993 -85 -2107
-270 -4123 -1118 -5790 -2435 -2608 -2060 -4227 -5097 -4469 -8385 -32 -428
-51 -894 -42 -1026 3 -57 9 -164 13 -236 l6 -133 -122 0 c-79 0 -120 -4 -116
-10 4 -6 55 -10 120 -10 l113 0 6 -72 c3 -40 15 -201 26 -358 53 -738 199
-1554 411 -2300 1234 -4331 4854 -7603 9279 -8389 326 -58 837 -125 1080 -141
91 -6 223 -15 294 -21 72 -5 161 -9 198 -9 l68 0 0 -50 c0 -47 -2 -50 -25 -50
-16 0 -25 -6 -25 -15 0 -12 15 -15 71 -15 52 0 70 3 67 13 -3 6 -14 13 -26 15
-19 3 -22 10 -22 50 l0 47 112 -3 c62 -2 117 -8 122 -13 12 -11 343 -12 350
-1 3 5 106 12 228 16 1716 52 3463 505 5003 1299 3623 1866 6035 5471 6370
9522 l23 280 1 -6147 c1 -4091 4 -6148 11 -6148 7 0 10 2073 10 6200 l0 6200
36 0 c39 0 44 23 6 28 -21 3 -22 8 -22 127 0 81 -4 125 -11 127 -8 3 -9 48 -4
156 l8 152 493 0 494 0 0 -26 c0 -21 3 -25 18 -19 9 4 50 19 90 33 l73 26 -73
26 c-40 15 -81 30 -90 35 -15 6 -18 2 -18 -19 l0 -26 -493 0 -494 0 -6 122
c-4 66 -7 2976 -7 6465 l0 6344 26 -20 c28 -22 54 -27 54 -11 0 6 -5 10 -11
10 -7 0 -27 16 -45 36 l-34 35 -34 -35 c-18 -20 -38 -36 -45 -36 -6 0 -11 -4
-11 -10 0 -16 26 -11 54 11 l26 20 -1 -6118 -1 -6118 -23 280 c-238 2880
-1529 5572 -3629 7571 -1972 1877 -4512 3010 -7216 3219 -173 13 -415 28 -537
31 -123 4 -223 11 -223 16 0 4 -36 8 -80 8 l-80 0 0 495 0 495 30 0 30 0 -18
38 c-11 20 -25 55 -32 77 -19 61 -25 60 -44 -2z m-146 -1143 c0 -6 32 -10 75
-10 l75 0 0 -1155 0 -1155 -75 0 c-73 0 -75 -1 -75 -25 0 -24 2 -25 75 -25
l75 0 0 -1160 0 -1160 -75 0 c-68 0 -75 -2 -75 -20 0 -18 7 -20 75 -20 l75 0
0 -1160 0 -1160 -75 0 c-68 0 -75 -2 -75 -20 0 -18 7 -20 75 -20 l75 0 0
-1160 0 -1160 -75 0 c-68 0 -75 -2 -75 -20 0 -18 7 -20 75 -20 l75 0 0 -1160
0 -1160 -43 0 c-106 0 -227 -13 -227 -25 0 -12 121 -25 227 -25 l43 0 0 -130
c0 -103 3 -130 14 -130 13 0 26 102 26 211 l0 46 113 6 c61 4 583 7 1160 7
l1047 0 0 -80 c0 -73 2 -80 20 -80 18 0 20 7 20 80 l0 80 1160 0 1160 0 0 -80
c0 -73 2 -80 20 -80 18 0 20 7 20 80 l0 80 1160 0 1160 0 0 -80 c0 -79 0 -80
25 -80 25 0 25 1 25 80 l0 80 1160 0 1160 0 0 -80 c0 -73 2 -80 20 -80 18 0
20 7 20 80 l0 80 1158 0 1159 0 6 -122 c11 -204 11 -208 -18 -208 -16 0 -25
-6 -25 -16 0 -12 7 -15 26 -11 19 3 24 1 20 -10 -3 -8 -6 -55 -6 -104 0 -82
-1 -89 -20 -89 -11 0 -20 -7 -20 -15 0 -9 9 -15 21 -15 18 0 20 -4 15 -32 -3
-18 -15 -152 -26 -298 -299 -3865 -2514 -7359 -5897 -9303 -1664 -956 -3518
-1483 -5468 -1556 -122 -4 -221 -4 -223 0 -2 5 -39 9 -83 9 l-79 0 0 1155 0
1155 80 0 c79 0 80 0 80 25 0 25 -1 25 -80 25 l-80 0 0 1160 0 1160 80 0 c73
0 80 2 80 20 0 18 -7 20 -80 20 l-80 0 0 1160 0 1160 80 0 c73 0 80 2 80 20 0
18 -7 20 -80 20 l-80 0 0 1160 0 1160 80 0 c73 0 80 2 80 20 0 18 -7 20 -80
20 l-80 0 0 851 c0 676 -3 850 -12 847 -10 -4 -14 -185 -16 -851 l-2 -847 -75
0 c-68 0 -75 -2 -75 -20 0 -18 7 -20 75 -20 l75 0 0 -1160 0 -1160 -75 0 c-68
0 -75 -2 -75 -20 0 -18 7 -20 75 -20 l75 0 0 -1160 0 -1160 -75 0 c-68 0 -75
-2 -75 -20 0 -18 7 -20 75 -20 l75 0 0 -1160 0 -1160 -75 0 c-73 0 -75 -1 -75
-25 0 -24 2 -25 75 -25 l75 0 0 -1155 0 -1155 -75 0 c-41 0 -75 -4 -75 -9 0
-6 -29 -8 -67 -6 -38 3 -92 5 -120 5 l-53 0 0 71 c0 64 -2 70 -17 64 -10 -4
-30 -10 -45 -13 -16 -2 -28 -11 -28 -19 0 -11 7 -14 25 -11 24 5 25 3 25 -43
l0 -49 -52 0 c-48 0 -122 6 -538 40 -74 6 -277 29 -450 51 -3655 457 -6901
2624 -8750 5839 -768 1337 -1268 2824 -1465 4362 -64 496 -102 1056 -90 1321
l7 167 1159 0 1159 0 0 -80 c0 -73 2 -80 20 -80 18 0 20 7 20 80 l0 80 1160 0
1160 0 0 -80 c0 -73 2 -80 20 -80 18 0 20 7 20 80 l0 80 1160 0 1160 0 0 -80
c0 -79 0 -80 25 -80 25 0 25 1 25 80 l0 80 1155 0 1155 0 0 -80 c0 -79 0 -80
25 -80 25 0 25 1 25 80 l0 80 875 0 c771 0 875 2 875 15 0 13 -104 15 -875 15
l-875 0 0 80 c0 79 0 80 -25 80 -25 0 -25 -1 -25 -80 l0 -80 -1155 0 -1155 0
0 80 c0 79 0 80 -25 80 -25 0 -25 -1 -25 -80 l0 -80 -1160 0 -1160 0 0 80 c0
73 -2 80 -20 80 -18 0 -20 -7 -20 -80 l0 -80 -1160 0 -1160 0 0 80 c0 73 -2
80 -20 80 -18 0 -20 -7 -20 -80 l0 -80 -1159 0 -1158 0 -7 148 c-12 258 28
864 89 1341 223 1739 832 3408 1779 4876 1890 2929 4957 4872 8396 5320 234
30 630 67 988 92 l92 6 0 -46 c0 -43 -2 -47 -25 -47 -16 0 -25 -6 -25 -15 0
-12 15 -15 71 -15 52 0 70 3 67 13 -3 6 -14 13 -26 15 -19 3 -22 10 -22 47 l0
44 108 4 c59 1 113 4 120 5 6 1 12 -2 12 -8z m598 -5 c479 -13 1086 -77 1622
-171 4450 -781 8083 -4070 9310 -8430 243 -864 395 -1832 430 -2740 4 -121 6
-268 3 -327 l-6 -107 -1158 0 -1159 0 0 80 c0 73 -2 80 -20 80 -18 0 -20 -7
-20 -80 l0 -80 -1160 0 -1160 0 0 80 c0 79 0 80 -25 80 -25 0 -25 -1 -25 -80
l0 -80 -1160 0 -1160 0 0 80 c0 73 -2 80 -20 80 -18 0 -20 -7 -20 -80 l0 -80
-1160 0 -1160 0 0 80 c0 73 -2 80 -20 80 -18 0 -20 -7 -20 -81 l0 -80 -1154 3
c-635 2 -1158 7 -1163 11 -4 5 -9 528 -11 1163 l-3 1154 80 0 c74 0 81 2 81
20 0 18 -7 20 -80 20 l-80 0 0 1160 0 1160 80 0 c73 0 80 2 80 20 0 18 -7 20
-80 20 l-80 0 0 1160 0 1160 80 0 c73 0 80 2 80 20 0 18 -7 20 -80 20 l-80 0
0 1160 0 1160 80 0 c79 0 80 0 80 25 0 25 -1 25 -80 25 l-80 0 0 1155 0 1155
80 0 c44 0 80 4 80 9 0 6 15 8 33 6 17 -2 119 -7 225 -10z"/>
<path d="M11680 23025 c-22 -23 -25 -37 -28 -108 -3 -91 8 -123 50 -146 37
-21 78 -5 101 39 25 49 20 168 -9 207 -30 40 -81 43 -114 8z m101 -46 c11 -38
9 -111 -4 -149 -10 -29 -17 -35 -42 -35 -39 0 -55 32 -55 112 0 68 14 110 39
116 23 6 55 -16 62 -44z"/>
<path d="M11999 23032 c-30 -25 -31 -80 -1 -100 l22 -14 -25 -20 c-41 -32 -33
-98 16 -123 42 -22 67 -18 100 14 36 36 37 73 5 106 -23 23 -23 24 -5 41 25
22 24 69 -1 94 -25 25 -80 26 -111 2z m82 -12 c22 -12 26 -59 7 -78 -17 -17
-48 -15 -70 5 -23 21 -23 38 2 63 23 23 33 24 61 10z m9 -135 c16 -20 16 -61
0 -80 -8 -10 -25 -15 -44 -13 -62 6 -60 108 3 108 16 0 34 -7 41 -15z"/>
<path d="M11870 22791 c0 -15 6 -21 21 -21 25 0 22 33 -4 38 -12 2 -17 -3 -17
-17z"/>
<path d="M7394 22142 c-283 -101 -300 -582 -25 -719 26 -13 59 -18 119 -18
l83 0 37 -57 37 -58 58 0 58 0 -22 33 c-13 17 -40 55 -60 83 l-38 51 35 34
c19 19 49 63 67 98 28 57 32 77 35 167 5 116 -10 176 -60 256 -75 119 -207
172 -324 130z m154 -76 c42 -22 89 -76 114 -131 20 -43 23 -66 23 -160 -1
-116 -14 -161 -66 -225 l-20 -25 -22 29 c-53 70 -50 67 -100 64 l-47 -3 45
-67 45 -68 -25 -6 c-68 -17 -178 70 -209 164 -46 140 -16 312 68 391 53 50
138 66 194 37z"/>
<path d="M7930 21780 l0 -360 45 0 45 0 0 360 0 360 -45 0 -45 0 0 -360z"/>
<path d="M8220 21780 l0 -360 45 0 45 0 0 360 0 360 -45 0 -45 0 0 -360z"/>
<path d="M11680 20665 c-22 -23 -25 -37 -28 -108 -3 -91 8 -123 50 -146 37
-21 78 -5 101 39 25 49 20 168 -9 207 -30 40 -81 43 -114 8z m101 -46 c11 -38
9 -111 -4 -149 -10 -29 -17 -35 -42 -35 -39 0 -55 32 -55 112 0 68 14 110 39
116 23 6 55 -16 62 -44z"/>
<path d="M12016 20665 c-34 -31 -46 -64 -46 -126 0 -117 68 -174 137 -115 24
21 28 31 28 79 0 85 -53 124 -112 82 -21 -15 -21 -15 -12 17 12 45 46 71 81
64 21 -4 28 -2 28 9 0 26 -73 19 -104 -10z m68 -101 c19 -19 22 -104 4 -122
-16 -16 -53 -15 -66 1 -6 6 -13 29 -17 49 -6 31 -3 41 19 62 29 30 39 32 60
10z"/>
<path d="M11870 20431 c0 -15 6 -21 21 -21 25 0 22 33 -4 38 -12 2 -17 -3 -17
-17z"/>
<path d="M5250 18180 l0 -1740 2515 0 2515 0 0 1740 0 1740 -2515 0 -2515 0 0
-1740z m5000 0 l0 -1710 -2485 0 -2485 0 0 1710 0 1710 2485 0 2485 0 0 -1710z"/>
<path d="M6716 19722 c-51 -64 -93 -148 -118 -241 -30 -112 -30 -353 1 -466
26 -98 60 -170 112 -235 36 -45 43 -50 80 -50 l40 0 -34 43 c-86 105 -126 235
-134 427 -9 218 31 387 121 508 20 28 36 52 36 56 0 3 -15 6 -32 6 -27 0 -40
-9 -72 -48z"/>
<path d="M7580 19764 c0 -4 14 -22 30 -41 95 -108 150 -325 136 -540 -11 -172
-54 -305 -132 -407 l-35 -46 39 0 c36 0 43 5 81 53 99 130 136 272 128 501 -7
211 -44 329 -138 439 -34 39 -46 47 -75 47 -19 0 -34 -3 -34 -6z"/>
<path d="M9606 19680 c-42 -13 -91 -65 -117 -124 -32 -71 -40 -322 -14 -412
23 -82 58 -132 108 -155 114 -51 223 6 264 139 14 44 18 91 17 207 0 131 -3
157 -23 207 -29 74 -55 106 -105 129 -44 20 -84 23 -130 9z m122 -93 c41 -38
55 -113 50 -276 -3 -131 -6 -151 -28 -196 -40 -81 -102 -97 -155 -40 -38 42
-50 106 -50 270 0 138 2 154 24 199 37 76 104 94 159 43z"/>
<path d="M5840 19615 l0 -45 45 0 45 0 0 45 0 45 -45 0 -45 0 0 -45z"/>
<path d="M8353 19524 c-3 -8 -2 -19 3 -24 5 -5 124 -61 264 -125 140 -64 258
-120 262 -123 4 -4 -114 -63 -262 -131 -210 -97 -270 -128 -270 -143 0 -11 7
-18 18 -18 11 0 149 60 308 133 223 103 290 138 292 153 2 17 -41 40 -295 157
-164 75 -302 137 -306 137 -4 0 -10 -7 -14 -16z"/>
<path d="M5514 19440 c-50 -16 -77 -53 -82 -115 -4 -52 -3 -56 30 -89 24 -24
53 -39 94 -50 94 -26 109 -36 109 -76 0 -26 -6 -37 -25 -48 -33 -17 -111 -9
-163 17 -23 11 -42 19 -43 18 0 -1 -4 -18 -7 -38 -5 -34 -3 -37 31 -54 47 -22
158 -31 204 -16 57 19 81 52 86 121 4 59 4 61 -34 99 -31 31 -51 41 -99 51
-75 15 -105 33 -105 65 0 52 74 69 164 39 26 -9 48 -15 50 -13 2 2 6 18 9 35
5 27 2 33 -21 44 -34 16 -158 22 -198 10z"/>
<path d="M6240 19438 c-19 -5 -42 -16 -51 -24 -21 -19 -29 -18 -29 6 0 17 -7
20 -45 20 l-45 0 0 -225 0 -225 45 0 45 0 0 145 c0 193 18 237 97 237 28 0 43
-7 60 -27 22 -25 23 -34 23 -191 l0 -164 46 0 46 0 -4 183 c-4 191 -11 224
-52 251 -30 19 -95 26 -136 14z"/>
<path d="M7128 19440 c-153 -46 -254 -251 -188 -381 33 -63 70 -81 161 -76 64
3 86 9 135 37 34 19 60 28 62 22 2 -6 12 -22 23 -36 40 -50 149 -23 149 37 0
25 -24 21 -35 -5 -15 -34 -53 -36 -65 -3 -18 49 -11 83 29 143 67 97 111 222
79 222 -9 0 -20 -18 -27 -42 -7 -24 -29 -74 -49 -113 l-37 -70 -5 75 c-7 99
-32 148 -90 178 -45 22 -94 27 -142 12z m103 -30 c40 -22 53 -67 53 -200 l1
-125 -54 -32 c-140 -84 -237 -54 -234 71 2 66 35 172 68 216 47 64 119 94 166
70z"/>
<path d="M5840 19215 l0 -225 45 0 45 0 0 225 0 225 -45 0 -45 0 0 -225z"/>
<path d="M6916 18652 c-51 -64 -93 -148 -118 -241 -30 -112 -30 -353 1 -466
26 -98 60 -170 112 -235 36 -45 43 -50 80 -50 l40 0 -34 43 c-86 105 -126 235
-134 427 -9 218 31 387 121 508 20 28 36 52 36 56 0 3 -15 6 -32 6 -27 0 -40
-9 -72 -48z"/>
<path d="M7770 18694 c0 -4 14 -22 30 -41 95 -108 150 -325 136 -540 -11 -172
-54 -305 -132 -407 l-35 -46 39 0 c36 0 43 5 81 53 99 130 136 272 128 501 -7
211 -44 329 -138 439 -34 39 -46 47 -75 47 -19 0 -34 -3 -34 -6z"/>
<path d="M9716 18610 c-42 -13 -91 -65 -117 -124 -32 -71 -40 -322 -14 -412
23 -82 58 -132 108 -155 114 -51 223 6 264 139 14 44 18 91 17 207 0 131 -3
157 -23 207 -29 74 -55 106 -105 129 -44 20 -84 23 -130 9z m122 -93 c41 -38
55 -113 50 -276 -3 -131 -6 -151 -28 -196 -40 -81 -102 -97 -155 -40 -38 42
-50 106 -50 270 0 138 2 154 24 199 37 76 104 94 159 43z"/>
<path d="M8815 18335 c-268 -124 -320 -153 -303 -170 13 -13 589 -275 604
-275 10 0 14 7 12 20 -2 16 -59 47 -265 142 -144 66 -261 124 -258 127 2 4
121 61 264 126 228 105 261 123 261 143 0 12 -6 22 -12 21 -7 0 -143 -61 -303
-134z"/>
<path d="M5554 18355 c-63 -31 -100 -82 -116 -156 -23 -111 22 -219 112 -267
37 -19 56 -23 110 -20 38 2 82 12 105 23 36 18 40 23 37 54 -1 19 -4 36 -5 38
-2 1 -22 -7 -45 -18 -129 -64 -232 -5 -232 133 0 62 23 113 63 142 36 26 118
27 166 2 37 -20 51 -12 51 31 0 32 -51 55 -130 60 -55 4 -73 1 -116 -22z"/>
<path d="M5979 18357 c-144 -76 -168 -287 -45 -394 133 -118 334 -31 353 151
19 185 -156 323 -308 243z m150 -65 c48 -26 71 -74 71 -145 0 -91 -45 -155
-117 -163 -84 -11 -151 77 -140 185 7 63 29 99 78 123 43 23 66 23 108 0z"/>
<path d="M6434 18370 c-50 -16 -77 -53 -82 -115 -4 -52 -3 -56 30 -89 24 -24
53 -39 94 -50 94 -26 109 -36 109 -76 0 -26 -6 -37 -25 -48 -33 -17 -111 -9
-163 17 -23 11 -42 19 -43 18 0 -1 -4 -18 -7 -38 -5 -34 -3 -37 31 -54 47 -22
158 -31 204 -16 57 19 81 52 86 121 4 59 4 61 -34 99 -31 31 -51 41 -99 51
-75 15 -105 33 -105 65 0 52 74 69 164 39 26 -9 48 -15 50 -13 2 2 6 18 9 35
5 27 2 33 -21 44 -34 16 -158 22 -198 10z"/>
<path d="M7318 18370 c-153 -46 -254 -251 -188 -381 33 -63 70 -81 161 -76 64
3 86 9 135 37 34 19 60 28 62 22 2 -6 12 -22 23 -36 40 -50 149 -23 149 37 0
25 -24 21 -35 -5 -15 -34 -53 -36 -65 -3 -18 49 -11 83 29 143 67 97 111 222
79 222 -9 0 -20 -18 -27 -42 -7 -24 -29 -74 -49 -113 l-37 -70 -5 75 c-7 99
-32 148 -90 178 -45 22 -94 27 -142 12z m103 -30 c40 -22 53 -67 53 -200 l1
-125 -54 -32 c-140 -84 -237 -54 -234 71 2 66 35 172 68 216 47 64 119 94 166
70z"/>
<path d="M6936 17582 c-51 -64 -93 -148 -118 -241 -30 -112 -30 -353 1 -466
26 -98 60 -170 112 -235 36 -45 43 -50 80 -50 l40 0 -34 43 c-86 105 -126 235
-134 427 -9 218 31 387 121 508 20 28 36 52 36 56 0 3 -15 6 -32 6 -27 0 -40
-9 -72 -48z"/>
<path d="M7800 17624 c0 -4 14 -22 30 -41 95 -108 150 -325 136 -540 -11 -172
-54 -305 -132 -407 l-35 -46 39 0 c36 0 43 5 81 53 99 130 136 272 128 501 -7
211 -44 329 -138 439 -34 39 -46 47 -75 47 -19 0 -34 -3 -34 -6z"/>
<path d="M9836 17540 c-42 -13 -91 -65 -117 -124 -32 -71 -40 -322 -14 -412
23 -82 58 -132 108 -155 114 -51 223 6 264 139 14 44 18 91 17 207 0 131 -3
157 -23 207 -29 74 -55 106 -105 129 -44 20 -84 23 -130 9z m122 -93 c41 -38
55 -113 50 -276 -3 -131 -6 -151 -28 -196 -40 -81 -102 -97 -155 -40 -38 42
-50 106 -50 270 0 138 2 154 24 199 37 76 104 94 159 43z"/>
<path d="M5500 17360 l0 -60 -45 0 c-45 0 -45 0 -45 -35 0 -34 1 -35 39 -35
l39 0 4 -164 c3 -149 5 -167 24 -193 20 -26 27 -28 85 -27 83 1 128 23 121 59
-6 34 -16 38 -51 20 -40 -20 -68 -19 -81 4 -5 11 -10 83 -10 160 l0 141 65 0
65 0 0 35 0 35 -65 0 -65 0 0 60 0 60 -40 0 -40 0 0 -60z"/>
<path d="M5888 17294 c-56 -17 -62 -25 -54 -68 l6 -33 47 23 c65 33 125 32
152 -2 21 -27 38 -90 27 -101 -3 -4 -36 -10 -71 -14 -75 -9 -142 -36 -173 -70
-42 -44 -19 -149 39 -180 29 -15 135 -7 177 15 28 14 32 15 32 1 0 -11 11 -15
40 -15 l40 0 0 171 c0 158 -2 174 -22 210 -40 71 -133 96 -240 63z m182 -279
c0 -70 -35 -105 -104 -105 -42 0 -88 35 -84 63 4 28 57 58 121 67 29 4 55 8
60 9 4 0 7 -15 7 -34z"/>
<path d="M6460 17298 c-19 -5 -42 -16 -51 -24 -21 -19 -29 -18 -29 6 0 17 -7
20 -45 20 l-45 0 0 -225 0 -225 45 0 45 0 0 145 c0 193 18 237 97 237 28 0 43
-7 60 -27 22 -25 23 -34 23 -191 l0 -164 46 0 46 0 -4 183 c-4 191 -11 224
-52 251 -30 19 -95 26 -136 14z"/>
<path d="M7348 17300 c-153 -46 -254 -251 -188 -381 33 -63 70 -81 161 -76 64
3 86 9 135 37 34 19 60 28 62 22 2 -6 12 -22 23 -36 40 -50 149 -23 149 37 0
25 -24 21 -35 -5 -15 -34 -53 -36 -65 -3 -18 49 -11 83 29 143 67 97 111 222
79 222 -9 0 -20 -18 -27 -42 -7 -24 -29 -74 -49 -113 l-37 -70 -5 75 c-7 99
-32 148 -90 178 -45 22 -94 27 -142 12z m103 -30 c40 -22 53 -67 53 -200 l1
-125 -54 -32 c-140 -84 -237 -54 -234 71 2 66 35 172 68 216 47 64 119 94 166
70z"/>
<path d="M8392 16938 c-7 -7 -12 -24 -12 -38 0 -33 17 -50 50 -50 33 0 50 17
50 50 0 33 -17 50 -50 50 -14 0 -31 -5 -38 -12z"/>
<path d="M8852 16938 c-7 -7 -12 -24 -12 -38 0 -33 17 -50 50 -50 33 0 50 17
50 50 0 33 -17 50 -50 50 -14 0 -31 -5 -38 -12z"/>
<path d="M9302 16938 c-7 -7 -12 -24 -12 -38 0 -33 17 -50 50 -50 33 0 50 17
50 50 0 33 -17 50 -50 50 -14 0 -31 -5 -38 -12z"/>
<path d="M11680 18295 c-22 -23 -25 -37 -28 -108 -3 -91 8 -123 50 -146 37
-21 78 -5 101 39 25 49 20 168 -9 207 -30 40 -81 43 -114 8z m101 -46 c11 -38
9 -111 -4 -149 -10 -29 -17 -35 -42 -35 -39 0 -55 32 -55 112 0 68 14 110 39
116 23 6 55 -16 62 -44z"/>
<path d="M12012 18222 c-29 -49 -52 -94 -52 -100 0 -8 19 -12 55 -12 l55 0 0
-35 c0 -28 4 -35 20 -35 16 0 20 7 20 35 0 28 4 35 20 35 11 0 20 5 20 11 0 6
-9 13 -20 16 -18 5 -20 14 -20 89 0 81 -1 84 -23 84 -18 0 -33 -18 -75 -88z
m58 -22 l0 -60 -36 0 -35 0 33 60 c18 33 34 60 35 60 2 0 3 -27 3 -60z"/>
<path d="M11870 18061 c0 -15 6 -21 21 -21 25 0 22 33 -4 38 -12 2 -17 -3 -17
-17z"/>
<path d="M11680 15935 c-22 -23 -25 -37 -28 -108 -3 -91 8 -123 50 -146 37
-21 78 -5 101 39 25 49 20 168 -9 207 -30 40 -81 43 -114 8z m101 -46 c11 -38
9 -111 -4 -149 -10 -29 -17 -35 -42 -35 -39 0 -55 32 -55 112 0 68 14 110 39
116 23 6 55 -16 62 -44z"/>
<path d="M11992 15937 c-22 -23 -30 -57 -14 -57 5 0 14 11 20 25 15 32 75 36
92 6 23 -43 12 -71 -55 -140 -36 -37 -65 -73 -65 -79 0 -8 27 -12 85 -12 69 0
85 3 85 15 0 12 -14 15 -67 15 l-67 0 64 65 c55 56 64 70 64 101 0 72 -94 112
-142 61z"/>
<path d="M11870 15701 c0 -15 6 -21 21 -21 25 0 22 33 -4 38 -12 2 -17 -3 -17
-17z"/>
<path d="M12000 13575 c-22 -23 -25 -37 -28 -108 -3 -91 8 -123 50 -146 37
-21 78 -5 101 39 25 49 20 168 -9 207 -30 40 -81 43 -114 8z m101 -46 c11 -38
9 -111 -4 -149 -10 -29 -17 -35 -42 -35 -39 0 -55 32 -55 112 0 68 14 110 39
116 23 6 55 -16 62 -44z"/>
<path d="M830 13120 c-8 -5 -25 -10 -37 -10 -14 0 -23 -6 -23 -16 0 -12 7 -15
25 -12 l25 5 0 -103 0 -104 -25 0 c-16 0 -25 -6 -25 -15 0 -12 15 -15 71 -15
52 0 70 3 67 13 -3 6 -14 13 -26 15 -21 3 -22 8 -22 128 0 68 -3 124 -7 124
-5 0 -15 -5 -23 -10z"/>
<path d="M2990 13105 c-22 -23 -25 -37 -28 -108 -3 -91 8 -123 50 -146 37 -21
78 -5 101 39 25 49 20 168 -9 207 -30 40 -81 43 -114 8z m101 -46 c11 -38 9
-111 -4 -149 -10 -29 -17 -35 -42 -35 -39 0 -55 32 -55 112 0 68 14 110 39
116 23 6 55 -16 62 -44z"/>
<path d="M3309 13112 c-30 -25 -31 -80 -1 -100 l22 -14 -25 -20 c-41 -32 -33
-98 16 -123 42 -22 67 -18 100 14 36 36 37 73 5 106 -23 23 -23 24 -5 41 25
22 24 69 -1 94 -25 25 -80 26 -111 2z m82 -12 c22 -12 26 -59 7 -78 -17 -17
-48 -15 -70 5 -23 21 -23 38 2 63 23 23 33 24 61 10z m9 -135 c16 -20 16 -61
0 -80 -8 -10 -25 -15 -44 -13 -62 6 -60 108 3 108 16 0 34 -7 41 -15z"/>
<path d="M5350 13105 c-22 -23 -25 -37 -28 -108 -3 -91 8 -123 50 -146 37 -21
78 -5 101 39 25 49 20 168 -9 207 -30 40 -81 43 -114 8z m101 -46 c11 -38 9
-111 -4 -149 -10 -29 -17 -35 -42 -35 -39 0 -55 32 -55 112 0 68 14 110 39
116 23 6 55 -16 62 -44z"/>
<path d="M5686 13105 c-34 -31 -46 -64 -46 -126 0 -117 68 -174 137 -115 24
21 28 31 28 79 0 85 -53 124 -112 82 -21 -15 -21 -15 -12 17 12 45 46 71 81
64 21 -4 28 -2 28 9 0 26 -73 19 -104 -10z m68 -101 c19 -19 22 -104 4 -122
-16 -16 -53 -15 -66 1 -6 6 -13 29 -17 49 -6 31 -3 41 19 62 29 30 39 32 60
10z"/>
<path d="M7710 13105 c-22 -23 -25 -37 -28 -108 -3 -91 8 -123 50 -146 37 -21
78 -5 101 39 25 49 20 168 -9 207 -30 40 -81 43 -114 8z m101 -46 c11 -38 9
-111 -4 -149 -10 -29 -17 -35 -42 -35 -39 0 -55 32 -55 112 0 68 14 110 39
116 23 6 55 -16 62 -44z"/>
<path d="M10070 13105 c-22 -23 -25 -37 -28 -108 -3 -91 8 -123 50 -146 37
-21 78 -5 101 39 25 49 20 168 -9 207 -30 40 -81 43 -114 8z m101 -46 c11 -38
9 -111 -4 -149 -10 -29 -17 -35 -42 -35 -39 0 -55 32 -55 112 0 68 14 110 39
116 23 6 55 -16 62 -44z"/>
<path d="M10382 13107 c-22 -23 -30 -57 -14 -57 5 0 14 11 20 25 15 32 75 36
92 6 23 -43 12 -71 -55 -140 -36 -37 -65 -73 -65 -79 0 -8 27 -12 85 -12 69 0
85 3 85 15 0 12 -14 15 -67 15 l-67 0 64 65 c55 56 64 70 64 101 0 72 -94 112
-142 61z"/>
<path d="M12430 13105 c-22 -23 -25 -37 -28 -108 -3 -91 8 -123 50 -146 37
-21 78 -5 101 39 25 49 20 168 -9 207 -30 40 -81 43 -114 8z m101 -46 c11 -38
9 -111 -4 -149 -10 -29 -17 -35 -42 -35 -39 0 -55 32 -55 112 0 68 14 110 39
116 23 6 55 -16 62 -44z"/>
<path d="M14640 13105 c-22 -23 -25 -37 -28 -108 -3 -91 8 -123 50 -146 37
-21 78 -5 101 39 25 49 20 168 -9 207 -30 40 -81 43 -114 8z m101 -46 c11 -38
9 -111 -4 -149 -10 -29 -17 -35 -42 -35 -39 0 -55 32 -55 112 0 68 14 110 39
116 23 6 55 -16 62 -44z"/>
<path d="M14952 13107 c-22 -23 -30 -57 -14 -57 5 0 14 11 20 25 15 32 75 36
92 6 23 -43 12 -71 -55 -140 -36 -37 -65 -73 -65 -79 0 -8 27 -12 85 -12 69 0
85 3 85 15 0 12 -14 15 -67 15 l-67 0 64 65 c55 56 64 70 64 101 0 72 -94 112
-142 61z"/>
<path d="M17000 13105 c-22 -23 -25 -37 -28 -108 -3 -91 8 -123 50 -146 37
-21 78 -5 101 39 25 49 20 168 -9 207 -30 40 -81 43 -114 8z m101 -46 c11 -38
9 -111 -4 -149 -10 -29 -17 -35 -42 -35 -39 0 -55 32 -55 112 0 68 14 110 39
116 23 6 55 -16 62 -44z"/>
<path d="M19360 13105 c-22 -23 -25 -37 -28 -108 -3 -91 8 -123 50 -146 37
-21 78 -5 101 39 25 49 20 168 -9 207 -30 40 -81 43 -114 8z m101 -46 c11 -38
9 -111 -4 -149 -10 -29 -17 -35 -42 -35 -39 0 -55 32 -55 112 0 68 14 110 39
116 23 6 55 -16 62 -44z"/>
<path d="M19696 13105 c-34 -31 -46 -64 -46 -126 0 -117 68 -174 137 -115 24
21 28 31 28 79 0 85 -53 124 -112 82 -21 -15 -21 -15 -12 17 12 45 46 71 81
64 21 -4 28 -2 28 9 0 26 -73 19 -104 -10z m68 -101 c19 -19 22 -104 4 -122
-16 -16 -53 -15 -66 1 -6 6 -13 29 -17 49 -6 31 -3 41 19 62 29 30 39 32 60
10z"/>
<path d="M21720 13105 c-22 -23 -25 -37 -28 -108 -3 -91 8 -123 50 -146 37
-21 78 -5 101 39 25 49 20 168 -9 207 -30 40 -81 43 -114 8z m101 -46 c11 -38
9 -111 -4 -149 -10 -29 -17 -35 -42 -35 -39 0 -55 32 -55 112 0 68 14 110 39
116 23 6 55 -16 62 -44z"/>
<path d="M22039 13112 c-30 -25 -31 -80 -1 -100 l22 -14 -25 -20 c-41 -32 -33
-98 16 -123 42 -22 67 -18 100 14 36 36 37 73 5 106 -23 23 -23 24 -5 41 25
22 24 69 -1 94 -25 25 -80 26 -111 2z m82 -12 c22 -12 26 -59 7 -78 -17 -17
-48 -15 -70 5 -23 21 -23 38 2 63 23 23 33 24 61 10z m9 -135 c16 -20 16 -61
0 -80 -8 -10 -25 -15 -44 -13 -62 6 -60 108 3 108 16 0 34 -7 41 -15z"/>
<path d="M8042 13032 c-29 -49 -52 -94 -52 -100 0 -8 19 -12 55 -12 l55 0 0
-35 c0 -28 4 -35 20 -35 16 0 20 7 20 35 0 28 4 35 20 35 11 0 20 5 20 11 0 6
-9 13 -20 16 -18 5 -20 14 -20 89 0 81 -1 84 -23 84 -18 0 -33 -18 -75 -88z
m58 -22 l0 -60 -36 0 -35 0 33 60 c18 33 34 60 35 60 2 0 3 -27 3 -60z"/>
<path d="M17332 13032 c-29 -49 -52 -94 -52 -100 0 -8 19 -12 55 -12 l55 0 0
-35 c0 -28 4 -35 20 -35 16 0 20 7 20 35 0 28 4 35 20 35 11 0 20 5 20 11 0 6
-9 13 -20 16 -18 5 -20 14 -20 89 0 81 -1 84 -23 84 -18 0 -33 -18 -75 -88z
m58 -22 l0 -60 -36 0 -35 0 33 60 c18 33 34 60 35 60 2 0 3 -27 3 -60z"/>
<path d="M2645 12950 c4 -6 57 -10 125 -10 68 0 121 4 125 10 4 6 -40 10 -125
10 -85 0 -129 -4 -125 -10z"/>
<path d="M5005 12950 c4 -6 57 -10 125 -10 68 0 121 4 125 10 4 6 -40 10 -125
10 -85 0 -129 -4 -125 -10z"/>
<path d="M7375 12950 c4 -6 57 -10 125 -10 68 0 121 4 125 10 4 6 -40 10 -125
10 -85 0 -129 -4 -125 -10z"/>
<path d="M9735 12950 c4 -6 57 -10 125 -10 68 0 121 4 125 10 4 6 -40 10 -125
10 -85 0 -129 -4 -125 -10z"/>
<path d="M3180 12871 c0 -15 6 -21 21 -21 14 0 19 5 17 17 -5 26 -38 29 -38 4z"/>
<path d="M5550 12871 c0 -15 6 -21 21 -21 14 0 19 5 17 17 -5 26 -38 29 -38 4z"/>
<path d="M7910 12871 c0 -15 6 -21 21 -21 14 0 19 5 17 17 -5 26 -38 29 -38 4z"/>
<path d="M10270 12871 c0 -15 6 -21 21 -21 25 0 22 33 -4 38 -12 2 -17 -3 -17
-17z"/>
<path d="M14830 12871 c0 -15 6 -21 21 -21 14 0 19 5 17 17 -5 26 -38 29 -38
4z"/>
<path d="M17190 12871 c0 -15 6 -21 21 -21 14 0 19 5 17 17 -5 26 -38 29 -38
4z"/>
<path d="M19560 12871 c0 -15 6 -21 21 -21 14 0 19 5 17 17 -5 26 -38 29 -38
4z"/>
<path d="M21920 12871 c0 -15 6 -21 21 -21 25 0 22 33 -4 38 -12 2 -17 -3 -17
-17z"/>
<path d="M11680 11225 c-22 -23 -25 -37 -28 -108 -3 -91 8 -123 50 -146 37
-21 78 -5 101 39 25 49 20 168 -9 207 -30 40 -81 43 -114 8z m101 -46 c11 -38
9 -111 -4 -149 -10 -29 -17 -35 -42 -35 -39 0 -55 32 -55 112 0 68 14 110 39
116 23 6 55 -16 62 -44z"/>
<path d="M11992 11227 c-22 -23 -30 -57 -14 -57 5 0 14 11 20 25 15 32 75 36
92 6 23 -43 12 -71 -55 -140 -36 -37 -65 -73 -65 -79 0 -8 27 -12 85 -12 69 0
85 3 85 15 0 12 -14 15 -67 15 l-67 0 64 65 c55 56 64 70 64 101 0 72 -94 112
-142 61z"/>
<path d="M11335 11070 c4 -6 57 -10 125 -10 68 0 121 4 125 10 4 6 -40 10
-125 10 -85 0 -129 -4 -125 -10z"/>
<path d="M11870 10991 c0 -15 6 -21 21 -21 14 0 19 5 17 17 -5 26 -38 29 -38
4z"/>
<path d="M5250 8730 l0 -1740 2515 0 2515 0 0 1740 0 1740 -2515 0 -2515 0 0
-1740z m5000 0 l0 -1710 -2485 0 -2485 0 0 1710 0 1710 2485 0 2485 0 0 -1710z"/>
<path d="M6716 10272 c-51 -64 -93 -148 -118 -241 -30 -112 -30 -353 1 -466
26 -98 60 -170 112 -235 36 -45 43 -50 80 -50 l40 0 -34 43 c-86 105 -126 235
-134 427 -9 218 31 387 121 508 20 28 36 52 36 56 0 3 -15 6 -32 6 -27 0 -40
-9 -72 -48z"/>
<path d="M7580 10314 c0 -4 14 -22 30 -41 95 -108 150 -325 136 -540 -11 -172
-54 -305 -132 -407 l-35 -46 39 0 c36 0 43 5 81 53 99 130 136 272 128 501 -7
211 -44 329 -138 439 -34 39 -46 47 -75 47 -19 0 -34 -3 -34 -6z"/>
<path d="M9606 10230 c-42 -13 -91 -65 -117 -124 -32 -71 -40 -322 -14 -412
23 -82 58 -132 108 -155 114 -51 223 6 264 139 14 44 18 91 17 207 0 131 -3
157 -23 207 -29 74 -55 106 -105 129 -44 20 -84 23 -130 9z m122 -93 c41 -38
55 -113 50 -276 -3 -131 -6 -151 -28 -196 -40 -81 -102 -97 -155 -40 -38 42
-50 106 -50 270 0 138 2 154 24 199 37 76 104 94 159 43z"/>
<path d="M5840 10165 l0 -45 45 0 45 0 0 45 0 45 -45 0 -45 0 0 -45z"/>
<path d="M8655 9955 c-268 -124 -320 -153 -303 -170 13 -13 589 -275 604 -275
10 0 14 7 12 20 -2 16 -59 47 -265 142 -144 66 -261 124 -258 127 2 4 121 61
264 126 228 105 261 123 261 143 0 12 -6 22 -12 21 -7 0 -143 -61 -303 -134z"/>
<path d="M5514 9990 c-50 -16 -77 -53 -82 -115 -4 -52 -3 -56 30 -89 24 -24
53 -39 94 -50 94 -26 109 -36 109 -76 0 -26 -6 -37 -25 -48 -33 -17 -111 -9
-163 17 -23 11 -42 19 -43 18 0 -1 -4 -18 -7 -38 -5 -34 -3 -37 31 -54 47 -22
158 -31 204 -16 57 19 81 52 86 121 4 59 4 61 -34 99 -31 31 -51 41 -99 51
-75 15 -105 33 -105 65 0 52 74 69 164 39 26 -9 48 -15 50 -13 2 2 6 18 9 35
5 27 2 33 -21 44 -34 16 -158 22 -198 10z"/>
<path d="M6240 9988 c-19 -5 -42 -16 -51 -24 -21 -19 -29 -18 -29 6 0 17 -7
20 -45 20 l-45 0 0 -225 0 -225 45 0 45 0 0 145 c0 193 18 237 97 237 28 0 43
-7 60 -27 22 -25 23 -34 23 -191 l0 -164 46 0 46 0 -4 183 c-4 191 -11 224
-52 251 -30 19 -95 26 -136 14z"/>
<path d="M7128 9990 c-153 -46 -254 -251 -188 -381 33 -63 70 -81 161 -76 64
3 86 9 135 37 34 19 60 28 62 22 2 -6 12 -22 23 -36 40 -50 149 -23 149 37 0
25 -24 21 -35 -5 -15 -34 -53 -36 -65 -3 -18 49 -11 83 29 143 67 97 111 222
79 222 -9 0 -20 -18 -27 -42 -7 -24 -29 -74 -49 -113 l-37 -70 -5 75 c-7 99
-32 148 -90 178 -45 22 -94 27 -142 12z m103 -30 c40 -22 53 -67 53 -200 l1
-125 -54 -32 c-140 -84 -237 -54 -234 71 2 66 35 172 68 216 47 64 119 94 166
70z"/>
<path d="M5840 9765 l0 -225 45 0 45 0 0 225 0 225 -45 0 -45 0 0 -225z"/>
<path d="M6916 9202 c-51 -64 -93 -148 -118 -241 -30 -112 -30 -353 1 -466 26
-98 60 -170 112 -235 36 -45 43 -50 80 -50 l40 0 -34 43 c-86 105 -126 235
-134 427 -9 218 31 387 121 508 20 28 36 52 36 56 0 3 -15 6 -32 6 -27 0 -40
-9 -72 -48z"/>
<path d="M7770 9244 c0 -4 14 -22 30 -41 95 -108 150 -325 136 -540 -11 -172
-54 -305 -132 -407 l-35 -46 39 0 c36 0 43 5 81 53 99 130 136 272 128 501 -7
211 -44 329 -138 439 -34 39 -46 47 -75 47 -19 0 -34 -3 -34 -6z"/>
<path d="M9716 9160 c-42 -13 -91 -65 -117 -124 -32 -71 -40 -322 -14 -412 23
-82 58 -132 108 -155 114 -51 223 6 264 139 14 44 18 91 17 207 0 131 -3 157
-23 207 -29 74 -55 106 -105 129 -44 20 -84 23 -130 9z m122 -93 c41 -38 55
-113 50 -276 -3 -131 -6 -151 -28 -196 -40 -81 -102 -97 -155 -40 -38 42 -50
106 -50 270 0 138 2 154 24 199 37 76 104 94 159 43z"/>
<path d="M8815 8885 c-268 -124 -320 -153 -303 -170 13 -13 589 -275 604 -275
10 0 14 7 12 20 -2 16 -59 47 -265 142 -144 66 -261 124 -258 127 2 4 121 61
264 126 228 105 261 123 261 143 0 12 -6 22 -12 21 -7 0 -143 -61 -303 -134z"/>
<path d="M5554 8905 c-63 -31 -100 -82 -116 -156 -23 -111 22 -219 112 -267
37 -19 56 -23 110 -20 38 2 82 12 105 23 36 18 40 23 37 54 -1 19 -4 36 -5 38
-2 1 -22 -7 -45 -18 -129 -64 -232 -5 -232 133 0 62 23 113 63 142 36 26 118
27 166 2 37 -20 51 -12 51 31 0 32 -51 55 -130 60 -55 4 -73 1 -116 -22z"/>
<path d="M5979 8907 c-144 -76 -168 -287 -45 -394 133 -118 334 -31 353 151
19 185 -156 323 -308 243z m150 -65 c48 -26 71 -74 71 -145 0 -91 -45 -155
-117 -163 -84 -11 -151 77 -140 185 7 63 29 99 78 123 43 23 66 23 108 0z"/>
<path d="M6434 8920 c-50 -16 -77 -53 -82 -115 -4 -52 -3 -56 30 -89 24 -24
53 -39 94 -50 94 -26 109 -36 109 -76 0 -26 -6 -37 -25 -48 -33 -17 -111 -9
-163 17 -23 11 -42 19 -43 18 0 -1 -4 -18 -7 -38 -5 -34 -3 -37 31 -54 47 -22
158 -31 204 -16 57 19 81 52 86 121 4 59 4 61 -34 99 -31 31 -51 41 -99 51
-75 15 -105 33 -105 65 0 52 74 69 164 39 26 -9 48 -15 50 -13 2 2 6 18 9 35
5 27 2 33 -21 44 -34 16 -158 22 -198 10z"/>
<path d="M7318 8920 c-153 -46 -254 -251 -188 -381 33 -63 70 -81 161 -76 64
3 86 9 135 37 34 19 60 28 62 22 2 -6 12 -22 23 -36 40 -50 149 -23 149 37 0
25 -24 21 -35 -5 -15 -34 -53 -36 -65 -3 -18 49 -11 83 29 143 67 97 111 222
79 222 -9 0 -20 -18 -27 -42 -7 -24 -29 -74 -49 -113 l-37 -70 -5 75 c-7 99
-32 148 -90 178 -45 22 -94 27 -142 12z m103 -30 c40 -22 53 -67 53 -200 l1
-125 -54 -32 c-140 -84 -237 -54 -234 71 2 66 35 172 68 216 47 64 119 94 166
70z"/>
<path d="M6936 8132 c-51 -64 -93 -148 -118 -241 -30 -112 -30 -353 1 -466 26
-98 60 -170 112 -235 36 -45 43 -50 80 -50 l40 0 -34 43 c-86 105 -126 235
-134 427 -9 218 31 387 121 508 20 28 36 52 36 56 0 3 -15 6 -32 6 -27 0 -40
-9 -72 -48z"/>
<path d="M7800 8174 c0 -4 14 -22 30 -41 95 -108 150 -325 136 -540 -11 -172
-54 -305 -132 -407 l-35 -46 39 0 c36 0 43 5 81 53 99 130 136 272 128 501 -7
211 -44 329 -138 439 -34 39 -46 47 -75 47 -19 0 -34 -3 -34 -6z"/>
<path d="M9836 8090 c-42 -13 -91 -65 -117 -124 -32 -71 -40 -322 -14 -412 23
-82 58 -132 108 -155 114 -51 223 6 264 139 14 44 18 91 17 207 0 131 -3 157
-23 207 -29 74 -55 106 -105 129 -44 20 -84 23 -130 9z m122 -93 c41 -38 55
-113 50 -276 -3 -131 -6 -151 -28 -196 -40 -81 -102 -97 -155 -40 -38 42 -50
106 -50 270 0 138 2 154 24 199 37 76 104 94 159 43z"/>
<path d="M5500 7910 l0 -60 -45 0 c-45 0 -45 0 -45 -35 0 -34 1 -35 39 -35
l39 0 4 -164 c3 -149 5 -167 24 -193 20 -26 27 -28 85 -27 83 1 128 23 121 59
-6 34 -16 38 -51 20 -40 -20 -68 -19 -81 4 -5 11 -10 83 -10 160 l0 141 65 0
65 0 0 35 0 35 -65 0 -65 0 0 60 0 60 -40 0 -40 0 0 -60z"/>
<path d="M5888 7844 c-56 -17 -62 -25 -54 -68 l6 -33 47 23 c65 33 125 32 152
-2 21 -27 38 -90 27 -101 -3 -4 -36 -10 -71 -14 -75 -9 -142 -36 -173 -70 -42
-44 -19 -149 39 -180 29 -15 135 -7 177 15 28 14 32 15 32 1 0 -11 11 -15 40
-15 l40 0 0 171 c0 158 -2 174 -22 210 -40 71 -133 96 -240 63z m182 -279 c0
-70 -35 -105 -104 -105 -42 0 -88 35 -84 63 4 28 57 58 121 67 29 4 55 8 60 9
4 0 7 -15 7 -34z"/>
<path d="M6460 7848 c-19 -5 -42 -16 -51 -24 -21 -19 -29 -18 -29 6 0 17 -7
20 -45 20 l-45 0 0 -225 0 -225 45 0 45 0 0 145 c0 193 18 237 97 237 28 0 43
-7 60 -27 22 -25 23 -34 23 -191 l0 -164 46 0 46 0 -4 183 c-4 191 -11 224
-52 251 -30 19 -95 26 -136 14z"/>
<path d="M7348 7850 c-153 -46 -254 -251 -188 -381 33 -63 70 -81 161 -76 64
3 86 9 135 37 34 19 60 28 62 22 2 -6 12 -22 23 -36 40 -50 149 -23 149 37 0
25 -24 21 -35 -5 -15 -34 -53 -36 -65 -3 -18 49 -11 83 29 143 67 97 111 222
79 222 -9 0 -20 -18 -27 -42 -7 -24 -29 -74 -49 -113 l-37 -70 -5 75 c-7 99
-32 148 -90 178 -45 22 -94 27 -142 12z m103 -30 c40 -22 53 -67 53 -200 l1
-125 -54 -32 c-140 -84 -237 -54 -234 71 2 66 35 172 68 216 47 64 119 94 166
70z"/>
<path d="M8392 7488 c-7 -7 -12 -24 -12 -38 0 -14 5 -31 12 -38 7 -7 24 -12
38 -12 14 0 31 5 38 12 7 7 12 24 12 38 0 14 -5 31 -12 38 -7 7 -24 12 -38 12
-14 0 -31 -5 -38 -12z"/>
<path d="M8852 7488 c-7 -7 -12 -24 -12 -38 0 -14 5 -31 12 -38 7 -7 24 -12
38 -12 14 0 31 5 38 12 7 7 12 24 12 38 0 14 -5 31 -12 38 -7 7 -24 12 -38 12
-14 0 -31 -5 -38 -12z"/>
<path d="M9302 7488 c-7 -7 -12 -24 -12 -38 0 -14 5 -31 12 -38 7 -7 24 -12
38 -12 14 0 31 5 38 12 7 7 12 24 12 38 0 14 -5 31 -12 38 -7 7 -24 12 -38 12
-14 0 -31 -5 -38 -12z"/>
<path d="M14700 8730 l0 -1740 2515 0 2515 0 0 1740 0 1740 -2515 0 -2515 0 0
-1740z m5000 0 l0 -1710 -2485 0 -2485 0 0 1710 0 1710 2485 0 2485 0 0 -1710z"/>
<path d="M16166 10272 c-51 -64 -93 -148 -118 -241 -30 -112 -30 -353 1 -466
26 -98 60 -170 112 -235 36 -45 43 -50 80 -50 l40 0 -34 43 c-86 105 -126 235
-134 427 -9 218 31 387 121 508 20 28 36 52 36 56 0 3 -15 6 -32 6 -27 0 -40
-9 -72 -48z"/>
<path d="M17030 10314 c0 -4 14 -22 30 -41 95 -108 150 -325 136 -540 -11
-172 -54 -305 -132 -407 l-35 -46 39 0 c36 0 43 5 81 53 99 130 136 272 128
501 -7 211 -44 329 -138 439 -34 39 -46 47 -75 47 -19 0 -34 -3 -34 -6z"/>
<path d="M19056 10230 c-42 -13 -91 -65 -117 -124 -32 -71 -40 -322 -14 -412
23 -82 58 -132 108 -155 114 -51 223 6 264 139 14 44 18 91 17 207 0 131 -3
157 -23 207 -29 74 -55 106 -105 129 -44 20 -84 23 -130 9z m122 -93 c41 -38
55 -113 50 -276 -3 -131 -6 -151 -28 -196 -40 -81 -102 -97 -155 -40 -38 42
-50 106 -50 270 0 138 2 154 24 199 37 76 104 94 159 43z"/>
<path d="M15290 10165 l0 -45 45 0 45 0 0 45 0 45 -45 0 -45 0 0 -45z"/>
<path d="M18105 9955 c-268 -124 -320 -153 -303 -170 13 -13 589 -275 604
-275 10 0 14 7 12 20 -2 16 -59 47 -265 142 -144 66 -261 124 -258 127 2 4
121 61 264 126 228 105 261 123 261 143 0 12 -6 22 -12 21 -7 0 -143 -61 -303
-134z"/>
<path d="M14964 9990 c-50 -16 -77 -53 -82 -115 -4 -52 -3 -56 30 -89 24 -24
53 -39 94 -50 94 -26 109 -36 109 -76 0 -26 -6 -37 -25 -48 -33 -17 -111 -9
-163 17 -23 11 -42 19 -43 18 0 -1 -4 -18 -7 -38 -5 -34 -3 -37 31 -54 47 -22
158 -31 204 -16 57 19 81 52 86 121 4 59 4 61 -34 99 -31 31 -51 41 -99 51
-75 15 -105 33 -105 65 0 52 74 69 164 39 26 -9 48 -15 50 -13 2 2 6 18 9 35
5 27 2 33 -21 44 -34 16 -158 22 -198 10z"/>
<path d="M15690 9988 c-19 -5 -42 -16 -51 -24 -21 -19 -29 -18 -29 6 0 17 -7
20 -45 20 l-45 0 0 -225 0 -225 45 0 45 0 0 145 c0 193 18 237 97 237 28 0 43
-7 60 -27 22 -25 23 -34 23 -191 l0 -164 46 0 46 0 -4 183 c-4 191 -11 224
-52 251 -30 19 -95 26 -136 14z"/>
<path d="M16578 9990 c-153 -46 -254 -251 -188 -381 33 -63 70 -81 161 -76 64
3 86 9 135 37 34 19 60 28 62 22 2 -6 12 -22 23 -36 40 -50 149 -23 149 37 0
25 -24 21 -35 -5 -15 -34 -53 -36 -65 -3 -18 49 -11 83 29 143 67 97 111 222
79 222 -9 0 -20 -18 -27 -42 -7 -24 -29 -74 -49 -113 l-37 -70 -5 75 c-7 99
-32 148 -90 178 -45 22 -94 27 -142 12z m103 -30 c40 -22 53 -67 53 -200 l1
-125 -54 -32 c-140 -84 -237 -54 -234 71 2 66 35 172 68 216 47 64 119 94 166
70z"/>
<path d="M15290 9765 l0 -225 45 0 45 0 0 225 0 225 -45 0 -45 0 0 -225z"/>
<path d="M16366 9202 c-51 -64 -93 -148 -118 -241 -30 -112 -30 -353 1 -466
26 -98 60 -170 112 -235 36 -45 43 -50 80 -50 l40 0 -34 43 c-86 105 -126 235
-134 427 -9 218 31 387 121 508 20 28 36 52 36 56 0 3 -15 6 -32 6 -27 0 -40
-9 -72 -48z"/>
<path d="M17220 9244 c0 -4 14 -22 30 -41 95 -108 150 -325 136 -540 -11 -172
-54 -305 -132 -407 l-35 -46 39 0 c36 0 43 5 81 53 99 130 136 272 128 501 -7
211 -44 329 -138 439 -34 39 -46 47 -75 47 -19 0 -34 -3 -34 -6z"/>
<path d="M19166 9160 c-42 -13 -91 -65 -117 -124 -32 -71 -40 -322 -14 -412
23 -82 58 -132 108 -155 114 -51 223 6 264 139 14 44 18 91 17 207 0 131 -3
157 -23 207 -29 74 -55 106 -105 129 -44 20 -84 23 -130 9z m122 -93 c41 -38
55 -113 50 -276 -3 -131 -6 -151 -28 -196 -40 -81 -102 -97 -155 -40 -38 42
-50 106 -50 270 0 138 2 154 24 199 37 76 104 94 159 43z"/>
<path d="M17953 9004 c-3 -8 -2 -19 3 -24 5 -5 124 -61 264 -125 140 -64 258
-120 262 -123 4 -4 -114 -63 -262 -131 -210 -97 -270 -128 -270 -143 0 -11 7
-18 18 -18 11 0 149 60 308 133 223 103 290 138 292 153 2 17 -41 40 -295 157
-164 75 -302 137 -306 137 -4 0 -10 -7 -14 -16z"/>
<path d="M15004 8905 c-63 -31 -100 -82 -116 -156 -23 -111 22 -219 112 -267
37 -19 56 -23 110 -20 38 2 82 12 105 23 36 18 40 23 37 54 -1 19 -4 36 -5 38
-2 1 -22 -7 -45 -18 -129 -64 -232 -5 -232 133 0 62 23 113 63 142 36 26 118
27 166 2 37 -20 51 -12 51 31 0 32 -51 55 -130 60 -55 4 -73 1 -116 -22z"/>
<path d="M15429 8907 c-144 -76 -168 -287 -45 -394 133 -118 334 -31 353 151
19 185 -156 323 -308 243z m150 -65 c48 -26 71 -74 71 -145 0 -91 -45 -155
-117 -163 -84 -11 -151 77 -140 185 7 63 29 99 78 123 43 23 66 23 108 0z"/>
<path d="M15884 8920 c-50 -16 -77 -53 -82 -115 -4 -52 -3 -56 30 -89 24 -24
53 -39 94 -50 94 -26 109 -36 109 -76 0 -26 -6 -37 -25 -48 -33 -17 -111 -9
-163 17 -23 11 -42 19 -43 18 0 -1 -4 -18 -7 -38 -5 -34 -3 -37 31 -54 47 -22
158 -31 204 -16 57 19 81 52 86 121 4 59 4 61 -34 99 -31 31 -51 41 -99 51
-75 15 -105 33 -105 65 0 52 74 69 164 39 26 -9 48 -15 50 -13 2 2 6 18 9 35
5 27 2 33 -21 44 -34 16 -158 22 -198 10z"/>
<path d="M16768 8920 c-153 -46 -254 -251 -188 -381 33 -63 70 -81 161 -76 64
3 86 9 135 37 34 19 60 28 62 22 2 -6 12 -22 23 -36 40 -50 149 -23 149 37 0
25 -24 21 -35 -5 -15 -34 -53 -36 -65 -3 -18 49 -11 83 29 143 67 97 111 222
79 222 -9 0 -20 -18 -27 -42 -7 -24 -29 -74 -49 -113 l-37 -70 -5 75 c-7 99
-32 148 -90 178 -45 22 -94 27 -142 12z m103 -30 c40 -22 53 -67 53 -200 l1
-125 -54 -32 c-140 -84 -237 -54 -234 71 2 66 35 172 68 216 47 64 119 94 166
70z"/>
<path d="M16386 8132 c-51 -64 -93 -148 -118 -241 -30 -112 -30 -353 1 -466
26 -98 60 -170 112 -235 36 -45 43 -50 80 -50 l40 0 -34 43 c-86 105 -126 235
-134 427 -9 218 31 387 121 508 20 28 36 52 36 56 0 3 -15 6 -32 6 -27 0 -40
-9 -72 -48z"/>
<path d="M17240 8174 c0 -4 14 -22 30 -41 95 -108 150 -325 136 -540 -11 -172
-54 -305 -132 -407 l-35 -46 39 0 c36 0 43 5 81 53 99 130 136 272 128 501 -7
211 -44 329 -138 439 -34 39 -46 47 -75 47 -19 0 -34 -3 -34 -6z"/>
<path d="M19286 8090 c-42 -13 -91 -65 -117 -124 -32 -71 -40 -322 -14 -412
23 -82 58 -132 108 -155 114 -51 223 6 264 139 14 44 18 91 17 207 0 131 -3
157 -23 207 -29 74 -55 106 -105 129 -44 20 -84 23 -130 9z m122 -93 c41 -38
55 -113 50 -276 -3 -131 -6 -151 -28 -196 -40 -81 -102 -97 -155 -40 -38 42
-50 106 -50 270 0 138 2 154 24 199 37 76 104 94 159 43z"/>
<path d="M14950 7910 l0 -60 -45 0 c-45 0 -45 0 -45 -35 0 -34 1 -35 39 -35
l39 0 4 -164 c3 -149 5 -167 24 -193 20 -26 27 -28 85 -27 83 1 128 23 121 59
-6 34 -16 38 -51 20 -40 -20 -68 -19 -81 4 -5 11 -10 83 -10 160 l0 141 65 0
65 0 0 35 0 35 -65 0 -65 0 0 60 0 60 -40 0 -40 0 0 -60z"/>
<path d="M15338 7844 c-56 -17 -62 -25 -54 -68 l6 -33 47 23 c65 33 125 32
152 -2 21 -27 38 -90 27 -101 -3 -4 -36 -10 -71 -14 -75 -9 -142 -36 -173 -70
-42 -44 -19 -149 39 -180 29 -15 135 -7 177 15 28 14 32 15 32 1 0 -11 11 -15
40 -15 l40 0 0 171 c0 158 -2 174 -22 210 -40 71 -133 96 -240 63z m182 -279
c0 -70 -35 -105 -104 -105 -42 0 -88 35 -84 63 4 28 57 58 121 67 29 4 55 8
60 9 4 0 7 -15 7 -34z"/>
<path d="M15910 7848 c-19 -5 -42 -16 -51 -24 -21 -19 -29 -18 -29 6 0 17 -7
20 -45 20 l-45 0 0 -225 0 -225 45 0 45 0 0 145 c0 193 18 237 97 237 28 0 43
-7 60 -27 22 -25 23 -34 23 -191 l0 -164 46 0 46 0 -4 183 c-4 191 -11 224
-52 251 -30 19 -95 26 -136 14z"/>
<path d="M16788 7850 c-153 -46 -254 -251 -188 -381 33 -63 70 -81 161 -76 64
3 86 9 135 37 34 19 60 28 62 22 2 -6 12 -22 23 -36 40 -50 149 -23 149 37 0
25 -24 21 -35 -5 -15 -34 -53 -36 -65 -3 -18 49 -11 83 29 143 67 97 111 222
79 222 -9 0 -20 -18 -27 -42 -7 -24 -29 -74 -49 -113 l-37 -70 -5 75 c-7 99
-32 148 -90 178 -45 22 -94 27 -142 12z m103 -30 c40 -22 53 -67 53 -200 l1
-125 -54 -32 c-140 -84 -237 -54 -234 71 2 66 35 172 68 216 47 64 119 94 166
70z"/>
<path d="M17842 7488 c-7 -7 -12 -24 -12 -38 0 -33 17 -50 50 -50 33 0 50 17
50 50 0 33 -17 50 -50 50 -14 0 -31 -5 -38 -12z"/>
<path d="M18302 7488 c-7 -7 -12 -24 -12 -38 0 -33 17 -50 50 -50 33 0 50 17
50 50 0 33 -17 50 -50 50 -14 0 -31 -5 -38 -12z"/>
<path d="M18752 7488 c-7 -7 -12 -24 -12 -38 0 -33 17 -50 50 -50 33 0 50 17
50 50 0 33 -17 50 -50 50 -14 0 -31 -5 -38 -12z"/>
<path d="M11680 8865 c-22 -23 -25 -37 -28 -108 -3 -91 8 -123 50 -146 37 -21
78 -5 101 39 25 49 20 168 -9 207 -30 40 -81 43 -114 8z m101 -46 c11 -38 9
-111 -4 -149 -10 -29 -17 -35 -42 -35 -39 0 -55 32 -55 112 0 68 14 110 39
116 23 6 55 -16 62 -44z"/>
<path d="M12012 8792 c-29 -49 -52 -94 -52 -100 0 -8 19 -12 55 -12 l55 0 0
-35 c0 -28 4 -35 20 -35 16 0 20 7 20 35 0 28 4 35 20 35 11 0 20 5 20 11 0 6
-9 13 -20 16 -18 5 -20 14 -20 89 0 81 -1 84 -23 84 -18 0 -33 -18 -75 -88z
m58 -22 l0 -60 -36 0 -35 0 33 60 c18 33 34 60 35 60 2 0 3 -27 3 -60z"/>
<path d="M11335 8710 c4 -6 57 -10 125 -10 68 0 121 4 125 10 4 6 -40 10 -125
10 -85 0 -129 -4 -125 -10z"/>
<path d="M11870 8631 c0 -15 6 -21 21 -21 14 0 19 5 17 17 -5 26 -38 29 -38 4z"/>
<path d="M11680 6505 c-22 -23 -25 -37 -28 -108 -3 -91 8 -123 50 -146 37 -21
78 -5 101 39 25 49 20 168 -9 207 -30 40 -81 43 -114 8z m101 -46 c11 -38 9
-111 -4 -149 -10 -29 -17 -35 -42 -35 -39 0 -55 32 -55 112 0 68 14 110 39
116 23 6 55 -16 62 -44z"/>
<path d="M12016 6505 c-34 -31 -46 -64 -46 -126 0 -117 68 -174 137 -115 24
21 28 31 28 79 0 85 -53 124 -112 82 -21 -15 -21 -15 -12 17 12 45 46 71 81
64 21 -4 28 -2 28 9 0 26 -73 19 -104 -10z m68 -101 c19 -19 22 -104 4 -122
-16 -16 -53 -15 -66 1 -6 6 -13 29 -17 49 -6 31 -3 41 19 62 29 30 39 32 60
10z"/>
<path d="M11335 6350 c4 -6 57 -10 125 -10 68 0 121 4 125 10 4 6 -40 10 -125
10 -85 0 -129 -4 -125 -10z"/>
<path d="M11870 6271 c0 -15 6 -21 21 -21 14 0 19 5 17 17 -5 26 -38 29 -38 4z"/>
<path d="M7254 5602 c-283 -101 -300 -582 -25 -719 26 -13 59 -18 119 -18 l83
0 37 -57 37 -58 58 0 58 0 -22 33 c-13 17 -40 55 -60 83 l-38 51 35 34 c19 19
49 63 67 98 28 57 32 77 35 167 5 116 -10 176 -60 256 -75 119 -207 172 -324
130z m154 -76 c42 -22 89 -76 114 -131 20 -43 23 -66 23 -160 -1 -116 -14
-161 -66 -225 l-20 -25 -22 29 c-53 70 -50 67 -100 64 l-47 -3 45 -67 45 -68
-25 -6 c-68 -17 -178 70 -209 164 -46 140 -16 312 68 391 53 50 138 66 194 37z"/>
<path d="M16674 5602 c-283 -101 -300 -582 -25 -719 26 -13 59 -18 119 -18
l83 0 37 -57 37 -58 58 0 58 0 -22 33 c-13 17 -40 55 -60 83 l-38 51 35 34
c19 19 49 63 67 98 28 57 32 77 35 167 5 116 -10 176 -60 256 -75 119 -207
172 -324 130z m154 -76 c42 -22 89 -76 114 -131 20 -43 23 -66 23 -160 -1
-116 -14 -161 -66 -225 l-20 -25 -22 29 c-53 70 -50 67 -100 64 l-47 -3 45
-67 45 -68 -25 -6 c-68 -17 -178 70 -209 164 -46 140 -16 312 68 391 53 50
138 66 194 37z"/>
<path d="M7780 5240 l0 -360 45 0 45 0 0 360 0 360 -45 0 -45 0 0 -360z"/>
<path d="M8080 5240 l0 -360 45 0 45 0 0 360 0 360 -45 0 -45 0 0 -360z"/>
<path d="M8370 5240 l0 -360 45 0 45 0 0 360 0 360 -45 0 -45 0 0 -360z"/>
<path d="M17200 5240 l0 -360 45 0 45 0 0 360 0 360 -45 0 -45 0 0 -360z"/>
<path d="M17390 5596 c0 -2 54 -152 121 -332 67 -181 126 -342 131 -357 10
-26 13 -28 61 -25 l52 3 127 345 c70 190 127 351 127 358 1 8 -14 12 -41 12
l-43 0 -104 -293 c-56 -160 -105 -299 -108 -307 -2 -8 -36 73 -74 180 -38 107
-87 246 -110 308 l-41 112 -49 0 c-27 0 -49 -2 -49 -4z"/>
<path d="M11680 4145 c-22 -23 -25 -37 -28 -108 -3 -91 8 -123 50 -146 37 -21
78 -5 101 39 25 49 20 168 -9 207 -30 40 -81 43 -114 8z m101 -46 c11 -38 9
-111 -4 -149 -10 -29 -17 -35 -42 -35 -39 0 -55 32 -55 112 0 68 14 110 39
116 23 6 55 -16 62 -44z"/>
<path d="M11999 4152 c-30 -25 -31 -80 -1 -100 l22 -14 -25 -20 c-41 -32 -33
-98 16 -123 42 -22 67 -18 100 14 36 36 37 73 5 106 -23 23 -23 24 -5 41 25
22 24 69 -1 94 -25 25 -80 26 -111 2z m82 -12 c22 -12 26 -59 7 -78 -17 -17
-48 -15 -70 5 -23 21 -23 38 2 63 23 23 33 24 61 10z m9 -135 c16 -20 16 -61
0 -80 -8 -10 -25 -15 -44 -13 -62 6 -60 108 3 108 16 0 34 -7 41 -15z"/>
<path d="M11335 3990 c4 -6 57 -10 125 -10 68 0 121 4 125 10 4 6 -40 10 -125
10 -85 0 -129 -4 -125 -10z"/>
<path d="M11870 3911 c0 -15 6 -21 21 -21 25 0 22 33 -4 38 -12 2 -17 -3 -17
-17z"/>
<path d="M16994 22142 c-283 -101 -300 -582 -25 -719 26 -13 59 -18 119 -18
l83 0 37 -57 37 -58 58 0 58 0 -22 33 c-13 17 -40 55 -60 83 l-38 51 35 34
c19 19 49 63 67 98 28 57 32 77 35 167 5 116 -10 176 -60 256 -75 119 -207
172 -324 130z m154 -76 c42 -22 89 -76 114 -131 20 -43 23 -66 23 -160 -1
-116 -14 -161 -66 -225 l-20 -25 -22 29 c-53 70 -50 67 -100 64 l-47 -3 45
-67 45 -68 -25 -6 c-68 -17 -178 70 -209 164 -46 140 -16 312 68 391 53 50
138 66 194 37z"/>
<path d="M17530 21780 l0 -360 45 0 45 0 0 360 0 360 -45 0 -45 0 0 -360z"/>
<path d="M14700 18180 l0 -1740 2515 0 2515 0 0 1740 0 1740 -2515 0 -2515 0
0 -1740z m5000 0 l0 -1710 -2485 0 -2485 0 0 1710 0 1710 2485 0 2485 0 0
-1710z"/>
<path d="M16166 19722 c-51 -64 -93 -148 -118 -241 -30 -112 -30 -353 1 -466
26 -98 60 -170 112 -235 36 -45 43 -50 80 -50 l40 0 -34 43 c-86 105 -126 235
-134 427 -9 218 31 387 121 508 20 28 36 52 36 56 0 3 -15 6 -32 6 -27 0 -40
-9 -72 -48z"/>
<path d="M17030 19764 c0 -4 14 -22 30 -41 95 -108 150 -325 136 -540 -11
-172 -54 -305 -132 -407 l-35 -46 39 0 c36 0 43 5 81 53 99 130 136 272 128
501 -7 211 -44 329 -138 439 -34 39 -46 47 -75 47 -19 0 -34 -3 -34 -6z"/>
<path d="M19056 19680 c-42 -13 -91 -65 -117 -124 -32 -71 -40 -322 -14 -412
23 -82 58 -132 108 -155 114 -51 223 6 264 139 14 44 18 91 17 207 0 131 -3
157 -23 207 -29 74 -55 106 -105 129 -44 20 -84 23 -130 9z m122 -93 c41 -38
55 -113 50 -276 -3 -131 -6 -151 -28 -196 -40 -81 -102 -97 -155 -40 -38 42
-50 106 -50 270 0 138 2 154 24 199 37 76 104 94 159 43z"/>
<path d="M15290 19615 l0 -45 45 0 45 0 0 45 0 45 -45 0 -45 0 0 -45z"/>
<path d="M17803 19524 c-3 -8 -2 -19 3 -24 5 -5 124 -61 264 -125 140 -64 258
-120 262 -123 4 -4 -114 -63 -262 -131 -210 -97 -270 -128 -270 -143 0 -11 7
-18 18 -18 11 0 149 60 308 133 223 103 290 138 292 153 2 17 -41 40 -295 157
-164 75 -302 137 -306 137 -4 0 -10 -7 -14 -16z"/>
<path d="M14964 19440 c-50 -16 -77 -53 -82 -115 -4 -52 -3 -56 30 -89 24 -24
53 -39 94 -50 94 -26 109 -36 109 -76 0 -26 -6 -37 -25 -48 -33 -17 -111 -9
-163 17 -23 11 -42 19 -43 18 0 -1 -4 -18 -7 -38 -5 -34 -3 -37 31 -54 47 -22
158 -31 204 -16 57 19 81 52 86 121 4 59 4 61 -34 99 -31 31 -51 41 -99 51
-75 15 -105 33 -105 65 0 52 74 69 164 39 26 -9 48 -15 50 -13 2 2 6 18 9 35
5 27 2 33 -21 44 -34 16 -158 22 -198 10z"/>
<path d="M15690 19438 c-19 -5 -42 -16 -51 -24 -21 -19 -29 -18 -29 6 0 17 -7
20 -45 20 l-45 0 0 -225 0 -225 45 0 45 0 0 145 c0 193 18 237 97 237 28 0 43
-7 60 -27 22 -25 23 -34 23 -191 l0 -164 46 0 46 0 -4 183 c-4 191 -11 224
-52 251 -30 19 -95 26 -136 14z"/>
<path d="M16578 19440 c-153 -46 -254 -251 -188 -381 33 -63 70 -81 161 -76
64 3 86 9 135 37 34 19 60 28 62 22 2 -6 12 -22 23 -36 40 -50 149 -23 149 37
0 25 -24 21 -35 -5 -15 -34 -53 -36 -65 -3 -18 49 -11 83 29 143 67 97 111
222 79 222 -9 0 -20 -18 -27 -42 -7 -24 -29 -74 -49 -113 l-37 -70 -5 75 c-7
99 -32 148 -90 178 -45 22 -94 27 -142 12z m103 -30 c40 -22 53 -67 53 -200
l1 -125 -54 -32 c-140 -84 -237 -54 -234 71 2 66 35 172 68 216 47 64 119 94
166 70z"/>
<path d="M15290 19215 l0 -225 45 0 45 0 0 225 0 225 -45 0 -45 0 0 -225z"/>
<path d="M16366 18652 c-51 -64 -93 -148 -118 -241 -30 -112 -30 -353 1 -466
26 -98 60 -170 112 -235 36 -45 43 -50 80 -50 l40 0 -34 43 c-86 105 -126 235
-134 427 -9 218 31 387 121 508 20 28 36 52 36 56 0 3 -15 6 -32 6 -27 0 -40
-9 -72 -48z"/>
<path d="M17220 18694 c0 -4 14 -22 30 -41 95 -108 150 -325 136 -540 -11
-172 -54 -305 -132 -407 l-35 -46 39 0 c36 0 43 5 81 53 99 130 136 272 128
501 -7 211 -44 329 -138 439 -34 39 -46 47 -75 47 -19 0 -34 -3 -34 -6z"/>
<path d="M19166 18610 c-42 -13 -91 -65 -117 -124 -32 -71 -40 -322 -14 -412
23 -82 58 -132 108 -155 114 -51 223 6 264 139 14 44 18 91 17 207 0 131 -3
157 -23 207 -29 74 -55 106 -105 129 -44 20 -84 23 -130 9z m122 -93 c41 -38
55 -113 50 -276 -3 -131 -6 -151 -28 -196 -40 -81 -102 -97 -155 -40 -38 42
-50 106 -50 270 0 138 2 154 24 199 37 76 104 94 159 43z"/>
<path d="M17953 18454 c-3 -8 -2 -19 3 -24 5 -5 124 -61 264 -125 140 -64 258
-120 262 -123 4 -4 -114 -63 -262 -131 -210 -97 -270 -128 -270 -143 0 -11 7
-18 18 -18 11 0 149 60 308 133 223 103 290 138 292 153 2 17 -41 40 -295 157
-164 75 -302 137 -306 137 -4 0 -10 -7 -14 -16z"/>
<path d="M15004 18355 c-63 -31 -100 -82 -116 -156 -23 -111 22 -219 112 -267
37 -19 56 -23 110 -20 38 2 82 12 105 23 36 18 40 23 37 54 -1 19 -4 36 -5 38
-2 1 -22 -7 -45 -18 -129 -64 -232 -5 -232 133 0 62 23 113 63 142 36 26 118
27 166 2 37 -20 51 -12 51 31 0 32 -51 55 -130 60 -55 4 -73 1 -116 -22z"/>
<path d="M15429 18357 c-144 -76 -168 -287 -45 -394 133 -118 334 -31 353 151
19 185 -156 323 -308 243z m150 -65 c48 -26 71 -74 71 -145 0 -91 -45 -155
-117 -163 -84 -11 -151 77 -140 185 7 63 29 99 78 123 43 23 66 23 108 0z"/>
<path d="M15884 18370 c-50 -16 -77 -53 -82 -115 -4 -52 -3 -56 30 -89 24 -24
53 -39 94 -50 94 -26 109 -36 109 -76 0 -26 -6 -37 -25 -48 -33 -17 -111 -9
-163 17 -23 11 -42 19 -43 18 0 -1 -4 -18 -7 -38 -5 -34 -3 -37 31 -54 47 -22
158 -31 204 -16 57 19 81 52 86 121 4 59 4 61 -34 99 -31 31 -51 41 -99 51
-75 15 -105 33 -105 65 0 52 74 69 164 39 26 -9 48 -15 50 -13 2 2 6 18 9 35
5 27 2 33 -21 44 -34 16 -158 22 -198 10z"/>
<path d="M16768 18370 c-153 -46 -254 -251 -188 -381 33 -63 70 -81 161 -76
64 3 86 9 135 37 34 19 60 28 62 22 2 -6 12 -22 23 -36 40 -50 149 -23 149 37
0 25 -24 21 -35 -5 -15 -34 -53 -36 -65 -3 -18 49 -11 83 29 143 67 97 111
222 79 222 -9 0 -20 -18 -27 -42 -7 -24 -29 -74 -49 -113 l-37 -70 -5 75 c-7
99 -32 148 -90 178 -45 22 -94 27 -142 12z m103 -30 c40 -22 53 -67 53 -200
l1 -125 -54 -32 c-140 -84 -237 -54 -234 71 2 66 35 172 68 216 47 64 119 94
166 70z"/>
<path d="M16386 17582 c-51 -64 -93 -148 -118 -241 -30 -112 -30 -353 1 -466
26 -98 60 -170 112 -235 36 -45 43 -50 80 -50 l40 0 -34 43 c-86 105 -126 235
-134 427 -9 218 31 387 121 508 20 28 36 52 36 56 0 3 -15 6 -32 6 -27 0 -40
-9 -72 -48z"/>
<path d="M17240 17624 c0 -4 14 -22 30 -41 95 -108 150 -325 136 -540 -11
-172 -54 -305 -132 -407 l-35 -46 39 0 c36 0 43 5 81 53 99 130 136 272 128
501 -7 211 -44 329 -138 439 -34 39 -46 47 -75 47 -19 0 -34 -3 -34 -6z"/>
<path d="M19286 17540 c-42 -13 -91 -65 -117 -124 -32 -71 -40 -322 -14 -412
23 -82 58 -132 108 -155 114 -51 223 6 264 139 14 44 18 91 17 207 0 131 -3
157 -23 207 -29 74 -55 106 -105 129 -44 20 -84 23 -130 9z m122 -93 c41 -38
55 -113 50 -276 -3 -131 -6 -151 -28 -196 -40 -81 -102 -97 -155 -40 -38 42
-50 106 -50 270 0 138 2 154 24 199 37 76 104 94 159 43z"/>
<path d="M14950 17360 l0 -60 -45 0 c-45 0 -45 0 -45 -35 0 -34 1 -35 39 -35
l39 0 4 -164 c3 -149 5 -167 24 -193 20 -26 27 -28 85 -27 83 1 128 23 121 59
-6 34 -16 38 -51 20 -40 -20 -68 -19 -81 4 -5 11 -10 83 -10 160 l0 141 65 0
65 0 0 35 0 35 -65 0 -65 0 0 60 0 60 -40 0 -40 0 0 -60z"/>
<path d="M15338 17294 c-56 -17 -62 -25 -54 -68 l6 -33 47 23 c65 33 125 32
152 -2 21 -27 38 -90 27 -101 -3 -4 -36 -10 -71 -14 -75 -9 -142 -36 -173 -70
-42 -44 -19 -149 39 -180 29 -15 135 -7 177 15 28 14 32 15 32 1 0 -11 11 -15
40 -15 l40 0 0 171 c0 158 -2 174 -22 210 -40 71 -133 96 -240 63z m182 -279
c0 -70 -35 -105 -104 -105 -42 0 -88 35 -84 63 4 28 57 58 121 67 29 4 55 8
60 9 4 0 7 -15 7 -34z"/>
<path d="M15910 17298 c-19 -5 -42 -16 -51 -24 -21 -19 -29 -18 -29 6 0 17 -7
20 -45 20 l-45 0 0 -225 0 -225 45 0 45 0 0 145 c0 193 18 237 97 237 28 0 43
-7 60 -27 22 -25 23 -34 23 -191 l0 -164 46 0 46 0 -4 183 c-4 191 -11 224
-52 251 -30 19 -95 26 -136 14z"/>
<path d="M16788 17300 c-153 -46 -254 -251 -188 -381 33 -63 70 -81 161 -76
64 3 86 9 135 37 34 19 60 28 62 22 2 -6 12 -22 23 -36 40 -50 149 -23 149 37
0 25 -24 21 -35 -5 -15 -34 -53 -36 -65 -3 -18 49 -11 83 29 143 67 97 111
222 79 222 -9 0 -20 -18 -27 -42 -7 -24 -29 -74 -49 -113 l-37 -70 -5 75 c-7
99 -32 148 -90 178 -45 22 -94 27 -142 12z m103 -30 c40 -22 53 -67 53 -200
l1 -125 -54 -32 c-140 -84 -237 -54 -234 71 2 66 35 172 68 216 47 64 119 94
166 70z"/>
<path d="M17842 16938 c-7 -7 -12 -24 -12 -38 0 -14 5 -31 12 -38 7 -7 24 -12
38 -12 14 0 31 5 38 12 7 7 12 24 12 38 0 14 -5 31 -12 38 -7 7 -24 12 -38 12
-14 0 -31 -5 -38 -12z"/>
<path d="M18302 16938 c-7 -7 -12 -24 -12 -38 0 -14 5 -31 12 -38 7 -7 24 -12
38 -12 14 0 31 5 38 12 7 7 12 24 12 38 0 14 -5 31 -12 38 -7 7 -24 12 -38 12
-14 0 -31 -5 -38 -12z"/>
<path d="M18752 16938 c-7 -7 -12 -24 -12 -38 0 -14 5 -31 12 -38 7 -7 24 -12
38 -12 14 0 31 5 38 12 7 7 12 24 12 38 0 14 -5 31 -12 38 -7 7 -24 12 -38 12
-14 0 -31 -5 -38 -12z"/>
<path d="M11665 1620 c4 -6 57 -10 125 -10 68 0 121 4 125 10 4 6 -40 10 -125
10 -85 0 -129 -4 -125 -10z"/>
</g>
</svg>
