<?xml version="1.0" standalone="no"?>
<!DOCTYPE svg PUBLIC "-//W3C//DTD SVG 20010904//EN"
 "http://www.w3.org/TR/2001/REC-SVG-20010904/DTD/svg10.dtd">
<svg version="1.0" xmlns="http://www.w3.org/2000/svg"
 width="883.000000pt" height="583.000000pt" viewBox="0 0 883.000000 583.000000"
 preserveAspectRatio="xMidYMid meet">
<metadata>
Created by potrace 1.16, written by Peter Selinger 2001-2019
</metadata>
<g transform="translate(0.000000,583.000000) scale(0.100000,-0.100000)"
fill="#000000" stroke="none">
<path d="M7885 5378 c-6 -20 -55 -257 -55 -268 0 -6 33 -10 79 -10 65 0 84 4
112 23 44 29 51 77 18 113 -12 13 -17 24 -11 24 22 0 52 40 52 69 0 45 -31 61
-118 61 -49 0 -74 -4 -77 -12z m136 -28 c49 -27 -2 -80 -77 -80 -36 0 -36 1
-30 31 3 17 6 38 6 45 0 17 71 19 101 4z m-16 -133 c24 -19 14 -60 -20 -75
-14 -7 -44 -12 -66 -12 l-41 0 7 43 c4 23 9 45 12 50 7 12 88 8 108 -6z"/>
<path d="M4388 2922 c-1951 -1126 -3547 -2050 -3548 -2054 0 -7 7092 -16 7101
-8 4 3 4 928 0 2057 l-6 2052 -3547 -2047z m3542 1322 l0 -696 -77 7 c-384 32
-728 203 -974 485 -80 92 -154 198 -145 207 6 6 1187 691 1194 692 1 1 2 -312
2 -695z m-1181 -86 c247 -365 655 -600 1084 -625 l97 -6 0 -908 0 -909 -415 0
-415 0 0 -420 0 -420 -2409 0 -2408 0 -7 87 c-14 183 -66 378 -146 546 -18 37
-31 69 -29 71 4 4 4592 2655 4596 2655 1 1 25 -32 52 -71z m1171 -2878 l0
-400 -400 0 -400 0 0 400 0 400 400 0 400 0 0 -400z m-5807 188 c77 -175 123
-349 134 -510 l6 -88 -683 0 c-376 0 -681 2 -679 5 13 12 1165 675 1175 675 6
0 27 -37 47 -82z"/>
<path d="M7472 4318 c-37 -18 -59 -66 -96 -215 -40 -159 -39 -153 -27 -153 5
0 14 23 21 51 11 46 13 49 29 35 10 -9 28 -16 42 -16 31 0 84 33 99 61 15 27
15 85 1 103 -8 10 -6 17 9 31 28 25 27 79 -2 99 -26 18 -44 19 -76 4z m66 -36
c6 -39 -23 -72 -63 -72 -24 0 -35 -5 -35 -15 0 -11 11 -15 35 -15 42 0 52 -17
39 -68 -17 -65 -103 -97 -117 -42 -6 24 23 142 46 187 29 56 89 71 95 25z"/>
<path d="M1711 1192 c-74 -37 -90 -137 -28 -172 24 -13 31 -13 72 1 38 14 46
14 56 3 15 -18 43 -18 59 1 17 20 5 32 -15 15 -12 -10 -16 -9 -21 5 -4 10 -2
25 5 34 21 30 42 83 38 99 -2 11 -11 1 -24 -28 -20 -41 -21 -43 -22 -17 -1 32
-41 77 -68 77 -10 0 -33 -8 -52 -18z m68 -16 c6 -8 14 -36 17 -63 6 -47 5 -49
-28 -67 -63 -34 -97 -8 -79 60 18 67 63 102 90 70z"/>
<path d="M4270 3233 c-28 -10 -59 -46 -70 -79 -25 -74 30 -154 94 -138 35 8
78 57 70 78 -6 15 -11 13 -39 -14 -23 -23 -39 -30 -52 -26 -22 7 -43 46 -43
80 0 28 39 66 68 66 15 0 22 6 22 20 0 20 -18 25 -50 13z"/>
<path d="M8183 3009 c-22 -7 -33 -16 -33 -28 0 -17 3 -18 29 -8 35 13 61 4 61
-22 0 -20 -18 -31 -51 -31 -11 0 -33 -7 -49 -15 -23 -12 -30 -23 -30 -44 0
-40 22 -55 67 -46 21 5 47 7 59 6 18 -2 22 7 32 62 7 35 12 73 12 84 0 38 -45
57 -97 42z m47 -117 c0 -14 -25 -41 -40 -42 -50 -7 -56 25 -7 39 42 12 47 12
47 3z"/>
<path d="M8262 722 c-39 -12 -93 -63 -113 -106 -54 -119 23 -222 140 -188 25
8 41 19 44 33 4 16 2 19 -11 13 -9 -4 -36 -9 -59 -12 -55 -5 -83 21 -83 79 0
103 94 180 170 139 14 -7 20 -6 24 7 4 9 3 20 -2 25 -13 13 -81 19 -110 10z"/>
<path d="M525 583 c-96 -165 -91 -153 -66 -153 13 0 28 14 42 40 22 39 23 40
81 40 l58 0 6 -40 c6 -34 10 -40 31 -40 21 0 24 3 19 28 -3 15 -12 70 -21 122
-23 140 -23 140 -48 140 -18 0 -37 -26 -102 -137z m104 -15 c1 -26 -2 -28 -39
-28 -22 0 -40 3 -40 6 0 3 15 32 33 64 l32 59 7 -37 c4 -20 7 -49 7 -64z"/>
<path d="M4370 715 c0 -2 -13 -66 -30 -142 -16 -75 -30 -138 -30 -140 0 -2 12
-3 28 -3 15 0 42 -2 59 -6 66 -13 133 97 101 164 -12 24 -19 27 -61 26 l-48 0
7 30 c3 17 8 41 11 54 4 17 1 22 -16 22 -12 0 -21 -2 -21 -5z m77 -133 c24
-15 20 -71 -7 -100 -21 -23 -64 -30 -75 -12 -3 5 -1 29 5 52 15 57 45 80 77
60z"/>
</g>
</svg>
