<?xml version="1.0" standalone="no"?>
<!DOCTYPE svg PUBLIC "-//W3C//DTD SVG 20010904//EN"
 "http://www.w3.org/TR/2001/REC-SVG-20010904/DTD/svg10.dtd">
<svg version="1.0" xmlns="http://www.w3.org/2000/svg"
 width="875.000000pt" height="583.000000pt" viewBox="0 0 875.000000 583.000000"
 preserveAspectRatio="xMidYMid meet">
<metadata>
Created by potrace 1.16, written by Peter Selinger 2001-2019
</metadata>
<g transform="translate(0.000000,583.000000) scale(0.100000,-0.100000)"
fill="#000000" stroke="none">
<path d="M7942 5392 c-39 -12 -93 -63 -113 -106 -54 -119 23 -222 140 -188 25
8 41 19 44 33 4 16 2 19 -11 13 -9 -4 -36 -9 -59 -12 -55 -5 -83 21 -83 79 0
103 94 180 170 139 14 -7 20 -6 24 7 4 9 3 20 -2 25 -13 13 -81 19 -110 10z"/>
<path d="M4376 2925 c-1946 -1124 -3544 -2049 -3549 -2054 -10 -10 2496 -15
6676 -16 l422 0 3 2049 c1 1128 -1 2053 -5 2057 -5 4 -1601 -913 -3547 -2036z
m3534 1319 l0 -695 -72 6 c-364 32 -666 171 -913 420 -96 97 -197 225 -207
262 -2 7 255 162 592 357 327 189 596 345 598 345 1 1 2 -312 2 -695z m-1190
-71 c52 -82 174 -221 260 -295 237 -205 532 -327 833 -345 l97 -6 0 -908 0
-909 -415 0 -415 0 0 -420 0 -420 -2409 0 -2408 0 -7 95 c-12 174 -61 359
-140 530 -20 44 -33 81 -29 83 4 2 1039 599 2298 1327 1260 728 2292 1324
2295 1324 3 0 21 -25 40 -56z m1180 -2893 l0 -400 -400 0 -400 0 0 400 0 400
400 0 400 0 0 -400z m-5802 183 c72 -156 116 -326 136 -535 l6 -58 -687 0
c-414 0 -682 4 -673 10 149 89 1158 669 1166 669 6 1 29 -38 52 -86z"/>
<path d="M7384 4269 c-23 -12 -59 -67 -50 -76 3 -3 17 6 30 20 42 46 89 30
106 -35 9 -33 8 -53 -6 -104 -9 -36 -14 -67 -11 -71 12 -11 19 4 34 68 8 34
27 91 44 127 33 73 33 72 19 72 -6 0 -21 -24 -34 -52 l-23 -53 -6 36 c-8 41
-40 79 -65 78 -9 0 -26 -5 -38 -10z"/>
<path d="M1762 1298 c-37 -18 -59 -66 -96 -215 -40 -159 -39 -153 -27 -153 5
0 14 23 21 51 11 46 13 49 29 35 10 -9 28 -16 42 -16 31 0 84 33 99 61 15 27
15 85 1 103 -8 10 -6 17 9 31 28 25 27 79 -2 99 -26 18 -44 19 -76 4z m66 -36
c6 -39 -23 -72 -63 -72 -24 0 -35 -5 -35 -15 0 -11 11 -15 35 -15 42 0 52 -17
39 -68 -17 -65 -103 -97 -117 -42 -6 24 23 142 46 187 29 56 89 71 95 25z"/>
<path d="M4222 3224 c-29 -20 -43 -47 -32 -64 7 -11 13 -9 30 13 24 31 42 34
60 12 11 -13 7 -22 -28 -56 -30 -28 -42 -48 -42 -67 0 -54 40 -67 87 -29 15
13 36 26 46 30 21 8 21 11 -3 82 -32 92 -66 116 -118 79z m88 -124 c0 -26 -47
-57 -62 -42 -9 9 -5 19 17 42 30 31 45 31 45 0z"/>
<path d="M8150 3055 c0 -2 -13 -66 -30 -142 -16 -75 -30 -138 -30 -140 0 -2
12 -3 28 -3 15 0 42 -2 59 -6 66 -13 133 97 101 164 -12 24 -19 27 -61 26
l-48 0 7 30 c3 17 8 41 11 54 4 17 1 22 -16 22 -12 0 -21 -2 -21 -5z m77 -133
c24 -15 20 -71 -7 -100 -21 -23 -64 -30 -75 -12 -3 5 -1 29 5 52 15 57 45 80
77 60z"/>
<path d="M4380 717 c-74 -25 -107 -134 -54 -176 15 -12 37 -21 50 -21 36 0 74
21 74 42 0 15 -3 17 -19 8 -26 -14 -64 -13 -79 2 -16 16 -15 43 3 78 18 34 56
47 91 31 20 -9 26 -8 31 5 12 31 -43 49 -97 31z"/>
<path d="M475 708 c-6 -20 -55 -257 -55 -268 0 -6 33 -10 79 -10 65 0 84 4
112 23 44 29 51 77 18 113 -12 13 -17 24 -11 24 22 0 52 40 52 69 0 45 -31 61
-118 61 -49 0 -74 -4 -77 -12z m136 -28 c49 -27 -2 -80 -77 -80 -36 0 -36 1
-30 31 3 17 6 38 6 45 0 17 71 19 101 4z m-16 -133 c24 -19 14 -60 -20 -75
-14 -7 -44 -12 -66 -12 l-41 0 7 43 c4 23 9 45 12 50 7 12 88 8 108 -6z"/>
<path d="M8155 583 c-96 -165 -91 -153 -66 -153 13 0 28 14 42 40 22 39 23 40
81 40 l58 0 6 -40 c6 -34 10 -40 31 -40 21 0 24 3 19 28 -3 15 -12 70 -21 122
-23 140 -23 140 -48 140 -18 0 -37 -26 -102 -137z m104 -15 c1 -26 -2 -28 -39
-28 -22 0 -40 3 -40 6 0 3 15 32 33 64 l32 59 7 -37 c4 -20 7 -49 7 -64z"/>
</g>
</svg>
