<?xml version="1.0" standalone="no"?>
<!DOCTYPE svg PUBLIC "-//W3C//DTD SVG 20010904//EN"
 "http://www.w3.org/TR/2001/REC-SVG-20010904/DTD/svg10.dtd">
<svg version="1.0" xmlns="http://www.w3.org/2000/svg"
 width="646.000000pt" height="683.000000pt" viewBox="0 0 646.000000 683.000000"
 preserveAspectRatio="xMidYMid meet">
<metadata>
Created by potrace 1.16, written by Peter Selinger 2001-2019
</metadata>
<g transform="translate(0.000000,683.000000) scale(0.100000,-0.100000)"
fill="#000000" stroke="none">
<path d="M3745 6408 c-6 -20 -55 -257 -55 -268 0 -6 33 -10 79 -10 65 0 84 4
112 23 44 29 51 77 18 113 -12 13 -17 24 -11 24 22 0 52 40 52 69 0 45 -31 61
-118 61 -49 0 -74 -4 -77 -12z m136 -28 c49 -27 -2 -80 -77 -80 -36 0 -36 1
-30 31 3 17 6 38 6 45 0 17 71 19 101 4z m-16 -133 c24 -19 14 -60 -20 -75
-14 -7 -44 -12 -66 -12 l-41 0 7 43 c4 23 9 45 12 50 7 12 88 8 108 -6z"/>
<path d="M3760 6015 c-8 -9 -10 -29 -7 -51 6 -34 -86 -196 -1439 -2539 -1344
-2327 -1447 -2503 -1474 -2509 -58 -11 -62 -88 -6 -102 29 -7 66 11 66 31 0
13 288 15 2309 15 2300 0 2310 0 2316 -20 13 -40 74 -38 99 3 14 22 -12 71
-39 75 -17 2 -151 380 -887 2504 -786 2271 -865 2504 -852 2522 19 28 18 50
-4 69 -23 21 -66 22 -82 2z m136 -341 c46 -131 81 -240 79 -242 -11 -11 -91
-22 -170 -22 -92 -2 -164 13 -241 47 l-42 18 132 227 c101 174 134 224 145
218 8 -4 52 -115 97 -246z m-210 -284 c63 -11 164 -10 283 2 23 3 47 -65 703
-1957 373 -1078 681 -1969 683 -1980 4 -16 -10 -28 -76 -64 -145 -80 -254
-226 -293 -391 -9 -36 -16 -80 -16 -97 l0 -33 -1760 0 -1760 0 0 38 c0 64 -29
162 -70 241 -44 83 -82 128 -164 194 l-53 44 1166 2019 c641 1111 1169 2024
1174 2031 5 9 21 6 60 -11 28 -13 84 -29 123 -36z m1843 -4492 l-11 -28 -259
0 -259 0 0 36 c0 166 139 378 305 466 l70 36 83 -241 c73 -214 81 -244 71
-269z m-4293 390 c32 -29 75 -80 96 -113 39 -60 83 -186 91 -262 l5 -43 -263
0 -263 0 -6 23 c-4 16 17 61 81 172 48 83 105 182 127 221 47 83 43 83 132 2z"/>
<path d="M3722 5218 c-37 -18 -59 -66 -96 -215 -40 -159 -39 -153 -27 -153 5
0 14 23 21 51 11 46 13 49 29 35 10 -9 28 -16 42 -16 31 0 84 33 99 61 15 27
15 85 1 103 -8 10 -6 17 9 31 28 25 27 79 -2 99 -26 18 -44 19 -76 4z m66 -36
c6 -39 -23 -72 -63 -72 -24 0 -35 -5 -35 -15 0 -11 11 -15 35 -15 42 0 52 -17
39 -68 -17 -65 -103 -97 -117 -42 -6 24 23 142 46 187 29 56 89 71 95 25z"/>
<path d="M4734 1539 c-23 -12 -59 -67 -50 -76 3 -3 17 6 30 20 42 46 89 30
106 -35 9 -33 8 -53 -6 -104 -9 -36 -14 -67 -11 -71 12 -11 19 4 34 68 8 34
27 91 44 127 33 73 33 72 19 72 -6 0 -21 -24 -34 -52 l-23 -53 -6 36 c-8 41
-40 79 -65 78 -9 0 -26 -5 -38 -10z"/>
<path d="M3090 1470 c-25 -25 -26 -72 -2 -93 25 -22 75 -21 95 1 37 41 6 112
-48 112 -14 0 -34 -9 -45 -20z m75 -20 c25 -28 7 -70 -30 -70 -37 0 -55 42
-30 70 10 11 23 20 30 20 7 0 20 -9 30 -20z"/>
<path d="M2735 1473 c-80 -19 -118 -159 -69 -254 24 -48 91 -54 129 -13 20 22
25 38 25 79 0 81 -39 115 -107 91 -29 -9 -29 3 -2 38 16 20 29 26 60 26 28 0
39 4 39 15 0 8 -6 15 -14 15 -8 0 -20 2 -28 4 -7 2 -22 1 -33 -1z m35 -142
c24 -45 1 -121 -36 -121 -19 0 -44 41 -44 73 0 41 17 67 45 67 14 0 29 -8 35
-19z"/>
<path d="M2913 1470 c-49 -20 -75 -120 -53 -210 13 -55 39 -80 81 -80 67 0 89
36 89 145 0 86 -17 131 -56 145 -29 12 -32 12 -61 0z m59 -47 c14 -13 18 -31
18 -92 0 -107 -31 -149 -76 -100 -14 16 -18 36 -18 92 -1 104 29 143 76 100z"/>
<path d="M1891 1362 c-74 -37 -90 -137 -28 -172 24 -13 31 -13 72 1 38 14 46
14 56 3 15 -18 43 -18 59 1 17 20 5 32 -15 15 -12 -10 -16 -9 -21 5 -4 10 -2
25 5 34 21 30 42 83 38 99 -2 11 -11 1 -24 -28 -20 -41 -21 -43 -22 -17 -1 32
-41 77 -68 77 -10 0 -33 -8 -52 -18z m68 -16 c6 -8 14 -36 17 -63 6 -47 5 -49
-28 -67 -63 -34 -97 -8 -79 60 18 67 63 102 90 70z"/>
<path d="M2220 1335 c0 -13 22 -15 140 -15 118 0 140 2 140 15 0 13 -22 15
-140 15 -118 0 -140 -2 -140 -15z"/>
<path d="M2220 1250 c0 -6 53 -10 140 -10 87 0 140 4 140 10 0 6 -53 10 -140
10 -87 0 -140 -4 -140 -10z"/>
<path d="M2000 3490 c0 -72 2 -80 19 -80 10 0 24 7 31 15 28 34 64 4 63 -53
-2 -59 -53 -82 -94 -41 -17 17 -23 19 -30 8 -5 -8 -9 -17 -9 -20 0 -16 53 -39
89 -39 32 0 44 6 65 31 58 69 7 177 -74 156 -17 -4 -20 0 -20 29 l0 34 55 0
c48 0 55 2 55 20 0 18 -7 20 -75 20 l-75 0 0 -80z"/>
<path d="M4933 3519 c-22 -7 -33 -16 -33 -28 0 -17 3 -18 29 -8 35 13 61 4 61
-22 0 -20 -18 -31 -51 -31 -11 0 -33 -7 -49 -15 -23 -12 -30 -23 -30 -44 0
-40 22 -55 67 -46 21 5 47 7 59 6 18 -2 22 7 32 62 7 35 12 73 12 84 0 38 -45
57 -97 42z m47 -117 c0 -14 -25 -41 -40 -42 -50 -7 -56 25 -7 39 42 12 47 12
47 3z"/>
<path d="M1310 3477 c-74 -25 -107 -134 -54 -176 15 -12 37 -21 50 -21 36 0
74 21 74 42 0 15 -3 17 -19 8 -26 -14 -64 -13 -79 2 -16 16 -15 43 3 78 18 34
56 47 91 31 20 -9 26 -8 31 5 12 31 -43 49 -97 31z"/>
<path d="M1550 3435 c0 -13 22 -15 140 -15 118 0 140 2 140 15 0 13 -22 15
-140 15 -118 0 -140 -2 -140 -15z"/>
<path d="M1550 3350 c0 -6 53 -10 140 -10 87 0 140 4 140 10 0 6 -53 10 -140
10 -87 0 -140 -4 -140 -10z"/>
<path d="M5902 722 c-39 -12 -93 -63 -113 -106 -54 -119 23 -222 140 -188 25
8 41 19 44 33 4 16 2 19 -11 13 -9 -4 -36 -9 -59 -12 -55 -5 -83 21 -83 79 0
103 94 180 170 139 14 -7 20 -6 24 7 4 9 3 20 -2 25 -13 13 -81 19 -110 10z"/>
<path d="M525 583 c-96 -165 -91 -153 -66 -153 13 0 28 14 42 40 22 39 23 40
81 40 l58 0 6 -40 c6 -34 10 -40 31 -40 21 0 24 3 19 28 -3 15 -12 70 -21 122
-23 140 -23 140 -48 140 -18 0 -37 -26 -102 -137z m104 -15 c1 -26 -2 -28 -39
-28 -22 0 -40 3 -40 6 0 3 15 32 33 64 l32 59 7 -37 c4 -20 7 -49 7 -64z"/>
<path d="M2800 715 c0 -2 -13 -66 -30 -142 -16 -75 -30 -138 -30 -140 0 -2 12
-3 28 -3 15 0 42 -2 59 -6 66 -13 133 97 101 164 -12 24 -19 27 -61 26 l-48 0
7 30 c3 17 8 41 11 54 4 17 1 22 -16 22 -12 0 -21 -2 -21 -5z m77 -133 c24
-15 20 -71 -7 -100 -21 -23 -64 -30 -75 -12 -3 5 -1 29 5 52 15 57 45 80 77
60z"/>
<path d="M3562 622 c-68 -115 -67 -122 3 -122 l55 0 0 -35 c0 -28 4 -35 20
-35 16 0 20 7 20 35 0 28 4 35 20 35 11 0 20 7 20 15 0 8 -9 15 -20 15 -19 0
-20 7 -20 90 0 87 -1 90 -23 90 -18 0 -33 -18 -75 -88z m58 -37 c0 -54 0 -55
-30 -55 -16 0 -30 3 -30 6 0 7 54 104 58 104 1 0 2 -25 2 -55z"/>
<path d="M3080 575 c0 -13 22 -15 140 -15 118 0 140 2 140 15 0 13 -22 15
-140 15 -118 0 -140 -2 -140 -15z"/>
<path d="M3080 490 c0 -6 53 -10 140 -10 87 0 140 4 140 10 0 6 -53 10 -140
10 -87 0 -140 -4 -140 -10z"/>
</g>
</svg>
