<?xml version="1.0" standalone="no"?>
<!DOCTYPE svg PUBLIC "-//W3C//DTD SVG 20010904//EN"
 "http://www.w3.org/TR/2001/REC-SVG-20010904/DTD/svg10.dtd">
<svg version="1.0" xmlns="http://www.w3.org/2000/svg"
 width="763.000000pt" height="404.000000pt" viewBox="0 0 763.000000 404.000000"
 preserveAspectRatio="xMidYMid meet">
<metadata>
Created by potrace 1.16, written by Peter Selinger 2001-2019
</metadata>
<g transform="translate(0.000000,404.000000) scale(0.100000,-0.100000)"
fill="#000000" stroke="none">
<path d="M2725 3588 c-6 -20 -55 -257 -55 -268 0 -6 33 -10 79 -10 65 0 84 4
112 23 44 29 51 77 18 113 -12 13 -17 24 -11 24 22 0 52 40 52 69 0 45 -31 61
-118 61 -49 0 -74 -4 -77 -12z m136 -28 c49 -27 -2 -80 -77 -80 -36 0 -36 1
-30 31 3 17 6 38 6 45 0 17 71 19 101 4z m-16 -133 c24 -19 14 -60 -20 -75
-14 -7 -44 -12 -66 -12 l-41 0 7 43 c4 23 9 45 12 50 7 12 88 8 108 -6z"/>
<path d="M2739 3199 c-13 -13 -19 -30 -17 -50 3 -27 -96 -148 -922 -1133 -776
-925 -928 -1102 -946 -1098 -23 4 -64 -28 -64 -51 0 -7 6 -21 12 -30 12 -16
200 -17 2997 -17 2210 0 2987 3 2997 11 20 16 17 53 -6 74 -14 13 -28 16 -55
11 -33 -6 -90 25 -900 492 -851 491 -864 500 -828 507 21 5 47 7 59 6 19 -2
22 6 34 73 14 85 11 102 -24 116 -35 13 -96 -6 -96 -30 0 -16 4 -17 29 -7 35
13 61 4 61 -22 0 -20 -18 -31 -51 -31 -11 0 -34 -7 -51 -16 -26 -14 -29 -20
-26 -50 4 -32 3 -33 -17 -21 -11 7 -487 283 -1057 612 -900 519 -1038 601
-1038 621 0 23 -33 54 -57 54 -7 0 -22 -9 -34 -21z m313 -209 c172 -99 215
-128 208 -140 -18 -33 -96 -114 -147 -152 -103 -76 -206 -108 -342 -108 -111
0 -256 47 -330 107 l-24 20 163 194 c145 172 167 195 199 200 20 4 41 6 46 5
6 0 108 -57 227 -126z m1698 -980 c795 -458 1451 -839 1458 -845 11 -10 9 -23
-11 -73 -14 -33 -28 -80 -32 -104 -3 -24 -9 -51 -11 -61 -5 -16 -126 -17
-2354 -17 l-2348 0 -7 43 c-17 113 -75 232 -164 338 l-30 36 571 680 571 681
56 -34 c185 -110 412 -122 593 -32 81 41 184 127 229 192 13 19 26 33 29 32 3
-2 655 -378 1450 -836z m310 -18 c0 -14 -25 -41 -40 -42 -50 -7 -56 25 -7 39
42 12 47 12 47 3z"/>
<path d="M2952 2418 c-37 -18 -59 -66 -96 -215 -40 -159 -39 -153 -27 -153 5
0 14 23 21 51 11 46 13 49 29 35 10 -9 28 -16 42 -16 31 0 84 33 99 61 15 27
15 85 1 103 -8 10 -6 17 9 31 28 25 27 79 -2 99 -26 18 -44 19 -76 4z m66 -36
c6 -39 -23 -72 -63 -72 -24 0 -35 -5 -35 -15 0 -11 11 -15 35 -15 42 0 52 -17
39 -68 -17 -65 -103 -97 -117 -42 -6 24 23 142 46 187 29 56 89 71 95 25z"/>
<path d="M1931 1342 c-74 -37 -90 -137 -28 -172 24 -13 31 -13 72 1 38 14 46
14 56 3 15 -18 43 -18 59 1 17 20 5 32 -15 15 -12 -10 -16 -9 -21 5 -4 10 -2
25 5 34 21 30 42 83 38 99 -2 11 -11 1 -24 -28 -20 -41 -21 -43 -22 -17 -1 32
-41 77 -68 77 -10 0 -33 -8 -52 -18z m68 -16 c6 -8 14 -36 17 -63 6 -47 5 -49
-28 -67 -63 -34 -97 -8 -79 60 18 67 63 102 90 70z"/>
<path d="M5774 1239 c-23 -12 -59 -67 -50 -76 3 -3 17 6 30 20 42 46 89 30
106 -35 9 -33 8 -53 -6 -104 -9 -36 -14 -67 -11 -71 12 -11 19 4 34 68 8 34
27 91 44 127 33 73 33 72 19 72 -6 0 -21 -24 -34 -52 l-23 -53 -6 36 c-8 41
-40 79 -65 78 -9 0 -26 -5 -38 -10z"/>
<path d="M1560 2107 c-74 -25 -107 -134 -54 -176 15 -12 37 -21 50 -21 36 0
74 21 74 42 0 15 -3 17 -19 8 -26 -14 -64 -13 -79 2 -16 16 -15 43 3 78 18 34
56 47 91 31 20 -9 26 -8 31 5 12 31 -43 49 -97 31z"/>
<path d="M7082 722 c-39 -12 -93 -63 -113 -106 -54 -119 23 -222 140 -188 25
8 41 19 44 33 4 16 2 19 -11 13 -9 -4 -36 -9 -59 -12 -55 -5 -83 21 -83 79 0
103 94 180 170 139 14 -7 20 -6 24 7 4 9 3 20 -2 25 -13 13 -81 19 -110 10z"/>
<path d="M525 583 c-96 -165 -91 -153 -66 -153 13 0 28 14 42 40 22 39 23 40
81 40 l58 0 6 -40 c6 -34 10 -40 31 -40 21 0 24 3 19 28 -3 15 -12 70 -21 122
-23 140 -23 140 -48 140 -18 0 -37 -26 -102 -137z m104 -15 c1 -26 -2 -28 -39
-28 -22 0 -40 3 -40 6 0 3 15 32 33 64 l32 59 7 -37 c4 -20 7 -49 7 -64z"/>
<path d="M3770 715 c0 -2 -13 -66 -30 -142 -16 -75 -30 -138 -30 -140 0 -2 12
-3 28 -3 15 0 42 -2 59 -6 66 -13 133 97 101 164 -12 24 -19 27 -61 26 l-48 0
7 30 c3 17 8 41 11 54 4 17 1 22 -16 22 -12 0 -21 -2 -21 -5z m77 -133 c24
-15 20 -71 -7 -100 -21 -23 -64 -30 -75 -12 -3 5 -1 29 5 52 15 57 45 80 77
60z"/>
</g>
</svg>
