<?xml version="1.0" standalone="no"?>
<!DOCTYPE svg PUBLIC "-//W3C//DTD SVG 20010904//EN"
 "http://www.w3.org/TR/2001/REC-SVG-20010904/DTD/svg10.dtd">
<svg version="1.0" xmlns="http://www.w3.org/2000/svg"
 width="692.000000pt" height="329.000000pt" viewBox="0 0 692.000000 329.000000"
 preserveAspectRatio="xMidYMid meet">
<metadata>
Created by potrace 1.16, written by Peter Selinger 2001-2019
</metadata>
<g transform="translate(0.000000,329.000000) scale(0.100000,-0.100000)"
fill="#000000" stroke="none">
<path d="M2398 2848 c-9 -7 -18 -31 -20 -53 -3 -37 -80 -132 -923 -1137 -866
-1033 -922 -1097 -952 -1098 -46 0 -73 -61 -39 -89 19 -16 5963 -16 5982 0 18
15 18 63 0 78 -7 6 -33 10 -57 9 -42 -2 -145 56 -1969 1110 -1675 968 -1926
1116 -1932 1140 -13 46 -57 66 -90 40z m1787 -1068 c919 -530 1676 -969 1684
-975 11 -11 9 -23 -13 -78 -14 -35 -28 -90 -32 -121 l-7 -56 -2358 0 c-1298 0
-2359 3 -2359 8 0 4 -7 38 -15 75 -20 93 -73 201 -135 270 l-52 57 259 309
c1115 1331 1248 1488 1265 1483 9 -2 25 1 35 6 13 8 24 7 38 -2 11 -7 772
-446 1690 -976z"/>
</g>
</svg>
